<?xml version="1.0" encoding="UTF-8"?>
<svg id="Layer_1" data-name="Layer 1" xmlns="http://www.w3.org/2000/svg" viewBox="0 0 800 800">
  <defs>
    <style>
      .cls-1 {
        fill: #fff;
      }
    </style>
  </defs>
  <g>
    <path class="cls-1" d="M268.25,416.94h-121.82c-8.8,0-15.94,7.14-15.94,15.94v98.43c0,8.8,7.14,15.94,15.94,15.94h114.89c.12,0,.24,0,.36,0,26.78-.6,58.7-12.1,58.7-63.45s-32.69-66.7-52.13-66.85ZM261.13,515.37h-98.77v-66.55h105.76c4.78.06,20.37,2.77,20.37,34.97,0,26.25-8.82,31.14-27.37,31.58Z"/>
    <path class="cls-1" d="M664.04,365.23c-12.77-12.84-30.35-19.35-52.26-19.35-37.61,0-66.78,20.67-80.02,56.72-1.8,4.89-1.09,10.35,1.89,14.62,2.98,4.27,7.86,6.82,13.07,6.82h121.56c4.76,0,9.27-2.13,12.3-5.8,3.03-3.67,4.25-8.51,3.34-13.19-2.2-11.25-7.43-27.3-19.88-39.82ZM574.56,392.17c9.26-9.58,21.71-14.41,37.22-14.41,13.11,0,23.09,3.35,29.65,9.95,1.38,1.38,2.6,2.89,3.69,4.46h-70.56Z"/>
    <path class="cls-1" d="M146.43,352.95h113.43c8.08,0,20.3,0,30.4-9.83,9.6-9.34,14.08-24.79,14.08-48.62,0-48.58-32.07-51.36-35.72-51.51-.23,0-.45-.01-.68-.01h-121.5c-8.8,0-15.94,7.14-15.94,15.94v78.1c0,8.8,7.14,15.94,15.94,15.94ZM162.37,274.85h104.73c1.85.61,5.36,5.97,5.36,19.65,0,20.87-3.98,25.34-4.43,25.78-.82.8-5.42.8-8.17.8h-97.49v-46.23h0Z"/>
    <path class="cls-1" d="M751.99,310.56c-33.21-37.81-80.99-56.98-142.02-56.98-106.04,0-156.62,56.67-180.38,104.22-5.51,11.03-9.82,22-13.18,32.48-2.95-4.16-6.14-8.05-9.56-11.66-2.91-3.08-5.98-5.95-9.2-8.6,15.7-16.74,29.32-42.77,29.32-82.68,0-47.35-16.48-86.66-47.66-113.68-28.19-24.43-66.62-37.35-111.12-37.35H28.33c-15.62,0-28.33,12.71-28.33,28.33v460.98c0,15.62,12.71,28.33,28.33,28.33h239.54c.41,0,1.06.02,1.93.02,11.49,0,52.03-1.56,91.27-21.64,22.93-11.73,49.87-32.24,66.42-67.45,7.61,14.92,17.01,28.4,28.14,40.33,36.03,38.6,87.73,58.25,153.66,58.39,1.16.05,3.58.13,7,.13,16.61,0,59.5-2.02,98.85-20.69,53.66-25.46,80.87-68.2,80.87-127.03,0-5.59-1.63-10.8-4.43-15.2,3.68-4.12,6.18-9.34,6.94-15.14.57-4.34,13.17-107.09-46.52-175.08ZM767.25,478.43h-222.65c-4.55,0-8.88,1.94-11.9,5.34s-4.45,7.93-3.92,12.44c3.02,25.9,15.02,45.78,34.7,57.49,18.43,10.96,38.56,12.14,46.36,12.14,1.59,0,2.62-.05,2.95-.07,28.53-.02,50.54-7.14,63.66-20.6,10.19-10.45,12.87-20.22,13.51-25.65h74.15c-1.03,44.2-21.55,75.19-62.62,94.68-33.5,15.9-70.74,17.62-85.2,17.62-3.26,0-5.3-.09-5.85-.11-.25-.01-.5-.02-.75-.02-56.93-.06-100.91-16.29-130.75-48.26-18.28-19.58-30.96-44.56-37.7-74.24-1.65-7.29-8.13-12.41-15.53-12.41-.27,0-.55,0-.83.02-7.74.4-14.07,6.3-15,14-5.21,42.97-26.51,74.3-63.32,93.12-32.9,16.83-67.06,18.14-76.75,18.14-.65,0-1.1,0-1.32-.01-.14,0-.28,0-.42,0H31.88V168.17h236.3c36.73,0,67.93,10.22,90.25,29.56,23.98,20.79,36.66,51.77,36.66,89.6,0,32.6-11.06,56.56-32.88,71.21-4.74,3.18-7.42,8.66-7.02,14.35.4,5.69,3.82,10.74,8.96,13.23,7.26,3.51,13.84,8.36,19.55,14.4,10.3,10.89,17.9,25.76,22.58,44.22,1.89,7.45,8.84,12.49,16.5,11.98,7.67-.51,13.89-6.43,14.78-14.06,2.04-17.52,7.25-44,20.55-70.61,19.74-39.5,62.12-86.59,151.87-86.59,51.46,0,91.18,15.53,118.07,46.14,45.68,52.02,40.85,130.14,39.22,146.84ZM658.77,510.31c-.37,1.88-.55,3.81-.53,5.77-.22.77-1.16,3.3-4.62,6.85-6.8,6.97-21.72,10.98-40.95,10.98-.55,0-1.2.02-1.68.05-.17,0-.58.02-1.17.02-2.87,0-17.8-.37-30.07-7.66-6.42-3.82-11.24-9.11-14.53-16h93.54Z"/>
  </g>
  <path class="cls-1" d="M700.98,136.78h-190.2c-15.62,0-28.33,11.95-28.33,26.63v48.98c0,14.68,12.71,26.63,28.33,26.63h190.2c15.62,0,28.33-11.95,28.33-26.63v-48.99c0-14.68-12.7-26.63-28.33-26.63ZM697.43,207.16h-183.11v-38.5h183.11v38.5h0Z"/>
  <path class="cls-1" d="M63.75,492.44c-8.8,0-15.94,7.14-15.94,15.94v79.69c0,8.8,7.14,15.94,15.94,15.94s15.94-7.14,15.94-15.94v-79.69c0-8.8-7.14-15.94-15.94-15.94Z"/>
  <path class="cls-1" d="M63.75,435.06c-8.8,0-15.94,7.13-15.94,15.94v7.97c0,8.8,7.14,15.94,15.94,15.94s15.94-7.14,15.94-15.94v-7.97c0-8.8-7.14-15.94-15.94-15.94Z"/>
</svg>