<?xml version="1.0" encoding="UTF-8"?>
<svg id="Layer_1" data-name="Layer 1" xmlns="http://www.w3.org/2000/svg" xmlns:xlink="http://www.w3.org/1999/xlink" viewBox="0 0 566.93 557.77">
  <defs>
    <style>
      .cls-1 {
        fill: url(#linear-gradient-2);
      }

      .cls-2 {
        fill: url(#linear-gradient-4);
      }

      .cls-3 {
        stroke-width: .6px;
      }

      .cls-3, .cls-4, .cls-5, .cls-6 {
        stroke-miterlimit: 10;
      }

      .cls-3, .cls-6 {
        fill: none;
        stroke: #d1a32a;
      }

      .cls-7 {
        fill: #3e1c11;
      }

      .cls-8 {
        fill: url(#linear-gradient-5);
      }

      .cls-9 {
        fill: url(#linear-gradient-8);
      }

      .cls-4 {
        fill: url(#linear-gradient-3);
        stroke: #704c33;
        stroke-width: 1.91px;
      }

      .cls-10 {
        fill: url(#linear-gradient-7);
      }

      .cls-11 {
        fill: url(#linear-gradient-6);
      }

      .cls-12 {
        fill: #3f1a0c;
      }

      .cls-13 {
        fill: #825630;
      }

      .cls-5 {
        fill: url(#linear-gradient);
        stroke: #3e1c11;
        stroke-width: .96px;
      }

      .cls-14 {
        fill: #3d1c10;
      }

      .cls-6 {
        stroke-width: .59px;
      }

      .cls-15 {
        fill: #a06d3a;
      }
    </style>
    <linearGradient id="linear-gradient" x1="177.06" y1="292.96" x2="453.45" y2="284.05" gradientUnits="userSpaceOnUse">
      <stop offset="0" stop-color="#fad581"/>
      <stop offset="1" stop-color="#b0875d"/>
    </linearGradient>
    <linearGradient id="linear-gradient-2" x1="208.43" y1="285.76" x2="415.86" y2="285.76" gradientUnits="userSpaceOnUse">
      <stop offset="0" stop-color="#ecc37e"/>
      <stop offset="1" stop-color="#bd9063"/>
    </linearGradient>
    <linearGradient id="linear-gradient-3" x1="240.41" y1="213.97" x2="241.04" y2="365.54" gradientUnits="userSpaceOnUse">
      <stop offset=".02" stop-color="#996b4c"/>
      <stop offset=".09" stop-color="#895e3f"/>
      <stop offset=".3" stop-color="#614021"/>
      <stop offset=".47" stop-color="#492d0e"/>
      <stop offset=".58" stop-color="#402607"/>
      <stop offset=".64" stop-color="#442a0c"/>
      <stop offset=".71" stop-color="#51391a"/>
      <stop offset=".79" stop-color="#675132"/>
      <stop offset=".87" stop-color="#867254"/>
      <stop offset=".95" stop-color="#ac9c7f"/>
      <stop offset="1" stop-color="#c7b99c"/>
    </linearGradient>
    <linearGradient id="linear-gradient-4" x1="346.8" y1="189.3" x2="349.98" y2="388" gradientUnits="userSpaceOnUse">
      <stop offset=".35" stop-color="#f9d080"/>
      <stop offset=".69" stop-color="#7c532f"/>
    </linearGradient>
    <linearGradient id="linear-gradient-5" x1="285.25" y1="190.29" x2="288.44" y2="388.98" xlink:href="#linear-gradient-4"/>
    <linearGradient id="linear-gradient-6" x1="293.99" y1="190.15" x2="297.18" y2="388.84" xlink:href="#linear-gradient-4"/>
    <linearGradient id="linear-gradient-7" x1="386.82" y1="350.3" x2="233.34" y2="221.66" xlink:href="#linear-gradient"/>
    <linearGradient id="linear-gradient-8" x1="446.93" y1="234.1" x2="177.55" y2="340.61" xlink:href="#linear-gradient"/>
  </defs>
  <g>
    <g>
      <path class="cls-15" d="M485.98,555.5c-3.21,0-6.65-.92-9.89-2.79L8.82,305.02l-.03-.02c-.36-.2-8.79-5.12-8.79-16.82v-.19c.59-7.58,6.14-13.25,16.04-16.38,6.72-2.12,13.2-2.38,14.02-2.41l272.67-22.2c-1.33-13.22-2.4-29.49-2.34-47.27.09-26.56,2.65-51.26,7.61-73.41,6.23-27.79,16.27-51.64,29.86-70.89,17.07-24.18,40.33-41.31,67.27-49.54,23.26-7.1,48.41-6.98,69,.35,26.27,9.34,41.04,28.29,39.54,50.69-.03,17.7-8.55,37.19-24.64,56.38-11.89,14.17-23.6,23.16-24.44,23.8l-140.3,113.06-16.16,1.32c1.69,15.2,3.6,25.42,4.05,27.75l183.39,256.49c4,5.76,4.11,11.64.31,15.76-2.45,2.66-6.01,4.02-9.9,4.02ZM11.19,300.73l467.26,247.69.04.02c5.79,3.35,11.31,2.39,13.78-.28,2.16-2.35,1.9-5.85-.72-9.62l-183.98-257.31-.1-.51c-.04-.2-2.28-11.27-4.23-28.84l-272.92,22.22h-.07c-.24,0-24.21.75-25.35,14.17.04,8.49,5.79,12.15,6.3,12.45ZM440.05,5.55c-11.1,0-22.51,1.68-33.49,5.03-25.89,7.91-48.26,24.39-64.7,47.68-13.21,18.72-23,41.98-29.08,69.14-4.89,21.81-7.41,46.15-7.5,72.36-.06,17.65,1.01,33.78,2.32,46.86l14.78-1.2,139.21-112.18c.47-.36,47.17-36.18,47.17-76.38v-.17c1.39-20.12-12.17-37.25-36.28-45.82-9.94-3.54-21.02-5.31-32.43-5.31Z"/>
      <path class="cls-15" d="M503.23,530.86c-2.7,0-5.58-.63-8.39-1.94L22.37,329.06h-.03c-.37-.18-8.96-4.23-10.03-15.51v-.19c-.14-7.39,4.7-13.32,13.99-17.16,6.28-2.59,12.5-3.38,13.29-3.47l260.32-43.67c-2.48-12.59-5-28.11-6.57-45.16-2.35-25.55-2.14-49.52.6-71.23,3.45-27.25,10.94-51.02,22.26-70.65,14.16-24.55,34.88-42.9,59.93-53.06C397.76.19,421.91-1.85,442.39,3.35c12.46,3.16,23.02,8.84,30.56,16.42,8.04,8.09,12.46,18.21,12.77,29.28,1.6,17.04-4.83,36.51-18.58,56.29-10.15,14.6-20.61,24.22-21.36,24.91l-124.71,120.22-15.36,2.58c3.01,14.39,5.76,24.01,6.41,26.22l200.02,231.58c4.4,5.24,5.04,10.93,1.73,15.24-2.4,3.13-6.3,4.77-10.66,4.77ZM24.35,324.58l472.48,199.86.04.02c5.84,2.73,11.02,1.38,13.13-1.36,1.84-2.39,1.26-5.7-1.58-9.08l-200.68-232.34-.15-.49c-.06-.19-3.22-10.63-6.7-27.33l-260.62,43.72h-.07c-.23.03-23.13,2.7-23.01,15.6.82,8.19,6.77,11.21,7.16,11.4ZM418.88,5.42c-13.57,0-27.71,2.74-40.9,8.08-24.02,9.74-43.92,27.37-57.53,50.97-10.99,19.06-18.27,42.19-21.64,68.76-2.71,21.35-2.91,44.94-.6,70.12,1.56,16.98,4.06,32.41,6.53,44.9l14.03-2.35,123.7-119.25c.42-.38,42.05-38.62,38.37-77.22v-.17c-.52-19.61-15.34-35-39.65-41.17-7.07-1.79-14.6-2.68-22.31-2.68Z"/>
      <path class="cls-15" d="M340.31,448.5c-10.21,0-12.96-14.27-13.19-15.61l-32.09-140.97c-6.94,1.39-15.38,2.79-24.65,3.72-41.5,4.17-67.43-4.03-81.89-11.65-14.71-7.75-25.96-19.26-32.52-33.26-5.69-12.14-7.45-25.7-4.83-37.2,3.34-14.64,12.9-23.68,25.59-24.18,23.48-2.37,46.73,20.23,48.06,21.55l72.17,67.55,1.76,7.71c7.12-1.56,11.97-2.94,13.47-3.38l125.75-110.7c3.91-3.34,7.73-2.73,10.02-1.04,3.28,2.42,4.25,7.18,2.37,11.6l-100.08,259.57c-.1.23-2.41,5.55-9.43,6.28h-.18c-.11.02-.22.02-.33.02ZM299.81,290.91l32.1,141.02v.07c.03.11,2.15,11.61,8.43,11.61.02,0,.04,0,.07,0,3.82-.44,5.18-2.98,5.34-3.31l100.06-259.52.02-.04c1.12-2.6.47-4.88-.76-5.79-1.4-1.03-3.06.06-3.92.8l-126.52,111.37-.5.15c-.1.03-5.52,1.7-14.32,3.63ZM180.22,194.05c-1.02,0-2.04.05-3.06.16h-.16c-10.38.39-18.27,8.02-21.09,20.4-6.24,27.36,12.82,53.44,34.87,65.06,13.84,7.3,38.79,15.15,79.02,11.12,9.08-.91,17.35-2.27,24.15-3.63l-1.4-6.17-71.15-66.61c-.22-.21-20.75-20.33-41.16-20.33Z"/>
      <path class="cls-15" d="M533.81,480.97c-1.63,0-3.39-.23-5.27-.73L57.38,369.92h-.03c-.37-.11-9.04-2.5-12.19-12.69l-.05-.18c-1.09-4.77-.3-11.79,9.67-18.13,5.27-3.35,10.83-5.03,11.57-5.24l229.83-79.86c-4.67-11.1-9.91-24.84-14.59-40.11-7.06-23.03-11.47-45-13.12-65.31-2.07-25.49.24-48.43,6.85-68.17C293.03,27.39,340.42,5.12,376.94,6.78c26.84,1.22,46.55,14.78,51.47,35.4,4.74,15.39,2.59,34.24-6.24,54.51-6.5,14.93-14.24,25.35-14.82,26.13l-91.24,129.25-13.38,4.65c5.46,12.56,9.78,20.85,10.8,22.78l227.66,181.19c6.05,4.95,6.26,10.47,4.44,14-1.73,3.36-5.95,6.27-11.81,6.27ZM58.57,365.17l471.17,110.32h.04c5.71,1.57,10.1-.34,11.48-3.03,1.24-2.4.08-5.3-3.16-7.95l-228.41-181.8-.24-.44c-.09-.16-4.98-9.21-11.37-23.94l-230.28,80.02-.07.02c-.2.06-20.42,5.95-17.89,17.5,2.32,7.33,8.31,9.18,8.72,9.3ZM373.09,11.59c-34.2,0-76.81,21.5-93.13,70.2-14.54,43.37-4.6,94.9,6.3,130.49,4.67,15.24,9.9,28.93,14.54,39.94l12.22-4.25,90.4-128.06c.31-.41,31.03-41.7,20.29-76.36l-.04-.16c-4.37-18.44-22.36-30.6-46.95-31.72-1.2-.05-2.41-.08-3.63-.08Z"/>
      <path class="cls-15" d="M539.62,451.34c-1.07,0-2.2-.09-3.38-.29l-460.3-60.88h-.03c-.36-.06-8.92-1.54-12.9-10.98l-.07-.17c-1.5-4.47-1.39-11.27,7.6-18.26,4.73-3.68,9.89-5.8,10.59-6.08l212.07-97.31c-5.47-10.1-11.73-22.64-17.59-36.67-8.87-21.24-15.12-41.72-18.57-60.87-4.33-24.05-4.25-46.08.25-65.48,12.06-51.97,55.35-77.58,90.46-79.38,25.76-1.32,45.85,9.76,52.47,28.91,5.96,14.22,5.65,32.36-.92,52.47-4.83,14.8-11.26,25.43-11.76,26.24l-75.24,131.39-12.28,5.63c6.32,11.32,11.17,18.74,12.34,20.51l234.2,150.96c6.27,4.16,7,9.44,5.59,13-1.48,3.74-5.92,7.24-12.54,7.24ZM76.66,385.32l460.3,60.88h.04c5.57.95,9.54-1.25,10.59-3.91.92-2.33-.43-4.92-3.72-7.1l-235.02-151.49-.28-.41c-.1-.14-5.59-8.26-13.03-21.62l-212.52,97.51-.07.03c-.19.07-18.86,7.52-15.42,18.16,2.84,6.62,8.59,7.86,9.11,7.95ZM351.83,19.76c-1.26,0-2.54.03-3.84.1-33.33,1.71-74.45,26.1-85.94,75.6-5.45,23.47-6.74,63.91,18.03,123.27,5.86,14.04,12.12,26.56,17.57,36.6l11.18-5.13,74.52-130.13c.26-.42,25.76-42.48,12.32-74.36l-.06-.16c-5.53-16.11-22.12-25.79-43.78-25.79Z"/>
      <path class="cls-15" d="M546.06,429.74c-.59,0-1.2-.03-1.81-.08l-451.07-26.09h-.03c-.36-.03-8.78-.85-13.49-9.75l-.08-.17c-1.86-4.26-2.38-10.9,5.73-18.38,4.25-3.92,9.06-6.36,9.73-6.69l196.34-109.77c-6.21-9.41-13.39-21.13-20.32-34.32-10.52-20.01-18.42-39.47-23.5-57.84-6.38-23.07-8.3-44.5-5.7-63.68,3.14-23.16,13.25-43.49,29.25-58.79,13.99-13.38,31.7-22.19,49.87-24.8,25.46-3.66,46.44,5.6,54.77,24.16,16.91,32.04-3.98,75.16-5.13,77.47l-60.91,133.16-11.31,6.33c7.13,10.53,12.48,17.37,13.78,18.99l240.4,129.9c6.54,3.64,7.67,8.8,6.55,12.41-1.5,4.82-6.73,7.93-13.04,7.93ZM93.54,398.68l451.08,26.09h.04c5.35.51,8.96-1.84,9.76-4.42.72-2.3-.86-4.8-4.23-6.67l-241.24-130.35-.31-.38c-.11-.13-6.15-7.62-14.56-20.06l-196.8,110.03-.07.03c-.17.08-17.48,8.62-13.21,18.65,3.38,6.29,9.13,7.03,9.52,7.07ZM331.66,23.49c-3.23,0-6.57.24-10,.73-17.17,2.47-33.92,10.81-47.19,23.49-15.19,14.53-24.8,33.86-27.78,55.91-3.14,23.21-.72,62.63,28.69,118.59,6.93,13.19,14.1,24.86,20.27,34.21l10.26-5.74,60.29-131.81c.21-.43,21.06-43.11,5.17-73.11l-.07-.15c-6.29-14.08-21.03-22.12-39.63-22.12Z"/>
      <path class="cls-15" d="M117.23,420.88c-.72,0-8.65-.19-13.99-8.15l-.1-.15c-2.24-3.95-3.44-10.35,3.58-18.39,3.67-4.2,8.03-7.02,8.65-7.42l176.75-124.86c-6.94-8.5-15.05-19.12-23.08-31.19-12.2-18.34-21.84-36.39-28.65-53.67-8.56-21.7-12.65-42.23-12.18-61.03.57-22.61,8.08-43.17,21.73-59.48,11.94-14.27,27.93-24.52,45.04-28.88,24.27-6.18,45.57.72,55.61,18.02,19.61,29.37,4.1,73.08,3.24,75.43l-44.43,134.58-10.15,7.17c7.92,9.45,13.75,15.53,15.17,16.99l244.34,102.55c6.75,2.93,8.34,7.87,7.59,11.52-1.08,5.25-6.63,8.94-13.51,8.99l-435.56,17.98h-.03s-.02,0-.04,0ZM107.36,410.08c3.84,5.67,9.32,5.89,9.83,5.9l435.56-17.98h.04c5.09-.03,8.27-2.58,8.78-5.08.47-2.29-1.3-4.55-4.72-6.04l-245.21-102.91-.34-.34c-.12-.12-6.69-6.76-16.04-17.95l-177.17,125.16-.06.04c-.16.1-15.79,9.96-10.66,19.19ZM311.93,30.33c-5,0-10.28.68-15.74,2.07-16.12,4.1-31.21,13.79-42.49,27.27-12.93,15.45-20.05,34.97-20.59,56.46-.57,22.74,5.91,60.6,40.01,111.86,8.02,12.06,16.11,22.64,23.01,31.07l9.13-6.45,43.96-133.16c.16-.43,15.66-43.66-2.74-71.12l-.09-.14c-6.68-11.57-19.24-17.86-34.47-17.86Z"/>
      <path class="cls-15" d="M138.65,428.34c-2.07,0-8.48-.54-13.58-6.79l-.11-.14c-2.55-3.63-4.32-9.68,1.69-17.91,3.12-4.27,7.03-7.28,7.61-7.72l157.11-131.42c-7.45-7.59-16.21-17.1-25.02-27.98-21.18-26.14-47.07-65.81-50.13-106.35-3.51-46.39,24.59-77.9,54-88.54,10.92-3.95,21.87-5.01,31.66-3.07,10.44,2.07,19.06,7.51,24.93,15.71,21.61,26.58,10.96,69.34,10.36,71.68l-29.62,131.4-8.95,7.48c8.45,8.39,14.58,13.73,16.08,15.02l243.81,80.21c6.88,2.36,8.83,7.06,8.38,10.68-.64,5.06-5.65,8.96-12.19,9.5l-415.32,48.22h-.03c-.05,0-.29.03-.67.03ZM128.93,418.53c4.21,5.11,9.46,4.94,9.95,4.91l415.32-48.22h.04c4.71-.38,7.48-2.92,7.77-5.24.28-2.21-1.62-4.24-5.08-5.42l-244.69-80.5-.36-.3c-.12-.1-7.04-5.95-17.06-15.91l-157.54,131.78-.06.05c-.14.1-14.03,10.52-8.3,18.86ZM292.07,42.32c-6.37,0-13.19,1.24-20.19,3.77-27.66,10.01-54.09,39.74-50.78,83.57,1.64,21.67,11.47,57.22,49,103.57,8.84,10.92,17.62,20.43,25.04,27.98l8-6.69,29.28-129.9c.11-.42,10.78-42.64-9.46-67.45l-.1-.13c-6.88-9.65-17.9-14.72-30.79-14.72Z"/>
      <path class="cls-15" d="M519.19,507.03c-2.2,0-4.53-.4-6.85-1.24L36.21,351.96h-.03c-.37-.14-9.08-3.35-11.21-14.14l-.03-.19c-.59-4.99,1.01-12.12,11.97-17.77,5.83-3.01,11.77-4.27,12.55-4.43l247.47-63.16c-3.6-11.89-7.51-26.58-10.65-42.81-4.72-24.4-6.82-47.47-6.25-68.59.72-26.51,5.69-50,14.77-69.82,11.27-24.61,29.4-43.89,52.44-55.73,19.87-10.22,42.9-14.3,63.17-11.19,12.57,1.93,23.55,6.49,31.74,13.2,8.75,7.17,14.1,16.65,15.48,27.42,3.18,16.29-1.17,35.56-12.59,55.74-8.41,14.87-17.6,24.97-18.29,25.72l-109.12,125.83-14.52,3.71c4.27,13.51,7.83,22.49,8.67,24.58l215.65,206.5c4.79,4.71,5.95,10.17,3.13,14.63-2.28,3.61-6.53,5.57-11.39,5.57ZM37.79,347.33l476.14,153.83.04.02c5.87,2.14,10.72.45,12.47-2.33,1.52-2.41.64-5.51-2.4-8.5l-216.37-207.19-.2-.47c-.07-.17-4.13-9.95-9.1-25.72l-247.84,63.26h-.07c-.22.06-22.01,4.47-20.67,16.75,1.58,7.77,7.59,10.2,8,10.35ZM396.7,8.01c-15.76,0-32.39,4.05-47.22,11.67-22.05,11.34-39.42,29.81-50.23,53.41-8.8,19.22-13.62,42.08-14.33,67.92-.57,20.76,1.51,43.48,6.16,67.53,3.13,16.16,7.02,30.75,10.59,42.53l13.27-3.39,108.19-124.76c.37-.4,36.92-40.53,29.68-77.31l-.03-.17c-2.41-19.08-18.52-32.71-43.11-36.48-4.22-.65-8.56-.96-12.97-.96Z"/>
      <path class="cls-15" d="M156.99,439.41c-2.74,0-7.89-.72-12.55-5.38l-.12-.13c-2.84-3.29-5.17-8.99-.16-17.51,2.59-4.4,6.08-7.67,6.61-8.15l138.75-140.81c-7.95-6.63-17.34-14.99-26.93-24.66-14.66-14.78-26.91-29.71-36.42-44.36-11.95-18.41-19.58-36.47-22.68-53.65-7.96-44.1,15.81-77.02,42.91-90.08,10.25-4.94,20.83-7.05,30.62-6.11,10.43,1.01,19.4,5.48,25.96,12.93,23.56,23.69,17.54,65.89,17.18,68.22l-15.54,129.37-7.86,7.98c8.96,7.28,15.4,11.86,16.98,12.97l243.76,55.27c6.96,1.67,9.31,6.08,9.2,9.66-.16,4.95-4.64,9.17-10.92,10.28l-396.82,84.04h-.03c-.09.02-.81.15-1.95.15ZM147.97,430.63c4.62,4.58,9.7,3.88,10.06,3.83l396.82-84.04h.04c4.45-.78,6.84-3.42,6.91-5.63.07-2.14-1.96-3.91-5.42-4.74l-244.65-55.47-.39-.26c-.13-.09-7.38-5.08-18.04-13.77l-139.15,141.23-.06.05c-.12.11-12.45,11.34-6.13,18.81ZM272.38,53.23c-7.71,0-15.88,1.99-23.87,5.84-25.43,12.26-47.72,43.24-40.22,84.8,3.74,20.73,16.79,54.1,57.69,95.37,9.62,9.71,19.05,18.08,26.97,24.68l6.99-7.1,15.35-127.83c.06-.42,6.16-42.04-15.86-64.11l-.11-.12c-5.73-6.53-13.61-10.45-22.81-11.34-1.37-.13-2.75-.2-4.15-.2Z"/>
      <path class="cls-15" d="M176.48,448.3c-2.82,0-7.12-.73-11.32-4.31l-.13-.12c-3.03-2.98-5.79-8.36-1.71-17.07,2.1-4.5,5.17-7.96,5.65-8.48l120.99-148.09c-8.23-5.82-18.01-13.2-28.1-21.85-24.3-20.83-55.42-53.48-65.62-90.71-11.64-42.47,8.46-76.46,33.55-91.31,9.42-5.57,19.41-8.44,28.89-8.27,10.1.18,19.12,3.82,26.08,10.53,10.37,8.86,17.57,22.95,20.81,40.73,2.38,13.03,1.85,23.45,1.8,24.32l-3.44,127.19-6.84,8.37c9.24,6.35,15.82,10.28,17.46,11.24l239.55,34.38c6.93,1.08,9.58,5.24,9.76,8.78.25,4.83-3.73,9.3-9.67,10.89l-374.5,113.42h-.03c-.12.04-1.33.36-3.18.36ZM168.4,440.32c4.82,4.06,9.59,3,9.95,2.91l374.5-113.42h.04c4.32-1.15,6.18-3.88,6.08-5.93-.11-2.09-2.2-3.65-5.6-4.18l-240.46-34.51-.41-.23c-.13-.08-7.53-4.34-18.53-11.92l-121.32,148.49-.05.06c-.11.12-10.93,11.99-4.21,18.73ZM257.83,62.93c-8.14,0-16.92,2.54-25.55,7.65-23.48,13.9-42.28,45.82-31.32,85.8,9.88,36.04,40.3,67.9,64.09,88.29,10.08,8.64,19.84,15.99,28.01,21.76l6.02-7.37,3.4-125.64c.02-.41,2.19-41.41-20.96-61.12l-.12-.1c-6.37-6.17-14.58-9.27-23.57-9.27Z"/>
      <path class="cls-15" d="M200.5,450.75c-2.65,0-6.23-.66-9.94-3.28l-.14-.1c-8.62-7.04-3.08-19.31,1.1-24.87l99.55-151.19c-8.43-4.91-18.5-11.19-28.97-18.64-45.84-32.6-64.4-62.35-71.91-81.56-7.09-18.14-8.16-36.65-3.1-53.54,4.44-14.8,13.42-27.74,25.29-36.45,17.74-13.01,38.49-13.95,52.9-2.41,25.79,18.29,28.21,58.2,28.32,60.45l10.03,121.99-5.6,8.51c9.41,5.31,16.06,8.54,17.73,9.34l231.45,13.83c6.85.5,9.79,4.37,10.26,7.83.64,4.67-2.66,9.15-8.21,11.16l-344.42,138.29c-.14.05-1.82.65-4.34.65ZM193.45,443.52c4.92,3.44,9.38,2.09,9.68,1.99l344.38-138.28.04-.02c3.84-1.38,5.31-4.03,5.05-5.91-.28-2.02-2.42-3.37-5.74-3.61l-232.36-13.89-.42-.2c-.13-.06-7.58-3.54-18.78-9.88l-99.8,151.57-.05.06c-.09.12-9.08,12.26-2.02,18.14ZM241.9,75.45c-8.68,0-17.93,3.22-26.64,9.61-20.68,15.17-35.04,47.1-20.53,84.26,7.26,18.58,25.32,47.42,70.12,79.3,10.47,7.45,20.52,13.71,28.9,18.59l4.84-7.35-9.9-120.42c-.02-.4-2.25-39.77-26.32-56.78l-.12-.09c-5.91-4.76-12.93-7.12-20.35-7.12Z"/>
      <path class="cls-15" d="M221.19,452.56c-2.36,0-5.3-.53-8.47-2.34l-.14-.09c-8.97-5.99-4.85-18.19-1.38-23.87l80.34-152c-8.52-3.95-18.7-9.04-29.4-15.21-46.95-27.09-67.57-53.79-76.61-71.41-8.5-16.57-11.33-34.01-8.2-50.44,2.74-14.41,9.99-27.48,20.4-36.83,15.77-14.15,35.67-16.93,50.7-7.09,26.43,15.2,32.62,52.95,32.95,55.09l21.42,115.1-4.49,8.5c9.44,4.22,16.05,6.7,17.74,7.32l222.35-6.53c6.7-.11,9.89,3.4,10.65,6.72,1.01,4.42-1.74,8.98-6.85,11.36l-315.46,160.66h-.03c-.15.09-2.29,1.07-5.51,1.07ZM215.23,446.02c4.97,2.81,8.96,1.24,9.37,1.07l315.45-160.66.04-.02c3.43-1.59,4.57-4.14,4.18-5.85-.42-1.85-2.64-2.97-5.77-2.92l-223.25,6.56-.43-.15c-.13-.05-7.54-2.71-18.82-7.75l-80.55,152.4-.04.07c-.07.12-7.42,12.32-.18,17.26ZM228.75,92.36c-9.36,0-19.2,3.97-27.76,11.65-25,22.43-23.59,57.04-11.11,81.39,8.74,17.04,28.79,42.91,74.7,69.4,10.67,6.15,20.8,11.22,29.24,15.12l3.83-7.25-21.12-113.54c-.06-.37-6-37.55-30.61-51.65l-.13-.08c-5.15-3.39-11-5.05-17.05-5.05Z"/>
      <path class="cls-15" d="M238.21,456.05c-2.02,0-4.4-.39-6.98-1.55l-.15-.07c-9.32-4.97-6.4-17.12-3.53-22.92l64.23-153.14c-8.61-3.01-18.93-6.96-29.84-11.89-48.05-21.72-70.5-45.47-80.88-61.58-9.68-15.03-14.03-31.42-12.58-47.38,1.28-14,7-27.2,16.11-37.17,14.1-15.43,33.35-20.09,49.07-11.9,27.06,12.19,36.49,47.88,37.01,49.92l31.21,108.55-3.56,8.5c9.48,3.16,16.09,4.93,17.79,5.38l215.32-26.58c6.55-.73,9.99,2.4,11.03,5.57,1.37,4.18-.91,8.84-5.67,11.61l-291.8,183.03-.03.02c-.16.1-2.77,1.59-6.74,1.59ZM233.31,450.07c5.05,2.23,8.77.38,9.16.17l291.8-183.02.04-.02c3.14-1.81,4.02-4.31,3.51-5.87-.56-1.71-2.79-2.56-5.81-2.23l-216.2,26.69-.44-.11c-.13-.03-7.56-1.9-18.94-5.71l-64.42,153.59-.04.07c-.06.12-6.04,12.41,1.35,16.45ZM217.43,109.39c-10.17,0-20.7,4.96-29.22,14.28-8.4,9.18-13.67,21.37-14.85,34.31-1.36,14.87,2.73,30.18,11.82,44.29,10.01,15.54,31.79,38.51,78.7,59.73,10.92,4.94,21.24,8.88,29.8,11.86l3.03-7.22-30.77-107.02c-.09-.35-9.21-35.45-34.35-46.72l-.13-.07c-4.42-2.32-9.18-3.44-14.02-3.44Z"/>
      <path class="cls-15" d="M255.92,455.01c-1.69,0-3.61-.28-5.7-1.02l-.15-.06c-9.45-4.12-7.79-16.12-5.57-21.97l47.35-153.04c-8.57-2.27-18.88-5.32-29.85-9.27-48.34-17.43-72.21-38.75-83.73-53.57-10.82-13.91-16.56-29.55-16.6-45.21-.04-13.75,4.33-27.01,12.3-37.35,12.15-15.76,30.19-21.6,45.98-14.89,27.22,9.78,39.68,43.62,40.38,45.57l40.34,102.78-2.62,8.48c9.39,2.34,15.9,3.56,17.61,3.87l204.85-41.85c6.33-1.21,9.95,1.61,11.23,4.65,1.67,3.96-.12,8.66-4.45,11.69l-263.75,199.08c-.16.12-3.05,2.12-7.61,2.12ZM251.94,449.4c5.03,1.76,8.39-.27,8.74-.5l263.71-199.05.04-.03c2.77-1.93,3.38-4.36,2.78-5.8-.69-1.63-2.89-2.3-5.77-1.75l-205.72,42.03-.45-.08c-.13-.02-7.41-1.27-18.68-4.09l-47.47,153.42-.03.08c-.05.12-4.63,12.42,2.85,15.77ZM206.61,120.79c-10.42,0-20.94,5.54-28.78,15.71-19,24.64-11.53,56.21,4.29,76.57,11.11,14.29,34.26,34.91,81.45,51.94,10.94,3.95,21.21,6.99,29.72,9.23l2.19-7.07-39.76-101.3c-.12-.33-12.23-33.63-37.5-42.66l-.14-.05c-3.72-1.59-7.59-2.36-11.48-2.36Z"/>
      <path class="cls-15" d="M273.46,454.04c-1.3,0-2.74-.16-4.28-.57l-.16-.05c-9.49-3.19-8.95-14.9-7.32-20.73l32.07-150.74c-8.42-1.47-18.57-3.55-29.42-6.43-47.98-12.76-72.79-31.28-85.15-44.56-11.63-12.49-18.52-27.06-19.93-42.12-1.24-13.23,1.82-26.35,8.6-36.95,10.32-16.13,27.17-23.21,42.94-18.07,27.03,7.15,41.98,38.64,42.82,40.47l47.76,95.38-1.76,8.28c9.16,1.47,15.46,2.11,17.15,2.27l193.09-57.04c6.04-1.7,9.79.74,11.3,3.6,1.95,3.7.63,8.39-3.29,11.69l-235.92,212.84c-.16.14-3.29,2.74-8.49,2.74ZM270.5,448.75c4.92,1.26,7.94-.93,8.27-1.18l235.89-212.81.04-.03c2.45-2.04,2.82-4.37,2.14-5.68-.78-1.48-2.93-1.93-5.61-1.18l-193.95,57.29-.46-.04c-.13-.01-7.2-.61-18.22-2.37l-32.15,151.11-.02.08c-.03.12-3.33,12.23,4.07,14.81ZM200.54,137.06c-10.82,0-21.41,6.28-28.56,17.45-16.11,25.19-6.19,54.86,10.79,73.1,28.77,30.9,81.87,44.22,112.02,49.51l1.45-6.81-47.05-93.96c-.04-.08-3.71-7.98-10.49-16.58-6.16-7.81-16.23-17.84-29.21-21.26l-.14-.04c-2.9-.95-5.86-1.42-8.79-1.42Z"/>
      <path class="cls-15" d="M288.91,455.49c-.91,0-1.89-.08-2.92-.27l-.17-.04c-3.47-.89-7.82-3.62-8.87-11.54-.53-4.01.05-7.69.16-8.31l18.01-151.3c-8.1-.77-17.86-2.01-28.36-3.98-46.58-8.74-71.65-25.02-84.48-37.14-12.34-11.66-20.13-25.81-22.53-40.93-2.1-13.27.05-26.64,6.07-37.63,8.74-15.97,23.53-23.56,38.61-19.83,26.28,4.9,43.06,34.78,44.01,36.51l53.13,90.25-.99,8.32c8.67.69,14.65.81,16.31.83l178.37-71.78c5.55-2.15,9.35-.13,11.07,2.47,2.31,3.5,1.49,8.29-2.04,11.95l-206.18,228.92-.03.03c-.16.16-3.4,3.48-9.17,3.48ZM286.96,450.42c4.66.82,7.28-1.51,7.58-1.79l206.17-228.91.03-.03c2.2-2.27,2.32-4.63,1.5-5.87-.87-1.31-2.81-1.54-5.19-.62l-179.23,72.12h-.47c-.12,0-6.82-.02-17.35-.87l-18.04,151.6v.08c-.04.12-2.17,12.35,5,14.29ZM196.95,148.49c-10.57,0-20.47,6.57-26.84,18.21-10.41,19.02-9.65,48.87,15.53,72.65,12.34,11.66,36.58,27.35,81.94,35.87,10.43,1.96,20.11,3.18,28.12,3.94l.81-6.83-52.35-88.92c-.16-.29-16.47-29.63-40.69-34.09l-.15-.03c-2.13-.53-4.26-.79-6.36-.79Z"/>
      <path class="cls-15" d="M308.34,452.11c-.59,0-1.2-.03-1.84-.11l-.17-.03c-4.92-.91-8.31-4.57-9.8-10.58-.96-3.86-.82-7.48-.78-8.1l.31-148.48c-7.91-.21-17.49-.77-27.86-1.99-45.93-5.41-71.95-19.59-85.69-30.52-13.5-10.75-22.69-24.31-26.57-39.22-3.41-13.12-2.53-26.47,2.5-37.59,6.87-15.21,20.11-23.08,34.58-20.54,25.9,3.02,45.44,30.97,46.54,32.57l61.43,84.28-.02,8.21c8.42.1,14.19-.18,15.84-.27l163.99-81.67c5.18-2.49,9.09-.78,11.03,1.66,2.59,3.25,2.31,7.98-.71,11.8l-173.16,236.47c-.14.18-3.29,4.11-9.62,4.11ZM307.14,447.15c4.49.48,6.7-1.87,6.96-2.16l173.13-236.42.03-.04c1.82-2.29,1.66-4.58.74-5.73-.99-1.24-2.88-1.36-5.05-.31l-164.85,82.09-.49.03c-.12,0-6.51.43-16.66.31l-.32,148.54v.08c-.01.12-.7,12.2,6.5,13.62ZM187.78,159.39c-10.42,0-19.7,6.63-24.89,18.12-8.47,18.75-4.99,48.96,22.66,70.96,13.23,10.53,38.39,24.19,83.12,29.48,10.2,1.21,19.62,1.75,27.39,1.97v-6.53s-60.54-83.07-60.54-83.07c-.19-.28-19.26-27.77-43.15-30.51l-.15-.02c-1.5-.27-2.99-.4-4.45-.4Z"/>
      <path class="cls-15" d="M321.97,453.6c-.31,0-.62,0-.94-.03l-.17-.02c-11.02-1.45-11.81-16.66-11.86-18.08l-13.08-149.28c-7.65.23-16.94.22-27.05-.42-44.78-2.83-71.15-15.6-85.38-25.81-14.41-10.34-24.63-23.88-29.54-39.16-4.27-13.26-4.18-27.34.23-38.62,5.7-14.56,17.24-22.25,30.9-20.58,25.27,1.57,46.61,28.54,47.8,30.07l66.78,81.14.72,8.27c8.05-.36,13.54-.95,15.18-1.14l150.67-91.33c4.71-2.76,8.63-1.39,10.74.81,2.89,3.02,3.1,7.93.52,11.98l-145.61,247.4c-.13.2-3.1,4.78-9.91,4.78ZM321.41,448.69c4.3.22,6.17-2.26,6.32-2.47l145.59-247.37.03-.04c1.61-2.5,1.17-4.85.09-5.98-1.07-1.12-2.78-1.11-4.69,0l-151.53,91.85-.51.07c-.11.01-6.18.79-15.88,1.25l13.07,149.19v.08c0,.12.44,12.39,7.52,13.42ZM181.54,166.3c-10.01,0-18.4,6.43-22.81,17.68-10.47,26.77,5.96,56.49,27.6,72.02,32.87,23.58,81.73,26.06,109.14,25.29l-.57-6.51-65.88-80.06c-.21-.27-21.07-26.82-44.33-28.22h-.16c-1.02-.14-2.02-.2-3-.2Z"/>
      <path class="cls-15" d="M333.03,450.72h-.09c-10.74-.65-12.7-15.59-12.86-16.97l-24.26-146.01c-7.31.77-16.2,1.42-25.92,1.51-.78,0-1.57.01-2.34.01-41.84,0-67.46-10.47-81.67-19.35-31.67-19.79-41.06-52.87-33.98-75.32,4.49-14.22,14.91-22.32,27.89-21.67.12,0,.24,0,.36,0,24.28,0,46.67,24.8,47.94,26.23l70.44,75.13,1.34,8.06c7.59-.92,12.76-1.88,14.35-2.19l137.37-100.62c4.27-3.04,8.16-2.04,10.38-.1,3.14,2.74,3.78,7.61,1.58,11.87l-120.29,253.92c-.11.22-2.86,5.42-10.15,5.51h-.09ZM300.69,287.18l24.25,145.9v.07c.02.12,1.5,12.15,8.21,12.66,4-.09,5.58-2.53,5.77-2.85l120.26-253.87.02-.04c1.32-2.51.77-4.89-.44-5.95-1.09-.95-2.61-.81-4.3.38l-138.21,101.23-.52.11c-.11.02-5.83,1.21-15.05,2.35ZM178.41,177.78c-10.08,0-18.19,6.75-21.83,18.28-6.52,20.65,2.35,51.22,31.9,69.7,33.33,20.83,80.28,19.82,106.52,17.12l-1.05-6.34-69.5-74.12c-.22-.25-22.32-24.88-44.67-24.6h-.08s-.08,0-.08,0c-.41-.02-.81-.03-1.21-.03Z"/>
    </g>
    <path class="cls-7" d="M483.59,295l2.28-1.47c1.88-1.13,3.16-2.98,3.53-5.07.05-.3.09-.6.1-.91.11-2.29-.87-4.49-2.65-5.96-.21-.17-.43-.32-.66-.46l-2.49-1.51c-3.65-2.21-4.12-7.33-.93-10.17l2.02-1.81c1.92-1.61,2.91-4.03,2.65-6.47-.25-2.28-1.56-4.29-3.54-5.47-.23-.14-.48-.25-.73-.35l-2.7-1.1c-3.95-1.62-5.21-6.59-2.51-9.9l1.72-2.1c1.65-1.89,2.25-4.44,1.6-6.81-.6-2.21-2.21-4-4.36-4.85-.25-.1-.51-.17-.77-.23l-2.84-.67c-4.15-.98-6.18-5.69-4.03-9.38l1.37-2.34c1.33-2.13,1.53-4.73.52-6.98-.94-2.09-2.81-3.6-5.06-4.1-.26-.06-.53-.09-.8-.11l-2.91-.22c-4.26-.32-6.99-4.66-5.45-8.64l.98-2.53c.98-2.31.77-4.91-.58-6.97-1.33-2.03-3.59-3.26-6.04-3.28h-.04s-3.26.27-3.26.27c-4.25.35-7.64-3.51-6.73-7.68l.57-2.65c.61-2.43-.01-4.97-1.66-6.8-1.54-1.7-3.79-2.56-6.08-2.34-.27.03-.53.08-.79.14l-2.83.69c-4.15,1.01-8.09-2.27-7.85-6.53l.15-2.71c.22-2.5-.79-4.91-2.7-6.45-1.79-1.44-4.14-1.93-6.37-1.36-.26.07-.51.16-.76.27l-2.69,1.13c-3.94,1.65-8.35-.97-8.77-5.22l-.27-2.7c-.17-2.5-1.55-4.73-3.68-5.95-1.83-1.05-4-1.19-5.98-.51l-.04-.02-.47.18s0,0-.01,0c0,0,0,0,0,0l-7.36,2.31c-2.42-.34-4.62-1.56-5.31-4.18l-.69-2.62c-.56-2.45-2.27-4.43-4.57-5.3-1.38-.52-2.86-.56-4.26-.22,0,0-1.03.32-1.38.49l-7.22,2.35.16,1.89c-2.65.32-5.4-1.02-6.58-3.71l-1.09-2.48c-.94-2.33-2.93-4.02-5.34-4.52-1.29-.27-2.59-.14-3.8.28,0,0-8.26,2.87-8.26,2.87,0,0,.47,1.8.97,3.07-2.73,1.16-6.08.32-7.83-2.4l-1.47-2.28c-1.29-2.15-3.52-3.51-5.98-3.63-1.88-.09-3.73.31-5.4,1.2l-5.6,2.19v4.98c-2.37.95-5.22.47-7.1-1.63l-1.81-2.02c-.43-.51-.91-.95-1.43-1.32-1.46-1.03-3.23-1.52-5.03-1.33,0,0,0,0-.01,0-.24.03-.93.21-.93.21-.81.2-8.35,3.08-8.35,3.08l-1.14,5.3,3.19-1.07c-1.85,3.49-6.45,4.53-9.59,1.97l-2.1-1.71c-1.89-1.65-4.44-2.25-6.81-1.6-.63.17-7.94,3.03-7.94,3.03l2.48,3.74-.28,1.2c-.98,4.15-5.69,6.18-9.38,4.03l-2.34-1.37c-1.99-1.25-4.41-1.48-6.55-.68h0c-.14.05-7.18,2.72-7.18,2.72l2.59,2.94c-.01.12-.04.24-.05.36l-.22,2.91c-.32,4.26-4.66,6.99-8.64,5.45l-2.53-.98c-2.05-.88-4.34-.8-6.27.18h0s-6.46,2.29-6.46,2.29c0,0,1.03,1.84,2.64,2.74-.09.46-.16.93-.16,1.41v.04s.27,3.26.27,3.26c.35,4.25-3.51,7.64-7.68,6.73l-2.65-.57c-1.72-.43-5.03.48-5.03.48l-5.57,1.94s.81,2.2,1.62,3.18c-.14.7-.22,1.41-.15,2.14.03.27.08.53.14.79l.69,2.83c1.01,4.15-2.27,8.09-6.53,7.85l-2.71-.15c-1.35-.12-3.84.67-3.84.67l-6.06,1.83.95,4.91.93-.16c0,.61.06,1.22.22,1.83.07.26.16.51.27.76l1.13,2.69c1.65,3.94-.98,8.35-5.22,8.77l-2.7.27c-.93.06-1.82.29-2.64.67h0s-5.67,1.5-5.67,1.5c0,0,.18,3.16.39,3.25.07.03.61,0,1.28-.03-.42,1.57-.32,3.26.34,4.8.11.25.24.48.38.71l1.53,2.48c2.24,3.63.34,8.4-3.78,9.48l-2.62.69c-2.45.56-4.43,2.27-5.3,4.57-.81,2.14-.56,4.54.68,6.48.14.23.31.44.49.64l1.9,2.21c2.78,3.23,1.65,8.24-2.25,9.96l-2.48,1.09c-2.33.94-4.02,2.93-4.52,5.34-.47,2.24.16,4.57,1.68,6.3.18.2.38.38.58.56l2.22,1.88c3.26,2.76,2.92,7.88-.67,10.19l-2.28,1.47c-2.15,1.29-3.51,3.52-3.63,5.98-.11,2.29.87,4.49,2.65,5.95.21.17.43.32.66.46l2.49,1.51c3.65,2.21,4.12,7.33.93,10.17l-2.02,1.81c-1.92,1.61-2.91,4.03-2.65,6.47.03.3.08.6.15.89.45,1.91,1.67,3.56,3.39,4.58.23.14.48.25.73.35l2.7,1.1c3.95,1.62,5.21,6.59,2.51,9.9l-1.71,2.1c-1.65,1.89-2.25,4.44-1.6,6.81.6,2.21,2.21,4,4.36,4.85.25.1.51.17.77.23l2.84.67c4.15.98,6.18,5.69,4.03,9.38l-1.37,2.34c-1.33,2.13-1.53,4.73-.52,6.98.94,2.09,2.81,3.6,5.06,4.1.26.06.53.09.8.11l2.91.22c4.26.32,6.99,4.66,5.45,8.64l-.98,2.53c-.98,2.31-.77,4.91.58,6.97,1.33,2.03,3.59,3.25,6.04,3.28h.04s3.26-.27,3.26-.27c4.25-.35,7.64,3.51,6.73,7.68l-.57,2.65c-.44,1.74-.23,3.52.51,5.07-.15.03-.24.06-.26.09-.16.24-.22,3.82-.22,3.82l5.76.21c.5.01.83,0,1.26,0,.23,0,.46-.01.69-.03.27-.03.54-.08.8-.15l2.83-.69c4.15-1.01,8.09,2.27,7.85,6.53l-.15,2.71c-.12,1.29.11,2.56.61,3.7l-1.19,3.9,6.16.41c.63.02,1.1.03,1.67.03.61,0,1.22-.08,1.83-.23.27-.07.53-.17.78-.27l2.68-1.12c3.58-1.5,7.52.55,8.53,4.13l-1.9,2.7,1.26,7.29,7.49.63c.31.04.62.06.93.06.99,0,1.98-.2,2.91-.6.25-.11.49-.25.73-.39l2.47-1.53c3.63-2.24,8.4-.34,9.48,3.78l.04.17c-1.24.61-2.15,1.1-2.15,1.25,0,.48,1.2,5.67,1.2,5.67l8.03,1.37.11-.12c.19.02.38.05.58.05,1.36,0,2.72-.39,3.91-1.14.23-.15.45-.32.66-.5l2.2-1.89c3.08-2.65,7.74-1.72,9.66,1.76l-1.32,1.85-.34,4.81s8.96.9,9.25.93l.36.06v-.02c.09,0,.17.02.25.02,1.75,0,3.46-.64,4.81-1.83.21-.18.39-.39.57-.6l1.88-2.22c2.6-3.07,7.28-2.91,9.74.13l-1.4,5.5,8.67.88c.21.03.41.06.62.07.12,0,.24,0,.35,0,2.16,0,4.21-.97,5.61-2.66.17-.2.31-.43.45-.65l1.52-2.5c1.75-2.88,5.29-3.74,8.11-2.42l-.5,5.29,9.56.93s.32-.01.5-.01h0c.26,0,.52-.01.78-.04,2.28-.25,4.3-1.56,5.47-3.55.14-.23.25-.48.35-.72l1.1-2.7c1.34-3.27,4.97-4.66,8.05-3.52-.31,1.54-.98,3.79-.98,3.79l9.63.77c.06,0,.13.02.19.02.64,0,1.28-.08,1.9-.25,2.21-.6,4-2.22,4.85-4.36.1-.25.17-.51.23-.77l.67-2.84c.71-3.01,3.38-4.87,6.2-4.87l-.36,2.25,8.83,1.04s.02,0,.02,0l.34.04v-.02c.23.02.45.05.68.05,1.02,0,2.03-.21,2.98-.64,2.09-.94,3.6-2.81,4.1-5.06.06-.26.09-.53.11-.8l.22-2.91c.19-2.56,1.85-4.55,4-5.41l.2,1.1,9.61.44v-.02c.11,0,.22.03.33.03,1.41,0,2.8-.4,4-1.19,2.03-1.33,3.26-3.59,3.28-6.04v-.04s-.27-3.26-.27-3.26c-.35-4.25,3.51-7.64,7.68-6.73l2.65.57c.62.15,1.24.23,1.86.23,1.82,0,3.58-.66,4.94-1.89,1.7-1.54,2.56-3.79,2.34-6.08-.03-.27-.08-.53-.14-.79l-.69-2.83c-1.01-4.15,2.27-8.09,6.53-7.85l2.71.15c.23.02.46.03.68.03,2.25,0,4.37-.99,5.77-2.74,1.44-1.79,1.93-4.14,1.36-6.37-.07-.26-.16-.51-.27-.76l-1.13-2.69c-1.65-3.94.97-8.35,5.22-8.77l2.7-.27c2.5-.17,4.73-1.55,5.95-3.68,1.14-1.99,1.26-4.39.35-6.51-.11-.25-.24-.48-.38-.71l-1.53-2.48c-2.24-3.63-.34-8.4,3.78-9.48l2.62-.69c2.45-.56,4.43-2.27,5.3-4.57.81-2.14.56-4.54-.68-6.48-.14-.23-.31-.44-.49-.64l-1.9-2.21c-2.78-3.23-1.65-8.24,2.25-9.96l2.48-1.09c2.33-.94,4.02-2.93,4.52-5.34.47-2.24-.16-4.57-1.68-6.3-.18-.2-.38-.38-.58-.56l-2.22-1.88c-3.26-2.76-2.92-7.88.67-10.19Z"/>
    <path class="cls-5" d="M478.1,289.59c.05-.29.09-.59.1-.9.11-2.26-.86-4.42-2.61-5.87-.2-.17-.43-.31-.65-.45l-2.45-1.49c-3.59-2.18-4.06-7.22-.92-10.02l1.99-1.78c1.9-1.59,2.87-3.97,2.61-6.38-.24-2.24-1.54-4.23-3.49-5.39-.23-.13-.47-.24-.71-.34l-2.66-1.09c-3.89-1.59-5.13-6.49-2.47-9.75l1.69-2.07c1.62-1.86,2.22-4.37,1.58-6.71-.59-2.18-2.18-3.94-4.29-4.77-.25-.1-.5-.17-.76-.23l-2.8-.66c-4.09-.96-6.09-5.61-3.97-9.24l1.35-2.31c1.31-2.09,1.5-4.66.51-6.87-.93-2.06-2.77-3.55-4.99-4.04-.26-.06-.52-.09-.79-.11l-2.86-.21c-4.19-.31-6.89-4.59-5.37-8.51l.97-2.49c.97-2.27.76-4.84-.57-6.87-1.31-2-3.53-3.21-5.95-3.23h-.04s-3.21.27-3.21.27c-4.19.35-7.52-3.45-6.63-7.56l.57-2.61c.6-2.4-.01-4.9-1.64-6.69-1.52-1.67-3.74-2.52-5.99-2.3-.26.02-.52.08-.78.14l-2.79.68c-4.08,1-7.97-2.23-7.73-6.43l.15-2.67c.22-2.46-.78-4.84-2.66-6.36-1.76-1.41-4.08-1.9-6.28-1.34-.26.07-.5.16-.75.26l-2.65,1.11c-3.88,1.62-8.22-.96-8.64-5.14l-.27-2.66c-.17-2.47-1.52-4.66-3.63-5.86-1.96-1.12-4.33-1.24-6.41-.34-.24.1-.47.24-.7.38l-2.44,1.51c-3.58,2.21-8.27.34-9.34-3.73l-.68-2.58c-.55-2.41-2.23-4.36-4.5-5.22-2.11-.8-4.47-.55-6.38.67-.22.14-.43.31-.63.48l-2.18,1.87c-3.19,2.74-8.12,1.63-9.81-2.22l-1.08-2.44c-.92-2.29-2.89-3.96-5.26-4.45-2.21-.46-4.5.16-6.2,1.66-.2.17-.38.37-.55.57l-1.86,2.19c-2.72,3.21-7.76,2.88-10.04-.66l-1.44-2.25c-1.27-2.12-3.47-3.46-5.89-3.58-2.26-.11-4.42.86-5.87,2.61-.17.2-.31.43-.45.65l-1.49,2.45c-2.18,3.59-7.22,4.06-10.02.92l-1.78-1.99c-.42-.5-.9-.93-1.41-1.3-1.43-1.02-3.19-1.5-4.95-1.31,0,0,0,0-.01,0-2.24.24-4.23,1.54-5.39,3.49-.13.23-.24.47-.34.71l-1.09,2.66c-1.59,3.89-6.49,5.13-9.75,2.47l-2.07-1.69c-1.86-1.62-4.37-2.21-6.71-1.58-2.18.59-3.94,2.18-4.77,4.29-.1.25-.17.5-.23.76l-.66,2.8c-.96,4.09-5.61,6.09-9.24,3.97l-2.31-1.35c-2.09-1.31-4.66-1.5-6.87-.51-2.06.93-3.55,2.77-4.04,4.99-.06.26-.09.52-.11.79l-.21,2.86c-.31,4.19-4.59,6.89-8.51,5.37l-2.49-.97c-2.27-.97-4.84-.76-6.87.57-2,1.31-3.21,3.53-3.23,5.95v.04s.27,3.21.27,3.21c.35,4.19-3.45,7.52-7.56,6.63l-2.61-.57c-2.4-.6-4.9,0-6.69,1.64-1.67,1.52-2.52,3.73-2.3,5.99.02.26.08.52.14.78l.68,2.79c1,4.08-2.23,7.97-6.43,7.73l-2.67-.15c-2.46-.22-4.84.78-6.36,2.66-1.41,1.76-1.9,4.08-1.34,6.28.07.26.16.5.26.75l1.11,2.65c1.62,3.88-.96,8.22-5.14,8.64l-2.66.27c-2.47.17-4.66,1.52-5.86,3.63-1.12,1.96-1.24,4.33-.34,6.41.1.24.24.47.38.7l1.51,2.44c2.21,3.58.34,8.27-3.73,9.34l-2.58.68c-2.41.55-4.36,2.23-5.22,4.5-.8,2.11-.55,4.47.67,6.38.14.22.31.43.48.63l1.87,2.18c2.74,3.19,1.63,8.12-2.22,9.81l-2.44,1.08c-2.29.92-3.96,2.89-4.45,5.26-.46,2.21.16,4.5,1.66,6.2.17.2.37.38.57.55l2.19,1.86c3.21,2.72,2.88,7.76-.66,10.04l-2.25,1.44c-2.12,1.27-3.46,3.47-3.58,5.89-.11,2.26.86,4.42,2.61,5.87.2.17.43.31.65.45l2.46,1.49c3.59,2.18,4.06,7.22.92,10.02l-1.99,1.78c-1.9,1.59-2.87,3.97-2.61,6.38.03.3.08.59.15.88.45,1.88,1.65,3.51,3.34,4.51.23.14.47.24.72.35l2.66,1.09c3.89,1.59,5.13,6.49,2.47,9.75l-1.69,2.07c-1.62,1.86-2.21,4.37-1.58,6.71.59,2.18,2.18,3.94,4.29,4.77.25.1.5.17.76.23l2.8.66c4.09.96,6.09,5.61,3.97,9.24l-1.35,2.31c-1.31,2.09-1.5,4.66-.51,6.87.93,2.06,2.77,3.55,4.99,4.04.26.06.52.09.79.11l2.86.21c4.19.31,6.89,4.59,5.37,8.51l-.97,2.49c-.97,2.27-.76,4.84.57,6.87,1.31,2,3.53,3.21,5.95,3.23h.04s3.21-.27,3.21-.27c4.19-.35,7.52,3.45,6.63,7.56l-.57,2.61c-.6,2.4.01,4.9,1.64,6.69,1.36,1.5,3.29,2.34,5.3,2.34.23,0,.45-.01.68-.03.27-.03.53-.08.79-.14l2.78-.68c4.08-1,7.97,2.23,7.73,6.43l-.15,2.67c-.22,2.46.78,4.84,2.66,6.36,1.28,1.03,2.86,1.57,4.47,1.57.6,0,1.2-.07,1.8-.23.26-.07.52-.16.77-.27l2.64-1.11c3.88-1.62,8.22.96,8.64,5.14l.27,2.66c.17,2.47,1.52,4.66,3.63,5.86,1.09.62,2.31.94,3.53.94.97,0,1.95-.2,2.87-.59.25-.11.49-.24.72-.39l2.43-1.5c3.58-2.21,8.27-.34,9.34,3.73l.68,2.58c.55,2.41,2.23,4.36,4.5,5.22.82.31,1.67.46,2.52.46,1.34,0,2.68-.38,3.85-1.12.23-.15.44-.32.65-.49l2.17-1.87c3.19-2.74,8.12-1.63,9.81,2.22l1.08,2.44c.92,2.29,2.89,3.96,5.26,4.45.48.1.97.15,1.45.15,1.73,0,3.41-.63,4.74-1.8.2-.18.39-.38.56-.59l1.85-2.18c2.72-3.21,7.76-2.88,10.04.66l1.44,2.25c1.27,2.12,3.47,3.46,5.89,3.58.12,0,.23,0,.35,0,2.13,0,4.15-.96,5.52-2.62.17-.2.31-.42.44-.64l1.49-2.46c2.18-3.59,7.22-4.06,10.02-.92l1.78,1.99c1.42,1.69,3.47,2.65,5.61,2.65h0c.26,0,.51-.01.77-.04,2.24-.24,4.23-1.54,5.39-3.49.13-.23.24-.47.34-.71l1.09-2.66c1.59-3.89,6.49-5.13,9.75-2.47l2.07,1.69c1.37,1.19,3.09,1.83,4.83,1.83.63,0,1.26-.08,1.88-.25,2.18-.59,3.94-2.18,4.77-4.29.1-.25.17-.5.23-.76l.66-2.8c.96-4.09,5.61-6.09,9.24-3.97l2.31,1.35c1.21.76,2.57,1.14,3.93,1.14,1,0,2-.21,2.94-.63,2.06-.93,3.55-2.77,4.04-4.99.06-.26.09-.52.11-.79l.21-2.86c.31-4.19,4.59-6.89,8.51-5.37l2.49.97c.94.4,1.94.6,2.92.6,1.39,0,2.76-.4,3.95-1.17,2-1.31,3.21-3.53,3.23-5.95v-.04s-.27-3.21-.27-3.21c-.35-4.19,3.45-7.52,7.56-6.63l2.61.57c.61.15,1.22.23,1.83.23,1.79,0,3.53-.65,4.87-1.86,1.67-1.52,2.52-3.73,2.31-5.99-.02-.26-.08-.52-.14-.78l-.68-2.79c-1-4.08,2.23-7.97,6.43-7.73l2.67.15c.23.02.45.03.67.03,2.22,0,4.3-.98,5.68-2.69,1.41-1.76,1.9-4.08,1.34-6.28-.07-.26-.16-.5-.26-.75l-1.11-2.65c-1.62-3.88.96-8.22,5.14-8.64l2.66-.27c2.47-.17,4.66-1.52,5.86-3.63,1.12-1.96,1.24-4.33.34-6.41-.1-.24-.24-.47-.38-.7l-1.51-2.44c-2.21-3.58-.34-8.27,3.73-9.34l2.58-.68c2.41-.55,4.36-2.23,5.22-4.5.8-2.11.55-4.47-.67-6.38-.14-.22-.31-.43-.48-.63l-1.87-2.18c-2.74-3.19-1.63-8.12,2.22-9.81l2.44-1.08c2.29-.92,3.96-2.89,4.45-5.26.46-2.21-.16-4.5-1.66-6.2-.17-.2-.37-.38-.57-.55l-2.19-1.86c-3.21-2.72-2.88-7.76.66-10.04l2.25-1.44c1.86-1.11,3.11-2.94,3.47-5Z"/>
    <path class="cls-1" d="M312.14,389.48c-57.28,0-103.72-46.44-103.72-103.72s46.44-103.72,103.72-103.72,103.72,46.44,103.72,103.72-46.44,103.72-103.72,103.72Z"/>
    <circle class="cls-3" cx="311.88" cy="287.5" r="105.45"/>
    <path class="cls-4" d="M173.17,287.5c0-80.3,63.88-145.66,143.59-148.07-1.51-.05-3.03-.08-4.56-.08-81.82,0-148.15,66.33-148.15,148.15s66.33,148.15,148.15,148.15c1.53,0,3.04-.03,4.56-.08-79.71-2.41-143.59-67.78-143.59-148.07Z"/>
    <path class="cls-6" d="M209.9,287.5c0-56.99,45.97-103.24,102.85-103.71-.29,0-.58-.01-.87-.01-57.28,0-103.72,46.44-103.72,103.72s46.44,103.72,103.72,103.72c.29,0,.58,0,.87-.01-56.88-.47-102.85-46.72-102.85-103.71Z"/>
    <path class="cls-12" d="M314.44,181.25c-11.5,0-22.56,1.85-32.92,5.25,9.62-2.89,19.82-4.45,30.38-4.45,58.24,0,105.45,47.21,105.45,105.45,0,46.75-30.42,86.38-72.54,100.21,43.43-13.05,75.07-53.33,75.07-101,0-58.24-47.21-105.45-105.45-105.45Z"/>
    <polygon class="cls-14" points="338.57 352.44 338.57 286.35 363.95 286.35 371.83 294.73 371.83 297.92 374.83 297.92 374.83 258.91 371.83 258.91 371.83 262.93 363.95 273.49 338.57 273.49 338.57 220.56 377.43 220.56 396.01 233.73 398.61 237.69 401.61 237.69 386 213.83 301.55 213.83 314.89 228.21 314.89 351.83 301.55 362.85 382.94 362.85 401.61 338.63 398.61 338.63 394.42 344.13 383.55 352.44 338.57 352.44"/>
    <polygon class="cls-2" points="335.57 352.44 335.57 286.35 360.94 286.35 371.83 297.92 371.83 258.91 360.94 273.49 335.57 273.49 335.57 220.56 374.43 220.56 398.61 237.69 383 213.83 298.55 213.83 311.88 228.21 311.88 351.83 298.55 362.85 379.94 362.85 398.61 338.63 380.55 352.44 335.57 352.44"/>
    <path class="cls-14" d="M321.22,192.41c16.71,0,42.82,22.94,42.82,22.94v7.82s4.77,0,4.77,0v-25.34c-15.32-8.93-33.13-14.05-52.15-14.05-57.28,0-103.72,46.44-103.72,103.72s46.44,103.72,103.72,103.72c18.45,0,35.77-4.82,50.78-13.27v-25.5h-4.77s0,4.07,0,7.27c-6.39,8.3-19.25,21.03-38.93,23.33-29.7,3.47-60.24-19.58-65.14-44.06l.41-105.88s17.68-40.69,62.21-40.69Z"/>
    <path class="cls-8" d="M316.44,192.41c21.27,0,43.92,20.21,47.59,30.76v-25.34c-15.32-8.93-33.13-14.05-52.15-14.05-57.28,0-103.72,46.44-103.72,103.72s46.44,103.72,103.72,103.72c18.45,0,35.77-4.82,50.78-13.27v-25.5s-14,27.13-43.7,30.6c-29.7,3.47-61.93-19.58-66.82-44.06l.41-105.88s19.37-40.69,63.9-40.69Z"/>
    <path class="cls-14" d="M314.44,278.7s15.61-2.14,15.61-20.81-18.5-23.26-18.5-23.26h-43.16l3.82,7.96v89.04l-6.23,4.28h44.17s24.61-6.73,24.61-26.84c0-26.23-20.32-30.38-20.32-30.38ZM291.55,240.67h15.29s6.07,3.79,6.07,18.4-6.34,17.08-6.34,17.08h-15.02v-35.48ZM308.93,328.88h-17.38v-45.39h17.68s6.91,4.84,6.91,23.54-7.22,21.85-7.22,21.85Z"/>
    <path class="cls-11" d="M310.18,278.7s15.61-2.14,15.61-20.81-18.5-23.26-18.5-23.26h-43.16l3.82,7.96v89.04l-6.23,4.28h44.17s24.61-6.73,24.61-26.84c0-26.23-20.32-30.38-20.32-30.38ZM285.32,240.67h17.26s6.07,3.79,6.07,18.4-6.34,17.08-6.34,17.08h-16.99v-35.48ZM304.67,328.88h-19.35v-45.39h19.65s6.91,4.84,6.91,23.54-7.22,21.85-7.22,21.85Z"/>
    <path class="cls-10" d="M311.88,182.04c-58.24,0-105.45,47.21-105.45,105.45s47.21,105.45,105.45,105.45,105.45-47.21,105.45-105.45-47.21-105.45-105.45-105.45ZM311.88,391.21c-57.28,0-103.72-46.44-103.72-103.72s46.44-103.72,103.72-103.72,103.72,46.44,103.72,103.72-46.44,103.72-103.72,103.72Z"/>
    <path class="cls-9" d="M311.88,134.58c-84.46,0-152.92,68.46-152.92,152.92s68.46,152.92,152.92,152.92,152.92-68.46,152.92-152.92-68.46-152.92-152.92-152.92ZM311.88,435.65c-81.82,0-148.15-66.33-148.15-148.15s66.33-148.15,148.15-148.15,148.15,66.33,148.15,148.15-66.33,148.15-148.15,148.15Z"/>
  </g>
  <g>
    <path class="cls-14" d="M204.84,213.29l.65.32.64.47c.1.06.19.15.29.26l.33.32.53.65c.54.65.95,1.44,1.22,2.36.18.59.24,1.21.19,1.85-.16.92-.39,1.79-.67,2.61l-1.55,4.17,1.46.24,1.3.11.73.13.92.21,1.29.47c.26.1.61.28,1.05.52l3.84,2.23c.37.23.87.34,1.48.34l.18.11-.83,1.87c-.32.74-.6,1.28-.82,1.6l-.32.53-.25.21c-.25.19-.53.2-.82.02l-3.31-2.03c-.78-.48-1.57-.9-2.38-1.26l-.42-.17-.29-.06-.71-.15c-.32-.09-.61-.15-.87-.17l-.85-.12-1.37-.2-1.24-.28-.88-.21-1.23-.43c-.31-.11-.65-.28-1.02-.51l-1.08-.67-.33-.25c-1.12-.85-1.82-1.94-2.11-3.27-.21-1.02-.17-1.98.13-2.91l.91-2.67.58-1.54.67-1.69.74-1.6.19-.25c1.08-1.59,2.43-1.99,4.04-1.19ZM203.95,218.23l-.6-.61-.64-.4c-.48-.35-.99-.47-1.52-.35-.53.12-.91.41-1.15.88l-.14.23c-.65,1.23-.69,2.6-.13,4.1.42,1.17,1.22,2.11,2.41,2.84l.29.18c.22.13.34.19.37.19.73.35,1.21.55,1.44.61l1.15.28c.36-.99.57-1.66.64-2.03l.08-.39v-.28c.16-.55.03-1.4-.38-2.53-.36-1-.97-1.91-1.83-2.74Z"/>
    <path class="cls-14" d="M252.72,194.89l.03.28-.89,1.22-.71.83-.68.59-.17.12c-.44.33-.88.48-1.32.47s-.94-.33-1.51-.95l-2.67-2.95-2.77-3.13c-.46-.63-.99-1.01-1.58-1.16s-1.25.04-1.97.57c-.33.25-.56.58-.67,1.01-.06.19-.12.67-.17,1.45.07,1.06.17,1.98.32,2.75.43,2.05,1.16,3.78,2.19,5.18.91,1.24,1.65,1.83,2.21,1.79l.15.44-.69.51-.44.39-1.52,1.3c-.56.47-1.08.71-1.56.72-.33-.07-.77-.47-1.32-1.21-.94-1.27-1.66-3.18-2.17-5.73l-.27-1.29-.22-1.46-.16-1.38-.05-1.92c.02-.98.03-2.47.04-4.46l-.02-.2-.06-.25-.14-.36c-.07-.09-.19-.16-.36-.2s-.39.03-.65.22l-.59.48s-.25.31-.69.81l-.63.72-.4.38c-.26.19-.53.09-.82-.3l-2.43-3.3c-.61-.83-1.22-1.27-1.82-1.31l-.09-.24.65-.86c.35-.45.65-.8.9-1.04l.49-.44.22-.16c.26-.22.55-.29.85-.2.31.09.68.39,1.11.89l2.1,2.39c.5.6.89.9,1.17.89.36.02.95-.27,1.78-.89l1.19-.88c.41-.3.66-.38.75-.25.03.12.06.34.1.65l.03.74.19,5.41,1.9-2.64.75-.89c.22-.28.45-.5.69-.68,1.75-1.29,3.29-1.23,4.62.19l6.31,6.71c.4.4.89.6,1.44.63ZM256.99,188.73v.39s.02.45.02.45l.07.97c.14.5.34.92.59,1.27.45.61,1.15.95,2.11,1.01v.17c-.51.66-1,1.14-1.45,1.45l-.32.2-.68.41c-.29.15-.67.22-1.16.22-.23,0-.62-.1-1.16-.3-.33-.18-.58-.28-.74-.31-.05,0-.18.06-.39.16l-.17.12-2.36,2.08-2.24,1.78.08-.53.47-.35c.13-.13.23-.23.29-.3.45-.5.57-.91.33-1.23-.07-.09-.16-.16-.29-.22l.28-.2.61-.1.57-.21.61-.28.53-.39.5-.37c.15-.11.25-.24.31-.4l.1-.5-.09-.41-.08-.45c-.08-.54-.08-.95.02-1.25.22-.7.72-1.34,1.5-1.91l.47-.35.8-.42c.11-.08.32-.18.64-.3l.23.08Z"/>
    <path class="cls-14" d="M302.35,166.06l-.13.2-.54.11c-1.42.29-2.52.33-3.3.14-.9-.26-1.53-.78-1.89-1.55-.3-.66-.48-1.06-.56-1.19-.32-.54-.74-.75-1.25-.63l-3.71.75.31,12.13c.01.4.05.78.13,1.14.11.54.26.98.46,1.3s.43.52.7.58l-.1.2c-.36.07-.78.2-1.25.39-1.08.45-1.77.71-2.09.77-1.1.22-1.76-.22-1.99-1.32l-.06-.3c-.02-.09-.03-.2-.03-.34l-.02-.8-.35-12.7-3.49.81c-.45.09-.75.69-.9,1.8-.03.33-.11.81-.24,1.42-.13.31-.36.69-.71,1.16-.28.36-.7.67-1.25.92-.45.19-.97.36-1.54.52l-1.06.32-.21-.17c.75-.92.9-2.49.46-4.69-.1-.47-.07-.75.08-.82s.39-.15.73-.22l8.16-1.82-.23-6.51c-.19-.94-.93-1.29-2.21-1.03l-.78.16-1.85.37c-.43.09-.76.25-.99.48l-.25-.2c.17-.45.18-1.02.04-1.69-.25-1.26-.76-2.27-1.52-3.03l.2-.22.82-.17,1.27-.22c1.26-.21,2.16-.06,2.68.44.3.31.54.79.72,1.43l.24,1.18c.19.71.71,1,1.55.88h.24s.24-.06.24-.06l1.8-.47c1.25-.3,1.97.03,2.16.98.05.25.08.53.1.83l.11,5.96,8.96-2.02c.27-.08.45-.1.56-.08.11.03.19.14.23.34l.06.44c.04,1.14.09,1.84.15,2.11.23,1.12.69,1.78,1.38,1.97Z"/>
    <path class="cls-14" d="M350.9,170.29c-.63.07-1.23.04-1.81-.09-1.32-.29-2.13-.86-2.44-1.71-.08-.18-.14-.63-.19-1.35l.07-.34c.1-.43.1-.72,0-.88s-.35-.29-.78-.38l-1.71-.38c-.45.44-1.11.8-1.97,1.08-.64.14-1.49.2-2.54.17l-4.64-.08.13.67.54,1.95.08.44.09.58.08,1.22c0,.71-.06,1.36-.19,1.97l-.86,4.35c-.1.47-.04.98.18,1.52l-.04.2-2.07-.18c-.81-.06-1.4-.15-1.77-.25l-.57-.13-.31-.18c-.24-.17-.33-.43-.25-.76l.85-3.79c.22-1.01.35-1.89.38-2.66l-.1-1.47-.13-.98-.41-2.1-.11-.94-.12-1.22c-.06-.79,0-1.6.19-2.42l.28-1.24.12-.39c.14-.44.29-.79.45-1.06,1-1.63,2.57-2.58,4.71-2.83.43-.04,1.37-.05,2.82,0l1.68.06,1.78.08c.82.02,1.4.08,1.76.18l.29.1c1.64.46,2.44,1.6,2.41,3.42l-.1.75-.09.4-.19.56c-.04.18-.16.41-.37.69-.29.55-.64,1.03-1.06,1.45l.73.23,4.52,1.01c.43.1.68.21.77.35l.04.29-.13.57-.26,1.14-.15.67c-.08.45.08.95.48,1.48l-.05.24ZM341.85,161.24l.35-.77.16-.74c.18-.6.13-1.12-.14-1.57s-.69-.71-1.26-.79l-.23-.05c-1.33-.2-2.64.2-3.91,1.21-.42.33-.81.83-1.15,1.49-.35.66-.6,1.38-.77,2.14-.19.87-.29,1.5-.28,1.88v.49s.08.83.08.83h1.27s.86-.06.86-.06c.55-.06,1.18-.27,1.86-.61.61-.31,1.16-.73,1.66-1.25.28-.31.79-1.05,1.52-2.2Z"/>
    <path class="cls-14" d="M397.22,193.67l-.4.14-.87-.5-.64-.46-.72-.53c-.12-.11-.21-.22-.27-.33l-.21-.41c-.3-.56-.39-1.12-.26-1.68.04-.17.24-.73.62-1.67.24-.45.12-.83-.35-1.15l-2.14-1.38c-.12.28-.28.56-.48.84-.38.52-.76.91-1.15,1.17-1.11.75-2.48,1.25-4.1,1.49l-1.35.17-1.56.27,1.05.68,1.75,1.14.25.18c.61.5,1.01,1.03,1.2,1.6.11.39.01.95-.3,1.65l-1.49,2.7-1.11,1.53c-.4.59-.65,1.04-.77,1.35-.21.56-.19,1.05.04,1.47l-.37.16-1.66-.99-1.56-1.01c-.51-.35-.8-.77-.87-1.27,0-.28.2-.69.59-1.23l2.06-2.84c.78-1.08,1.15-2.03,1.1-2.86-.05-.83-.33-1.43-.85-1.81-.26-.19-.54-.27-.85-.24l-2.41.45-1.32.35-1.13.32c-.38.09-.84.36-1.38.79-.54.44-.94.83-1.2,1.18-.44.61-.55,1.15-.33,1.62l-.38.06s-.58-.35-1.63-.97l-1.64-1.02c-.37-.24-.56-.59-.59-1.06.05-.39.27-.84.64-1.35.42-.57,1.01-1.13,1.77-1.68.41-.29.73-.48.97-.57l1.2-.48c1.08-.43,2.69-.78,4.85-1.06l1.71-.2,1.67-.14-.95-.69-1.57-1.23c-.62-.48-1.03-.89-1.23-1.23-.28-.43-.39-.98-.33-1.65l.08-.41.2-.45.57-.9c.57-.86,1.42-1.46,2.54-1.81.61-.18,1.21-.23,1.8-.14l.48.05.36.09.48.1.49.14c.26.11.52.2.78.27.13.01.3-.12.5-.4l1.8-2.48c.13-.19.21-.33.23-.43.02-.1,0-.42-.08-.95l.54-.16,1.46.93,1.18.73c.49.3.77.69.83,1.15.05.32-.05.67-.3,1.06l-2.16,2.98c.77.9,1.27,1.57,1.53,2.02.25.45.43.96.54,1.52.04.14.05.4.03.78l6.73,4.25c.22.16.26.32.13.47l-.29.34-.38.4-.36.5c-.81,1.03-1.06,1.92-.76,2.68ZM387.91,183.67c.73-1.4.54-2.5-.57-3.31l-.17-.12-.21-.11c-.54-.28-1.06-.34-1.56-.2l-.76.29-.42.29-.38.28-.71.68-.52.72-.26.36c-.31.46-.45.99-.44,1.59.02.21.13.48.35.8.38.41.63.67.76.76l.3.22.21.07c.74,0,1.41-.15,2.02-.45,1.13-.54,1.86-1.09,2.2-1.63l.18-.25Z"/>
    <path class="cls-14" d="M430.9,229.68l-.53.32-.26.16c-.13.05-.24.09-.33.12-.17.08-.32.13-.47.16l-.55.09c-1.4.31-2.73.12-4.02-.58l-1.31-1.1-1.95-2.21-1.88-2.29-1.07,1.02-.5.51-.56.67-.55.75-.68.88-.91,1.28-1.08,1.66-.21.25-.16.14c-.08.05-.24,0-.47-.11-1.49-1.65-3.08-3.03-4.79-4.17-.66-.43-1.28-.47-1.85-.12-.57.35-1.05.5-1.46.45-.48-.03-.95-.24-1.43-.62l-1.88-1.51-.32-.33-.32-.25-.48-.39.06-.24.63-.02.71-.15.46-.16.83-.35.4-.2.26-.16c.16-.1.25-.17.28-.21.12-.07.29-.23.53-.48.24-.25.48-.53.72-.84l.29-.06,1.11,1.1,1.12,1.25.19.25c.18.29.18.7,0,1.2,0,.08,0,.24.04.46.07.12.18.23.32.33l.35.31c.18.13.37.25.54.36l.63.3c.47.25.79.32.95.23.1-.06.2-.16.3-.3l.21-.37.98-1.24,1.44-2c1.17-1.6,2.83-3.05,4.96-4.35.63-.38,1.32-.65,2.07-.8.75-.15,1.49-.23,2.21-.24,1.57.01,3.07.51,4.53,1.48.92.62,1.72,1.36,2.4,2.21l1.1,1.35c.25.33.54.76.87,1.29l.23.38c.18.29.3.52.37.67.07.25.16.64.27,1.17l.03.38-.06.36c-.12.37-.43.82-.9,1.36l-.59.48-.82.5ZM429.66,225.33c.25-.15.53-.35.82-.58.14-.17.27-.42.38-.76.01-.11,0-.25-.05-.41l-.17-.34-.2-.32-.3-.3-.38-.29-.24-.13c-.96-.65-2.26-.93-3.91-.86-1.48.04-2.75.4-3.83,1.05l-.32.2-.46.36c-.1.06-.22.16-.38.31l-.36.34c.89,1.07,1.54,1.75,1.93,2.05.67.53,1.5.86,2.49.98.89.05,1.76-.06,2.61-.34l1.31-.43.58-.23.47-.29Z"/>
  </g>
  <g>
    <path class="cls-14" d="M209.02,354.5l-12.43.18c-.28.01-.52.07-.72.18-.33.17-.55.44-.67.81l-.4-.1-.61-1.12-1.1-1.91c-.63-1.07-.58-1.79.13-2.15.35-.18.89-.27,1.63-.28l11.59-.31c.43-.02.78-.09,1.04-.23.31-.16.5-.4.58-.72s-.01-.71-.27-1.17l-.19-.37-.98-1.54c-.16-.31-.2-.57-.13-.78l.15-.23c.06-.08.15-.15.27-.22.29-.15.73-.24,1.32-.29l3.26-.2c.68-.04,1.2-.15,1.57-.34.33-.17.53-.43.62-.78.09-.36.03-.79-.18-1.3l-.09-.18-.09-.18c-.6-1.16-1.52-1.6-2.77-1.33l-1.21.27c-1.19.14-2.17-.2-2.95-1.04s-1.39-1.68-1.82-2.54l.09-.2c.64.14,1.36.04,2.17-.3,1.24-.56,1.91-.85,2.02-.88.26-.05.58.17.96.67.31.41.74.94,1.28,1.59l2.29,2.81.5.75.55.99.6,1.16.57,1.18c.52,1.17.68,2.09.47,2.73-.16.44-.47.78-.94,1.02s-1.11.4-1.92.48l-2.77.26c-.44.05-.77.13-1,.24-.31.16-.44.4-.39.74.01.12.18.57.49,1.33l.57,1.33c.18.45.25.81.21,1.09-.09.33-.28.57-.56.71-.2.1-.44.16-.72.18Z"/>
    <path class="cls-14" d="M242.41,387.09l-1.11.67-.43.22-1.78.9-8.3,3.98c-.73.37-1.32.8-1.78,1.32-.49.55-.72,1.1-.69,1.65l-.31.14-2.74-2.4c-.43-.38-.74-.79-.92-1.24-.1-.37,0-.73.33-1.09l.25-.28.23-.16.23-.16.45-.24,6.34-3.04c.3-.13.75-.33,1.33-.61l6.74-3.31c.41-.22.87-.51,1.37-.9l.56-.47.6-.57c.42-.4.59-.95.51-1.66-.11-.47-.42-.9-.95-1.31l-.28-.25-.13-.12-.3-.18c-.25-.16-.57-.2-.94-.1-.38.09-.73.33-1.07.71l-1.26,1.41-.11.13-.37.41-.35.24c-1.18.88-2.36.92-3.53.12l-1.73-1.23-1.5-1.33-2.31-1.93c-.81-.69-1.32-1.29-1.55-1.8-.29-.72-.13-1.42.49-2.1l.44-.49.34-.39.69-.67c.71-.72,1.53-1.06,2.47-1.02.75.02,1.4.22,1.96.59l.73.47.61.4,1.32,1.04.56.5.31.27.35.22,1.47,1.04c.27.24.58.47.91.68l.93.6,1.92,1.3c.44.33.89.7,1.35,1.12.67.6,1.19,1.26,1.57,2,.55,1.07.69,1.98.42,2.73l-.23.67-.32.72-.38.63-.45.61-.44.44-.16.18-.35.24-.3.24-.21.13-.52.32ZM235.31,376.7c.57-.63.92-1.11,1.06-1.45.21-.58.06-1.1-.45-1.55l-.15-.14-.2-.13c-.5-.36-.92-.55-1.26-.59-.33-.04-.73.11-1.2.43-.64.41-1.21.9-1.72,1.46l-.25.28-.5.57c-.51.68-.4,1.35.33,2l.18.16.25.18c.54.39,1.31.41,2.29.07l.8-.49.51-.47.3-.33Z"/>
    <path class="cls-14" d="M287.98,410.29l-.45.36-1.11-.16-1.04-.35-.59-.2-.3-.18-.37-.2-.37-.3c-.22-.2-.41-.55-.54-1.08v-.5s.01-.81.01-.81c.12-1.13-.21-1.8-.99-2.01l-1.88-.46c-.48.42-1.21.99-2.18,1.72-.87.5-1.92.72-3.13.67-.28-.02-.74-.07-1.37-.14l-2.13-.36-.05,1.32c0,.1.02.55.08,1.37l.05.71.12.84.31,1.55.45,1.57c.31.66,1.04,1.18,2.19,1.57l3.84,1.31c.43.15.71.3.84.47s.12.45-.02.86c-.46,1.35-.54,2.54-.24,3.59l-.45.25-.85-.18-.99-.3-.78-.27-.34-.19-.33-.22c-1.03-.74-1.42-1.74-1.16-3.01.21-.63-.08-1.26-.88-1.9l-.76-.44-.82-.35-1.38-.43c-.79-.24-1.43-.43-1.93-.57-.5-.13-.81-.2-.93-.19l-.35-.04h-.58c-.66-.07-1.07.15-1.24.65-.3.87-1.02,1.48-2.19,1.84l-.75.07-1.1.03c-.29,0-.94-.06-1.93-.18l-.16-.49c.17-.11.43-.39.78-.82l.35-.57.25-.75.1-.29.28-.81.04-.13c.1-.28.3-.37.63-.26l.16.05c2.47.84,4.44,1.1,5.92.78-.03-.28-.11-1.13-.26-2.56l-.31-2.72-.07-1.4.03-1.15.23-1.96c.15-.72.3-1.31.46-1.77l.14-.42.12-.25.1-.29.27-.49.13-.17c.03-.09.08-.16.14-.21l.33-.32c.84-.83,1.71-1.36,2.61-1.59l1.47-.37,1.37-.19,1.43-.02.57.05.9.13.5.13.66.19c.68.21,1.26.43,1.74.66.85.41,1.37,1.13,1.55,2.16.03.54-.03,1.05-.19,1.53-.27.8-.54,1.4-.79,1.8l6.28,2.13c.43.15.68.29.74.43.06.14.02.43-.13.86-.62,1.82-.54,2.95.23,3.38ZM277.17,401.24l.2-.48.18-.41c.2-.51.28-.95.23-1.32-.04-.37-.29-.68-.73-.96l-.28-.13c-.22-.07-.41-.11-.58-.11-.17,0-.31.02-.42.06l-.38.05c-1.05.23-1.93.83-2.65,1.82l-.3.44-.21.51-.09.26-.05.24c-.22.97-.34,1.64-.35,2.03l-.13,1.4.04.59c1.08.08,2-.13,2.75-.63.68-.45,1.25-.97,1.69-1.57.44-.6.81-1.2,1.09-1.81Z"/>
    <path class="cls-14" d="M373.76,413.3l-.09.41-1.09.6c-.48.27-1.15.59-1.99.94-.7.29-1.26.31-1.68.07-.36-.2-.68-.67-.96-1.43l-6.27-15.86c-.92-2.27-2.28-3.04-4.08-2.29-.89.37-1.44,1.12-1.64,2.24-.24,1.39-.1,2.86.41,4.41l.4,1.25.46,1.19,1.31,2.88c.05.13.13.27.22.43l.18.34.22.36.51.78c.13.25.24.41.35.49.36.45.76.72,1.19.81v.29s-2.93,1.89-2.93,1.89l-.43.21c-.74.38-1.39.09-1.96-.86l-.71-1.08-.37-.89-.34-.83-.66-1.33c-.29-.65-.6-1.53-.91-2.64-.1-.23-.15-.42-.16-.57l-.14-.69c-.56-3.21-.06-5.6,1.51-7.14l.64-.6.74-.64.81-.56.87-.51,1.07-.56.51-.21.93-.35.36-.11c.06-.03.25-.05.56-.08,1.34-.18,2.61.13,3.8.92.7.48,1.16,1,1.39,1.55l5.98,15.16c.46,1.18,1.12,1.84,1.99,2.01Z"/>
    <path class="cls-14" d="M404.45,375.1l3.48,11.93c.09.26.21.48.36.65.25.27.57.41.96.43v.41s-.91.89-.91.89l-1.55,1.56c-.87.89-1.57,1.04-2.11.45-.26-.29-.5-.79-.7-1.5l-3.38-11.09c-.13-.41-.29-.72-.5-.94-.23-.25-.52-.38-.85-.37-.33.01-.69.2-1.06.57l-.3.28-1.23,1.36c-.25.23-.49.35-.72.33l-.26-.08c-.1-.04-.19-.1-.28-.21-.22-.24-.43-.63-.63-1.19l-1.06-3.09c-.22-.64-.46-1.12-.74-1.42-.25-.27-.55-.4-.92-.39-.37,0-.77.18-1.2.52l-.15.14-.15.14c-.96.88-1.14,1.89-.54,3.02l.59,1.1c.46,1.11.38,2.15-.22,3.12s-1.26,1.78-1.97,2.43l-.22-.03c-.04-.65-.32-1.32-.86-2.01-.86-1.04-1.33-1.62-1.39-1.71-.12-.23.01-.6.39-1.1.31-.41.71-.96,1.19-1.65l2.1-2.95.59-.68.81-.79.96-.88.99-.86c.99-.82,1.83-1.21,2.51-1.18.47.04.88.25,1.24.64s.68.96.97,1.72l.98,2.6c.16.41.33.71.5.9.23.25.51.31.82.18.12-.04.5-.32,1.15-.83l1.13-.9c.38-.29.72-.46.99-.49.34,0,.62.12.84.35.15.17.28.38.36.65Z"/>
    <path class="cls-14" d="M427.6,337.88l10.17,6.97c.53.32,1.06.27,1.59-.15l.28.14-.25.57-.21.4-.07.28-.85,2.27c-.59,1.14-1.31,1.49-2.16,1.05l-.24-.13-.4-.28-10.88-7.64c-.38-.22-.83-.34-1.37-.35-.43.04-.91.24-1.44.61l-.25.26-.22.35c-.37.61-.47,1.5-.32,2.66.08.74.28,1.36.6,1.85l.44.73.59.81.64.56c.14.07.31.04.51-.09.21-.3.41-.62.6-.93.28-.45.5-.63.67-.55.12.06.39.34.81.84l1.91,2.3c.77.91,1.54,1.69,2.31,2.35l1.08.9,1.69,1.22.18.09c.33.17.65.15.96-.05l.43.22-.78,2.04c-.2.54-.35.9-.44,1.09-.3.59-.62.93-.93,1.03-.32.1-.87-.06-1.64-.46-.61-.32-1.13-.68-1.56-1.11l-2.83-2.77-.67-.73-.65-.84c-.64-.82-1.06-1.28-1.26-1.38-.23-.12-.42,0-.57.36l-.42.9c-.29.67-.63.92-.99.73-.37-.19-.69-.68-.98-1.47l-.56-1.45-.44-1.46c-.1-.31-.19-.48-.27-.52-.08-.04-.15-.01-.2.09l-.22.35-.14.27-.17.34-.42.82c-.29.57-.53.93-.7,1.07-.33.29-.72.3-1.17.02l-.58-.3-1.55-1.11-1.65-1.07-.31-.16-.34-.17c-.47-.29-.98-.23-1.52.18l-.17-.28c.1-.24.24-.88.45-1.93l.15-.58.11-.52.25-.57c.21-.51.53-.82.95-.94.42-.12.87-.04,1.35.23l.35.22.4.28,3.49,2.53.44.27c.49.3.84.24,1.06-.19.12-.22.18-.46.21-.71l.19-1.14c.07-.71.24-1.72.49-3.03l.44-1.47c.1-.36.28-.78.53-1.27.68-1.32,1.55-2.26,2.6-2.8.55-.26,1.11-.4,1.68-.41.18.04.45.09.79.13l.44.11.45.19.52.34Z"/>
  </g>
  <g>
    <path class="cls-13" d="M203.28,212.65l.65.32.64.47c.1.06.19.15.29.26l.33.32.53.65c.54.65.95,1.44,1.22,2.36.18.59.24,1.21.19,1.85-.16.92-.39,1.79-.67,2.61l-1.55,4.17,1.46.24,1.3.11.73.13.92.21,1.29.47c.26.1.61.28,1.05.52l3.84,2.23c.37.23.87.34,1.48.34l.18.11-.83,1.87c-.32.74-.6,1.28-.82,1.6l-.32.53-.25.21c-.25.19-.53.2-.82.02l-3.31-2.03c-.78-.48-1.57-.9-2.38-1.26l-.42-.17-.29-.06-.71-.15c-.32-.09-.61-.15-.87-.17l-.85-.12-1.37-.2-1.24-.28-.88-.21-1.23-.43c-.31-.11-.65-.28-1.02-.51l-1.08-.67-.33-.25c-1.12-.85-1.82-1.94-2.11-3.27-.21-1.02-.17-1.98.13-2.91l.91-2.67.58-1.54.67-1.69.74-1.6.19-.25c1.08-1.59,2.43-1.99,4.04-1.19ZM202.39,217.59l-.6-.61-.64-.4c-.48-.35-.99-.47-1.52-.35-.53.12-.91.41-1.15.88l-.14.23c-.65,1.23-.69,2.6-.13,4.1.42,1.17,1.22,2.11,2.41,2.84l.29.18c.22.13.34.19.37.19.73.35,1.21.55,1.44.61l1.15.28c.36-.99.57-1.66.64-2.03l.08-.39v-.28c.16-.55.03-1.4-.38-2.53-.36-1-.97-1.91-1.83-2.74Z"/>
    <path class="cls-13" d="M251.15,194.24l.03.28-.89,1.22-.71.83-.68.59-.17.12c-.44.33-.88.48-1.32.47s-.94-.33-1.51-.95l-2.67-2.95-2.77-3.13c-.46-.63-.99-1.01-1.58-1.16s-1.25.04-1.97.57c-.33.25-.56.58-.67,1.01-.06.19-.12.67-.17,1.45.07,1.06.17,1.98.32,2.75.43,2.05,1.16,3.78,2.19,5.18.91,1.24,1.65,1.83,2.21,1.79l.15.44-.69.51-.44.39-1.52,1.3c-.56.47-1.08.71-1.56.72-.33-.07-.77-.47-1.32-1.21-.94-1.27-1.66-3.18-2.17-5.73l-.27-1.29-.22-1.46-.16-1.38-.05-1.92c.02-.98.03-2.47.04-4.46l-.02-.2-.06-.25-.14-.36c-.07-.09-.19-.16-.36-.2s-.39.03-.65.22l-.59.48s-.25.31-.69.81l-.63.72-.4.38c-.26.19-.53.09-.82-.3l-2.43-3.3c-.61-.83-1.22-1.27-1.82-1.31l-.09-.24.65-.86c.35-.45.65-.8.9-1.04l.49-.44.22-.16c.26-.22.55-.29.85-.2.31.09.68.39,1.11.89l2.1,2.39c.5.6.89.9,1.17.89.36.02.95-.27,1.78-.89l1.19-.88c.41-.3.66-.38.75-.25.03.12.06.34.1.65l.03.74.19,5.41,1.9-2.64.75-.89c.22-.28.45-.5.69-.68,1.75-1.29,3.29-1.23,4.62.19l6.31,6.71c.4.4.89.6,1.44.63ZM255.42,188.09v.39s.02.45.02.45l.07.97c.14.5.34.92.59,1.27.45.61,1.15.95,2.11,1.01v.17c-.51.66-1,1.14-1.45,1.45l-.32.2-.68.41c-.29.15-.67.22-1.16.22-.23,0-.62-.1-1.16-.3-.33-.18-.58-.28-.74-.31-.05,0-.18.06-.39.16l-.17.12-2.36,2.08-2.24,1.78.08-.53.47-.35c.13-.13.23-.23.29-.3.45-.5.57-.91.33-1.23-.07-.09-.16-.16-.29-.22l.28-.2.61-.1.57-.21.61-.28.53-.39.5-.37c.15-.11.25-.24.31-.4l.1-.5-.09-.41-.08-.45c-.08-.54-.08-.95.02-1.25.22-.7.72-1.34,1.5-1.91l.47-.35.8-.42c.11-.08.32-.18.64-.3l.23.08Z"/>
    <path class="cls-13" d="M300.78,165.42l-.13.2-.54.11c-1.42.29-2.52.33-3.3.14-.9-.26-1.53-.78-1.89-1.55-.3-.66-.48-1.06-.56-1.19-.32-.54-.74-.75-1.25-.63l-3.71.75.31,12.13c.01.4.05.78.13,1.14.11.54.26.98.46,1.3s.43.52.7.58l-.1.2c-.36.07-.78.2-1.25.39-1.08.45-1.77.71-2.09.77-1.1.22-1.76-.22-1.99-1.32l-.06-.3c-.02-.09-.03-.2-.03-.34l-.02-.8-.35-12.7-3.49.81c-.45.09-.75.69-.9,1.8-.03.33-.11.81-.24,1.42-.13.31-.36.69-.71,1.16-.28.36-.7.67-1.25.92-.45.19-.97.36-1.54.52l-1.06.32-.21-.17c.75-.92.9-2.49.46-4.69-.1-.47-.07-.75.08-.82s.39-.15.73-.22l8.16-1.82-.23-6.51c-.19-.94-.93-1.29-2.21-1.03l-.78.16-1.85.37c-.43.09-.76.25-.99.48l-.25-.2c.17-.45.18-1.02.04-1.69-.25-1.26-.76-2.27-1.52-3.03l.2-.22.82-.17,1.27-.22c1.26-.21,2.16-.06,2.68.44.3.31.54.79.72,1.43l.24,1.18c.19.71.71,1,1.55.88h.24s.24-.06.24-.06l1.8-.47c1.25-.3,1.97.03,2.16.98.05.25.08.53.1.83l.11,5.96,8.96-2.02c.27-.08.45-.1.56-.08.11.03.19.14.23.34l.06.44c.04,1.14.09,1.84.15,2.11.23,1.12.69,1.78,1.38,1.97Z"/>
    <path class="cls-13" d="M349.33,169.65c-.63.07-1.23.04-1.81-.09-1.32-.29-2.13-.86-2.44-1.71-.08-.18-.14-.63-.19-1.35l.07-.34c.1-.43.1-.72,0-.88s-.35-.29-.78-.38l-1.71-.38c-.45.44-1.11.8-1.97,1.08-.64.14-1.49.2-2.54.17l-4.64-.08.13.67.54,1.95.08.44.09.58.08,1.22c0,.71-.06,1.36-.19,1.97l-.86,4.35c-.1.47-.04.98.18,1.52l-.04.2-2.07-.18c-.81-.06-1.4-.15-1.77-.25l-.57-.13-.31-.18c-.24-.17-.33-.43-.25-.76l.85-3.79c.22-1.01.35-1.89.38-2.66l-.1-1.47-.13-.98-.41-2.1-.11-.94-.12-1.22c-.06-.79,0-1.6.19-2.42l.28-1.24.12-.39c.14-.44.29-.79.45-1.06,1-1.63,2.57-2.58,4.71-2.83.43-.04,1.37-.05,2.82,0l1.68.06,1.78.08c.82.02,1.4.08,1.76.18l.29.1c1.64.46,2.44,1.6,2.41,3.42l-.1.75-.09.4-.19.56c-.04.18-.16.41-.37.69-.29.55-.64,1.03-1.06,1.45l.73.23,4.52,1.01c.43.1.68.21.77.35l.04.29-.13.57-.26,1.14-.15.67c-.08.45.08.95.48,1.48l-.05.24ZM340.28,160.59l.35-.77.16-.74c.18-.6.13-1.12-.14-1.57s-.69-.71-1.26-.79l-.23-.05c-1.33-.2-2.64.2-3.91,1.21-.42.33-.81.83-1.15,1.49-.35.66-.6,1.38-.77,2.14-.19.87-.29,1.5-.28,1.88v.49s.08.83.08.83h1.27s.86-.06.86-.06c.55-.06,1.18-.27,1.86-.61.61-.31,1.16-.73,1.66-1.25.28-.31.79-1.05,1.52-2.2Z"/>
    <path class="cls-13" d="M395.66,193.03l-.4.14-.87-.5-.64-.46-.72-.53c-.12-.11-.21-.22-.27-.33l-.21-.41c-.3-.56-.39-1.12-.26-1.68.04-.17.24-.73.62-1.67.24-.45.12-.83-.35-1.15l-2.14-1.38c-.12.28-.28.56-.48.84-.38.52-.76.91-1.15,1.17-1.11.75-2.48,1.25-4.1,1.49l-1.35.17-1.56.27,1.05.68,1.75,1.14.25.18c.61.5,1.01,1.03,1.2,1.6.11.39.01.95-.3,1.65l-1.49,2.7-1.11,1.53c-.4.59-.65,1.04-.77,1.35-.21.56-.19,1.05.04,1.47l-.37.16-1.66-.99-1.56-1.01c-.51-.35-.8-.77-.87-1.27,0-.28.2-.69.59-1.23l2.06-2.84c.78-1.08,1.15-2.03,1.1-2.86-.05-.83-.33-1.43-.85-1.81-.26-.19-.54-.27-.85-.24l-2.41.45-1.32.35-1.13.32c-.38.09-.84.36-1.38.79-.54.44-.94.83-1.2,1.18-.44.61-.55,1.15-.33,1.62l-.38.06s-.58-.35-1.63-.97l-1.64-1.02c-.37-.24-.56-.59-.59-1.06.05-.39.27-.84.64-1.35.42-.57,1.01-1.13,1.77-1.68.41-.29.73-.48.97-.57l1.2-.48c1.08-.43,2.69-.78,4.85-1.06l1.71-.2,1.67-.14-.95-.69-1.57-1.23c-.62-.48-1.03-.89-1.23-1.23-.28-.43-.39-.98-.33-1.65l.08-.41.2-.45.57-.9c.57-.86,1.42-1.46,2.54-1.81.61-.18,1.21-.23,1.8-.14l.48.05.36.09.48.1.49.14c.26.11.52.2.78.27.13.01.3-.12.5-.4l1.8-2.48c.13-.19.21-.33.23-.43.02-.1,0-.42-.08-.95l.54-.16,1.46.93,1.18.73c.49.3.77.69.83,1.15.05.32-.05.67-.3,1.06l-2.16,2.98c.77.9,1.27,1.57,1.53,2.02.25.45.43.96.54,1.52.04.14.05.4.03.78l6.73,4.25c.22.16.26.32.13.47l-.29.34-.38.4-.36.5c-.81,1.03-1.06,1.92-.76,2.68ZM386.34,183.03c.73-1.4.54-2.5-.57-3.31l-.17-.12-.21-.11c-.54-.28-1.06-.34-1.56-.2l-.76.29-.42.29-.38.28-.71.68-.52.72-.26.36c-.31.46-.45.99-.44,1.59.02.21.13.48.35.8.38.41.63.67.76.76l.3.22.21.07c.74,0,1.41-.15,2.02-.45,1.13-.54,1.86-1.09,2.2-1.63l.18-.25Z"/>
    <path class="cls-13" d="M429.34,229.04l-.53.32-.26.16c-.13.05-.24.09-.33.12-.17.08-.32.13-.47.16l-.55.09c-1.4.31-2.73.12-4.02-.58l-1.31-1.1-1.95-2.21-1.88-2.29-1.07,1.02-.5.51-.56.67-.55.75-.68.88-.91,1.28-1.08,1.66-.21.25-.16.14c-.08.05-.24,0-.47-.11-1.49-1.65-3.08-3.03-4.79-4.17-.66-.43-1.28-.47-1.85-.12-.57.35-1.05.5-1.46.45-.48-.03-.95-.24-1.43-.62l-1.88-1.51-.32-.33-.32-.25-.48-.39.06-.24.63-.02.71-.15.46-.16.83-.35.4-.2.26-.16c.16-.1.25-.17.28-.21.12-.07.29-.23.53-.48.24-.25.48-.53.72-.84l.29-.06,1.11,1.1,1.12,1.25.19.25c.18.29.18.7,0,1.2,0,.08,0,.24.04.46.07.12.18.23.32.33l.35.31c.18.13.37.25.54.36l.63.3c.47.25.79.32.95.23.1-.06.2-.16.3-.3l.21-.37.98-1.24,1.44-2c1.17-1.6,2.83-3.05,4.96-4.35.63-.38,1.32-.65,2.07-.8.75-.15,1.49-.23,2.21-.24,1.57.01,3.07.51,4.53,1.48.92.62,1.72,1.36,2.4,2.21l1.1,1.35c.25.33.54.76.87,1.29l.23.38c.18.29.3.52.37.67.07.25.16.64.27,1.17l.03.38-.06.36c-.12.37-.43.82-.9,1.36l-.59.48-.82.5ZM428.09,224.69c.25-.15.53-.35.82-.58.14-.17.27-.42.38-.76.01-.11,0-.25-.05-.41l-.17-.34-.2-.32-.3-.3-.38-.29-.24-.13c-.96-.65-2.26-.93-3.91-.86-1.48.04-2.75.4-3.83,1.05l-.32.2-.46.36c-.1.06-.22.16-.38.31l-.36.34c.89,1.07,1.54,1.75,1.93,2.05.67.53,1.5.86,2.49.98.89.05,1.76-.06,2.61-.34l1.31-.43.58-.23.47-.29Z"/>
  </g>
  <g>
    <path class="cls-13" d="M206.54,353.52l-12.43.18c-.28.01-.52.07-.72.18-.33.17-.55.44-.67.81l-.4-.1-.61-1.12-1.1-1.91c-.63-1.07-.58-1.79.13-2.15.35-.18.89-.27,1.63-.28l11.59-.31c.43-.02.78-.09,1.04-.23.31-.16.5-.4.58-.72s-.01-.71-.27-1.17l-.19-.37-.98-1.54c-.16-.31-.2-.57-.13-.78l.15-.23c.06-.08.15-.15.27-.22.29-.15.73-.24,1.32-.29l3.26-.2c.68-.04,1.2-.15,1.57-.34.33-.17.53-.43.62-.78.09-.36.03-.79-.18-1.3l-.09-.18-.09-.18c-.6-1.16-1.52-1.6-2.77-1.33l-1.21.27c-1.19.14-2.17-.2-2.95-1.04s-1.39-1.68-1.82-2.54l.09-.2c.64.14,1.36.04,2.17-.3,1.24-.56,1.91-.85,2.02-.88.26-.05.58.17.96.67.31.41.74.94,1.28,1.59l2.29,2.81.5.75.55.99.6,1.16.57,1.18c.52,1.17.68,2.09.47,2.73-.16.44-.47.78-.94,1.02s-1.11.4-1.92.48l-2.77.26c-.44.05-.77.13-1,.24-.31.16-.44.4-.39.74.01.12.18.57.49,1.33l.57,1.33c.18.45.25.81.21,1.09-.09.33-.28.57-.56.71-.2.1-.44.16-.72.18Z"/>
    <path class="cls-13" d="M239.93,386.12l-1.11.67-.43.22-1.78.9-8.3,3.98c-.73.37-1.32.8-1.78,1.32-.49.55-.72,1.1-.69,1.65l-.31.14-2.74-2.4c-.43-.38-.74-.79-.92-1.24-.1-.37,0-.73.33-1.09l.25-.28.23-.16.23-.16.45-.24,6.34-3.04c.3-.13.75-.33,1.33-.61l6.74-3.31c.41-.22.87-.51,1.37-.9l.56-.47.6-.57c.42-.4.59-.95.51-1.66-.11-.47-.42-.9-.95-1.31l-.28-.25-.13-.12-.3-.18c-.25-.16-.57-.2-.94-.1-.38.09-.73.33-1.07.71l-1.26,1.41-.11.13-.37.41-.35.24c-1.18.88-2.36.92-3.53.12l-1.73-1.23-1.5-1.33-2.31-1.93c-.81-.69-1.32-1.29-1.55-1.8-.29-.72-.13-1.42.49-2.1l.44-.49.34-.39.69-.67c.71-.72,1.53-1.06,2.47-1.02.75.02,1.4.22,1.96.59l.73.47.61.4,1.32,1.04.56.5.31.27.35.22,1.47,1.04c.27.24.58.47.91.68l.93.6,1.92,1.3c.44.33.89.7,1.35,1.12.67.6,1.19,1.26,1.57,2,.55,1.07.69,1.98.42,2.73l-.23.67-.32.72-.38.63-.45.61-.44.44-.16.18-.35.24-.3.24-.21.13-.52.32ZM232.84,375.73c.57-.63.92-1.11,1.06-1.45.21-.58.06-1.1-.45-1.55l-.15-.14-.2-.13c-.5-.36-.92-.55-1.26-.59-.33-.04-.73.11-1.2.43-.64.41-1.21.9-1.72,1.46l-.25.28-.5.57c-.51.68-.4,1.35.33,2l.18.16.25.18c.54.39,1.31.41,2.29.07l.8-.49.51-.47.3-.33Z"/>
    <path class="cls-13" d="M285.5,409.31l-.45.36-1.11-.16-1.04-.35-.59-.2-.3-.18-.37-.2-.37-.3c-.22-.2-.41-.55-.54-1.08v-.5s.01-.81.01-.81c.12-1.13-.21-1.8-.99-2.01l-1.88-.46c-.48.42-1.21.99-2.18,1.72-.87.5-1.92.72-3.13.67-.28-.02-.74-.07-1.37-.14l-2.13-.36-.05,1.32c0,.1.02.55.08,1.37l.05.71.12.84.31,1.55.45,1.57c.31.66,1.04,1.18,2.19,1.57l3.84,1.31c.43.15.71.3.84.47s.12.45-.02.86c-.46,1.35-.54,2.54-.24,3.59l-.45.25-.85-.18-.99-.3-.78-.27-.34-.19-.33-.22c-1.03-.74-1.42-1.74-1.16-3.01.21-.63-.08-1.26-.88-1.9l-.76-.44-.82-.35-1.38-.43c-.79-.24-1.43-.43-1.93-.57-.5-.13-.81-.2-.93-.19l-.35-.04h-.58c-.66-.07-1.07.15-1.24.65-.3.87-1.02,1.48-2.19,1.84l-.75.07-1.1.03c-.29,0-.94-.06-1.93-.18l-.16-.49c.17-.11.43-.39.78-.82l.35-.57.25-.75.1-.29.28-.81.04-.13c.1-.28.3-.37.63-.26l.16.05c2.47.84,4.44,1.1,5.92.78-.03-.28-.11-1.13-.26-2.56l-.31-2.72-.07-1.4.03-1.15.23-1.96c.15-.72.3-1.31.46-1.77l.14-.42.12-.25.1-.29.27-.49.13-.17c.03-.09.08-.16.14-.21l.33-.32c.84-.83,1.71-1.36,2.61-1.59l1.47-.37,1.37-.19,1.43-.02.57.05.9.13.5.13.66.19c.68.21,1.26.43,1.74.66.85.41,1.37,1.13,1.55,2.16.03.54-.03,1.05-.19,1.53-.27.8-.54,1.4-.79,1.8l6.28,2.13c.43.15.68.29.74.43.06.14.02.43-.13.86-.62,1.82-.54,2.95.23,3.38ZM274.7,400.27l.2-.48.18-.41c.2-.51.28-.95.23-1.32-.04-.37-.29-.68-.73-.96l-.28-.13c-.22-.07-.41-.11-.58-.11-.17,0-.31.02-.42.06l-.38.05c-1.05.23-1.93.83-2.65,1.82l-.3.44-.21.51-.09.26-.05.24c-.22.97-.34,1.64-.35,2.03l-.13,1.4.04.59c1.08.08,2-.13,2.75-.63.68-.45,1.25-.97,1.69-1.57.44-.6.81-1.2,1.09-1.81Z"/>
    <path class="cls-13" d="M371.29,412.32l-.09.41-1.09.6c-.48.27-1.15.59-1.99.94-.7.29-1.26.31-1.68.07-.36-.2-.68-.67-.96-1.43l-6.27-15.86c-.92-2.27-2.28-3.04-4.08-2.29-.89.37-1.44,1.12-1.64,2.24-.24,1.39-.1,2.86.41,4.41l.4,1.25.46,1.19,1.31,2.88c.05.13.13.27.22.43l.18.34.22.36.51.78c.13.25.24.41.35.49.36.45.76.72,1.19.81v.29s-2.93,1.89-2.93,1.89l-.43.21c-.74.38-1.39.09-1.96-.86l-.71-1.08-.37-.89-.34-.83-.66-1.33c-.29-.65-.6-1.53-.91-2.64-.1-.23-.15-.42-.16-.57l-.14-.69c-.56-3.21-.06-5.6,1.51-7.14l.64-.6.74-.64.81-.56.87-.51,1.07-.56.51-.21.93-.35.36-.11c.06-.03.25-.05.56-.08,1.34-.18,2.61.13,3.8.92.7.48,1.16,1,1.39,1.55l5.98,15.16c.46,1.18,1.12,1.84,1.99,2.01Z"/>
    <path class="cls-13" d="M401.97,374.12l3.48,11.93c.09.26.21.48.36.65.25.27.57.41.96.43v.41s-.91.89-.91.89l-1.55,1.56c-.87.89-1.57,1.04-2.11.45-.26-.29-.5-.79-.7-1.5l-3.38-11.09c-.13-.41-.29-.72-.5-.94-.23-.25-.52-.38-.85-.37-.33.01-.69.2-1.06.57l-.3.28-1.23,1.36c-.25.23-.49.35-.72.33l-.26-.08c-.1-.04-.19-.1-.28-.21-.22-.24-.43-.63-.63-1.19l-1.06-3.09c-.22-.64-.46-1.12-.74-1.42-.25-.27-.55-.4-.92-.39-.37,0-.77.18-1.2.52l-.15.14-.15.14c-.96.88-1.14,1.89-.54,3.02l.59,1.1c.46,1.11.38,2.15-.22,3.12s-1.26,1.78-1.97,2.43l-.22-.03c-.04-.65-.32-1.32-.86-2.01-.86-1.04-1.33-1.62-1.39-1.71-.12-.23.01-.6.39-1.1.31-.41.71-.96,1.19-1.65l2.1-2.95.59-.68.81-.79.96-.88.99-.86c.99-.82,1.83-1.21,2.51-1.18.47.04.88.25,1.24.64s.68.96.97,1.72l.98,2.6c.16.41.33.71.5.9.23.25.51.31.82.18.12-.04.5-.32,1.15-.83l1.13-.9c.38-.29.72-.46.99-.49.34,0,.62.12.84.35.15.17.28.38.36.65Z"/>
    <path class="cls-13" d="M425.12,336.91l10.17,6.97c.53.32,1.06.27,1.59-.15l.28.14-.25.57-.21.4-.07.28-.85,2.27c-.59,1.14-1.31,1.49-2.16,1.05l-.24-.13-.4-.28-10.88-7.64c-.38-.22-.83-.34-1.37-.35-.43.04-.91.24-1.44.61l-.25.26-.22.35c-.37.61-.47,1.5-.32,2.66.08.74.28,1.36.6,1.85l.44.73.59.81.64.56c.14.07.31.04.51-.09.21-.3.41-.62.6-.93.28-.45.5-.63.67-.55.12.06.39.34.81.84l1.91,2.3c.77.91,1.54,1.69,2.31,2.35l1.08.9,1.69,1.22.18.09c.33.17.65.15.96-.05l.43.22-.78,2.04c-.2.54-.35.9-.44,1.09-.3.59-.62.93-.93,1.03-.32.1-.87-.06-1.64-.46-.61-.32-1.13-.68-1.56-1.11l-2.83-2.77-.67-.73-.65-.84c-.64-.82-1.06-1.28-1.26-1.38-.23-.12-.42,0-.57.36l-.42.9c-.29.67-.63.92-.99.73-.37-.19-.69-.68-.98-1.47l-.56-1.45-.44-1.46c-.1-.31-.19-.48-.27-.52-.08-.04-.15-.01-.2.09l-.22.35-.14.27-.17.34-.42.82c-.29.57-.53.93-.7,1.07-.33.29-.72.3-1.17.02l-.58-.3-1.55-1.11-1.65-1.07-.31-.16-.34-.17c-.47-.29-.98-.23-1.52.18l-.17-.28c.1-.24.24-.88.45-1.93l.15-.58.11-.52.25-.57c.21-.51.53-.82.95-.94.42-.12.87-.04,1.35.23l.35.22.4.28,3.49,2.53.44.27c.49.3.84.24,1.06-.19.12-.22.18-.46.21-.71l.19-1.14c.07-.71.24-1.72.49-3.03l.44-1.47c.1-.36.28-.78.53-1.27.68-1.32,1.55-2.26,2.6-2.8.55-.26,1.11-.4,1.68-.41.18.04.45.09.79.13l.44.11.45.19.52.34Z"/>
  </g>
</svg>