<?xml version="1.0" encoding="UTF-8"?>
<svg id="OBJECT" xmlns="http://www.w3.org/2000/svg" xmlns:xlink="http://www.w3.org/1999/xlink" viewBox="0 0 32 32">
  <defs>
    <style>
      .cls-1 {
        fill: url(#linear-gradient-2);
      }

      .cls-2 {
        fill: url(#linear-gradient-4);
      }

      .cls-3 {
        fill: url(#linear-gradient-3);
      }

      .cls-4 {
        fill: url(#linear-gradient);
      }
    </style>
    <linearGradient id="linear-gradient" x1="5.63" y1="3.57" x2="28.96" y2="3.57" gradientTransform="translate(-1.27 1.64) rotate(-5.25)" gradientUnits="userSpaceOnUse">
      <stop offset="0" stop-color="#d4b56b"/>
      <stop offset=".26" stop-color="#d0b167"/>
      <stop offset=".51" stop-color="#c5a65c"/>
      <stop offset=".74" stop-color="#b2934a"/>
      <stop offset=".97" stop-color="#987930"/>
      <stop offset="1" stop-color="#94752c"/>
    </linearGradient>
    <linearGradient id="linear-gradient-2" x1="5.63" y1="14.04" x2="28.96" y2="14.04" xlink:href="#linear-gradient"/>
    <linearGradient id="linear-gradient-3" x1="5.63" y1="24.16" x2="28.96" y2="24.16" xlink:href="#linear-gradient"/>
    <linearGradient id="linear-gradient-4" x1="8.14" y1="14.62" x2="26.46" y2="14.62" xlink:href="#linear-gradient"/>
  </defs>
  <path class="cls-4" d="M4.82,5.43c0-.06,0-.13,0-.2,0-.05.01-.03.02,0,0,.04.02.1.02.14,0,.03-.04.07-.03.1,0,.06.01.12.02.19,0,.03-.02.03-.02.04.01.09.06.16.05.22,0,.04,0,.08,0,.12,0,.02,0,.05,0,.07,0,.02,0,.03.01.05.03.11.06.25.08.37h0c0-.07-.01-.15,0-.22,0,.03-.01.03-.02,0v-.03c.03.06.04.13.03.19,0,0,0,.03.01.04,0,.02-.01.02-.02.03,0,.01,0,.03,0,.04,0-.02,0-.05.01-.08,0,0,0,0,0-.01,0,0,0,0,.01-.01,0,0,.02-.01.02-.02.01-.01.02-.02.02-.02-.02-.18-.02-.36,0-.53-.05,0-.1-.01-.08-.03.04-.02.07-.03.08-.05,0-.02,0-.05.01-.07,0,0-.01-.02-.02-.02,0,0,0,0,0,0-.03-.01-.07,0-.1,0,0,0,0,0,0,0h0s0,.02,0,.02c0,0,0,0,0-.01h0s0-.01,0-.01c0,0,0,0,0,0h0s.06-.03.07-.04c0,0-.01-.02-.02-.03,0,0,.01.02.02.02,0,0,0,0,0,0,.01.01.02.03.04.04,0,0,.01,0,.02.01,0-.03.01-.05.02-.08l.02-.08s-.01-.02-.02-.03c-.03-.04-.07-.08.06-.1,0,0,0-.02.01-.03,0,0-.02,0-.03,0,0,0,.02,0,.03,0,.02-.04.03-.08.05-.11.02-.04.04-.07.06-.11.02-.04.04-.07.06-.1.15-.22.28-.4.42-.58.14-.17.29-.33.49-.45.06-.03.12-.05.17-.07.06-.02.12-.04.18-.04h.09s.06-.02.09-.02c.06,0,.12,0,.17,0,.06,0,.11,0,.15,0,.01,0,.02,0,.03-.01.01,0,.02,0,.03,0,.02,0,.04-.01.06-.02.02,0,.04-.02.06-.03.02-.01.04-.02.06-.03.04-.02.08-.05.12-.07.04-.02.09-.04.13-.06.05-.01.09-.02.14-.03.05,0,.1,0,.15,0,.02,0,.05,0,.08,0,.03,0,.05,0,.08.01.08,0,.2-.09.36-.21.15-.12.33-.24.46-.32.05-.03.09-.06.12-.09.03-.02.05-.04.08-.06.04-.03.05-.04.05-.05,0-.01,0-.02-.01-.03,0-.01-.02-.02-.02-.03-.07-.06-.15-.1-.25-.14-.1-.03-.22-.07-.4-.13.12.04.07.04-.03.03-.11-.02-.28-.05-.4-.09-.02,0-.04-.02-.07-.02-.02,0-.05-.01-.07-.01-.05,0-.1-.02-.15-.02-.05,0-.11,0-.16,0-.06,0-.11,0-.17.02-.06.01-.11.02-.17.03-.06.01-.11.03-.17.04-.06.02-.11.03-.17.05-.05.02-.11.04-.16.05-.03,0-.06.02-.08.03-.03.01-.05.02-.08.04-.06.03-.11.05-.17.08-.16.08-.31.16-.44.27-.13.11-.26.22-.37.35-.23.26-.41.56-.56.89-.02.04-.03.09-.05.13-.01.04-.02.09-.03.13,0,.04-.01.09-.02.13,0,.04-.01.08-.01.12,0,.06-.03.12-.04.17-.01.06-.02.11-.03.16,0,.08,0,.15,0,.21,0,.07.01.13.02.19,0-.07,0-.13,0-.19ZM5.28,5.03c.05.04.05.06.01.07-.04.01-.1.02-.18.03-.05-.05.02-.09.17-.1Z"/>
  <path class="cls-1" d="M28.89,13.36s-.01-.08-.02-.12c-.05-.43-.22-.82-.46-1.17-.12-.17-.26-.33-.42-.48-.16-.15-.33-.28-.52-.4-.05-.03-.1-.06-.15-.08-.05-.02-.1-.04-.15-.06-.03,0-.05-.02-.07-.03-.02,0-.05-.02-.07-.02-.05-.02-.09-.03-.14-.05-.13-.05-.26-.13-.36-.17-.16-.07-.3-.12-.44-.17.15.06.26.1.43.17.11.05-.09,0-.17-.02-.03,0-.07-.06-.1-.07-.07-.03-.14-.05-.21-.07-.03,0-.02-.03-.03-.04-.1-.04-.2-.04-.26-.07-.05-.03-.09-.05-.13-.07-.03-.01-.05-.03-.08-.04-.02,0-.04-.01-.06-.02-.14-.04-.3-.1-.44-.15h0c.08.04.16.08.24.13-.03-.02-.03-.03.02-.01l.03.03c-.08-.03-.15-.05-.21-.1,0,0-.03,0-.05-.01-.02-.01-.02-.02-.02-.03-.02,0-.03-.01-.05-.02.01.01.05.04.07.06,0,0,0,0,0,0,0,0,0,.01,0,.02,0,.01,0,.02,0,.03,0,.02,0,.03,0,.03.21.09.4.19.57.31.03-.03.07-.08.07-.04,0,.04,0,.08,0,.1.03.02.05.03.08.05.01,0,.02,0,.04,0,0,0,0,0,0,0,.03-.02.04-.06.04-.09,0,0,0,0,0-.01h0s0-.01-.01-.02c0,0,0,0,.01.01h0s0,0,0,0c0,0,0,0,0,0h0s0,.07.01.09c.01,0,.03,0,.04,0-.01,0-.02,0-.04,0,0,0,0,0,0,0-.02,0-.04,0-.06,0,0,0-.01,0-.02.01.06.04.11.08.17.13.02,0,.03,0,.05,0,.06,0,.12-.02.09.11,0,0,.02.02.03.02,0,0,0-.02,0-.03,0,.01,0,.02,0,.03.04.03.08.07.13.1.08.07.16.14.25.21.07.06.13.12.2.17.03.03.07.05.1.08l.08.07s.05.05.08.07l.08.07s.1.09.15.14c.18.2.35.41.43.68.02.07.03.15.05.22,0,.07.01.15,0,.22,0,.07-.01.14-.02.21,0,.03-.02.07-.02.1v.05s-.03.05-.03.05c-.02.06-.03.12-.04.18,0,.03,0,.06,0,.08,0,.03,0,.06,0,.08.01.11.03.22.04.34,0,.11,0,.23-.03.34-.03.11-.09.22-.16.31-.04.08-.02.25,0,.45,0,.05,0,.11,0,.16,0,.06,0,.11,0,.16,0,.06,0,.11,0,.15,0,.05,0,.1-.01.14,0,.13,0,.21,0,.26,0,.05,0,.07,0,.08,0,0,.02,0,.04,0,.02,0,.03,0,.04,0,.05-.02.1-.04.15-.07.05-.03.09-.06.14-.11.05-.04.1-.09.17-.15.05-.06.12-.11.19-.19-.08.08-.05.03.02-.07.04-.05.09-.12.14-.19.03-.03.05-.07.08-.11.03-.03.06-.07.08-.1.15-.17.27-.42.33-.7.06-.28.07-.57.08-.85,0-.07,0-.14-.01-.21,0-.04,0-.07-.01-.11ZM26.64,11.28c-.11.08-.11-.05-.09-.2.07-.02.1.05.09.2Z"/>
  <path class="cls-3" d="M12.06,27.19c-.09.07-.18.13-.29.19.05-.02.04-.01,0,.02-.01,0-.03,0-.04.01.08-.07.16-.13.25-.17,0,0,.03-.03.05-.05.03-.02.03,0,.04,0,.02-.01.04-.03.05-.04-.02,0-.07.03-.11.05,0,0,0,0-.02,0,0,0-.01,0-.02,0-.01,0-.02,0-.03,0-.02,0-.03,0-.03,0-.12.08-.23.16-.35.24-.06.04-.12.07-.17.11-.06.03-.12.06-.17.09,0,.05.02.1-.01.09-.04-.03-.07-.04-.1-.05-.03.01-.07.03-.1.04,0,.01-.02.02-.03.03,0,0,0,0,0,0,0,.03.02.07.04.09,0,0,.01,0,.01,0h.01s.01,0,.02,0c0,0-.01,0-.02,0,0,0,0,0-.01,0h0s0,0,0,0h0s-.06-.04-.09-.04c-.01.01-.02.02-.04.03,0-.01.02-.02.03-.03,0,0,0,0,0,0,.01-.01.02-.03.03-.05,0,0,0,0,0,0,0,0,0,0,0,0,0,0,0,0,0-.01,0,0,0-.02,0-.03-.08.02-.16.05-.25.06-.02.01-.03.02-.04.04-.04.06-.09.11-.17,0-.01,0-.03,0-.04,0,0,0,0,.01.02.02,0,0-.02-.01-.02-.02-.06,0-.13,0-.19,0-.06,0-.12,0-.18,0-.06,0-.12-.02-.18-.02-.19-.04-.37-.09-.54-.15-.17-.06-.33-.12-.49-.2-.3-.16-.59-.37-.78-.66-.2-.32-.26-.69-.22-1.01,0-.04,0-.08.01-.12,0-.04,0-.07,0-.11,0-.04,0-.07,0-.11,0-.04-.01-.09-.02-.13-.03-.22-.08-.44-.13-.65-.05-.22-.09-.43-.11-.66-.03-.22-.04-.45-.05-.68-.03-.35-.54-.97-.81-1.29-.11-.11-.18-.17-.23-.21-.04-.04-.06-.05-.07-.05-.01,0-.02.02-.02.04,0,.02-.01.04-.01.04-.02.14-.02.27-.01.43,0,.16.02.36.02.65,0-.2.02-.13.04.04.02.17.03.43,0,.62-.03.27-.02.6.01.94.02.17.03.34.05.52,0,.09.02.17.02.26,0,.09,0,.17.02.26,0,.04,0,.09.01.13,0,.05.02.09.02.14.01.09.04.19.07.29.13.53.43,1,.82,1.37.2.18.42.34.66.47.24.13.5.23.78.3.3.07.57.06.82.04.18,0,.38-.02.53-.05.23-.05.42-.13.59-.22-.1.04-.18.08-.28.11-.09.04-.19.06-.3.09-.08.02-.05,0,0-.02.06-.03.14-.06.19-.08.04-.02.12,0,.16-.03.05-.01.09-.04.13-.06.04-.02.09-.04.13-.07.04-.03.05,0,.06,0,.03-.02.06-.04.09-.05.03-.02.05-.04.07-.06.04-.04.08-.07.12-.09.06-.03.11-.06.17-.09.03-.02.06-.04.09-.07.02-.02.04-.03.06-.05.14-.12.3-.26.45-.38h0ZM9.86,27.9c.07-.12.13-.01.21.13-.05.06-.14.02-.21-.13Z"/>
  <path class="cls-2" d="M13.37,21.65c.07.04,1.15.62,2.58.69l-4.04,2.86c-1.18.84-2.83.08-2.96-1.37l-1.54-16.73c-.12-1.28,1.03-2.24,2.21-2.03-.12.11-.23.26-.33.44-.42.82-.36,1.66-.32,1.93.26,2.11,2.87,3.94,3.11,4.1-.14-.12-.35-.3-.59-.54-.34-.35-.97-1.01-1.37-2.03-.18-.48-.4-1.07-.21-1.71.11-.36.28-.51.32-.56.32-.29.81-.37,1.24-.14.57.29.86.78,1.04,1.36.41,1.35.04,2.67-.25,3.59-.12.39-.28.81-.5,1.38-.36.94-.46,1.09-.63,1.62-.12.37-.34,1.03-.43,1.82-.04.42-.14,1.41.22,2.46.59,1.76,2.08,2.65,2.45,2.86ZM25.33,12.25l-12.48-5.75c.09.12.18.25.26.38,1,1.62,1.25,3.35.85,5.21-.27,1.24-.55,2.49-.66,3.75-.08.91.07,1.75.48,2.47.14.24.48.85,1.21,1.29.21.13,1.22.76,2.47.44.95-.24,1.92-1.01,2.11-2.02.11-.62-.1-1.15-.12-1.2-.18-.44-.48-.7-.65-.85-.18-.15-.44-.37-.84-.47-.27-.06-.48-.05-.52-.05-.06,0-1.01.1-1.32.87-.02.06-.24.64.09,1.15.31.48,1,.7,1.42.46.15-.09.3-.25.35-.46.05-.22,0-.47-.18-.65-.12-.12-.32-.21-.51-.18-.04,0-.15.03-.23.12-.05.05-.07.1-.08.14.03-.03.1-.1.22-.11.15-.01.28.07.34.18.05.09.05.18.05.21,0,.13-.07.22-.1.25-.11.14-.28.17-.33.17-.26.04-.46-.12-.49-.14-.15-.13-.2-.28-.21-.34-.09-.31.07-.57.11-.63.12-.2.29-.3.38-.34.22-.11.43-.09.54-.08.09,0,.44.05.72.33.4.41.31.98.29,1.11,0,.04-.01.08-.02.1-.03.16-.12.43-.33.68-.53.63-1.42.56-1.56.55-.8-.06-1.34-.61-1.42-.69-.7-.71-.66-1.65-.65-1.88,0-.2.06-.91.55-1.56.77-1,2.13-1.22,3.11-1.06,1.84.3,2.65,1.99,2.77,2.25.56,1.2.34,2.31.27,2.63,0,.04-.02.07-.02.1l4.45-3.15c1.18-.84,1.02-2.64-.3-3.25Z"/>
</svg>