<svg xmlns="http://www.w3.org/2000/svg" width="70.386" height="74.805" viewBox="0 0 70.386 74.805"><defs><style>.a{fill:#ccb87d;}</style></defs><g transform="translate(-3.89 -3.556)"><path class="a" d="M20.323,38.651a1.325,1.325,0,0,0,0-2.651A1.325,1.325,0,0,0,20.323,38.651Z" transform="translate(4.918 10.554)"/><path class="a" d="M72.951,49.2H65V30.566l3.095,2.062a1.323,1.323,0,0,0,1.837-.366c3.2-4.782,3.284-4.676,3.141-5.4-.162-.814,2.138.957-33.843-23.03-1.05-.7,1.447-1.946-34.749,22.185a1.327,1.327,0,0,0-.366,1.84c4.2,6.287,2.926,6,7.874,2.7V61.132h-5.3a1.325,1.325,0,0,0-1.325,1.325v6.626a1.325,1.325,0,0,0,1.325,1.325H53.4a20.211,20.211,0,0,0,8.687,7.813,1.331,1.331,0,0,0,1.2-.008A20.235,20.235,0,0,0,74.276,60.178V50.53A1.324,1.324,0,0,0,72.951,49.2ZM8.524,29.688l-1.47-2.2L38.493,6.533l31.44,20.958-1.471,2.2C36.919,8.658,38.811,9.495,37.758,10.2Zm6.114-.887L38.493,12.9,62.348,28.8V49.2h-5.3V34.626A1.324,1.324,0,0,0,55.722,33.3H45.12a1.324,1.324,0,0,0-1.325,1.325V51.855H42.469a1.325,1.325,0,0,0,0,2.651h7.952c0,5.039-.017,5.733.041,6.626H38.493V34.626A1.325,1.325,0,0,0,37.168,33.3h-15.9a1.325,1.325,0,0,0-1.325,1.325V61.132h-5.3ZM51.746,49.2a1.324,1.324,0,0,0-1.325,1.325v1.325H46.445V45.229H54.4V49.2ZM54.4,42.578H46.445V35.951H54.4ZM35.843,61.132H22.59V35.951H35.843ZM8.012,67.758V63.783c46.312,0,42.761-.182,42.868.323a22.675,22.675,0,0,0,1.14,3.652Zm63.614-7.581a17.584,17.584,0,0,1-8.97,15.364A17.526,17.526,0,0,1,55.3,68.436c-2.759-4.916-2.229-8.675-2.229-16.581H71.626Z" transform="translate(0 0)"/><path class="a" d="M45.267,47.043a1.325,1.325,0,0,0-1.874,1.874c4.126,4.126,4.146,4.364,4.913,4.364s.47.078,7.563-7.015A1.325,1.325,0,0,0,54,44.393l-5.689,5.689Z" transform="translate(12.717 13.152)"/></g></svg>