<svg xmlns="http://www.w3.org/2000/svg" xmlns:xlink="http://www.w3.org/1999/xlink" width="104" height="120" viewBox="0 0 104 120">
  <defs>
    <clipPath id="clip-path">
      <rect id="SVGID" width="104" height="120" transform="translate(0.381 -0.136)" fill="#ccb87d"/>
    </clipPath>
  </defs>
  <g id="Group_122" data-name="Group 122" transform="translate(-129.992 -229.737)">
    <g id="Group_121" data-name="Group 121" transform="translate(129.61 229.873)">
      <g id="Group_120" data-name="Group 120" transform="translate(0 0)" clip-path="url(#clip-path)">
        <path id="Path_259" data-name="Path 259" d="M130.6,261.8V315.67a9.986,9.986,0,0,0,9.975,9.975h19.95a2.025,2.025,0,0,1,1.6.8l15.745,20.987a6,6,0,0,0,9.273-.08l15.681-20.907a2.033,2.033,0,0,1,1.6-.8h19.95a9.986,9.986,0,0,0,9.975-9.975V261.8a9.987,9.987,0,0,0-9.975-9.975H211.3a29.918,29.918,0,0,0-57.672,0H140.577A9.987,9.987,0,0,0,130.6,261.8Zm50.614-27.9a25.935,25.935,0,0,1,27.19,25.905,25.63,25.63,0,0,1-8.217,18.906,25.335,25.335,0,0,0-7.743,18.54v2.454H172.5v-2.119a26.1,26.1,0,0,0-7.854-18.981,25.911,25.911,0,0,1,16.573-44.706Zm7.24,79.771H176.487a3.99,3.99,0,0,1-3.99-3.99V303.7h19.95v5.985a3.99,3.99,0,0,1-3.99,3.99ZM134.591,261.8a5.986,5.986,0,0,1,5.986-5.985H152.84c-.056.418-.134.828-.169,1.251a29.785,29.785,0,0,0,9.23,24.439,22.088,22.088,0,0,1,6.606,16.082v12.094a7.981,7.981,0,0,0,5.985,7.7v2.278a2,2,0,0,0,3.99,0v-1.994h7.981v1.994a2,2,0,0,0,3.99,0v-2.278a7.981,7.981,0,0,0,5.985-7.7V297.257a21.319,21.319,0,0,1,6.478-15.625,29.586,29.586,0,0,0,9.482-21.822,30.423,30.423,0,0,0-.293-3.99h12.263a5.986,5.986,0,0,1,5.986,5.985V315.67a5.985,5.985,0,0,1-5.986,5.985h-19.95a6.049,6.049,0,0,0-4.788,2.394l-15.617,20.83a2.136,2.136,0,0,1-3.016.08l-15.681-20.911a6.042,6.042,0,0,0-4.788-2.394h-19.95a5.985,5.985,0,0,1-5.986-5.985Zm0,0" transform="translate(-130.09 -229.871)" fill="#ccb87d"/>
      </g>
    </g>
    <path id="Path_260" data-name="Path 260" d="M279.8,409.089a2,2,0,0,0-1.994,2v5.985a2,2,0,0,0,3.99,0v-5.985a2,2,0,0,0-2-2Zm0,0" transform="translate(-101.794 -123.342)" fill="#ccb87d"/>
    <path id="Path_261" data-name="Path 261" d="M277.8,374.681a2,2,0,0,0,3.99,0v-2a2,2,0,0,0-3.99,0Zm0,0" transform="translate(-101.794 -96.914)" fill="#ccb87d"/>
    <path id="Path_262" data-name="Path 262" d="M305.394,419.064a1.994,1.994,0,0,0,1.994-1.994v-5.985a2,2,0,1,0-3.99,0v5.985a2,2,0,0,0,2,1.994Zm0,0" transform="translate(-119.412 -123.342)" fill="#ccb87d"/>
    <path id="Path_263" data-name="Path 263" d="M305.394,376.676a2,2,0,0,0,1.994-1.994v-2a2,2,0,0,0-3.99,0v2a2,2,0,0,0,2,1.994Zm0,0" transform="translate(-119.412 -96.914)" fill="#ccb87d"/>
    <path id="Path_264" data-name="Path 264" d="M168.169,248.259a2,2,0,0,0,1.247-3.553l-9.975-7.98a2,2,0,1,0-2.494,3.116l9.975,7.98a1.994,1.994,0,0,0,1.247.437Zm0,0" transform="translate(-18.097 -4.407)" fill="#ccb87d"/>
    <path id="Path_265" data-name="Path 265" d="M396.239,247.822l9.975-7.98a2,2,0,1,0-2.494-3.116l-9.975,7.98a2,2,0,0,0,2.494,3.116Zm0,0" transform="translate(-181.082 -4.407)" fill="#ccb87d"/>
    <path id="Path_266" data-name="Path 266" d="M156.636,433.11a2,2,0,0,0,2.805.312l9.975-7.981a2,2,0,0,0-2.494-3.116l-9.975,7.979a2,2,0,0,0-.312,2.805Zm0,0" transform="translate(-18.098 -132.151)" fill="#ccb87d"/>
    <path id="Path_267" data-name="Path 267" d="M403.721,433.422a2,2,0,0,0,2.494-3.117l-9.975-7.979a2,2,0,0,0-2.494,3.116Zm0,0" transform="translate(-181.082 -132.151)" fill="#ccb87d"/>
    <path id="Path_268" data-name="Path 268" d="M234.608,277.809a1.914,1.914,0,0,0,.381.038,1.994,1.994,0,0,0,1.956-1.616c1.431-7.348,8.706-10.476,8.778-10.506a1.995,1.995,0,1,0-1.522-3.688c-.381.156-9.329,3.938-11.172,13.437a2,2,0,0,0,1.579,2.335Zm0,0" transform="translate(-70.953 -22.025)" fill="#ccb87d"/>
    <path id="Path_269" data-name="Path 269" d="M158.195,336.278h5.985a2,2,0,0,0,0-3.99h-5.985a2,2,0,1,0,0,3.99Zm0,0" transform="translate(-18.098 -70.482)" fill="#ccb87d"/>
    <path id="Path_270" data-name="Path 270" d="M407.8,336.278h5.985a2,2,0,1,0,0-3.99H407.8a2,2,0,0,0,0,3.99Zm0,0" transform="translate(-189.894 -70.482)" fill="#ccb87d"/>
  </g>
</svg>
