<svg xmlns="http://www.w3.org/2000/svg" width="64" height="64" viewBox="0 0 64 64"><defs><style>.a{fill:#ccb87d;}</style></defs><g transform="translate(-417.456 1392.298) rotate(-90)"><path class="a" d="M1391.517,417.456h-62.439a.782.782,0,0,0-.78.781v62.439a.781.781,0,0,0,.78.78h37.464a.781.781,0,0,0,.78-.78V468.968h5.464a.781.781,0,0,0,.78-.78v-6.244a.781.781,0,0,0-.78-.78H1364.2v-2.342a.781.781,0,0,0-.78-.78H1360.3a.782.782,0,0,0-.781.78v14.829H1336.1V450.237h23.414v2.341a.783.783,0,0,0,.781.781h3.122a.782.782,0,0,0,.78-.781v-6.244a.781.781,0,0,0-.78-.78H1336.1V425.261h23.414v14.83a.783.783,0,0,0,.781.78h3.122a.782.782,0,0,0,.78-.78v-14.83h7.805v10.927h-2.341a.782.782,0,0,0-.781.78v3.123a.782.782,0,0,0,.781.78h6.244a.782.782,0,0,0,.78-.78v-14.83h7.805v10.927h-2.341a.783.783,0,0,0-.781.78v3.123a.783.783,0,0,0,.781.78h2.341v20.293h-5.463a.782.782,0,0,0-.781.78v6.244a.782.782,0,0,0,.781.78h12.487a.782.782,0,0,0,.781-.78V418.237A.783.783,0,0,0,1391.517,417.456Zm-.78,49.952H1379.81v-4.683h5.463a.783.783,0,0,0,.781-.781V440.091a.783.783,0,0,0-.781-.781h-2.341v-1.561h2.341a.783.783,0,0,0,.781-.781V424.481a.783.783,0,0,0-.781-.781h-9.365a.783.783,0,0,0-.781.781V439.31h-4.683v-1.561h2.342a.782.782,0,0,0,.78-.781V424.481a.782.782,0,0,0-.78-.781h-9.366a.783.783,0,0,0-.781.781V439.31h-1.561V424.481a.782.782,0,0,0-.78-.781h-24.976a.782.782,0,0,0-.78.781v21.853a.782.782,0,0,0,.78.781h27.317V451.8h-1.561v-2.342a.781.781,0,0,0-.78-.78h-24.976a.781.781,0,0,0-.78.78v24.976a.781.781,0,0,0,.78.78H1360.3a.781.781,0,0,0,.78-.78V459.6h1.561v2.341a.783.783,0,0,0,.781.781h8.585v4.683h-5.463a.782.782,0,0,0-.781.78v11.707h-35.9V419.017h60.878Z"/></g></svg>