<svg xmlns="http://www.w3.org/2000/svg" width="64" height="64" viewBox="0 0 64 64"><defs><style>.a{fill:#ccb87d;}</style></defs><g transform="translate(-1618.115 -764.32)"><path class="a" d="M1632.944,797.1a.781.781,0,0,0,.647-.343c.323-.479,7.939-11.794,7.939-17.729a8.586,8.586,0,0,0-17.171,0c0,5.935,7.616,17.25,7.939,17.729A.78.78,0,0,0,1632.944,797.1Zm0-24.976a6.974,6.974,0,0,1,7.025,6.9c0,4.506-5.177,12.982-7.025,15.865-1.847-2.883-7.024-11.359-7.024-15.865A6.975,6.975,0,0,1,1632.944,772.125Z"/><path class="a" d="M1637.628,779.029a4.683,4.683,0,1,0-4.684,4.683A4.689,4.689,0,0,0,1637.628,779.029Zm-7.805,0a3.122,3.122,0,1,1,3.121,3.122A3.125,3.125,0,0,1,1629.823,779.029Z"/><path class="a" d="M1681.335,764.32H1618.9a.782.782,0,0,0-.781.781V827.54a.781.781,0,0,0,.781.78h62.439a.78.78,0,0,0,.78-.78V765.1A.781.781,0,0,0,1681.335,764.32Zm-.781,62.439h-60.878V765.881h60.878Z"/><path class="a" d="M1622.018,814.272a.781.781,0,1,0,0,1.561h8.585v8.585a.78.78,0,0,0,1.561,0v-8.585h10.927v8.585a.781.781,0,0,0,1.561,0v-8.585h10.927v8.585a.781.781,0,0,0,1.561,0v-8.585h10.927v8.585a.78.78,0,1,0,1.56,0v-8.585h8.586a.781.781,0,0,0,0-1.561h-8.586V803.345h8.586a.78.78,0,0,0,0-1.561h-8.586V790.857h8.586a.78.78,0,0,0,0-1.561h-8.586V778.369h8.586a.781.781,0,0,0,0-1.561h-8.586v-8.585a.78.78,0,1,0-1.56,0v8.585H1657.14v-8.585a.781.781,0,1,0-1.561,0v8.585h-10.927v-8.585a.781.781,0,1,0-1.561,0V789.3h-2.811a.78.78,0,1,0,0,1.561h2.811v10.927h-10.927V799.6a.78.78,0,1,0-1.561,0v2.186h-8.585a.78.78,0,1,0,0,1.561h8.585v10.927Zm35.122-35.9h10.927V789.3H1657.14Zm0,12.488h10.927v10.927H1657.14Zm0,12.488h10.927v10.927H1657.14Zm-12.488-24.976h10.927V789.3h-10.927Zm0,12.488h10.927v10.927h-10.927Zm0,12.488h10.927v10.927h-10.927Zm-12.488,0h10.927v10.927h-10.927Z"/><path class="a" d="M1622.018,790.857h3.591a.78.78,0,1,0,0-1.561h-3.591a.78.78,0,1,0,0,1.561Z"/></g></svg>