<svg xmlns="http://www.w3.org/2000/svg" xmlns:xlink="http://www.w3.org/1999/xlink" width="30.066" height="27.8" viewBox="0 0 30.066 27.8"><defs><style>.a{fill:#ccb87d;}.b{clip-path:url(#a);}</style><clipPath id="a"><rect class="a" width="30.066" height="27.8"/></clipPath></defs><g transform="translate(-301 -188.276)"><path class="a" d="M414.273,240.662v9.166h5.842v-1.612h-4.23v-7.554Zm0,0" transform="translate(-99.011 -45.791)"/><g transform="translate(301 188.276)"><g class="b" transform="translate(0 0)"><path class="a" d="M331.625,202.347a13.932,13.932,0,0,0-27.67-2.314h-2.237l3.858,6.648,3.971-6.648h-2.312A10.709,10.709,0,1,1,320.02,212.8v3.286a13.979,13.979,0,0,0,11.605-13.734Zm0,0" transform="translate(-301.628 -188.402)"/><path class="a" d="M303.457,352.915l1.025-1.09a16.247,16.247,0,0,0,1.371-1.634,2.211,2.211,0,0,0,.372-1.267,2.118,2.118,0,0,0-.7-1.68,2.856,2.856,0,0,0-1.948-.613,2.517,2.517,0,0,0-1.889.731,2.4,2.4,0,0,0-.687,1.8l.01.045h1.717a1.427,1.427,0,0,1,.226-.87.718.718,0,0,1,.622-.343.82.82,0,0,1,.663.257,1.038,1.038,0,0,1,.221.7,1.607,1.607,0,0,1-.218.722,4.928,4.928,0,0,1-.664.947l-2.418,2.559v1.169H306.4v-1.41h-2.926Zm0,0" transform="translate(-301 -326.693)"/></g></g><path class="a" d="M349.161,347.656h-1.712v-.029l-3.057,4.893.085,1.079h2.972v1.612h1.712V353.6h.806V352.29h-.806Zm-1.712,4.633h-1.5l1.3-2.164.154-.228.05,0Zm0,0" transform="translate(-37.928 -139.288)"/><path class="a" d="M399.309,354.716v-3.261a5.412,5.412,0,0,0-.021-.671,2.376,2.376,0,0,0-.447-1.218,1.67,1.67,0,0,0-1.368-.608,1.521,1.521,0,0,0-.787.211,1.339,1.339,0,0,0-.6.591v-2.7h-1.813v7.655h1.813V350.6c0-.091.168-.16.293-.211a1.13,1.13,0,0,1,.433-.075.712.712,0,0,1,.593.245,1.487,1.487,0,0,1,.192.89v3.271Zm0,0" transform="translate(-81.529 -138.794)"/></g></svg>