<svg xmlns="http://www.w3.org/2000/svg" xmlns:xlink="http://www.w3.org/1999/xlink" width="30" height="37" viewBox="0 0 30 37"><defs><style>.a{fill:#ccb87d;}.b{clip-path:url(#a);}</style><clipPath id="a"><rect class="a" width="30" height="37" transform="translate(0.436 -0.443)"/></clipPath></defs><g transform="translate(-243.436 -124.833)"><g transform="translate(-15 17)"><g transform="translate(258 108.276)"><g class="b" transform="translate(0 0)"><path class="a" d="M328.29,243.7h-1.6l1.686-2.024a.858.858,0,1,0-1.318-1.1l-2.859,3.43a.858.858,0,0,0,.659,1.407h1.6l-1.686,2.024a.858.858,0,0,0,1.318,1.1l2.859-3.43a.858.858,0,0,0-.659-1.407Zm0,0" transform="translate(-317.713 -227.697)"/><path class="a" d="M280.011,122a8.8,8.8,0,0,0-4.288,1.109v-4.825a.858.858,0,0,0-.858-.858h-.858v-6.575a2.573,2.573,0,0,0-5.146,0v6.575h-4v-6.575a2.573,2.573,0,1,0-5.145,0v6.575h-.858a.858.858,0,0,0-.858.858v9.148a5.437,5.437,0,0,0,5.431,5.431H266V134a2.862,2.862,0,0,0,2.859,2.859,1.143,1.143,0,1,1,0,2.287h-4.022a2.859,2.859,0,0,0-2.857,2.931l.035,1.378a.857.857,0,0,0,.857.836h.022a.858.858,0,0,0,.836-.879l-.035-1.379a1.143,1.143,0,0,1,1.143-1.173h4.022a2.859,2.859,0,1,0,0-5.717A1.145,1.145,0,0,1,267.719,134V132.86h2.573a5.441,5.441,0,0,0,1.063-.1A8.862,8.862,0,1,0,280.011,122Zm-9.433-11.149a.858.858,0,1,1,1.715,0v6.575h-1.715Zm-9.148,0a.858.858,0,1,1,1.715,0v6.575H261.43Zm8.862,20.3h-6.861a3.72,3.72,0,0,1-3.716-3.716v-8.29h14.293v5.208a8.838,8.838,0,0,0-2.859,6.512c0,.062,0,.124,0,.186a3.716,3.716,0,0,1-.86.1Zm9.719,6.861a7.146,7.146,0,1,1,6.6-4.411,7.164,7.164,0,0,1-6.6,4.411Zm0,0" transform="translate(-258 -108.276)"/></g></g><path class="a" d="M482.126,379.134a.858.858,0,1,1-.858-.858.858.858,0,0,1,.858.858Zm0,0" transform="translate(-201.217 -244.273)"/><path class="a" d="M461.891,337.114a4.862,4.862,0,0,0-5.555.067.858.858,0,0,0,1,1.4,3.148,3.148,0,0,1,3.593-.043.858.858,0,1,0,.964-1.419Zm0,0" transform="translate(-179.111 -206.274)"/><path class="a" d="M442.5,302a8.294,8.294,0,0,0-10.2.068.858.858,0,0,0,1.065,1.345,6.579,6.579,0,0,1,8.092-.054A.858.858,0,1,0,442.495,302Zm0,0" transform="translate(-157.386 -173.705)"/></g></g></svg>