<svg xmlns="http://www.w3.org/2000/svg" width="125.602" height="116.234" viewBox="0 0 125.602 116.234">
  <g id="Group_125" data-name="Group 125" transform="translate(-92 -231.89)">
    <path id="Path_271" data-name="Path 271" d="M211.262,231.89h-91.9a6.347,6.347,0,0,0-6.339,6.34v9.623H98.34a6.347,6.347,0,0,0-6.34,6.34v81.577a12.368,12.368,0,0,0,12.265,12.351h.025l.065,0h65.084a1.84,1.84,0,1,0,0-3.68h-56.3a12.309,12.309,0,0,0,3.566-8.673V292.746a1.84,1.84,0,1,0-3.68,0v43.025a8.683,8.683,0,0,1-8.627,8.672h-.047a8.684,8.684,0,0,1-8.675-8.671V254.194a2.664,2.664,0,0,1,2.66-2.66h14.688v34.344a1.84,1.84,0,0,0,3.68,0V238.23a2.663,2.663,0,0,1,2.659-2.66h91.9a2.663,2.663,0,0,1,2.66,2.66v97.54a8.684,8.684,0,0,1-8.675,8.673h-28.94a1.84,1.84,0,0,0,0,3.68h28.94A12.368,12.368,0,0,0,217.6,335.771V238.23a6.348,6.348,0,0,0-6.34-6.34Zm0,0" transform="translate(0 0)" fill="#ccb87d"/>
    <path id="Path_272" data-name="Path 272" d="M213.612,394.557h25.233A4.358,4.358,0,0,0,243.2,390.2V364.97a4.358,4.358,0,0,0-4.354-4.353H213.612a4.358,4.358,0,0,0-4.354,4.353V390.2a4.358,4.358,0,0,0,4.354,4.353Zm-.674-29.587a.674.674,0,0,1,.674-.673h25.233a.675.675,0,0,1,.674.673V390.2a.675.675,0,0,1-.674.673H213.612a.675.675,0,0,1-.674-.673Zm0,0" transform="translate(-81.302 -89.254)" fill="#ccb87d"/>
    <path id="Path_273" data-name="Path 273" d="M337.594,364.3h34.148a1.84,1.84,0,0,0,0-3.68H337.594a1.84,1.84,0,1,0,0,3.68Zm0,0" transform="translate(-169.008 -89.254)" fill="#ccb87d"/>
    <path id="Path_274" data-name="Path 274" d="M337.594,413.641h34.148a1.84,1.84,0,0,0,0-3.68H337.594a1.84,1.84,0,0,0,0,3.68Zm0,0" transform="translate(-169.008 -123.467)" fill="#ccb87d"/>
    <path id="Path_275" data-name="Path 275" d="M337.594,462.98h34.148a1.84,1.84,0,0,0,0-3.68H337.594a1.84,1.84,0,1,0,0,3.68Zm0,0" transform="translate(-169.008 -157.676)" fill="#ccb87d"/>
    <path id="Path_276" data-name="Path 276" d="M211.1,512.32h72.937a1.84,1.84,0,0,0,0-3.68H211.1a1.84,1.84,0,0,0,0,3.68Zm0,0" transform="translate(-81.302 -191.886)" fill="#ccb87d"/>
    <path id="Path_277" data-name="Path 277" d="M211.1,561.664h72.937a1.84,1.84,0,0,0,0-3.68H211.1a1.84,1.84,0,1,0,0,3.68Zm0,0" transform="translate(-81.302 -226.099)" fill="#ccb87d"/>
    <path id="Path_278" data-name="Path 278" d="M209.414,283.177V263.735a.99.99,0,0,1,.569-.913,2.812,2.812,0,0,1,1.377-.315,2.919,2.919,0,0,1,1.648.389,4.875,4.875,0,0,1,1.259,1.677l5.781,11.174V263.706a.963.963,0,0,1,.569-.9,3.32,3.32,0,0,1,2.756,0,.963.963,0,0,1,.569.9v19.471a1,1,0,0,1-.584.9,2.717,2.717,0,0,1-1.362.33,2.337,2.337,0,0,1-2.247-1.228l-6.441-12.043v12.043a1,1,0,0,1-.583.9,2.723,2.723,0,0,1-1.364.33,2.7,2.7,0,0,1-1.377-.33,1,1,0,0,1-.57-.9Zm0,0" transform="translate(-81.41 -21.228)" fill="#ccb87d"/>
    <path id="Path_279" data-name="Path 279" d="M268.516,283.177V263.735a1.021,1.021,0,0,1,.51-.9,2.156,2.156,0,0,1,1.2-.33h10.664a1.009,1.009,0,0,1,.913.509,2.183,2.183,0,0,1,.315,1.169,2.213,2.213,0,0,1-.329,1.228,1.02,1.02,0,0,1-.9.509H272.41v5.992h4.554a1.045,1.045,0,0,1,.9.465,1.839,1.839,0,0,1,.329,1.092,1.809,1.809,0,0,1-.315,1.035,1.035,1.035,0,0,1-.913.464H272.41v6.022h8.478a1.022,1.022,0,0,1,.9.509,2.216,2.216,0,0,1,.329,1.228,2.183,2.183,0,0,1-.315,1.169,1.006,1.006,0,0,1-.913.508H270.224a2.155,2.155,0,0,1-1.2-.328,1.021,1.021,0,0,1-.51-.9Zm0,0" transform="translate(-122.388 -21.228)" fill="#ccb87d"/>
    <path id="Path_280" data-name="Path 280" d="M319.219,264.065a1.311,1.311,0,0,1,.808-1.094,3.318,3.318,0,0,1,1.677-.465q1.08,0,1.288.779l4.734,16.237,2.547-10.425q.27-1.08,1.917-1.079,1.619,0,1.888,1.079l2.547,10.425,4.732-16.237q.21-.778,1.289-.779a3.321,3.321,0,0,1,1.677.465,1.311,1.311,0,0,1,.809,1.094,1.14,1.14,0,0,1-.06.359l-5.931,18.842q-.449,1.319-2.545,1.319a3.694,3.694,0,0,1-1.618-.345,1.455,1.455,0,0,1-.868-.974l-1.917-8.088-1.948,8.088a1.458,1.458,0,0,1-.868.974,3.7,3.7,0,0,1-1.618.345,3.759,3.759,0,0,1-1.647-.345,1.553,1.553,0,0,1-.9-.974l-5.932-18.842a1.105,1.105,0,0,1-.06-.359Zm0,0" transform="translate(-157.544 -21.228)" fill="#ccb87d"/>
    <path id="Path_281" data-name="Path 281" d="M406.945,280.618a2.333,2.333,0,0,1,.523-1.393,1.482,1.482,0,0,1,1.184-.7,1.535,1.535,0,0,1,.884.374,10.405,10.405,0,0,1,.958.824,4.391,4.391,0,0,0,1.333.826,4.806,4.806,0,0,0,1.917.373,4.129,4.129,0,0,0,2.4-.659,2.207,2.207,0,0,0,.958-1.946,2.615,2.615,0,0,0-.523-1.6,4.193,4.193,0,0,0-1.379-1.168c-.568-.309-1.193-.61-1.871-.9s-1.364-.615-2.053-.974a11.97,11.97,0,0,1-1.887-1.213,4.844,4.844,0,0,1-1.377-1.8,5.975,5.975,0,0,1-.525-2.56,6.036,6.036,0,0,1,.645-2.844,4.9,4.9,0,0,1,1.721-1.915,8.064,8.064,0,0,1,2.307-1,10.364,10.364,0,0,1,2.606-.32,13.375,13.375,0,0,1,1.647.109,15.155,15.155,0,0,1,1.842.353,3.875,3.875,0,0,1,1.587.768,1.576,1.576,0,0,1,.615,1.231,2.721,2.721,0,0,1-.419,1.38,1.274,1.274,0,0,1-1.138.713,5.682,5.682,0,0,1-1.469-.569,6.13,6.13,0,0,0-2.665-.57,4.349,4.349,0,0,0-2.5.615,2.008,2.008,0,0,0-.165,3.205,5.609,5.609,0,0,0,1.783,1.048q1.062.4,2.307,1.019a19.633,19.633,0,0,1,2.306,1.333,5.586,5.586,0,0,1,1.782,2.081,6.748,6.748,0,0,1,.719,3.191,5.887,5.887,0,0,1-1.961,4.742,7.712,7.712,0,0,1-5.168,1.668,9.647,9.647,0,0,1-4.882-1.169q-2.038-1.166-2.036-2.545Zm0,0" transform="translate(-218.369 -20.887)" fill="#ccb87d"/>
  </g>
</svg>
