<svg xmlns="http://www.w3.org/2000/svg" width="63.999" height="64" viewBox="0 0 63.999 64"><defs><style>.a{fill:#ccb87d;}</style></defs><g transform="translate(-458.846 -533.078)"><path class="a" d="M522.065,533.078H459.626a.78.78,0,0,0-.78.78V596.3a.781.781,0,0,0,.78.781h15.61a.781.781,0,0,0,.78-.781,38.4,38.4,0,0,0-6.5-21.853h1.038a2.345,2.345,0,0,0,2.341-2.342v-1.561a2.307,2.307,0,0,0-.245-1.021c7.1-4.8,15.2-15.451,18.2-23.659,2.995,8.208,11.1,18.854,18.2,23.659a2.308,2.308,0,0,0-.245,1.021V572.1a2.345,2.345,0,0,0,2.341,2.342h1.038a38.4,38.4,0,0,0-6.5,21.853.781.781,0,0,0,.78.781h15.61a.781.781,0,0,0,.78-.781V533.858A.78.78,0,0,0,522.065,533.078Zm-61.659,8.889a7.9,7.9,0,0,0,5.464,2.038,8.742,8.742,0,0,0,2.981-.515c-.541,7.715-2.8,19.546-6.589,24.71h-1.075a2.307,2.307,0,0,0-.781.144Zm10.059.708a6.355,6.355,0,0,0,1-.823.879.879,0,0,1,1.293,0,7.815,7.815,0,0,0,5.6,2.153,9.01,9.01,0,0,0,1.215-.09c-1.275,7.529-6.691,19.2-12.442,24.285h-2.992C467.886,562.162,470.055,550.131,470.465,542.675Zm-10.059,52.842V575.094c2.7,5.626,3.795,14.976,3.89,20.423Zm5.451,0c-.1-5.583-1.244-15.185-4.051-21.073h2.029c3,5.66,4.957,15.754,5.136,21.073Zm8.591,0H470.53c-.165-5.35-2-15.036-4.954-21.073h2C471.809,579.953,474.3,587.569,474.448,595.517ZM471.333,572.1a.781.781,0,0,1-.78.78h-9.366a.782.782,0,0,1-.781-.78v-1.561a.782.782,0,0,1,.781-.78h9.366a.781.781,0,0,1,.78.78Zm.168-3.7a2.311,2.311,0,0,0-.948-.205h-1.17c5.754-5.964,10.776-17.278,11.832-24.669a6.98,6.98,0,0,0,2.74-1.679.879.879,0,0,1,1.293,0,7.538,7.538,0,0,0,4.588,2.091C487.435,551.988,478.718,563.66,471.5,568.405Zm20.357-24.462a7.541,7.541,0,0,0,4.585-2.091.879.879,0,0,1,1.293,0,7,7,0,0,0,2.742,1.68c1.055,7.389,6.075,18.7,11.829,24.668h-1.169a2.311,2.311,0,0,0-.948.205C502.972,563.659,494.258,551.987,491.858,543.943Zm10.259-.028a9.025,9.025,0,0,0,1.216.09,7.815,7.815,0,0,0,5.6-2.153.879.879,0,0,1,1.293,0,6.428,6.428,0,0,0,1,.824c.409,7.455,2.577,19.485,6.323,25.524h-2.99C508.809,563.112,503.392,551.444,502.117,543.915Zm5.126,51.6c.153-7.948,2.639-15.564,6.877-21.073H516.1c-3.072,6.13-5.483,15.849-5.707,21.073Zm4.707,0a60.717,60.717,0,0,1,5.9-21.073h2.035c-2.809,5.888-3.957,15.49-4.054,21.073Zm9.334,0H517.4c.095-5.447,1.191-14.8,3.889-20.423Zm0-23.415a.781.781,0,0,1-.78.78h-9.366a.781.781,0,0,1-.78-.78v-1.561a.781.781,0,0,1,.78-.78H520.5a.781.781,0,0,1,.78.78Zm0-3.758a2.3,2.3,0,0,0-.78-.144h-1.075c-3.788-5.164-6.048-16.995-6.59-24.71a8.776,8.776,0,0,0,2.982.515,7.9,7.9,0,0,0,5.463-2.038Zm0-29.8c0,2.153-2.451,3.9-5.463,3.9a6.343,6.343,0,0,1-4.482-1.683,2.425,2.425,0,0,0-3.524,0,6.808,6.808,0,0,1-8.963,0,2.477,2.477,0,0,0-3.525,0,6.808,6.808,0,0,1-8.963,0,2.477,2.477,0,0,0-3.525,0,6.808,6.808,0,0,1-8.963,0,2.476,2.476,0,0,0-3.524,0,6.343,6.343,0,0,1-4.482,1.683c-3.012,0-5.464-1.75-5.464-3.9v-3.9h60.878Z"/></g></svg>