<svg xmlns="http://www.w3.org/2000/svg" width="64" height="64" viewBox="0 0 64 64"><defs><style>.a{fill:#ccb87d;}</style></defs><g transform="translate(-458.845 -1342.427)"><path class="a" d="M491.4,1342.656a.779.779,0,0,0-1.1,0l-31.22,31.222a.779.779,0,0,0,0,1.1l2.217,2.217a.8.8,0,0,0,1.1,0l28.451-28.479L519.3,1377.2a.8.8,0,0,0,1.1,0l2.217-2.217a.779.779,0,0,0,0-1.1Zm28.452,32.886L491.4,1347.064a.779.779,0,0,0-1.1,0l-28.452,28.478-1.112-1.112,30.115-30.119,30.116,30.119Z"/><path class="a" d="M491.4,1355.89a.8.8,0,0,0-1.1,0L465.318,1380.9a.782.782,0,0,0-.229.552v24.2a.782.782,0,0,0,.781.78h6.244a.781.781,0,0,0,.78-.78v-21.282l17.951-17.983,17.952,17.983v21.282a.781.781,0,0,0,.78.78h6.244a.782.782,0,0,0,.781-.78v-24.2a.782.782,0,0,0-.229-.552Zm23.644,48.976h-4.683v-20.825a.78.78,0,0,0-.229-.551L491.4,1364.726a.8.8,0,0,0-1.1,0l-18.732,18.764a.78.78,0,0,0-.229.551v20.825H466.65v-23.093l24.2-24.227,24.2,24.227Z"/><path class="a" d="M491.4,1373.562a.8.8,0,0,0-1.1,0l-12.488,12.519a.779.779,0,0,0-.229.552v19.014a.781.781,0,0,0,.781.78h24.975a.781.781,0,0,0,.781-.78v-19.014a.784.784,0,0,0-.229-.552Zm11.156,31.3H479.138v-17.91l11.707-11.738,11.708,11.738Z"/><path class="a" d="M490.294,1382.4l-6.244,6.244a.78.78,0,0,0-.229.552V1399.4a.781.781,0,0,0,.781.781h12.487a.781.781,0,0,0,.781-.781v-10.208a.78.78,0,0,0-.229-.552L491.4,1382.4A.779.779,0,0,0,490.294,1382.4Zm6.015,7.119v9.1H485.382v-9.1l5.463-5.463Z"/></g></svg>