<svg xmlns="http://www.w3.org/2000/svg" width="64" height="64" viewBox="0 0 64 64"><defs><style>.a{fill:#ccb87d;}</style></defs><g transform="translate(-1473.207 -648.699)"><path class="a" d="M1493.068,658.147l-6.244-3.122a.779.779,0,0,0-.7,0l-6.244,3.122a.78.78,0,0,0,.7,1.4l.431-.216v5.762a.781.781,0,0,0,.781.781h9.366a.781.781,0,0,0,.78-.781v-5.762l.432.216a.78.78,0,0,0,.7-1.4Zm-2.691,6.162h-7.8v-5.762l3.9-1.952,3.9,1.952Z"/><path class="a" d="M1493.068,676.879l-6.244-3.122a.779.779,0,0,0-.7,0l-6.244,3.122a.78.78,0,0,0,.7,1.4l.431-.215v5.761a.781.781,0,0,0,.781.78h9.366a.78.78,0,0,0,.78-.78V678.06l.432.215a.78.78,0,1,0,.7-1.4Zm-2.691,6.162h-7.8v-5.762l3.9-1.952,3.9,1.952Z"/><path class="a" d="M1493.068,695.611l-6.244-3.122a.786.786,0,0,0-.7,0l-6.244,3.122a.781.781,0,0,0,.7,1.4l.431-.216v5.761a.781.781,0,0,0,.781.78h9.366a.78.78,0,0,0,.78-.78v-5.761l.432.216a.781.781,0,0,0,.7-1.4Zm-2.691,6.161h-7.8v-5.761l3.9-1.951,3.9,1.951Z"/><path class="a" d="M1530.182,651.821a.78.78,0,0,0-.78.78v54.635a2.341,2.341,0,0,0,4.683,0V655.723a.78.78,0,0,0-1.561,0v51.513a.781.781,0,0,1-1.561,0V652.6A.781.781,0,0,0,1530.182,651.821Z"/><path class="a" d="M1536.426,658.065a.78.78,0,0,0-.78.78v48.391a3.9,3.9,0,0,1-7.805,0V649.48a.781.781,0,0,0-.781-.781h-53.073a.781.781,0,0,0-.78.781v57.756a5.47,5.47,0,0,0,5.463,5.463h53.073a5.47,5.47,0,0,0,5.464-5.463V658.845A.781.781,0,0,0,1536.426,658.065Zm-57.756,53.073a3.906,3.906,0,0,1-3.9-3.9V650.26h51.512v56.976a5.452,5.452,0,0,0,1.643,3.9Z"/><path class="a" d="M1495.841,659.626h9.366a.78.78,0,0,0,0-1.561h-9.366a.78.78,0,1,0,0,1.561Z"/><path class="a" d="M1517.694,661.187h-21.853a.78.78,0,1,0,0,1.561h21.853a.78.78,0,1,0,0-1.561Z"/><path class="a" d="M1517.694,664.309h-21.853a.78.78,0,1,0,0,1.561h21.853a.78.78,0,1,0,0-1.561Z"/><path class="a" d="M1495.841,678.358h9.366a.78.78,0,0,0,0-1.561h-9.366a.78.78,0,1,0,0,1.561Z"/><path class="a" d="M1517.694,679.918h-21.853a.781.781,0,0,0,0,1.562h21.853a.781.781,0,1,0,0-1.562Z"/><path class="a" d="M1517.694,683.041h-21.853a.78.78,0,1,0,0,1.56h21.853a.78.78,0,1,0,0-1.56Z"/><path class="a" d="M1495.841,697.089h9.366a.78.78,0,0,0,0-1.561h-9.366a.78.78,0,1,0,0,1.561Z"/><path class="a" d="M1517.694,698.65h-21.853a.78.78,0,1,0,0,1.561h21.853a.78.78,0,1,0,0-1.561Z"/><path class="a" d="M1517.694,701.772h-21.853a.781.781,0,1,0,0,1.561h21.853a.781.781,0,1,0,0-1.561Z"/></g></svg>