<?xml version="1.0" encoding="UTF-8"?>
<svg id="Layer_1" data-name="Layer 1" xmlns="http://www.w3.org/2000/svg" viewBox="0 0 146.09 146.09">
  <defs>
    <style>
      .cls-1 {
        fill: #ebe6df;
      }

      .cls-2 {
        fill: #e0ac60;
      }
    </style>
  </defs>
  <g>
    <g>
      <rect class="cls-2" x="17.35" y="111.47" width="26.37" height="1.29"/>
      <rect class="cls-2" x="99.07" y="111.47" width="27.89" height="1.29"/>
    </g>
    <g>
      <path class="cls-1" d="M26.03,103.79l10.03-16.86h-12.31l-1.28,2.26c5-1.19,5.13-1.3,10.24-1.3l-10.5,17.04h12.95l1.02-2.11c-4.65.84-5.47.96-10.16.96Z"/>
      <path class="cls-1" d="M48.21,103.99v-8.28h4.11c.77.13,1.38.25,1.94.38v-1.68c-.51.13-1.1.26-1.79.36h-4.26v-6.91c6.89,0,5.87-.1,8.5,1.27l-1.02-2.21h-9.98v18h9.98l1.02-2.21c-2.78,1.35-1.43,1.27-8.5,1.27Z"/>
      <path class="cls-1" d="M73.77,97.24l6.38-10.31h-1.1l-5.59,9.01-5.57-9.01h-3.01l6.38,10.31v6.48c-.2.46-.41.89-.64,1.22h3.8c-.23-.36-.46-.76-.66-1.27v-6.43Z"/>
      <path class="cls-1" d="M97.92,95.61c2.09-.28,3.29-2.01,3.29-3.81,0-2.85-2.02-4.88-5.47-4.88h-7.3c.23.36.43.73.64,1.22v15.57c-.2.46-.41.89-.64,1.22h7.99c3.32,0,5.59-1.8,5.59-4.65s-1.69-4.44-4.11-4.67ZM91.59,88.2l.15-.33h3.63c2.07,0,3.32,1.35,3.32,4.06,0,1.68-1,3.33-2.96,3.33h-4.13v-7.06ZM96.08,103.99h-4.34c-.05-.1-.1-.2-.15-.33v-7.47h4.59c2.2,0,3.29,1.4,3.29,3.93s-1.38,3.86-3.4,3.86Z"/>
      <path class="cls-1" d="M114.36,103.99v-8.28h4.11c.77.13,1.38.25,1.94.38v-1.68c-.51.13-1.1.26-1.79.36h-4.26v-6.91c6.89,0,5.87-.1,8.5,1.27l-1.02-2.21h-9.98v18h9.98l1.02-2.21c-2.78,1.35-1.43,1.27-8.5,1.27Z"/>
    </g>
  </g>
  <g>
    <path class="cls-1" d="M51.12,108.65v2.96c.18-.05.36-.07.52-.07.8,0,1.5.47,2.23.47.19,0,.38-.03.57-.1v-3.25h1.19v6.95h-1.19v-2.51c-.18.06-.36.08-.53.08-.76,0-1.46-.48-2.23-.48-.18,0-.37.03-.56.09v2.82h-1.19v-6.95h1.19Z"/>
    <path class="cls-1" d="M59.08,112.12c0-2.42,1.79-3.63,3.58-3.63s3.57,1.21,3.57,3.63-1.79,3.63-3.57,3.63-3.58-1.21-3.58-3.63ZM60.25,112.12c0,1.63,1.2,2.43,2.41,2.43s2.41-.8,2.41-2.43-1.21-2.43-2.41-2.43-2.41.8-2.41,2.43Z"/>
    <path class="cls-1" d="M70.56,108.65h.4l2.63,4.99,2.63-4.99h.4l1.04,6.95h-1.17l-.62-3.97-2.08,3.97h-.4l-2.09-3.97-.61,3.97h-1.17l1.04-6.95Z"/>
    <path class="cls-1" d="M85.64,108.65v1.11h-3.3v1.81h2.59v1.11h-2.59v1.81h3.3v1.11h-4.5v-6.95h4.5Z"/>
    <path class="cls-1" d="M90.21,113.95c.43.59,1.14.76,1.83.76.53,0,1.31-.2,1.31-.85,0-1.33-3.86-1.19-3.86-3.46,0-1.36,1.13-2.03,2.38-2.03.9,0,1.8.39,2.44,1.02l-.78.87c-.46-.46-1.05-.72-1.7-.72-.6,0-1.17.21-1.17.9,0,1.19,3.86,1.03,3.86,3.46,0,1.35-1.33,1.98-2.52,1.98-1.02,0-2.07-.37-2.71-1.21l.92-.72Z"/>
  </g>
  <g>
    <g>
      <path class="cls-2" d="M114.27,80.25v-37.03l-2.09-1.04v38.07h-1.32v-37.76l-2.09-.75v38.52h-1.31v-37.44l-2.09-.75v14.46s0,0,0,0c-.49-.11-.97-.25-1.44-.4v-12.77l-.77.04c-2.53.13-4.87-.28-6.97-1.21-3.05-1.35-4.72-3.42-6.48-5.61-1.72-2.14-3.5-4.36-6.64-5.97-2.43-1.25-5.25-1.88-8.37-1.89-.3,0-.6,0-.9.01l-.7.03v52.85h30.84s0-23.8,0-23.8c.47.14.95.26,1.44.36,0,0,0,0,0,0v23.44h21.6v-1.35h-12.69ZM82.38,31.88c2.86,1.48,4.54,3.57,6.17,5.59l.02.02c1.79,2.23,3.65,4.53,7.02,6.02,2.08.92,4.4,1.37,6.87,1.35v10.71c-.96-.41-1.86-.9-2.7-1.48-1.84-1.26-2.59-2.35-3.74-4.02-.83-1.2-1.86-2.69-3.6-4.64-.18-.2-.36-.4-.54-.6-.08-.09-.17-.19-.25-.28-.14-.16-.29-.31-.43-.47-.06-.07-.12-.14-.19-.21-.08-.08-.15-.16-.23-.24-.02-.03-.05-.05-.08-.08-.02-.03-.05-.05-.07-.08-.2-.21-.4-.42-.6-.63,0,0,0,0-.01-.01l-.25-.25c-.06-.06-.12-.11-.18-.17-.04-.04-.09-.09-.13-.13-.07-.06-.13-.13-.2-.19-.07-.07-.15-.14-.23-.21-.04-.04-.09-.08-.14-.13-.07-.06-.13-.12-.2-.18-.04-.03-.08-.07-.11-.1-.12-.11-.24-.21-.36-.32-.04-.04-.08-.08-.13-.11-.07-.06-.14-.12-.21-.17-.05-.04-.09-.08-.14-.11-.05-.04-.09-.08-.14-.12-.07-.06-.14-.11-.21-.17h0s-.01,0-.02-.01c0,0-.02-.01-.03-.02-.04-.03-.08-.06-.12-.09-.03-.03-.07-.05-.1-.08-.03-.02-.05-.04-.08-.06-.17-.13-.33-.25-.5-.37-.11-.08-.22-.16-.33-.23-.08-.06-.17-.12-.26-.17-.06-.04-.11-.08-.17-.11-.09-.06-.17-.11-.26-.17-.11-.07-.23-.14-.34-.21,0,0,0,0,0,0,0,0,0,0,0,0-2.53-1.66-5.48-2.77-8.69-3.12-.61-.07-1.21-.1-1.81-.11v-5.54c2.88,0,5.47.58,7.7,1.73ZM81.05,74.55c0,.1,0,.2,0,.3,0-.25.02-.51.02-.76,0,.09,0,.19,0,.28,0,.06,0,.12,0,.19ZM82.68,75.75c0-.19-.01-.38-.02-.57,0,.19.01.38.02.57.03,1.12.07,2.23.1,3.41-.03-1.18-.07-2.29-.1-3.41ZM82.63,74.14s0-.03,0-.05c0-.08,0-.16,0-.24,0-.11,0-.22,0-.34,0-.01,0-.02,0-.04,0,.32.02.64.03.95,0-.1,0-.19,0-.29ZM88.19,52.96h0s-.14.08-.14.08l-.34.2v-.04c-1.85.99-3.46,2.38-4.72,4.04,1.02-.28,2.02-.64,2.99-.98.11-.04.68-.32.8-.41.36-.28.56-.46.7-.87,0-.02.03-.08.05-.15,0-.04.03-.09.04-.12l.48.09v.1c-.03.12-.05.23-.06.32,0,0-.01.09-.02.21-.01.1-.02.26-.03.45,0,.07,0,.15,0,.22l1.42.1v.23c.01.52.03,8.25.03,8.31v.43l-.37-.22c-.99-.59-2.04-1.08-3.12-1.46h0s-.15-.04-.15-.04l-.38-.09.03-.03c-2.01-.6-4.13-.76-6.2-.48.93.52,1.88.98,2.81,1.42.1.05.71.26.86.28.45.05.73.07,1.11-.12.02-.01.08-.04.14-.07.04-.02.08-.04.11-.06l.27.41-.08.06c-.09.07-.18.14-.25.19,0,0-.08.05-.17.13-.08.06-.19.17-.34.3-.05.05-.1.1-.15.15l.93,1.08-.16.16c-.35.36-5.81,5.85-5.86,5.89l-.31.31-.11-.42c-.28-1.12-.68-2.21-1.17-3.24h-.01s-.07-.14-.07-.14l-.2-.33h.04c-.53-1-1.18-1.92-1.93-2.76,0,0-.01-.01-.02-.02v-.42h0s0-1.86,0-1.86c1.48,1.35,2.7,2.96,3.6,4.78,1.23-.32,2.48-.92,3.55-1.71l-.13-.12c-.32-.45-.69-.88-1.09-1.26-1.42-1.37-3.3-2.31-5.44-2.69l-.49-.09v-.23l2.19-.78c3.16-.86,6.43-.77,9.51.27.65-1.09,1.1-2.4,1.3-3.71h-.16s-.02,0-.02,0c-.55-.09-1.11-.13-1.66-.12-1.97.03-3.96.7-5.75,1.94l-.76.53,1.19-2.5c1.62-2.84,4.01-5.09,6.92-6.53-.32-1.23-.92-2.48-1.71-3.55l-.12.13c-.45.33-.87.69-1.26,1.09-1.37,1.42-2.31,3.3-2.69,5.44l-.16.91-.93-2.61c-.86-3.16-.77-6.43.27-9.51-1.09-.65-2.4-1.1-3.72-1.3v.15s0,.02,0,.02c-.09.55-.13,1.11-.12,1.66.03,1.97.7,3.96,1.94,5.75l.53.76-2.5-1.19c-.81-.46-1.56-.99-2.27-1.57v-.7s0-.14,0-.14v-.17s-.1-1.25-.1-1.25h0c.48.48.99.94,1.54,1.35-.28-1.02-.64-2.02-.98-2.99-.04-.11-.32-.68-.41-.8-.12-.15-.22-.26-.32-.37v-.81c.07,0,.16,0,.27.01.03,0,.05,0,.08,0,.07,0,.14,0,.22,0l.1-1.42h.23c.51-.01,8.24-.03,8.31-.03h.43s-.22.37-.22.37c-.59.99-1.08,2.04-1.46,3.12h0s-.05.16-.05.16l-.09.37-.03-.03c-.6,2.01-.76,4.13-.48,6.2.52-.92.98-1.88,1.42-2.81.05-.1.26-.7.27-.86.05-.45.07-.73-.12-1.12-.01-.02-.04-.08-.08-.14-.02-.04-.04-.08-.06-.12l.41-.27.06.08c.06.09.14.18.19.26,0,0,.05.07.13.16.06.08.17.19.3.34.05.05.11.1.15.15l1.08-.94.16.16c.37.36,5.85,5.82,5.89,5.86l.31.31-.42.11c-1.12.28-2.21.67-3.24,1.17ZM78.07,79.6h0s0-.05,0-.08c0,.07,0,.15,0,.22,0-.02,0-.04,0-.06,0-.03,0-.05,0-.08ZM78.07,79.35s0-.03,0-.04c0-.02,0-.03,0-.05,0,.04,0,.08,0,.12,0,0,0-.02,0-.03ZM78.06,79.08s0-.03,0-.05c0-.09,0-.19,0-.29,0,.12,0,.23,0,.34,0,0,0,0,0,0ZM77.99,76.56c0-.18,0-.36-.01-.54,0,0,0-.01,0-.02,0,.18,0,.37.01.56,0,0,0,0,0,0ZM76.95,79.83s0,0,0,0h-.33s.33,0,.33,0ZM78.08,79.86s0-.04,0-.06c0,.02,0,.04,0,.06h.14s-.15,0-.15,0ZM77.97,75.68s0-.05,0-.07c0-.12,0-.23,0-.34,0,0,0-.02,0-.03,0,0,0,0,0,0,0-.12,0-.23,0-.34,0,0,0,0,0,0,0,.24.01.51.02.78ZM74.68,75.22c.58,0,1.15-.04,1.71-.1,0,0,0,0,0,0v5.03h.02c0-.11,0-.23,0-.34h0c0,.11,0,.22,0,.34h-1.74v-4.93ZM78.6,80.15c0-.09,0-.18,0-.29h0c0,.11,0,.2,0,.29h0v-5.39s0,0,0,0c.77-.17,1.52-.38,2.25-.64v6.03h.03c0-.08,0-.16,0-.24.02-.61.03-1.2.05-1.77-.02.57-.03,1.16-.05,1.77,0,.08,0,.16,0,.24h-2.28ZM82.8,80.15c0-.05,0-.11,0-.16,0,.05,0,.1,0,.16h.03v-6.84c2.68-1.27,5.04-3.13,6.9-5.44.32.36.62.75.91,1.16,1.82,2.61,3.7,4.31,5.88,5.32l-.02,1.35c-.02,1.28-.03,2.57-.04,3.86v.59h-13.65ZM101.07,79.46c0,.08,0,.15,0,.24v.46h-1.81v-.63c-.01-1.48-.03-2.93-.05-4.3.61.12,1.25.19,1.91.22-.02,1.27-.04,2.62-.05,4.01ZM96.55,71.86c-1.43-.74-2.53-1.88-3.62-3.14,1.13.4,2.34.64,3.66.7-.01.79-.03,1.61-.04,2.44ZM102.46,72.99c-.05,0-.1,0-.15,0h-.03c-1.08.06-2.12-.01-3.1-.2-.01-.67-.02-1.4-.04-2.11-.02-1.29-.04-2.62-.05-3.06h0s0-.21,0-.21v-.55l-.59.06c-2.43.24-4.64-.12-6.41-1.04l-.24-.12c-.16-.08-.32-.16-.47-.24,1.39-2.35,2.31-5.02,2.63-7.91.35-3.23-.09-6.36-1.18-9.2,0,0,.02.02.02.03.04.05.08.1.11.15.19.24.36.48.53.7.07.09.13.18.2.27.06.09.13.18.19.26.05.07.1.15.15.22.24.34.46.66.67.96,1.16,1.67,2.07,3,4.15,4.42,1.11.76,2.32,1.39,3.62,1.89v15.69Z"/>
      <path class="cls-2" d="M106.16,40.83c.07.01.13.02.2.02h6.98s.09,0,.13,0h0s3.65,0,3.65,0v-2.02s-.75.09-1.35-.09c-.23-.07-.62-.17-1.01-.27-.18-.68-.74-1.17-1.42-1.17h-6.98c-.67,0-1.23.49-1.42,1.15-.42.11-.85.22-1.09.3-.6.18-1.35.09-1.35.09v2.02h3.65v-.02Z"/>
      <path class="cls-2" d="M81.03,42.88c.11-.29.23-.58.36-.86h-1.88c.56.27,1.06.55,1.52.86Z"/>
      <path class="cls-2" d="M78.87,69.94l1.33-1.33c-.59.21-1.14.36-1.68.47.13.29.25.57.36.86Z"/>
      <path class="cls-2" d="M86.84,62.11h.02s.01.02.02.02l-.03-.02h0Z"/>
      <path class="cls-2" d="M87.97,51.29c.29-.13.57-.25.86-.36l-1.33-1.33c.21.59.36,1.14.47,1.68Z"/>
      <path class="cls-2" d="M87.79,62.5v-1.88c-.28.57-.56,1.06-.86,1.52.29.11.58.23.86.36Z"/>
    </g>
    <g>
      <path class="cls-2" d="M30.99,40.79s.09,0,.13,0h6.98c.07,0,.14,0,.2-.02v.02h3.65v-2.02s-.75.09-1.35-.09c-.24-.07-.67-.18-1.09-.3-.18-.67-.75-1.15-1.42-1.15h-6.98c-.68,0-1.25.5-1.42,1.17-.4.1-.79.2-1.01.27-.6.18-1.35.09-1.35.09v2.02h3.65Z"/>
      <path class="cls-2" d="M70.6,28.71c-.23,0-.46-.01-.69-.01h-.05c-3.19-.02-6.05.62-8.53,1.89-3.14,1.62-4.92,3.83-6.64,5.97-1.76,2.19-3.43,4.27-6.48,5.61-2.1.93-4.45,1.34-6.97,1.21l-.77-.04v12.77c-.44.14-.9.27-1.36.38,0,0,0,0,0,0v-14.49l-2.09.75v37.51h-1.31v-38.59l-2.09.75v37.83h-1.32v-38.15l-2.09,1.04v37.11h-12.7v1.35h21.6v-.25h.01v-23.23s0,0,0,0c.46-.1.92-.22,1.36-.35.5-.14.99-.31,1.46-.49,1.3-.5,2.51-1.13,3.62-1.89,2.08-1.43,3-2.75,4.15-4.42.06-.08.11-.17.17-.25.04-.06.08-.11.12-.17s.08-.12.12-.18c.11-.15.22-.31.34-.48.04-.05.08-.11.12-.17.06-.08.12-.16.18-.25.18-.25.38-.51.59-.78-.51,1.43-.86,2.94-1.03,4.51-.49,4.46.54,8.73,2.68,12.31h0c-.14.07-.29.15-.43.22l-.25.12c-1.76.92-3.97,1.28-6.4,1.04l-.59-.06v.77s0,0,0,0c0,.44-.03,1.77-.05,3.06-.01.71-.03,1.44-.04,2.11-.98.19-2.02.26-3.1.2h-.03s-.09,0-.15,0c0,0,0,0-.01,0,0,0,0,0,.01,0v-15.69c-.48.18-.96.35-1.46.49v23.8h0s.89,0,.89,0h29.96v-1.44h0V28.74l-.71-.03ZM69.36,41.62h.1c.11.03.23.05.32.06,0,0,.06,0,.14.02v.68c-.11-.07-.23-.14-.38-.19-.02,0-.09-.02-.15-.04-.05-.02-.09-.03-.12-.04l.1-.48ZM48.36,50.07c-1.15,1.66-1.9,2.76-3.74,4.02-.84.58-1.74,1.07-2.7,1.48v-10.71c2.48.03,4.8-.43,6.87-1.35,3.37-1.49,5.22-3.79,7.02-6.02l.02-.02c1.62-2.02,3.31-4.11,6.17-5.59,2.27-1.16,4.9-1.74,7.85-1.73v5.38c-5.11.04-9.84,2.04-13.38,5.36,0,0,0,0,0,0-1.75,1.46-3.17,3.05-4.49,4.53-1.74,1.95-2.77,3.44-3.6,4.64ZM52.46,59.17l.42-.11c1.12-.29,2.21-.68,3.25-1.18h0s.14-.09.14-.09l.34-.2v.04c1.85-1,3.47-2.39,4.74-4.06-1.02.29-2.03.64-3.01.99-.1.04-.68.32-.8.41-.35.29-.57.47-.71.88,0,.02-.02.09-.04.15-.02.04-.03.09-.04.13l-.48-.1v-.1c.03-.11.05-.23.06-.31l.02-.21c0-.1.02-.26.03-.45,0-.07,0-.14,0-.22l-1.43-.1v-.23c-.01-.52-.03-8.28-.02-8.35v-.44s.37.22.37.22c1,.59,2.05,1.09,3.13,1.47h0s.15.04.15.04l.38.1-.02.03c2.01.6,4.14.77,6.22.48-.93-.52-1.89-.98-2.82-1.43-.1-.05-.71-.26-.86-.27-.45-.05-.73-.07-1.12.12-.01.01-.07.04-.14.08-.04.02-.08.04-.12.06l-.27-.41.08-.06c.09-.06.19-.14.26-.19h.01s.08-.07.15-.13c.08-.06.19-.17.34-.3.05-.05.1-.1.15-.15l-.94-1.08.16-.16c.35-.36,5.84-5.87,5.88-5.91l.31-.31.11.42c.29,1.12.68,2.22,1.17,3.25h.01l.08.15.2.33h-.04c.59,1.1,1.31,2.11,2.15,3.02v2.25c-1.58-1.39-2.88-3.08-3.82-4.99-1.24.32-2.49.92-3.56,1.72l.13.13c.33.45.7.88,1.09,1.26,1.43,1.38,3.31,2.31,5.46,2.7l.7.13v.12l-2.41.85c-3.17.87-6.46.77-9.55-.28-.65,1.1-1.1,2.41-1.3,3.73h.16s.02,0,.02,0c.55.09,1.11.13,1.66.12,1.98-.03,3.98-.71,5.77-1.95l.77-.53-1.2,2.52c-1.63,2.85-4.03,5.11-6.95,6.56.32,1.24.92,2.49,1.72,3.56l.12-.14c.45-.32.88-.69,1.27-1.09,1.38-1.43,2.31-3.32,2.7-5.46l.16-.91.93,2.63c.87,3.17.77,6.46-.28,9.55,1.1.65,2.41,1.1,3.73,1.31v-.16s0-.02,0-.02c.09-.55.13-1.11.12-1.66-.03-1.98-.71-3.98-1.95-5.77l-.53-.76,2.51,1.19c.9.51,1.74,1.11,2.51,1.77v2.21c-.52-.54-1.08-1.04-1.68-1.49.28,1.02.64,2.03.99,3.01.04.11.32.69.41.81.1.12.19.23.28.32v.86c-.08,0-.18-.01-.3-.02-.07,0-.15,0-.22,0l-.1,1.43h-.23c-.54,0-8.29.02-8.35.02h-.44l.22-.37c.59-.99,1.09-2.05,1.47-3.13h0s.14-.55.14-.55l.04.03c.6-2.01.76-4.13.48-6.21-.52.93-.98,1.89-1.43,2.82-.05.1-.26.71-.28.86-.05.45-.06.73.12,1.12.01.02.04.08.07.14.02.04.04.08.06.12l-.41.27-.06-.08c-.06-.09-.14-.18-.19-.25h0s-.06-.09-.13-.17c-.06-.08-.17-.19-.3-.34-.05-.05-.1-.1-.15-.15l-1.08.94-.16-.16c-.37-.36-5.87-5.84-5.92-5.88l-.31-.31ZM63.52,80.15h-.03c0-.08,0-.16,0-.24-.02-.63-.03-1.23-.05-1.81.02.59.03,1.19.05,1.81,0,.08,0,.16,0,.24h.03v-6.02c.73.25,1.48.46,2.25.63v5.39h0s0,0,0,0h0s-2.25,0-2.25,0h0ZM62.29,73.91s0,.06,0,.09c0,.03,0,.07,0,.1,0,.04,0,.08,0,.12-.01.4-.02.8-.04,1.19,0,.04,0,.08,0,.12.02-.59.04-1.18.05-1.8,0,.06,0,.12,0,.18ZM62.23,75.67c-.01.35-.02.69-.03,1.04,0,.02,0,.05,0,.07.01-.42.03-.83.04-1.25,0,.05,0,.09,0,.14ZM62.15,78.29c0,.19-.01.39-.02.59,0,.35-.02.7-.03,1.07h-.27s.27,0,.27,0c.02-.65.03-1.26.05-1.87,0,.07,0,.14,0,.21ZM61.58,79.95s0,.05,0,.08c0-.03,0-.05,0-.08h0ZM66.3,79.86h0s-.05,0-.05,0h.05ZM67.43,79.83c0-.17,0-.34-.01-.5,0-.19,0-.38-.01-.57,0,.35.02.71.03,1.08h.33s-.33,0-.33,0ZM67.4,78.42s0,0,0,0c0,0,0,0,0,0ZM65.78,79.97s0,.05,0,.08c0-.03,0-.05,0-.08ZM67.96,80.18s0-.02,0-.03c0-.03,0-.06,0-.09,0,.03,0,.06,0,.09,0,0,0,.02,0,.03ZM51.45,68.72c-1.09,1.26-2.19,2.4-3.62,3.14-.01-.83-.03-1.65-.04-2.44,1.31-.07,2.53-.3,3.66-.7ZM45.17,75.23c-.02,1.38-.03,2.82-.05,4.3v.63h-1.81v-.46c0-.08,0-.16,0-.24-.01-1.39-.03-2.74-.05-4.01.67-.03,1.3-.11,1.92-.22ZM41.3,72.95h.1s.24.02.24.02h-.24s-.1-.02-.1-.02v7.26h0v-7.27ZM43.32,80.25h-.64s.64,0,.64,0v-.07l1.81.04h0s-1.81-.04-1.81-.04v.07ZM45.12,80.29h0s2.8.05,2.8.05h0s-2.8-.05-2.8-.05ZM51.16,80.15h-.01s-3.22,0-3.22,0v-.59c-.01-1.29-.03-2.58-.04-3.86l-.02-1.35c2.18-1.01,4.06-2.71,5.88-5.32.28-.4.58-.78.89-1.14,1.85,2.28,4.21,4.15,6.92,5.43v6.82h.02s-.02,0-.02,0v.98h0v-.98h-10.4ZM62.17,81.15l1.36.03h0s-1.36-.03-1.36-.03ZM65.8,80.92s.01.02.02.04v.02s0-.02,0-.02c0-.01-.01-.02-.02-.04ZM67.99,81.26v-.15s0,.15,0,.15h0ZM67.99,75.12c.63.07,1.25.1,1.87.1v4.93h-1.87v-5.04Z"/>
      <path class="cls-2" d="M57.11,58.96v.02s0-.01,0-.02h0Z"/>
      <path class="cls-2" d="M56.53,48.31v1.89c.28-.57.56-1.07.87-1.53-.29-.11-.58-.23-.87-.36Z"/>
      <path class="cls-2" d="M55.49,59.92l1.34,1.33c-.21-.59-.37-1.14-.47-1.69-.29.13-.58.25-.87.36Z"/>
      <path class="cls-2" d="M65.48,40.84l-1.33,1.34c.59-.21,1.14-.37,1.69-.47-.13-.29-.25-.58-.36-.87Z"/>
      <path class="cls-2" d="M63.32,68.01c-.11.29-.23.59-.36.87h1.89c-.57-.28-1.07-.56-1.53-.87Z"/>
    </g>
  </g>
</svg>