<?xml version="1.0" encoding="UTF-8"?>
<svg id="Layer_1" data-name="Layer 1" xmlns="http://www.w3.org/2000/svg" viewBox="0 0 146.09 146.09">
  <defs>
    <style>
      .cls-1 {
        fill: #fff;
      }
    </style>
  </defs>
  <path class="cls-1" d="M70.51,10.63c39.75-3.12,70.79,32.48,61.38,71.49-.63,2.6-1.34,7.59-4.86,6.58-5.89-3.95-12.29-7.01-18.9-9.56-1.44-.55-6.8-1.81-7.14-2.97-.52-1.78.61-5.39.7-7.41.41-9.04-5.14-18.28-12.78-22.83-17.6-10.47-40.44,3.54-38.91,23.93.14,1.81,1.68,5.86-.01,7.1-6.42,2.01-12.65,4.47-18.59,7.62-1.55.82-5.61,3.78-6.76,4.1-3.33.94-3.78-2.57-4.49-5.07C10.41,49.42,35.1,13.4,70.51,10.63Z"/>
  <path class="cls-1" d="M125.9,105.14c-1.79,1.66-3.49.3-4.95-1.01-6.61,8.11-15.27,14.67-25.18,18.25-23.41,8.45-49.74,1.24-65.06-18.25-.67.5-1.93,1.68-2.7,1.81-2.33.38-5.42-4.46-4.41-6.68.44-.95,8.32-5.82,9.8-6.67,27.83-15.86,63.36-14.94,89.95,3.14.71.48,4.53,3.16,4.71,3.52.36.7.26,1.9.02,2.65-.06.19-2.04,3.1-2.19,3.24Z"/>
</svg>