<?xml version="1.0" encoding="UTF-8"?>
<svg id="Layer_1" data-name="Layer 1" xmlns="http://www.w3.org/2000/svg" viewBox="0 0 146.09 146.09">
  <metadata><?xpacket begin="﻿" id="W5M0MpCehiHzreSzNTczkc9d"?>
<x:xmpmeta xmlns:x="adobe:ns:meta/" x:xmptk="Adobe XMP Core 9.1-c002 165.59ab891, 2024/09/18-09:57:10        ">
   <rdf:RDF xmlns:rdf="http://www.w3.org/1999/02/22-rdf-syntax-ns#">
      <rdf:Description rdf:about=""
            xmlns:xmp="http://ns.adobe.com/xap/1.0/"
            xmlns:xmpMM="http://ns.adobe.com/xap/1.0/mm/"
            xmlns:stEvt="http://ns.adobe.com/xap/1.0/sType/ResourceEvent#">
         <xmp:Rating>4</xmp:Rating>
         <xmp:MetadataDate>2025-08-31T14:30:58+03:00</xmp:MetadataDate>
         <xmpMM:InstanceID>xmp.iid:a6a675fa-a939-6740-b9b1-b101c03155b1</xmpMM:InstanceID>
         <xmpMM:DocumentID>xmp.did:a6a675fa-a939-6740-b9b1-b101c03155b1</xmpMM:DocumentID>
         <xmpMM:OriginalDocumentID>xmp.did:a6a675fa-a939-6740-b9b1-b101c03155b1</xmpMM:OriginalDocumentID>
         <xmpMM:History>
            <rdf:Seq>
               <rdf:li>
                  <rdf:Description>
                     <stEvt:action>saved</stEvt:action>
                     <stEvt:instanceID>xmp.iid:a6a675fa-a939-6740-b9b1-b101c03155b1</stEvt:instanceID>
                     <stEvt:when>2025-08-31T14:30:58+03:00</stEvt:when>
                     <stEvt:softwareAgent>Adobe Bridge 2025</stEvt:softwareAgent>
                     <stEvt:changed>/metadata</stEvt:changed>
                  </rdf:Description>
               </rdf:li>
            </rdf:Seq>
         </xmpMM:History>
      </rdf:Description>
   </rdf:RDF>
</x:xmpmeta>
                                                                                                    
                                                                                                    
                                                                                                    
                                                                                                    
                                                                                                    
                                                                                                    
                                                                                                    
                                                                                                    
                                                                                                    
                                                                                                    
                                                                                                    
                                                                                                    
                                                                                                    
                                                                                                    
                                                                                                    
                                                                                                    
                                                                                                    
                                                                                                    
                                                                                                    
                                                                                                    
                           
<?xpacket end="w"?></metadata>
<defs>
    <style>
      .cls-1 {
        fill: #69cbdd;
      }

      .cls-2, .cls-3 {
        fill: #fff;
      }

      .cls-4 {
        fill: #ef3856;
      }

      .cls-3 {
        opacity: .46;
      }
    </style>
  </defs>
  <path class="cls-1" d="M60.06,57.39v-6.18c-1.82-.23-3.69-.37-5.58-.37-23.78,0-43.04,19.27-43.04,43.05,0,12.41,5.26,23.58,13.66,31.44-4.99-7.03-7.94-15.61-7.94-24.89,0-23.73,19.19-42.97,42.9-43.05Z"/>
  <path class="cls-1" d="M128.91,40.8c0-2.03-.01-4.05,0-6.08-4.69.35-13.86-1.64-21.2-7.96,5.58,8.65,14.52,12.73,21.2,14.04Z"/>
  <path class="cls-1" d="M60.2,119.64c4.67,0,8.95-1.67,12.27-4.44,4.28-3.56,6.57-8.98,6.55-14.55-.07-30.35.24-61.17.14-91.48,6.14.04,12.28,0,18.42,0-.41-2.03-.68-4.21-.77-6.54-7.79-.05-15.57.05-23.37,0,.1,30.3-.21,61.11-.14,91.45.01,5.95-2.61,11.7-7.39,15.25-3.19,2.38-7.15,3.78-11.44,3.78s-8.08-1.37-11.24-3.66c3.23,6.07,9.61,10.2,16.96,10.2Z"/>
  <path class="cls-4" d="M54.48,74.69c-10.6,0-19.2,8.59-19.2,19.2,0,6.4,3.15,12.05,7.96,15.54-1.43-2.69-2.25-5.75-2.25-9,0-10.61,8.6-19.2,19.2-19.2,1.94,0,3.81.29,5.57.83v-24.31c-1.82-.23-3.69-.37-5.57-.37-.05,0-.09,0-.14,0v18.13c-1.76-.54-3.64-.83-5.58-.83Z"/>
  <path class="cls-4" d="M134.63,41.26c-1.51.11-3.49-.02-5.72-.46,0,5.56.04,11.11,0,16.67-5.61.31-15.57.15-31-8.26-.15,15.79-.4,32.59-.55,48.38-1.89,22.04-20.35,39.34-42.88,39.34-11.37,0-21.69-4.41-29.39-11.6,7.8,10.98,20.61,18.15,35.1,18.15,22.52,0,40.99-17.31,42.88-39.34.15-15.79.4-32.59.55-48.38,15.43,8.41,25.4,8.56,31,8.26.05-7.58-.05-15.17,0-22.75Z"/>
  <path class="cls-4" d="M107.72,26.76c-2.92-4.53-4.92-10.3-5.18-17.59-1.65-.01-3.3,0-4.95,0,1.61,7.91,5.51,13.61,10.13,17.59Z"/>
  <path class="cls-3" d="M97.36,97.59c.15-15.79.4-32.59.55-48.38,15.43,8.41,25.4,8.56,31,8.26.04-5.56,0-11.11,0-16.67-6.67-1.31-15.62-5.39-21.2-14.04-4.62-3.98-8.52-9.68-10.13-17.59-6.14,0-12.28.04-18.42,0,.1,30.31-.21,61.14-.14,91.48.01,5.57-2.27,10.99-6.55,14.55-3.33,2.77-7.6,4.44-12.27,4.44-7.35,0-13.73-4.14-16.96-10.2-5.28-3.82-8.55-10.25-7.88-17.4.86-9.08,8.22-16.44,17.31-17.26,2.58-.23,5.07.04,7.38.74v-18.13c-23.71.08-42.9,19.32-42.9,43.05,0,9.28,2.95,17.86,7.94,24.89,7.69,7.19,18.02,11.6,29.39,11.6,22.52,0,40.99-17.31,42.88-39.34Z"/>
  <path class="cls-2" d="M97.36,97.59c.15-15.79.4-32.59.55-48.38,15.43,8.41,25.4,8.56,31,8.26.04-5.56,0-11.11,0-16.67-6.67-1.31-15.62-5.39-21.2-14.04-4.62-3.98-8.52-9.68-10.13-17.59-6.14,0-12.28.04-18.42,0,.1,30.31-.21,61.14-.14,91.48.01,5.57-2.27,10.99-6.55,14.55-3.33,2.77-7.6,4.44-12.27,4.44-7.35,0-13.73-4.14-16.96-10.2-5.28-3.82-8.55-10.25-7.88-17.4.86-9.08,8.22-16.44,17.31-17.26,2.58-.23,5.07.04,7.38.74v-18.13c-23.71.08-42.9,19.32-42.9,43.05,0,9.28,2.95,17.86,7.94,24.89,7.69,7.19,18.02,11.6,29.39,11.6,22.52,0,40.99-17.31,42.88-39.34Z"/>
</svg>