<?xml version="1.0" encoding="UTF-8"?>
<svg id="Layer_1" data-name="Layer 1" xmlns="http://www.w3.org/2000/svg" viewBox="0 0 146.09 146.09">
  <defs>
    <style>
      .cls-1 {
        fill: #fcf6ef;
      }
    </style>
  </defs>
  <g>
    <path class="cls-1" d="M73.36,27.36c-.08-.2-.17-.4-.28-.59-.43-.79-1.05-1.46-1.81-1.93-.73-.46-1.59-.74-2.51-.78-.7-.03-1.37.08-1.98.31-.64.23-1.22.59-1.72,1.05-.49.46-.9,1.01-1.19,1.63-.28.6-.44,1.25-.46,1.95-.03.7.08,1.37.31,1.98.24.64.59,1.22,1.05,1.72.45.49,1,.9,1.63,1.19.59.28,1.25.44,1.94.47.26.01.51,0,.75-.03-2.69,4.09-6.4,7.47-10.77,9.75-.08.05-.14.13-.14.23,0,.1.04.19.12.24.52.33,1.03.68,1.53,1.03.08.06.19.07.29.02,5.67-3.17,10.24-8.08,13-14,.03-.06.05-.12.08-.18.05-.1.09-.21.14-.31.01-.02.02-.04.03-.06.19-.5.3-1.05.33-1.62.03-.73-.09-1.42-.34-2.06ZM71.32,30.26c-.05.13-.1.24-.16.35-.26.49-.66.9-1.14,1.17-.46.27-1.01.41-1.58.39-.82-.03-1.54-.4-2.06-.95-.26-.28-.47-.62-.61-.99-.13-.35-.19-.74-.18-1.14.01-.4.11-.78.27-1.12.16-.36.4-.68.68-.94.56-.51,1.31-.82,2.13-.79.4.02.78.11,1.12.27.36.16.67.4.94.68.26.28.47.62.6.99.13.36.19.74.18,1.15,0,.33-.07.64-.19.93Z"/>
    <path class="cls-1" d="M95.31,32c0-.93-.06-1.87-.18-2.79-.61-4.87-2.87-9.47-6.36-12.95-1.38-1.39-2.95-2.58-4.65-3.56-.64-.36-1.29-.7-1.97-1-.21-.09-.41-.18-.62-.27-.05,1.31-.14,2.67-.29,4.09,0,.03,0,.05,0,.08-.21,2.51-.63,4.95-1.25,7.32,0,0,0,.02,0,.03-.75,2.86-1.78,5.61-3.06,8.22-2.71,5.49-6.54,10.33-11.19,14.22-.06.05-.1.13-.09.21,0,.09.04.16.11.21.37.27.73.55,1.09.84h0s.07.06.11.1c.03.02.06.05.08.07.08.06.14.13.19.16.01,0,.04.03.07.05,0,0,0,0,.01,0,.78.68,1.52,1.4,2.22,2.19,0,.01.01.01.03.03.01.01.03.04.05.06.25.26.48.53.72.81-2.86,6.01-4.46,12.72-4.45,19.8,0,3.6.42,7.12,1.21,10.49-2.67-.85-5.13-2.26-7.2-4.1-2.19-1.95-3.96-4.37-5.12-7.1-1.04-2.45-1.57-5.05-1.57-7.73v-29.45c-.01-2.65.5-5.23,1.48-7.6.98-2.38,2.43-4.56,4.31-6.44,1.87-1.88,4.05-3.33,6.43-4.32,2.38-.99,4.95-1.5,7.6-1.5h.01c2.24,0,4.42.36,6.5,1.09.06-.86.1-1.7.12-2.52-2.13-.66-4.34-1-6.62-1h-.01c-2.97,0-5.86.58-8.52,1.69-2.67,1.11-5.12,2.75-7.22,4.85-2.11,2.11-3.73,4.55-4.84,7.22-1.1,2.67-1.68,5.56-1.67,8.53v29.45c.01,3,.6,5.92,1.76,8.67,1.34,3.16,3.4,5.95,5.96,8.16,2.56,2.21,5.61,3.84,8.94,4.71l.54.13c.51.13,1.06.23,1.64.32,0,0,.05.01.05.01.03,0,.06.01.09.01h.01c.07.01.14.02.21.03,1.02.15,2.05.21,3.08.21h.01c.77,0,1.54-.04,2.27-.12.03,0,.05,0,.07,0,.03,0,.05,0,.07,0,.46-.05.92-.12,1.38-.2h.01c.06-.01.14-.02.2-.04.61-.11,1.25-.25,1.88-.43,3.93-1.08,7.4-3.18,10.13-6,2.72-2.83,4.7-6.37,5.64-10.34.4-1.69.6-3.42.6-5.15,0,0-.01-29.46-.01-29.46ZM75.48,81.17c-.1.01-.19.03-.28.03h-.09c-.67.08-1.36.12-2.06.11-.93,0-1.86-.06-2.78-.19,0,0-.05,0-.05,0-.03,0-.05,0-.1-.02,0,0-.06-.01-.06-.01-.02,0-.05,0-.07,0-.05-.01-.09-.01-.13-.02-.04-.01-.08-.01-.11-.02-.94-3.55-1.44-7.28-1.44-11.12,0-6.28,1.32-12.25,3.71-17.65,1.77,2.48,3.18,5.25,4.14,8.22.96,2.96,1.48,6.13,1.49,9.41,0,3.98-.77,7.79-2.16,11.27ZM92.37,66.05c-.83,3.53-2.6,6.69-5.03,9.21-2.43,2.51-5.53,4.39-9.03,5.35-.11.03-.21.06-.32.09,1.19-3.38,1.83-7.02,1.83-10.8,0-7.28-2.4-14.01-6.43-19.44h0c-.1-.14-.21-.28-.31-.43,3.07-5.99,7.48-11.18,12.84-15.18.5-.38,1.01-.74,1.53-1.09.05-.04.1-.1.11-.18.01-.07,0-.14-.05-.2-.38-.51-.77-1.01-1.17-1.51-.09-.1-.24-.13-.36-.05-.53.36-1.04.73-1.55,1.11-5.37,4.01-9.83,9.17-13.04,15.09-.57-.63-1.17-1.24-1.78-1.83-.03-.03-.05-.04-.07-.06-.02-.02-.04-.04-.06-.06,0,0,0,0-.01,0-.14-.13-.28-.25-.41-.39,8.3-7.7,13.78-18.42,14.65-30.4,1.21.77,2.34,1.68,3.36,2.7,3.11,3.1,5.12,7.2,5.67,11.54.1.82.16,1.66.16,2.5v29.45c.01,1.54-.17,3.09-.52,4.59Z"/>
  </g>
  <g>
    <g>
      <path class="cls-1" d="M39.09,95.38c-.19-.55-.44-1.06-.76-1.53-.31-.47-.68-.97-1.09-1.49h4.86c-.07.52-.11,1.02-.13,1.49-.02.47.06.98.26,1.53l2.5,7.51,2.03-6.17-.45-1.33c-.18-.55-.43-1.06-.75-1.53-.32-.47-.68-.97-1.08-1.49h4.84c-.07.52-.11,1.02-.12,1.49s.08.98.27,1.53l2.5,7.51,2.46-7.51c.18-.55.22-1.06.11-1.53-.1-.47-.24-.97-.42-1.49h3.02c-.52.52-.98,1.02-1.38,1.49-.4.47-.69.98-.87,1.53l-3.94,11.96h-.7l-3.26-9.95-3.28,9.95h-.68l-3.94-11.96Z"/>
      <path class="cls-1" d="M61.1,107.56c-.74,0-1.43-.14-2.07-.42-.64-.28-1.2-.67-1.68-1.17-.48-.5-.86-1.09-1.14-1.77-.28-.68-.42-1.42-.42-2.22s.14-1.53.42-2.21c.28-.68.66-1.26,1.14-1.76.48-.5,1.04-.89,1.68-1.17.64-.28,1.33-.42,2.07-.42s1.43.14,2.08.42c.65.28,1.21.67,1.69,1.17.48.5.86,1.09,1.14,1.76.28.68.42,1.41.42,2.21s-.14,1.53-.42,2.22c-.28.68-.66,1.28-1.14,1.77-.48.5-1.04.89-1.69,1.17-.65.28-1.34.42-2.08.42ZM59.07,102.84c.33.75.64,1.39.94,1.91.3.52.59.93.87,1.24.28.31.55.53.81.67.26.14.51.21.76.21.19,0,.4-.05.64-.14.29-.12.53-.31.72-.55.19-.25.3-.58.34-1.02.03-.43-.02-.97-.17-1.63-.15-.66-.42-1.46-.82-2.4-.33-.77-.64-1.4-.94-1.91-.3-.51-.59-.92-.87-1.23-.28-.31-.55-.54-.81-.67-.26-.13-.51-.19-.76-.19-.11,0-.22.01-.33.04-.11.03-.22.06-.33.1-.29.12-.53.3-.72.54-.19.24-.3.58-.34,1.02-.03.44.03.98.18,1.63.16.65.43,1.45.83,2.39Z"/>
      <path class="cls-1" d="M67.4,107.34c.23-.52.43-1.02.61-1.49.17-.47.26-.98.26-1.53v-4.02c0-.55-.09-1.06-.26-1.53-.17-.47-.37-.97-.61-1.49l3.86-.66v2.95c.34-.98.86-1.76,1.55-2.32.69-.56,1.47-.84,2.33-.84.78,0,1.41.23,1.9.68.49.45.73,1.05.73,1.78v.7c.34-.98.86-1.76,1.55-2.32.69-.56,1.47-.84,2.33-.84.78,0,1.41.23,1.9.68.49.45.73,1.05.73,1.78v5.44c0,.55.09,1.06.26,1.53.17.47.37.97.61,1.49h-4.72c.23-.52.43-1.02.6-1.49.17-.47.26-.98.26-1.53v-4.82c0-.52-.11-.93-.32-1.24-.21-.31-.52-.46-.91-.46-.57,0-1.06.29-1.45.86-.39.57-.67,1.33-.83,2.28v3.38c0,.55.09,1.06.26,1.53.17.47.37.97.61,1.49h-4.72c.23-.52.43-1.02.61-1.49.17-.47.26-.98.26-1.53v-4.82c0-.52-.11-.93-.32-1.24-.21-.31-.52-.46-.93-.46-.56,0-1.04.29-1.44.86-.4.57-.67,1.33-.82,2.28v3.38c0,.55.09,1.06.26,1.53.17.47.37.97.6,1.49h-4.72Z"/>
      <path class="cls-1" d="M95.58,101.98c.07.79.01,1.53-.17,2.22-.18.68-.47,1.28-.86,1.77-.39.5-.87.89-1.43,1.17-.56.28-1.19.42-1.89.42s-1.37-.15-1.99-.46c-.62-.31-1.15-.73-1.61-1.27-.46-.54-.82-1.18-1.08-1.92-.26-.74-.39-1.54-.39-2.4,0-.72.1-1.39.29-2.01.19-.62.49-1.15.9-1.61.41-.46.93-.82,1.56-1.08.63-.26,1.38-.39,2.26-.39,1.22,0,2.19.25,2.91.75.72.5,1.09,1.19,1.09,2.06,0,.68-.22,1.26-.65,1.73s-.95.85-1.56,1.15c-.61.29-1.25.51-1.93.65-.68.14-1.26.21-1.75.23.16.34.35.67.55.97.21.31.43.58.69.82.25.24.54.43.85.56.31.14.66.21,1.03.21s.71-.07,1.08-.22c.36-.14.69-.36.98-.66s.53-.66.71-1.11c.18-.44.26-.97.25-1.59h.16ZM89.16,102.7c.7-.08,1.26-.24,1.68-.46.42-.23.75-.49.97-.8.23-.31.38-.64.45-.98.08-.35.11-.69.11-1.02,0-.49-.05-.9-.16-1.23-.11-.33-.25-.59-.43-.79-.18-.2-.38-.34-.61-.42-.23-.08-.45-.12-.69-.12-.62,0-1.11.23-1.49.68-.38.45-.56,1.05-.56,1.78,0,.37.05.86.16,1.48.11.62.29,1.24.55,1.89Z"/>
      <path class="cls-1" d="M96.63,107.34c.23-.52.43-1.02.61-1.49.17-.47.26-.98.26-1.53v-4.02c0-.55-.09-1.06-.26-1.53-.17-.47-.37-.97-.61-1.49l3.86-.66v3.18c.4-1.04.99-1.86,1.77-2.47.79-.61,1.63-.91,2.53-.91.78,0,1.41.23,1.9.68.49.45.73,1.05.73,1.78v5.44c0,.55.09,1.06.26,1.53.17.47.37.97.61,1.49h-4.72c.23-.52.43-1.02.6-1.49.17-.47.26-.98.26-1.53v-4.82c0-.52-.11-.93-.32-1.24-.21-.31-.52-.46-.93-.46-.27,0-.55.08-.84.23-.29.15-.55.36-.8.64-.25.27-.46.6-.65.98-.18.38-.32.81-.4,1.29v3.38c0,.55.09,1.06.26,1.53.17.47.37.97.61,1.49h-4.72Z"/>
      <path class="cls-1" d="M32.6,126.28c.23-.52.43-1.02.61-1.49.17-.47.26-.98.26-1.53v-8.94c0-.55-.09-1.06-.26-1.53-.17-.47-.37-.97-.61-1.49h4.72c-.23.52-.43,1.02-.61,1.49-.17.47-.26.98-.26,1.53v8.94c0,.55.09,1.06.26,1.53.17.47.37.97.61,1.49h-4.72Z"/>
      <path class="cls-1" d="M38.45,126.28c.23-.52.43-1.02.61-1.49.17-.47.26-.98.26-1.53v-4.02c0-.55-.09-1.06-.26-1.53-.17-.47-.37-.97-.61-1.49l3.86-.66v3.18c.4-1.04.99-1.86,1.77-2.47.79-.61,1.63-.91,2.53-.91.78,0,1.41.23,1.9.68.49.45.73,1.05.73,1.78v5.44c0,.55.09,1.06.26,1.53.17.47.37.97.61,1.49h-4.72c.23-.52.43-1.02.6-1.49.17-.47.26-.98.26-1.53v-4.82c0-.52-.11-.93-.32-1.24-.21-.31-.52-.46-.93-.46-.27,0-.55.08-.84.23-.29.15-.55.36-.8.64-.25.27-.46.6-.65.98-.18.38-.32.81-.4,1.29v3.38c0,.55.09,1.06.26,1.53.17.47.37.97.61,1.49h-4.72Z"/>
      <path class="cls-1" d="M69.15,118.79c.07,1.4-.07,2.58-.41,3.56-.34.98-.8,1.77-1.38,2.39-.58.62-1.25,1.06-2,1.34-.75.28-1.5.42-2.26.42-.97,0-1.88-.21-2.72-.63-.84-.42-1.57-.98-2.19-1.68-.62-.7-1.11-1.52-1.47-2.45-.36-.93-.53-1.91-.53-2.95s.18-2.03.53-2.96c.36-.94.86-1.76,1.51-2.46.65-.7,1.42-1.26,2.31-1.67.89-.41,1.87-.62,2.93-.62.3,0,.64.02,1.03.05.38.03.77.09,1.16.16.39.08.77.16,1.14.27.37.1.68.22.94.36v5.07h-.21c-.25-.77-.55-1.47-.92-2.11-.37-.64-.79-1.2-1.26-1.66-.47-.46-.98-.83-1.53-1.1-.55-.27-1.11-.4-1.7-.4-.55,0-1.05.12-1.5.35-.45.23-.83.54-1.15.93-.31.39-.56.84-.73,1.35-.17.51-.26,1.05-.26,1.61,0,.47.06.99.17,1.59.12.59.29,1.2.52,1.83.23.62.52,1.23.87,1.83.35.59.75,1.13,1.2,1.6.45.47.96.85,1.54,1.14.57.29,1.2.43,1.87.43.56,0,1.09-.11,1.58-.33.49-.22.93-.55,1.3-1.01.38-.45.68-1.03.92-1.73.24-.7.4-1.54.48-2.51h.21Z"/>
      <path class="cls-1" d="M75.51,126.51c-.74,0-1.43-.14-2.07-.42-.64-.28-1.2-.67-1.68-1.17-.48-.5-.86-1.09-1.14-1.77-.28-.68-.42-1.42-.42-2.22s.14-1.53.42-2.21c.28-.68.66-1.26,1.14-1.76.48-.5,1.04-.89,1.68-1.17.64-.28,1.33-.42,2.07-.42s1.43.14,2.08.42c.65.28,1.21.67,1.69,1.17.48.5.86,1.09,1.14,1.76.28.68.42,1.41.42,2.21s-.14,1.53-.42,2.22c-.28.68-.66,1.28-1.14,1.77-.48.5-1.04.89-1.69,1.17-.65.28-1.34.42-2.08.42ZM73.48,121.79c.33.75.64,1.39.94,1.91.3.52.59.93.87,1.24.28.31.55.53.81.67.26.14.51.21.76.21.19,0,.4-.05.64-.14.29-.12.53-.31.72-.55.19-.25.3-.58.34-1.02.03-.43-.02-.97-.17-1.63-.15-.66-.42-1.46-.82-2.4-.33-.77-.64-1.4-.94-1.91-.3-.51-.59-.92-.87-1.23-.28-.31-.55-.54-.81-.67-.26-.13-.51-.19-.76-.19-.11,0-.22.01-.33.04-.11.03-.22.06-.33.1-.29.12-.53.3-.72.54-.19.24-.3.58-.34,1.02-.03.44.03.98.18,1.63.16.65.43,1.45.83,2.39Z"/>
      <path class="cls-1" d="M81.81,126.28c.23-.52.43-1.02.59-1.49s.25-.98.25-1.53v-7.26h-1.19v-.43h1.19v-.37c0-.38.05-.81.15-1.29.1-.48.29-.93.57-1.35.28-.42.66-.78,1.15-1.07.49-.29,1.11-.43,1.88-.43.45,0,.83.05,1.14.15.31.1.56.23.75.39.19.16.34.33.45.52.11.19.19.38.25.55.27-.45.67-.83,1.19-1.15.52-.31,1.2-.47,2.05-.47.78,0,1.41.11,1.88.34.47.23.78.43.91.61l-1.72,3.2h-.1c.04-.36.06-.75.07-1.18,0-.43-.02-.83-.08-1.21-.06-.38-.16-.69-.3-.94-.14-.25-.32-.38-.55-.38-.21,0-.38.11-.51.32-.14.21-.24.49-.31.84-.07.35-.12.75-.14,1.19-.03.44-.04.9-.04,1.36v.37h2.52v.43h-2.52v7.26c0,.55.09,1.06.26,1.53.17.47.37.97.61,1.49h-4.72c.23-.52.43-1.02.61-1.49.17-.47.26-.98.26-1.53v-7.26h-2.67v7.26c0,.55.08,1.06.25,1.53.16.47.36.97.59,1.49h-4.7ZM88.33,115.57v-.37c0-.3.03-.62.08-.96.05-.34.16-.68.31-1.03-.18-.42-.4-.75-.66-.96-.26-.22-.53-.33-.82-.33-.51,0-.9.3-1.17.9-.27.6-.41,1.39-.41,2.38v.37h2.67Z"/>
      <path class="cls-1" d="M102.81,120.93c.07.79.01,1.53-.17,2.22-.18.68-.47,1.28-.86,1.77s-.87.89-1.43,1.17c-.56.28-1.19.42-1.89.42s-1.37-.15-1.99-.46c-.62-.31-1.15-.73-1.61-1.27-.46-.54-.82-1.18-1.08-1.92-.26-.74-.39-1.54-.39-2.4,0-.72.1-1.39.29-2.01.19-.62.49-1.15.9-1.61.41-.46.93-.82,1.56-1.08.63-.26,1.38-.39,2.26-.39,1.22,0,2.19.25,2.91.75.72.5,1.09,1.19,1.09,2.06,0,.68-.22,1.26-.65,1.73-.43.47-.95.85-1.56,1.15-.61.29-1.25.51-1.93.65-.68.14-1.26.21-1.75.23.16.34.35.67.55.97.21.31.43.58.69.82.25.24.54.43.85.56.31.14.66.21,1.03.21s.71-.07,1.08-.22c.36-.14.69-.36.98-.66s.53-.66.71-1.11c.18-.44.26-.97.25-1.59h.16ZM96.39,121.65c.7-.08,1.26-.24,1.68-.46.42-.23.75-.49.97-.8.23-.31.38-.64.45-.98.08-.35.11-.69.11-1.02,0-.49-.05-.9-.16-1.23-.11-.33-.25-.59-.43-.79-.18-.2-.38-.34-.61-.42s-.45-.12-.69-.12c-.62,0-1.11.23-1.49.68-.38.45-.56,1.05-.56,1.78,0,.37.05.86.16,1.48.11.62.29,1.24.55,1.89Z"/>
      <path class="cls-1" d="M113.46,120.93c.07.79.01,1.53-.17,2.22-.18.68-.47,1.28-.86,1.77s-.86.89-1.43,1.17c-.56.28-1.19.42-1.89.42s-1.37-.15-1.99-.46c-.62-.31-1.15-.73-1.61-1.27-.46-.54-.82-1.18-1.08-1.92-.26-.74-.39-1.54-.39-2.4,0-.72.1-1.39.29-2.01.19-.62.49-1.15.9-1.61.41-.46.93-.82,1.56-1.08.63-.26,1.38-.39,2.26-.39,1.22,0,2.19.25,2.91.75.72.5,1.09,1.19,1.09,2.06,0,.68-.22,1.26-.65,1.73-.43.47-.95.85-1.56,1.15-.61.29-1.25.51-1.93.65-.68.14-1.26.21-1.75.23.16.34.35.67.55.97.21.31.43.58.69.82.25.24.54.43.85.56.31.14.66.21,1.03.21s.71-.07,1.08-.22c.36-.14.69-.36.98-.66.29-.29.53-.66.71-1.11.18-.44.26-.97.25-1.59h.16ZM107.04,121.65c.7-.08,1.26-.24,1.68-.46.42-.23.75-.49.97-.8.23-.31.38-.64.45-.98.07-.35.11-.69.11-1.02,0-.49-.05-.9-.16-1.23-.11-.33-.25-.59-.43-.79-.18-.2-.38-.34-.61-.42-.23-.08-.45-.12-.69-.12-.62,0-1.11.23-1.49.68-.38.45-.56,1.05-.56,1.78,0,.37.05.86.16,1.48.11.62.29,1.24.55,1.89Z"/>
    </g>
    <g>
      <path class="cls-1" d="M55.4,130.18v.72s-4.38-.01-4.38-.01v1.78s3.64,0,3.64,0v.74s-3.64,0-3.64,0v1.96s4.53.01,4.53.01v.71s-5.26-.01-5.26-.01v-5.91s5.11.01,5.11.01Z"/>
      <path class="cls-1" d="M56.37,130.91v-.72s6.25.01,6.25.01v.72s-2.77,0-2.77,0v5.18s-.74,0-.74,0v-5.18s-2.75,0-2.75,0Z"/>
      <path class="cls-1" d="M64.77,130.2v2.5s4.15,0,4.15,0v-2.5s.74,0,.74,0v5.91s-.75,0-.75,0v-2.67s-4.15,0-4.15,0v2.67s-.74,0-.74,0v-5.91s.75,0,.75,0Z"/>
      <path class="cls-1" d="M72.81,130.22v5.91s-.75,0-.75,0v-5.91s.75,0,.75,0Z"/>
      <path class="cls-1" d="M75.14,134.85c-.26-.47-.39-1.02-.39-1.64,0-.64.13-1.21.39-1.69.26-.48.63-.85,1.1-1.11.47-.26,1.02-.39,1.64-.39.63,0,1.18.13,1.65.4.48.26.85.63,1.11,1.1.26.47.39,1.02.39,1.64,0,.64-.13,1.21-.39,1.69-.26.48-.63.85-1.1,1.11-.47.26-1.02.39-1.64.39-.63,0-1.18-.13-1.65-.4-.48-.26-.84-.63-1.1-1.1ZM79.98,134.51c.2-.37.29-.8.3-1.29,0-.49-.1-.93-.29-1.31-.2-.38-.48-.67-.84-.88-.36-.21-.79-.31-1.27-.31-.48,0-.89.1-1.25.29s-.63.48-.83.84c-.2.36-.29.8-.3,1.3,0,.49.1.93.29,1.31.2.38.48.67.84.88.36.21.78.31,1.27.31.48,0,.89-.1,1.25-.29.36-.19.64-.48.83-.84Z"/>
      <path class="cls-1" d="M86.1,130.25c.82,0,1.42.15,1.81.45.39.3.59.72.59,1.28,0,.29-.08.58-.25.87s-.41.52-.73.7c-.32.19-.68.28-1.1.28h-2.71s0,2.33,0,2.33h-.73s.01-5.91.01-5.91h3.12ZM86.93,132.95c.24-.1.42-.24.54-.41.12-.17.19-.36.19-.57,0-.33-.12-.59-.37-.77-.25-.18-.63-.27-1.15-.27h-1.27c-.3.01-.68.01-1.15.01v2.14s2.38,0,2.38,0c.32,0,.6-.05.84-.15Z"/>
      <path class="cls-1" d="M90.97,130.26v5.91s-.75,0-.75,0v-5.91s.75,0,.75,0Z"/>
      <path class="cls-1" d="M96.29,130.28l2.89,5.92h-.78s-.96-1.97-.96-1.97h-3.29s-.97,1.95-.97,1.95h-.78s2.92-5.9,2.92-5.9h.98ZM95.85,131h-.1s-1.25,2.51-1.25,2.51h2.58s-1.23-2.51-1.23-2.51Z"/>
    </g>
  </g>
</svg>