<?xml version="1.0" encoding="UTF-8"?>
<svg id="Layer_1" data-name="Layer 1" xmlns="http://www.w3.org/2000/svg" viewBox="0 0 146.09 146.09">
  <defs>
    <style>
      .cls-1 {
        fill: #010101;
      }
    </style>
  </defs>
  <polygon class="cls-1" points="125.24 22.76 87.96 102.39 80.12 86.24 75.24 96.66 82.22 111.09 82.22 111.09 88.05 123.13 93.69 110.99 93.69 110.99 135.08 22.76 125.24 22.76"/>
  <polygon class="cls-1" points="105.55 24.2 106.21 22.86 96.37 22.95 73.33 72.18 68.45 82.51 59.09 102.58 36.05 54.98 55.07 54.79 66.64 78.87 71.51 68.45 71.51 68.45 49.62 23.24 39.78 23.33 50.29 45.03 31.27 45.13 20.75 23.43 11 23.53 59.18 123.33 73.43 92.83 78.3 82.51 105.55 24.2"/>
</svg>