<?xml version="1.0" encoding="UTF-8"?>
<svg id="Layer_1" data-name="Layer 1" xmlns="http://www.w3.org/2000/svg" viewBox="0 0 146.09 146.09">
  <path d="M116.96,66.52c.49-.37.2-10.45.03-12.28-1.43-15.48-13.93-31.22-29.02-35.42-24.32-6.75-47.77,6.48-56.2,29.87-1.28,3.56-4.08,14.97-1.23,17.6,2.01,1.84,4.89-.63,5.63,6.66.8,7.9.8,24.97,0,32.87-1.02,10.06-12.04,6.94-18.43,3.14-9.87-5.87-10.45-23.41-6.83-33.09,2.16-5.77,10.36-8.09,11.01-10.08.77-2.38-.13-6.2.28-9.09C29.52,5.19,93.07-8.55,117.59,34.89c6.36,11.26,5.18,14.53,6.39,26.42.89,8.73,10.28,6.82,12.4,16.89.95,4.52,1.28,19.63.51,24.07-1.51,8.71-24.53,15.36-25.83,3.58-1.25-11.3,1.05-24.82.05-36.39-.15-4.05,5.01-2.31,5.85-2.94Z"/>
  <path d="M90.03,71.24c4.99-1.59,5.65.63,8.64.06.83-.16.48-1.93,1.58-2.34.96-.36,7.14-1.54,7.35-1.24.29.41,1.32,8.66,1.17,9.88-.36,2.84-2.65,4.37-3.43,7.19-1.68,6.04.76,11.65-1.85,19.24-3.28,9.52-4.78,6.39-11.05,10.04-4.69,2.73-12.07,13.9-15.16,18.83-1.43,2.29-.85,7.53-5.44,5.22l-6.41-10.65c3.2,1.05,4.13,5.41,5.78,7.46.78.96,2.05,1.15,2.4.74.93-1.08,3.79-9.59,4.69-11.71l-5.26,8.19c-1.83-1.72-9-12.34-11.13-10.53-.69.58,4.02,3.18,1.76,4.67-2.66-1.74-2.76-4.95-4.61-7.11-4.17-4.87-13.22-8.48-16.91-14.72-1.25-2.11-4.16-10.55-3.75-12.62.23-1.14,4.74.34.63-4.81l-1.72-19.31c1.48,1.01,3.82,1.44,5.06,2.33.92.65.63,2.44,1.45,2.42,1.42-.04,3.34-1.7,5.19-1.22l-2.33,2.33,7.02-1.16-2.33,2.33c5.71,1.91,9.23-2.01,15.22,0l-3.51-2.33,8.78-1.2-2.93,2.35c1.9.92,8.84-1.81,9.38-1.16.27.33-1.97,2.2-.58,2.34,2.15-1.88,3.99.87,4.67.88.89,0,1.9-2.03,2.99-2.61.88-.46,1.82-.39,2.28-.62-.45.38.41,1.51,1.76,1.17.32-.08.34-1.09.59-1.17.84-.25,2.37.58,2.35-.59-.02-.93-1.87-.78-2.35-.59ZM64.26,89.98c-2.53.33-10.2-8.73-11.71-7.03-1.43,1.61-.55,10.64,5.23,10.62,1.3,0,9.09-1.46,6.48-3.6,1.74,1.83,3.91,3.28,5.27,5.84,6.53-8.45,14.55-11.32,24.46-14.19l6.58-4.53c-10.76,3.61-21.17,8.15-30.89,13.97-6.88-6.07-13.67-13.1-23-15.14,3.65,3.94,9.27,5.96,13.45,9.38,1.86,1.53,2.72,3.2,4.12,4.67ZM41.98,77.1c-7.29-.41,4.4,10.81,5.87,9.36l-5.87-9.36ZM102.93,81.78c.48.6,3.28-2.32,2.33-3.51-.48-.6-3.28,2.32-2.33,3.51ZM46.68,91.15c.48-.41-5.43-6.33-5.85-5.85-1.21,1.36,4.45,7.06,5.85,5.85ZM102.91,89.98c.74-1.64-.39-6.35-1.15-4.68s.39,6.35,1.15,4.68ZM91.2,86.48c-.57-.49-14.06,1.92-14.04,4.09.01,2.03,9.36,7.09,12.25,1.72.3-.55,2.03-5.61,1.8-5.81ZM92.37,98.19c-4.64,1.16-7.9,1.22-12.14-1.34-1.41-.85-4.52-4.51-4.85-4.51-.45,0-5.81,5.31-5.28,7.01-2.78-.25-2.9-5.14-3.51-5.86-.45-.52-5.56,2.29-7.61,2.43-4.65.31-10.75-4.12-8.27,2.33,5.69,14.79,36.06,16.96,41.67-.06ZM49.02,107.56c.37-2.54-2.3-3.61-2.99-5.79-.99-3.11.84-8.42-4.02-8.27-1.39,6.34,2.95,9.96,7.02,14.06ZM102.92,94.68c-3.1-1.44-7.92,2.28-5.85,4.67,1.89,2.19,2.38-1.65,2.7-1.93,1.08-.93,2.98-1.16,3.15-2.74ZM101.74,101.69c1.34-1.37-.5-3.76-2.33-.58-.15,1.02,2.25.66,2.33.58ZM94.71,109.91c-2.14-.44-3.64.33-5.52.94-1.75.57-4.65,1.16-3.84,3.74l9.36-4.68ZM82.99,119.27c.84-1.65-.75-3.13-1.15-2.33-.84,1.65.75,3.13,1.15,2.33Z"/>
  <path d="M90.03,71.24c-.14.06.14,1.11,0,1.17-.56.25-2.07-.24-2.34,0,.81-.41,1.18-.8,2.34-1.17Z"/>
</svg>