<?xml version="1.0" encoding="UTF-8"?>
<svg id="Layer_1" data-name="Layer 1" xmlns="http://www.w3.org/2000/svg" viewBox="0 0 146.09 146.09">
  <defs>
    <style>
      .cls-1 {
        fill: #fff;
        fill-rule: evenodd;
      }
    </style>
  </defs>
  <path class="cls-1" d="M133.27,122.96c-31.85-28.16-75.33-16.19-111.89-3.72-8.36,2.57-11.55,2.65-11.47-3.72.03-3.9,1.78-8.25,4.69-12.78,1-1.57,2.15-3.17,3.43-4.79,12.86-16.42,37.77-34.18,49.5-42.48,10.4-7.36,11.94-8.2-7.91-14.88-23.08-7.75-23.15-10.11-12.23-8.62,9.56,1.34,27.95,2.25,50.05,1.39,2.46-.1,4.98-.24,7.52-.37.73-.05,1.47-.08,2.23-.13,11.63-.71,12,2.78,5.42,9.38-.08.08-.13.13-.21.21-1.13,1.13-2.49,2.33-4.06,3.64-10.19,8.49-28.89,20.72-47.8,34.73-24.99,18.52-24.2,20.53-15.3,17.34,19.17-6.86,43.27-7.26,63.57,1.1,1.68.68,3.3,1.41,4.9,2.23,8.56,4.24,16.27,10.19,22.42,17.99,6,7.6,4.3,9.82-2.86,3.48Z"/>
  <path class="cls-1" d="M104.09,114c-5.37,5.29-11.68,9.41-18.52,12.22-6.87,2.81-14.26,4.3-21.78,4.3-5.03,0-10.03-.67-14.87-1.96-4.81-1.29-9.47-3.22-13.85-5.74l2.68-4.66c3.94,2.28,8.17,4.02,12.57,5.2,4.37,1.17,8.9,1.77,13.48,1.77,6.85,0,13.55-1.34,19.74-3.87,6.21-2.54,11.93-6.29,16.8-11.08l3.77,3.84Z"/>
  <path class="cls-1" d="M10.83,95.35c-1.49-3.53-2.61-7.19-3.37-10.94-.76-3.77-1.15-7.58-1.15-11.38,0-15.87,6.44-30.24,16.83-40.64,10.4-10.4,24.77-16.83,40.64-16.83,5.93,0,11.81.93,17.44,2.72,5.62,1.79,10.96,4.44,15.81,7.88l-3.12,4.38c-4.41-3.13-9.24-5.53-14.31-7.15-5.06-1.61-10.4-2.45-15.82-2.45-14.38,0-27.4,5.83-36.82,15.25-9.42,9.42-15.25,22.44-15.25,36.82,0,3.51.34,6.97,1.02,10.32.68,3.38,1.7,6.7,3.05,9.9l-4.95,2.09Z"/>
  <path class="cls-1" d="M114.02,86.79c-.21.71-.42,1.41-.63,2.1-.21.63-.42,1.26-.65,1.89-.21.6-.42,1.18-.68,1.78,0,.05-.03.13-.08.21-.21.58-.45,1.15-.73,1.7-.21.52-.47,1.02-.71,1.55l4.82,2.36c.39-.81.79-1.65,1.15-2.49.18-.39.34-.81.5-1.2t.03-.05c.34-.81.65-1.65.94-2.49.03-.05.03-.08.05-.13-1.6-1.6-2.91-3.35-4.01-5.21ZM116.61,50.46c-.34-.79-.68-1.55-1.05-2.3-.24-.58-.52-1.13-.81-1.68l-.03.03-4.77,2.46c.26.5.5,1,.73,1.52.37.76.73,1.52,1.05,2.3.34.79.65,1.57.94,2.36.31.81.58,1.62.81,2.44.1.26.18.52.26.79,1-2.1,2.23-4.11,3.64-6-.24-.63-.5-1.28-.79-1.91Z"/>
  <g>
    <path class="cls-1" d="M121.25,73.07c0,5.92-.94,11.81-2.72,17.44-.16.5-.34,1-.5,1.49-.03.05-.03.08-.05.13-.29.84-.6,1.68-.94,2.49t-.03.05c-.16.39-.31.81-.5,1.2-.37.84-.76,1.68-1.15,2.49l-4.82-2.36c.24-.52.5-1.02.71-1.55.26-.58.5-1.15.73-1.7.05-.08.08-.16.08-.21.26-.6.47-1.18.68-1.78.24-.63.45-1.26.65-1.89.21-.68.42-1.39.63-2.1,1.2-4.43,1.83-9.04,1.83-13.72,0-5.4-.81-10.58-2.36-15.48-.26-.81-.52-1.62-.81-2.44-.29-.79-.6-1.57-.94-2.36-.31-.79-.68-1.55-1.05-2.3-.24-.52-.47-1.02-.73-1.52l4.77-2.46c.29.55.58,1.1.84,1.65.37.76.71,1.52,1.05,2.3.29.63.55,1.28.79,1.91,2.49,6.42,3.85,13.38,3.85,20.69Z"/>
    <path class="cls-1" d="M48.67,122.88c-.55-.13-1.1-.31-1.62-.52-1.07-.34-2.15-.73-3.2-1.2-.55-.18-1.07-.42-1.57-.68-.5-.18-1-.42-1.47-.65l-2.36,4.79-.03.03c.55.26,1.1.52,1.68.76,1.15.52,2.3,1,3.48,1.44.39.18.81.31,1.23.47l.03-.03c1.57-1.6,3.3-2.91,5.19-3.98-.45-.13-.92-.26-1.36-.42ZM90.31,123.98l-2.46-4.74c-.65.34-1.34.68-2.02.97-.68.34-1.39.65-2.1.94-.16.08-.34.16-.52.21-1.57.65-3.17,1.2-4.77,1.68,2.1,1,4.09,2.23,5.97,3.61,0,.03.03.03.03.03.39-.16.76-.29,1.13-.47.86-.34,1.7-.73,2.54-1.1.76-.34,1.49-.68,2.23-1.07l-.03-.05Z"/>
  </g>
</svg>