<?xml version="1.0" encoding="UTF-8"?>
<svg id="Layer_1" data-name="Layer 1" xmlns="http://www.w3.org/2000/svg" viewBox="0 0 116.91 115.16">
  <defs>
    <style>
      .cls-1 {
        fill: #ff5001;
      }

      .cls-2 {
        fill: #01013d;
      }

      .cls-3 {
        fill: #ffcfb9;
      }
    </style>
  </defs>
  <g>
    <path class="cls-3" d="M88.12,111.71c-14.36-4.34-25.55-13.66-33.81-27.9-1.78-.1-3.45-.19-5.35-.3,6.06,14.19,18.22,25.18,31.99,31.06.07.03.15.06.23.09.09.04.18.08.27.11.3.13.61.25.92.37.56-.46,1.38-.09,1.93-.82-.12.23.4.26.38.46.59-.9,2.3-.22,2.4-1.37.71.23.88-.97,1.6-.11.03-.87,1.55-.4,2.15-.86,0,0,0,0,0,0-.91-.23-1.81-.48-2.7-.75Z"/>
    <path class="cls-3" d="M116.8,83.47c0-.12-.01-.24-.02-.36,0-.11-.01-.21-.02-.32-.61-9.09-3.07-17.55-7.1-23.49-.96,1.57-1.88,3.07-2.74,4.47,3.78,9.33,5.42,18.51,4.79,27.59-.01.18-.03.37-.04.55-.02.28-.05.55-.07.83-.17,1.79-.43,3.58-.78,5.37.02-.06.04-.1.05-.14-.02.38-.19.93.39.65-.16-.58-.12-1.78.58-1.76-.7,1.4.93-1.49,1.54-.96.13-.56-.2-1.01.54-1.18,1.64.76,1.08-4.08,2.44-2.09.08-.25.26-.43.37-.66.01-.19.03-.38.04-.57,0-.07,0-.13.01-.2,0-.16.02-.32.02-.49,0-.05,0-.11,0-.16.12-2.38.1-4.76-.03-7.1Z"/>
    <path class="cls-3" d="M113.96,95.32c-.29.4-.13,1.18-.83,1.25.58.37,1.93-1.42.83-1.25Z"/>
    <path class="cls-3" d="M115.95,94.04c.36-.08.58-.26.5-.64-.36.08-.58.25-.5.64Z"/>
    <path class="cls-3" d="M5.53,59.05c3.97,6.18,8.6,11.28,13.89,15.34v2.34h3.3c7.42,4.87,16,7.9,25.71,9.19.76,1.44,1.52,2.85,2.31,4.35-15.55,3.23-42.88-13.65-50.74-31.09C11.28,35.28,38.84,22.97,60.18,25.89c-.85,1.5-1.63,2.87-2.5,4.39-13.76.08-25.66,3.57-35.6,10.72h-2.58l-.03,1.99c-5.23,4.25-9.88,9.59-13.93,16.07Z"/>
    <path class="cls-3" d="M58.33,24.24c2.89-3.17,5.75-6.01,8.6-8.52,1.2-1.06,2.4-2.06,3.6-3,.08-.06.16-.13.24-.19.1-.08.2-.15.3-.23,2.56-1.98,5.12-3.7,7.69-5.17.13-.08.26-.15.39-.22.28-.16.55-.31.83-.46.82-.44,1.65-.86,2.47-1.25,1.42-.67,2.84-1.26,4.26-1.78.11-.04.21-.08.32-.11.23-.08.45-.16.68-.24-.19-.37-1.02-.57-1.11-.15.02-.58-2.58-2.51-3.84-2.26-.26-.3-.74-.51-1.27-.65-1.55.64-3.09,1.35-4.59,2.11-.9.45-1.78.93-2.65,1.42-3.6,2.04-6.99,4.41-10.05,7.06-1.16,1.01-2.28,2.06-3.33,3.14-3.07,3.15-5.65,6.61-7.57,10.29.86.09,1.65.22,2.44.25.94.03,1.88-.02,2.6-.03Z"/>
    <path class="cls-3" d="M104.62,64.54c4.35-5.82,7.37-12.42,9.17-19.27.05-.19.1-.39.15-.58.01-.04.02-.09.03-.13,0,0,0,0,0,0,.05-.18.09-.37.14-.55.92-3.81,1.47-7.69,1.67-11.55,0-.14.02-.29.02-.43,0-.16.01-.32.02-.48,0-.18.01-.37.02-.55,0-.14,0-.28.01-.42-.1-.11-.17-.24-.1-.45-.9.23-1.17-1.39-1.33-2.5-.53-.21-1.27-.17-.78.65.28-.45.45.13.6.62-1.03-.71.45,1.08.71,1.85-1.6-1.89-3.06-3.74-4.23-5.45.24,3.23.19,6.46-.15,9.67-.01.11-.02.22-.04.33,0,.07-.02.14-.02.21-.07.61-.15,1.23-.24,1.84-1.13,7.55-3.87,15.07-8.22,22.58.82,1.47,1.64,2.95,2.58,4.63Z"/>
    <path class="cls-3" d="M19.42,47.78v7.21c-1.13,1.25-2.22,2.57-3.26,3.98,1.05,1.3,2.14,2.52,3.26,3.68v7.11c-3.58-3.02-6.72-6.52-9.12-10.45,1.58-3.8,4.93-7.87,9.12-11.53Z"/>
    <path class="cls-3" d="M30.45,42.54l-.8-1.55h-.73c5.78-3.33,11.82-5.48,16.54-5.38-.51,1.59-.99,3.1-1.53,4.78-4.32,1.18-8.37,2.76-12.12,4.82l-1.36-2.68Z"/>
    <path class="cls-3" d="M56.2,81.99c-7.68,1.11-17.31-.84-26.11-5.25h.56v-5.43c4.82,2.67,10.07,4.45,15.76,5.4.07,0,.14.02.2.03,2.44.4,4.96.64,7.56.74.68,1.51,1.34,2.97,2.03,4.51Z"/>
    <path class="cls-3" d="M105.36,104.73c.06-.18.13-.35.19-.53-.11.16-.21.35-.27.58.03-.02.05-.04.08-.06Z"/>
    <path class="cls-3" d="M100.32,107.04c-.19.44-.61.55-.74,1.09.57.13,1.87-1.19.74-1.09Z"/>
    <path class="cls-3" d="M99.68,59.22c-.46.51-.96.97-1.34,1.51-.54.77-1,1.61-1.54,2.5,1.34,2.56,2.49,5.14,3.41,7.73l4.05,5.78h-2.32c2.14,9.12,1.59,18.41-2.09,27.94-.07.19-.15.38-.22.57-.12-.01-.24-.03-.36-.05-11.88-1.47-21.49-6.65-29.52-14.75-1.05.23-1.85.41-2.65.59-.75.17-1.51.33-2.33.52,3.6,6.55,15.89,14.92,27.72,17.73.81.19,1.62.36,2.42.49-.19-.4.76-.65,1.1-.9-.11.34-.15.65,0,.85,2.5-1.19,4.4-4.15,5.48-2.64.04-.91.82-.41,1.06-.65-.37-1.43,1.63-.46.85-1.46.8-.69,1.44-1.59.6-.16.79-.54.48.09,1.1.25-.18-.74.19-1.13.67-1.49.6-1.82,1.09-3.73,1.46-5.69.06-.31.12-.62.17-.92h0c.03-.15.05-.3.07-.45.48-2.95.72-6,.72-9.06,0-10.7-2.91-21.52-8.5-28.25ZM101.4,102.7h0s.01.05.02.07c0-.03,0-.05-.02-.07ZM104.47,99.89h0s0,.03.01.05c0-.02,0-.04-.02-.05Z"/>
    <path class="cls-3" d="M98.88,11.48c-.07-.03-.14-.05-.21-.08,0,.01.01.03.02.04.06.01.12.03.2.05Z"/>
    <path class="cls-3" d="M85.97,7.63c-.2.08-.41.16-.62.24-.51.21-1.03.42-1.54.65-.2.09-.4.18-.6.27-.16.07-.32.15-.48.22-2.89,1.35-5.74,2.98-8.44,4.86-1.28.89-2.53,1.84-3.73,2.83-5.42,4.49-9.9,10.01-12.3,16.13,1.51.24,2.97.47,4.66.74,3.66-5.89,7.93-10.73,12.87-14.51.08-.06.15-.12.23-.17.06-.05.13-.1.19-.14.91-.68,1.84-1.32,2.79-1.93,2.59-1.66,5.35-3.06,8.29-4.2.36-.14.73-.28,1.09-.41.15-.06.31-.11.46-.16.46-.16.93-.32,1.4-.47,1.24-.39,2.51-.75,3.82-1.05h0c.09-.02.18-.04.27-.06.22-.05.43-.1.65-.15.42-.09.83-.18,1.26-.26-.54-.24-1.08-.37-1.62-.26-1.5-.87-.37-.94-.42-1.54-2.82.69-1.91-.84-.12-.31-.82-1.95-2.03-2.02-2.63-2.1-.59.15-1.17.31-1.77.49-.2.06-.39.12-.59.18-.88.27-1.76.58-2.64.91-.15.06-.31.12-.47.18Z"/>
    <path class="cls-3" d="M100.26,15.96c.47,1.61.85,3.22,1.15,4.84.02.12.04.24.06.36.01.07.03.15.04.22.02.08.03.17.04.25.02.1.03.2.05.3.11.7.2,1.4.28,2.09.53,4.87.28,9.76-.66,14.68-.08.4-.16.81-.25,1.21-.02.11-.05.21-.07.32,0,.02-.01.05-.02.07-.21.95-.45,1.9-.71,2.86,1.28,1.34,2.39,2.51,3.87,4.07.09-.27.19-.55.28-.82.07-.2.14-.41.2-.61,1.47-4.59,2.34-9.07,2.63-13.48,0-.12.02-.23.02-.35.02-.31.03-.62.05-.92.01-.31.02-.61.03-.91,0-.35.01-.7.01-1.05,0-.1,0-.21,0-.31,0-1.61-.09-3.22-.25-4.81-.02-.19-.04-.39-.06-.58,0-.07-.02-.14-.02-.21,0-.07-.02-.14-.02-.21-.14-1.16-.32-2.32-.54-3.48-.74-.91-1.28-2.1-2.26-3.11-1.25-.87-3.16-3.6-4.19-2.9-.66-.22-.32-.86.46-.7-.38-.8-.66.44-.98-.6-.1.11-.24.15-.38.13.46,1.21.87,2.43,1.23,3.65,0,0,0,0,0,.01Z"/>
    <path class="cls-3" d="M94.81,51.94c-.47.94-.79,1.67-1.18,2.36-.34.59-.76,1.13-1.53,2.23-1.96-2.18-4-4.16-6.12-5.93h0s-5.17-7.4-5.17-7.4l-1.53-2.2h-10.58l-.21.21c-5.01-1.44-10.37-2.08-16.13-1.92.67-1.86,1.16-3.24,1.81-5.04,16.26-.21,29.53,5.93,40.64,17.69Z"/>
    <path class="cls-3" d="M69.6,76.74h8.26c-4.03,2-8.42,3.57-13.15,4.72-.82-1.5-1.57-2.87-2.56-4.67,2.18-.47,4.28-1.04,6.29-1.71l1.16,1.65Z"/>
    <path class="cls-3" d="M84.02,66.76l2.96,4.23c-1.82,1.43-3.74,2.74-5.75,3.93l-2.95-4.22c2.02-1.18,3.93-2.48,5.74-3.94Z"/>
    <path class="cls-3" d="M100.41,55.18c-1.68,2.94-3.53,5.64-5.56,8.1l-3.06-4.37c1.88-2.39,3.61-5,5.19-7.85.75.77,1.16,1.14,1.49,1.55.6.74,1.15,1.52,1.94,2.57Z"/>
    <path class="cls-3" d="M57.61,48.37v-7.37h-3.37c.07-.21.13-.43.2-.64,1.7.14,3.14.26,5.13.42-.84,2.56-1.5,5.09-1.97,7.6Z"/>
    <path class="cls-3" d="M64.42,83.59c-1.17.33-1.94.57-2.73.75-.66.15-1.33.22-2.45.4-1.53-2.64-2.83-5.31-3.9-7.99h2.28v-10.15c1.14,5.79,3.4,11.45,6.81,17Z"/>
    <path class="cls-3" d="M105.24,51.03c-9.31-12.37-21.17-20.46-36.2-23.96-1.16,1.55-2.04,2.72-3.28,4.39,15.78,3.47,27.7,11.63,36.93,24.72.98-1.97,1.73-3.5,2.55-5.15Z"/>
    <path class="cls-3" d="M44.14,69.45l2.27-4.44v10.5c-.27-.02-.54-.04-.82-.06-.58-2.01-1.06-4.01-1.45-6Z"/>
    <path class="cls-3" d="M53.85,32.07c-1.38,2.97-2.51,5.94-3.39,8.93h-3.8v2.76l-3.28,6.19c.73-5.98,2.35-11.89,4.87-17.78,1.77-.03,3.38-.06,5.61-.1Z"/>
    <path class="cls-3" d="M93.71,76.74c-9.47,7.92-20.44,12.66-33.16,14.05-.67-.83-1.23-1.42-1.68-2.09-.43-.65-.74-1.37-1.41-2.63,12.04-1.09,22.48-5.05,31.57-12.15l1.97,2.82h2.7Z"/>
  </g>
  <path class="cls-1" d="M46.4,76.71c.07,0,.14.02.2.03h-.2v-.03Z"/>
  <g>
    <path class="cls-2" d="M100.81,74.94h-8.87l-3.1-4.43-14.75-21.1c1.73-1.75,3.46-3.5,5.19-5.26l18.43,26.36,3.1,4.43Z"/>
    <polygon class="cls-2" points="28.85 61.2 28.85 74.94 21.22 74.94 21.22 46.27 28.85 61.2"/>
    <path class="cls-2" d="M79.06,74.94h-8.52l-3.1-4.43-5.87-8.39c1.66-1.68,3.32-3.37,4.98-5.06l9.41,13.45,3.1,4.43Z"/>
    <polygon class="cls-2" points="42.14 69.41 41.57 70.51 35.39 70.51 35.04 69.84 28.85 57.7 21.23 42.8 28.55 42.8 28.85 43.37 38.7 62.67 42.14 69.41"/>
    <polygon class="cls-2" points="46.63 47.13 46.63 60.61 43.02 67.69 39.58 60.96 46.63 47.13"/>
    <rect class="cls-2" x="48.2" y="42.8" width="7.61" height="32.15"/>
    <path class="cls-2" d="M78.22,42.8c-1.71,1.73-3.41,3.47-5.12,5.2-2.51,2.55-5.03,5.1-7.54,7.65-1.66,1.68-3.32,3.37-4.98,5.05-1.12,1.14-2.24,2.28-3.37,3.41v-8.89c1.57-1.59,3.14-3.18,4.71-4.78,2.51-2.55,5.02-5.09,7.53-7.64h8.77Z"/>
  </g>
</svg>