<svg id="svg" fill="#ebf4fe" stroke="#ebf4fe" width="200" height="200" version="1.1" viewBox="144 144 512 512" xmlns="http://www.w3.org/2000/svg">
    <g id="IconSvg_bgCarrier" stroke-width="0"></g>
    <g id="IconSvg_tracerCarrier" stroke-linecap="round" stroke-linejoin="round" stroke="#CCCCCC" stroke-width="0">
      <g xmlns="http://www.w3.org/2000/svg">
  <path d="m399.79 156.05c-133.11 0-241.41 109.67-241.41 244.43s108.29 244.43 241.41 244.43c133.11 0 241.41-109.67 241.41-244.43s-108.29-244.43-241.41-244.43zm0 483.61c-131.15 0-237.85-108.03-237.85-240.88 0-132.84 106.7-240.87 237.85-240.87 131.15 0 237.85 108.03 237.85 240.88 0 132.84-106.7 240.87-237.85 240.87z"></path>
  <path d="m399.79 150.75c-136.03 0-246.65 112-246.65 249.73 0 137.73 110.62 249.73 246.66 249.73 136.03 0 246.66-112.06 246.66-249.73-0.003906-137.73-110.63-249.73-246.66-249.73zm0 494.16c-133.11 0-241.41-109.67-241.41-244.43 0.003906-134.76 108.3-244.43 241.41-244.43 133.11 0 241.41 109.67 241.41 244.43 0 134.76-108.29 244.43-241.41 244.43z"></path>
  <path d="m399.79 157.91c-131.15 0-237.85 108.03-237.85 240.88s106.7 240.88 237.85 240.88c131.15 0 237.85-108.03 237.85-240.88s-106.7-240.88-237.85-240.88zm0 479.09c-129.71 0-235.25-106.86-235.25-238.22 0-131.36 105.54-238.22 235.25-238.22 129.72 0 235.25 106.86 235.25 238.22 0 131.36-105.54 238.22-235.25 238.22z"></path>
  <path d="m241.38 363.09c7.6914 4.5078 16.07 6.6289 24.344 6.6289 16.863 0 33.305-8.8555 42.371-24.715 6.5234-11.453 8.2734-24.766 4.8789-37.492-3.3945-12.727-11.453-23.387-22.75-30.016-23.336-13.629-53.246-5.5156-66.66 18.086-13.527 23.598-5.5195 53.879 17.816 67.508zm24.445-89.57c7.8477 0 15.75 2.0156 23.016 6.2578 3.9766 2.332 7.5312 5.1953 10.605 8.4844-22.008 20.207-37.973 47.039-44.867 77.375-4.082-1.0078-8.1133-2.5977-11.934-4.8242-22.062-12.887-29.645-41.578-16.918-63.902 8.5977-15.012 24.137-23.391 40.098-23.391z"></path>
  <path d="m558.2 434.47c-11.297-6.5742-24.449-8.3242-37.016-4.9336-12.57 3.3945-23.121 11.613-29.645 23.016-6.5234 11.453-8.2734 24.766-4.8789 37.492 3.3945 12.727 11.453 23.387 22.75 30.016 7.5312 4.4023 15.855 6.6289 24.344 6.6289 4.2422 0 8.4844-0.58203 12.727-1.6953 12.57-3.3945 23.121-11.613 29.645-23.016 13.414-23.598 5.4062-53.879-17.926-67.508zm-12.41 87.98c-11.934 3.2344-24.344 1.5898-35.055-4.668-4.2969-2.4922-8.0625-5.6758-11.297-9.2812 21.426-20.312 36.859-46.934 43.379-77.004 4.8789 1.0078 9.6523 2.7031 14.105 5.3047 22.062 12.887 29.645 41.578 16.918 63.902-6.2031 10.77-16.172 18.512-28.051 21.746z"></path>
  <path d="m486.65 307.51c-3.3945 12.727-1.6445 26.094 4.8789 37.492 6.5234 11.453 17.023 19.621 29.645 23.016 4.1914 1.1133 8.4844 1.6953 12.727 1.6953 8.4844 0 16.812-2.2266 24.344-6.6289 11.297-6.5742 19.355-17.234 22.75-30.016 3.3945-12.727 1.6445-26.094-4.8789-37.492-13.469-23.598-43.379-31.715-66.66-18.086-11.348 6.582-19.41 17.242-22.805 30.02zm87.133-10.605c6.1523 10.82 7.7969 23.441 4.6133 35.48-3.1836 12.039-10.82 22.168-21.531 28.371-4.5078 2.6523-9.332 4.4023-14.266 5.3555-6.6836-29.91-22.168-56.426-43.594-76.578 3.2891-3.8164 7.2109-7.1602 11.719-9.8125 22.012-12.832 50.332-5.1406 63.059 17.184z"></path>
  <path d="m399.79 505.05c-26.941 0-48.789 22.168-48.789 49.426 0 27.258 21.902 49.426 48.789 49.426 26.887 0 48.789-22.168 48.789-49.426 0.003906-27.258-21.898-49.426-48.789-49.426zm0 96.203c-25.457 0-46.191-21-46.191-46.773 0-4.2422 0.58203-8.3242 1.6445-12.199 13.684 4.2422 28.215 6.5234 43.273 6.5234 15.91 0 31.234-2.5977 45.609-7.3203 1.168 4.1367 1.8555 8.4844 1.8555 12.992 0 25.828-20.734 46.777-46.191 46.777z"></path>
  <path d="m399.79 302.58c18.562 0 48.789-38.871 48.789-69.633 0-27.258-21.902-49.426-48.789-49.426-26.941 0-48.789 22.168-48.789 49.426 0 27.473 26.145 69.633 48.789 69.633zm46.191-69.633c0 7.0547-1.9102 15.008-5.0898 22.91-13.418-4.082-27.629-6.2578-42.371-6.2578-13.949 0-27.473 2.0156-40.305 5.6758-2.918-7.7969-4.668-15.59-4.668-22.328 0-25.773 20.734-46.773 46.191-46.773 25.508 0 46.242 21 46.242 46.773z"></path>
  <path d="m312.92 490.05c3.3945-12.727 1.6445-26.094-4.8789-37.492-13.469-23.598-43.379-31.715-66.66-18.086s-31.344 43.91-17.871 67.512c9.0156 15.855 25.457 24.715 42.371 24.715 8.2734 0 16.652-2.1211 24.344-6.6289 11.242-6.5781 19.301-17.238 22.695-30.02zm-87.184 10.609c-12.727-22.328-5.1445-50.965 16.918-63.902 3.7656-2.1758 7.6914-3.7656 11.719-4.8242 6.7344 30.492 22.594 57.434 44.602 77.797-2.9688 3.0742-6.3633 5.832-10.129 8.0078-22.062 12.938-50.328 5.2461-63.109-17.078z"></path>
  <path d="m238.36 369.4c8.5391 4.9844 17.977 7.5312 27.578 7.5312 4.8242 0 9.6523-0.63672 14.426-1.9102 14.266-3.8711 26.199-13.152 33.621-26.094 7.3711-12.941 9.332-28.055 5.5156-42.531-3.8164-14.477-12.992-26.57-25.773-34.047-26.41-15.484-60.352-6.2578-75.625 20.523-7.3711 12.941-9.332 28.055-5.5156 42.531 3.8164 14.426 12.938 26.52 25.773 33.996zm-16.863-74.562c9.4922-16.707 26.836-26.039 44.602-26.039 8.6992 0 17.555 2.2266 25.613 6.9492 11.879 6.9492 20.418 18.191 23.973 31.605 3.5547 13.418 1.75 27.473-5.1445 39.508-6.8398 12.039-17.977 20.684-31.234 24.234-13.258 3.6055-27.102 1.75-39.031-5.1953-11.879-6.9492-20.418-18.191-23.973-31.605-3.5039-13.418-1.6484-27.418 5.1953-39.457z"></path>
  <path d="m485.75 292.82c-7.3711 12.941-9.332 28.055-5.5156 42.531 3.8164 14.477 12.992 26.57 25.773 34.047 8.5391 4.9844 17.977 7.5312 27.578 7.5312 4.8242 0 9.6523-0.63672 14.426-1.9102 14.266-3.8711 26.199-13.152 33.621-26.094 7.3711-12.941 9.332-28.055 5.5156-42.531-3.8164-14.477-12.992-26.57-25.773-34.047-26.465-15.484-60.352-6.3086-75.625 20.473zm48.047-24.023c8.6992 0 17.555 2.2266 25.613 6.9492 11.879 6.9492 20.418 18.191 23.973 31.605 3.5547 13.418 1.75 27.473-5.1445 39.508-6.8398 12.039-17.926 20.684-31.234 24.234-13.258 3.6055-27.102 1.75-39.031-5.1953-11.879-6.9492-20.418-18.191-23.973-31.605-3.5547-13.418-1.75-27.473 5.1445-39.508 9.543-16.656 26.832-25.988 44.652-25.988z"></path>
  <path d="m313.93 506.22c7.3711-12.941 9.332-28.055 5.5156-42.531-3.8164-14.477-12.992-26.57-25.773-34.047-12.781-7.4766-27.734-9.4414-42-5.5703-14.266 3.8711-26.199 13.152-33.621 26.094-7.3711 12.941-9.332 28.055-5.5156 42.531 3.8164 14.477 12.992 26.57 25.773 34.047 8.5391 4.9844 17.977 7.5312 27.578 7.5312 4.8242 0 9.6523-0.63672 14.426-1.9102 14.312-3.8711 26.246-13.152 33.617-26.145zm-34.578 22.273c-13.258 3.6055-27.102 1.75-39.031-5.1953-11.879-6.9492-20.418-18.191-23.973-31.605-3.5547-13.418-1.75-27.473 5.1445-39.508 6.8398-12.039 17.977-20.684 31.234-24.234 4.4531-1.2188 8.9102-1.8047 13.418-1.8047 8.9102 0 17.711 2.3867 25.613 7 11.879 6.9492 20.418 18.191 23.973 31.605 3.5547 13.418 1.75 27.473-5.1445 39.508-6.8906 12.039-17.973 20.629-31.234 24.234z"></path>
  <path d="m561.38 429.7c-26.465-15.434-60.352-6.2578-75.625 20.523-7.3711 12.941-9.332 28.055-5.5156 42.531s12.992 26.57 25.773 34.047c8.5391 4.9844 17.977 7.5312 27.578 7.5312 4.8242 0 9.6523-0.63672 14.426-1.9102 14.266-3.8711 26.199-13.152 33.621-26.094 7.3711-12.941 9.332-28.055 5.5156-42.531-3.8164-14.527-12.992-26.617-25.773-34.098zm16.812 74.566c-14.16 24.871-45.66 33.41-70.215 19.039-11.879-6.9492-20.418-18.191-23.973-31.605-3.5547-13.418-1.75-27.473 5.1445-39.508 9.4922-16.707 26.836-26.039 44.602-26.039 8.6992 0 17.555 2.2266 25.613 6.9492 11.879 6.9492 20.418 18.191 23.973 31.605 3.5547 13.465 1.75 27.52-5.1445 39.559z"></path>
  <path d="m427.47 506.17c-12.781-7.4766-27.734-9.4414-42-5.6211-14.266 3.8711-26.199 13.152-33.621 26.094-7.3711 12.941-9.332 28.055-5.5156 42.531 3.8164 14.477 12.992 26.57 25.773 34.047 8.6992 5.0898 18.191 7.4766 27.578 7.4766 19.145 0 37.812-10.078 48.047-28 7.3711-12.941 9.332-28.055 5.5156-42.531-3.8203-14.426-12.996-26.516-25.777-33.996zm16.812 74.566c-14.16 24.871-45.66 33.41-70.215 19.039-11.879-6.9492-20.418-18.191-23.973-31.605-3.5547-13.418-1.75-27.473 5.1445-39.508 6.8398-12.039 17.977-20.684 31.234-24.234 4.4023-1.2188 8.9102-1.8047 13.363-1.8047 8.9102 0 17.711 2.3867 25.613 7 11.879 6.9492 20.418 18.191 23.973 31.605 3.5547 13.414 1.7539 27.469-5.1406 39.508z"></path>
  <path d="m399.79 309.89c23.918 0 54.145-47.781 54.145-77.004 0-30.23-24.289-54.836-54.145-54.836-29.855 0-54.145 24.605-54.145 54.836 0 30.391 29.008 77.004 54.145 77.004zm0-127.86c27.684 0 50.223 22.805 50.223 50.859 0 29.328-30.016 73.027-50.223 73.027-22.805 0-50.223-44.867-50.223-73.027 0.003906-28.055 22.539-50.859 50.223-50.859z"></path>
  <path d="m351.74 329.52-57.434-100.66c-0.90234-1.5391-1.1133-3.3398-0.63672-5.0391 0.47656-1.6953 1.5391-3.1836 3.0742-4.0312 1.0078-0.58203 2.1758-0.90234 3.2891-0.90234 2.2812 0 4.5078 1.2188 5.7266 3.3398l57.539 100.82c1.5898-0.74219 3.1836-1.4844 4.8242-2.1211l-57.805-101.29c-3.2891-5.7266-10.5-7.6914-16.176-4.4023-2.7578 1.5898-4.7188 4.1914-5.5156 7.2656-0.79688 3.0742-0.37109 6.3125 1.168 9.0703l57.754 101.24c1.3828-1.1641 2.7617-2.2773 4.1914-3.2852z"></path>
  <path d="m315.62 406.68-114.77 0.054687c-3.6602 0-6.5742-2.9688-6.5742-6.6836 0-3.6602 2.9688-6.6836 6.5742-6.6836l114.71-0.054688c0.10547-1.8047 0.31641-3.5547 0.53125-5.3047l-115.24 0.11328c-6.5234 0-11.828 5.3555-11.828 11.984 0 6.6289 5.3047 11.984 11.828 11.984l115.45-0.054688c-0.26562-1.8008-0.53125-3.5508-0.6875-5.3555z"></path>
  <path d="m604.49 390.29c-2.2266-2.2812-5.1953-3.5-8.3789-3.5l-115.35 0.054687c0.26562 1.75 0.47656 3.5 0.63672 5.3047l114.71-0.054688c1.75 0 3.3945 0.6875 4.668 1.9609 1.2188 1.2734 1.9102 2.918 1.9102 4.7188 0 3.6602-2.9688 6.6836-6.5742 6.6836l-114.66 0.054687c-0.10547 1.8047-0.31641 3.5547-0.58203 5.3047l115.24-0.054687c6.5234 0 11.828-5.3555 11.828-11.984 0.046876-3.2383-1.1719-6.2617-3.4531-8.4883z"></path>
  <path d="m446.72 467.83 57.273 100.39c0.90234 1.5391 1.1133 3.3398 0.63672 5.0391-0.47656 1.6953-1.5391 3.1289-3.0742 4.0312-3.1289 1.8555-7.1602 0.74219-9.0156-2.4414l-57.223-100.23c-1.5898 0.79687-3.1289 1.5898-4.7734 2.2812l57.434 100.6c1.5898 2.7578 4.1367 4.7734 7.2109 5.5703 1.0078 0.26563 2.0664 0.42578 3.0742 0.42578 2.0664 0 4.082-0.53125 5.8867-1.5898 2.7578-1.5898 4.7188-4.1914 5.5156-7.2656 0.79688-3.0742 0.37109-6.3125-1.168-9.0703l-57.535-100.93c-1.3789 1.1133-2.8086 2.1758-4.2422 3.1836z"></path>
  <path d="m434.95 323.53 58.551-100.13c1.2188-2.1211 3.4453-3.2891 5.6758-3.2891 1.1133 0 2.2812 0.31641 3.3398 0.95312 1.5391 0.90234 2.5977 2.332 3.0234 4.082 0.42578 1.75 0.16016 3.5-0.74219 5.0391l-58.445 100.08c1.4336 1.0078 2.8633 2.0664 4.2422 3.1836l58.812-100.6c1.5898-2.7578 2.0664-5.9922 1.2734-9.0703-0.79688-3.0742-2.7031-5.6758-5.4609-7.3203-5.6211-3.3398-12.887-1.4844-16.227 4.1914l-58.812 100.6c1.6406 0.6875 3.2344 1.4844 4.7695 2.2812z"></path>
  <path d="m362.45 475.09-58.336 99.754c-0.90234 1.5391-2.332 2.6523-4.0312 3.0742-1.6953 0.42578-3.4453 0.16016-4.9844-0.74219-1.5391-0.90234-2.5977-2.3867-3.0234-4.082-0.42578-1.6953-0.16016-3.5 0.74219-5.0391l58.23-99.648c-1.4336-1.0078-2.8633-2.0664-4.2422-3.1836l-58.496 100.13c-1.5898 2.7578-2.0664 5.9922-1.2734 9.0703 0.79688 3.1289 2.7031 5.7266 5.4609 7.3203 1.8555 1.1133 3.9258 1.6953 5.9922 1.6953 1.0078 0 1.9609-0.10547 2.9688-0.37109 3.0742-0.79687 5.6211-2.7578 7.2656-5.5156l58.602-100.23c-1.6953-0.69531-3.2852-1.4375-4.875-2.2305z"></path>
  <path d="m481.51 405.46c0.16016-2.0664 0.31641-4.1367 0.31641-6.2578 0-2.3867-0.16016-4.7188-0.37109-7.0547-0.16016-1.8047-0.37109-3.5547-0.63672-5.3047-3.1289-21.477-14.266-40.359-30.23-53.352-1.3789-1.1133-2.8125-2.1758-4.2422-3.1836-3.6055-2.5469-7.3711-4.7734-11.348-6.7344-1.5898-0.79688-3.1289-1.5898-4.7734-2.2266-9.7578-4.082-20.418-6.3633-31.66-6.3633-10.766 0-21 2.1211-30.441 5.9414-1.6445 0.63672-3.2344 1.3789-4.8242 2.1211-3.9766 1.9102-7.8477 4.0312-11.453 6.5234-1.4336 1.0078-2.8633 2.1211-4.2422 3.1836-16.863 13.258-28.477 32.934-31.449 55.312-0.21094 1.75-0.42578 3.5-0.53125 5.3047-0.16016 1.9609-0.31641 3.8711-0.31641 5.832 0 2.5469 0.16016 5.0391 0.37109 7.4766 0.16016 1.8047 0.42578 3.5547 0.6875 5.3047 3.2344 21.426 14.426 40.25 30.492 53.191 1.3789 1.1133 2.7578 2.1758 4.2422 3.1836 3.6055 2.5469 7.4258 4.7734 11.402 6.6836 1.5898 0.79688 3.1836 1.5391 4.8242 2.2266 9.6523 3.9766 20.207 6.2031 31.289 6.2031 11.402 0 22.219-2.332 32.137-6.5234 1.6445-0.6875 3.1836-1.4844 4.7734-2.2812 3.9766-2.0156 7.7422-4.2422 11.297-6.8398 1.4336-1.0625 2.8633-2.0664 4.2422-3.1836 16.016-13.152 26.992-32.191 29.965-53.883 0.16406-1.7461 0.32422-3.4961 0.48047-5.3008zm-82.996 67.457c-40.145 0-72.762-33.039-72.762-73.664 0-40.621 32.668-73.715 72.762-73.715 40.145 0 72.762 33.039 72.762 73.715 0.054687 40.57-32.613 73.664-72.762 73.664z"></path>
  <path d="m348.03 392.2c2.918 1.6953 6.1523 2.5469 9.332 2.5469 6.4688 0 12.781-3.3945 16.227-9.4414 2.4922-4.4023 3.1836-9.4922 1.8555-14.371-1.2734-4.8789-4.4023-8.9609-8.6992-11.508-4.3477-2.5469-9.332-3.1836-14.16-1.9102-4.8242 1.3242-8.8555 4.4531-11.348 8.8047-5.1914 9.0664-2.1172 20.68 6.793 25.879z"></path>
  <path d="m357.41 442.11c3.2344 0 6.418-0.84766 9.332-2.5469 4.3477-2.5469 7.4258-6.6289 8.6992-11.508 1.2734-4.8789 0.63672-9.9688-1.8555-14.371-2.4922-4.3477-6.5234-7.5312-11.348-8.8047-4.8242-1.3242-9.8633-0.63672-14.16 1.9102-8.9102 5.1953-11.984 16.812-6.8398 25.828 2.4922 4.3477 6.5234 7.5312 11.348 8.8047 1.5898 0.47656 3.2344 0.6875 4.8242 0.6875z"></path>
  <path d="m417.23 450.59c0-10.449-8.3789-18.934-18.668-18.934-10.289 0-18.668 8.4844-18.668 18.934 0 10.449 8.3789 18.934 18.668 18.934 10.289 0 18.668-8.4844 18.668-18.934z"></path>
  <path d="m379.85 349.88c0 10.449 8.3789 18.934 18.668 18.934s18.668-8.4844 18.668-18.934c0-10.449-8.3789-18.934-18.668-18.934s-18.668 8.4844-18.668 18.934z"></path>
  <path d="m458.34 432.61c2.4922-4.4023 3.1836-9.4922 1.8555-14.371-1.2734-4.8789-4.4023-8.9609-8.6992-11.508-4.3477-2.5469-9.3867-3.1836-14.16-1.9102-4.8242 1.3242-8.8555 4.4531-11.348 8.8047-2.4922 4.4023-3.1836 9.4922-1.8555 14.371 1.2734 4.8789 4.4023 8.9609 8.6992 11.508 2.8633 1.6953 6.0977 2.5469 9.2812 2.5469 1.6445 0 3.2344-0.21094 4.8789-0.63672 4.8242-1.2734 8.8555-4.4023 11.348-8.8047z"></path>
  <path d="m432.82 359.43c-4.3477 2.5469-7.4258 6.6289-8.6992 11.508s-0.63672 9.9688 1.8555 14.371c2.4922 4.4023 6.5234 7.5312 11.348 8.8047 1.5898 0.42578 3.2344 0.63672 4.8789 0.63672 3.2344 0 6.418-0.84766 9.332-2.5469 4.2969-2.5469 7.4258-6.6289 8.6992-11.508 1.2734-4.8789 0.63672-9.9688-1.8555-14.371-2.4922-4.4023-6.5234-7.5312-11.348-8.8047-4.8242-1.2734-9.8594-0.58203-14.211 1.9102z"></path>
  <path d="m392.79 420.95c1.9102 0.53125 3.8711 0.79688 5.7812 0.79688 3.8711 0 7.6367-1.0078 11.082-3.0234 10.605-6.2031 14.266-19.992 8.1133-30.758-2.9688-5.1953-7.7422-8.9102-13.523-10.5-5.7266-1.5391-11.719-0.74219-16.863 2.2266-5.1445 3.0234-8.8047 7.8477-10.34 13.684-1.5391 5.832-0.74219 11.879 2.2266 17.078 2.9727 5.2461 7.7969 8.9609 13.523 10.496zm-10.66-26.195c1.168-4.4531 3.9766-8.168 7.9023-10.449 2.6523-1.5391 5.5703-2.2812 8.4844-2.2812 5.8867 0 11.613 3.0742 14.742 8.5898 4.668 8.2188 1.9102 18.773-6.2031 23.492-3.9258 2.2812-8.4844 2.918-12.887 1.6953-4.4023-1.2188-8.0625-4.0312-10.34-8.0078-2.2812-3.9727-2.8633-8.5859-1.6992-13.039z"></path>
 </g>

      </g>
     <g id="IconSvg_iconCarrier">
      <g xmlns="http://www.w3.org/2000/svg">
  <path d="m399.79 156.05c-133.11 0-241.41 109.67-241.41 244.43s108.29 244.43 241.41 244.43c133.11 0 241.41-109.67 241.41-244.43s-108.29-244.43-241.41-244.43zm0 483.61c-131.15 0-237.85-108.03-237.85-240.88 0-132.84 106.7-240.87 237.85-240.87 131.15 0 237.85 108.03 237.85 240.88 0 132.84-106.7 240.87-237.85 240.87z"></path>
  <path d="m399.79 150.75c-136.03 0-246.65 112-246.65 249.73 0 137.73 110.62 249.73 246.66 249.73 136.03 0 246.66-112.06 246.66-249.73-0.003906-137.73-110.63-249.73-246.66-249.73zm0 494.16c-133.11 0-241.41-109.67-241.41-244.43 0.003906-134.76 108.3-244.43 241.41-244.43 133.11 0 241.41 109.67 241.41 244.43 0 134.76-108.29 244.43-241.41 244.43z"></path>
  <path d="m399.79 157.91c-131.15 0-237.85 108.03-237.85 240.88s106.7 240.88 237.85 240.88c131.15 0 237.85-108.03 237.85-240.88s-106.7-240.88-237.85-240.88zm0 479.09c-129.71 0-235.25-106.86-235.25-238.22 0-131.36 105.54-238.22 235.25-238.22 129.72 0 235.25 106.86 235.25 238.22 0 131.36-105.54 238.22-235.25 238.22z"></path>
  <path d="m241.38 363.09c7.6914 4.5078 16.07 6.6289 24.344 6.6289 16.863 0 33.305-8.8555 42.371-24.715 6.5234-11.453 8.2734-24.766 4.8789-37.492-3.3945-12.727-11.453-23.387-22.75-30.016-23.336-13.629-53.246-5.5156-66.66 18.086-13.527 23.598-5.5195 53.879 17.816 67.508zm24.445-89.57c7.8477 0 15.75 2.0156 23.016 6.2578 3.9766 2.332 7.5312 5.1953 10.605 8.4844-22.008 20.207-37.973 47.039-44.867 77.375-4.082-1.0078-8.1133-2.5977-11.934-4.8242-22.062-12.887-29.645-41.578-16.918-63.902 8.5977-15.012 24.137-23.391 40.098-23.391z"></path>
  <path d="m558.2 434.47c-11.297-6.5742-24.449-8.3242-37.016-4.9336-12.57 3.3945-23.121 11.613-29.645 23.016-6.5234 11.453-8.2734 24.766-4.8789 37.492 3.3945 12.727 11.453 23.387 22.75 30.016 7.5312 4.4023 15.855 6.6289 24.344 6.6289 4.2422 0 8.4844-0.58203 12.727-1.6953 12.57-3.3945 23.121-11.613 29.645-23.016 13.414-23.598 5.4062-53.879-17.926-67.508zm-12.41 87.98c-11.934 3.2344-24.344 1.5898-35.055-4.668-4.2969-2.4922-8.0625-5.6758-11.297-9.2812 21.426-20.312 36.859-46.934 43.379-77.004 4.8789 1.0078 9.6523 2.7031 14.105 5.3047 22.062 12.887 29.645 41.578 16.918 63.902-6.2031 10.77-16.172 18.512-28.051 21.746z"></path>
  <path d="m486.65 307.51c-3.3945 12.727-1.6445 26.094 4.8789 37.492 6.5234 11.453 17.023 19.621 29.645 23.016 4.1914 1.1133 8.4844 1.6953 12.727 1.6953 8.4844 0 16.812-2.2266 24.344-6.6289 11.297-6.5742 19.355-17.234 22.75-30.016 3.3945-12.727 1.6445-26.094-4.8789-37.492-13.469-23.598-43.379-31.715-66.66-18.086-11.348 6.582-19.41 17.242-22.805 30.02zm87.133-10.605c6.1523 10.82 7.7969 23.441 4.6133 35.48-3.1836 12.039-10.82 22.168-21.531 28.371-4.5078 2.6523-9.332 4.4023-14.266 5.3555-6.6836-29.91-22.168-56.426-43.594-76.578 3.2891-3.8164 7.2109-7.1602 11.719-9.8125 22.012-12.832 50.332-5.1406 63.059 17.184z"></path>
  <path d="m399.79 505.05c-26.941 0-48.789 22.168-48.789 49.426 0 27.258 21.902 49.426 48.789 49.426 26.887 0 48.789-22.168 48.789-49.426 0.003906-27.258-21.898-49.426-48.789-49.426zm0 96.203c-25.457 0-46.191-21-46.191-46.773 0-4.2422 0.58203-8.3242 1.6445-12.199 13.684 4.2422 28.215 6.5234 43.273 6.5234 15.91 0 31.234-2.5977 45.609-7.3203 1.168 4.1367 1.8555 8.4844 1.8555 12.992 0 25.828-20.734 46.777-46.191 46.777z"></path>
  <path d="m399.79 302.58c18.562 0 48.789-38.871 48.789-69.633 0-27.258-21.902-49.426-48.789-49.426-26.941 0-48.789 22.168-48.789 49.426 0 27.473 26.145 69.633 48.789 69.633zm46.191-69.633c0 7.0547-1.9102 15.008-5.0898 22.91-13.418-4.082-27.629-6.2578-42.371-6.2578-13.949 0-27.473 2.0156-40.305 5.6758-2.918-7.7969-4.668-15.59-4.668-22.328 0-25.773 20.734-46.773 46.191-46.773 25.508 0 46.242 21 46.242 46.773z"></path>
  <path d="m312.92 490.05c3.3945-12.727 1.6445-26.094-4.8789-37.492-13.469-23.598-43.379-31.715-66.66-18.086s-31.344 43.91-17.871 67.512c9.0156 15.855 25.457 24.715 42.371 24.715 8.2734 0 16.652-2.1211 24.344-6.6289 11.242-6.5781 19.301-17.238 22.695-30.02zm-87.184 10.609c-12.727-22.328-5.1445-50.965 16.918-63.902 3.7656-2.1758 7.6914-3.7656 11.719-4.8242 6.7344 30.492 22.594 57.434 44.602 77.797-2.9688 3.0742-6.3633 5.832-10.129 8.0078-22.062 12.938-50.328 5.2461-63.109-17.078z"></path>
  <path d="m238.36 369.4c8.5391 4.9844 17.977 7.5312 27.578 7.5312 4.8242 0 9.6523-0.63672 14.426-1.9102 14.266-3.8711 26.199-13.152 33.621-26.094 7.3711-12.941 9.332-28.055 5.5156-42.531-3.8164-14.477-12.992-26.57-25.773-34.047-26.41-15.484-60.352-6.2578-75.625 20.523-7.3711 12.941-9.332 28.055-5.5156 42.531 3.8164 14.426 12.938 26.52 25.773 33.996zm-16.863-74.562c9.4922-16.707 26.836-26.039 44.602-26.039 8.6992 0 17.555 2.2266 25.613 6.9492 11.879 6.9492 20.418 18.191 23.973 31.605 3.5547 13.418 1.75 27.473-5.1445 39.508-6.8398 12.039-17.977 20.684-31.234 24.234-13.258 3.6055-27.102 1.75-39.031-5.1953-11.879-6.9492-20.418-18.191-23.973-31.605-3.5039-13.418-1.6484-27.418 5.1953-39.457z"></path>
  <path d="m485.75 292.82c-7.3711 12.941-9.332 28.055-5.5156 42.531 3.8164 14.477 12.992 26.57 25.773 34.047 8.5391 4.9844 17.977 7.5312 27.578 7.5312 4.8242 0 9.6523-0.63672 14.426-1.9102 14.266-3.8711 26.199-13.152 33.621-26.094 7.3711-12.941 9.332-28.055 5.5156-42.531-3.8164-14.477-12.992-26.57-25.773-34.047-26.465-15.484-60.352-6.3086-75.625 20.473zm48.047-24.023c8.6992 0 17.555 2.2266 25.613 6.9492 11.879 6.9492 20.418 18.191 23.973 31.605 3.5547 13.418 1.75 27.473-5.1445 39.508-6.8398 12.039-17.926 20.684-31.234 24.234-13.258 3.6055-27.102 1.75-39.031-5.1953-11.879-6.9492-20.418-18.191-23.973-31.605-3.5547-13.418-1.75-27.473 5.1445-39.508 9.543-16.656 26.832-25.988 44.652-25.988z"></path>
  <path d="m313.93 506.22c7.3711-12.941 9.332-28.055 5.5156-42.531-3.8164-14.477-12.992-26.57-25.773-34.047-12.781-7.4766-27.734-9.4414-42-5.5703-14.266 3.8711-26.199 13.152-33.621 26.094-7.3711 12.941-9.332 28.055-5.5156 42.531 3.8164 14.477 12.992 26.57 25.773 34.047 8.5391 4.9844 17.977 7.5312 27.578 7.5312 4.8242 0 9.6523-0.63672 14.426-1.9102 14.312-3.8711 26.246-13.152 33.617-26.145zm-34.578 22.273c-13.258 3.6055-27.102 1.75-39.031-5.1953-11.879-6.9492-20.418-18.191-23.973-31.605-3.5547-13.418-1.75-27.473 5.1445-39.508 6.8398-12.039 17.977-20.684 31.234-24.234 4.4531-1.2188 8.9102-1.8047 13.418-1.8047 8.9102 0 17.711 2.3867 25.613 7 11.879 6.9492 20.418 18.191 23.973 31.605 3.5547 13.418 1.75 27.473-5.1445 39.508-6.8906 12.039-17.973 20.629-31.234 24.234z"></path>
  <path d="m561.38 429.7c-26.465-15.434-60.352-6.2578-75.625 20.523-7.3711 12.941-9.332 28.055-5.5156 42.531s12.992 26.57 25.773 34.047c8.5391 4.9844 17.977 7.5312 27.578 7.5312 4.8242 0 9.6523-0.63672 14.426-1.9102 14.266-3.8711 26.199-13.152 33.621-26.094 7.3711-12.941 9.332-28.055 5.5156-42.531-3.8164-14.527-12.992-26.617-25.773-34.098zm16.812 74.566c-14.16 24.871-45.66 33.41-70.215 19.039-11.879-6.9492-20.418-18.191-23.973-31.605-3.5547-13.418-1.75-27.473 5.1445-39.508 9.4922-16.707 26.836-26.039 44.602-26.039 8.6992 0 17.555 2.2266 25.613 6.9492 11.879 6.9492 20.418 18.191 23.973 31.605 3.5547 13.465 1.75 27.52-5.1445 39.559z"></path>
  <path d="m427.47 506.17c-12.781-7.4766-27.734-9.4414-42-5.6211-14.266 3.8711-26.199 13.152-33.621 26.094-7.3711 12.941-9.332 28.055-5.5156 42.531 3.8164 14.477 12.992 26.57 25.773 34.047 8.6992 5.0898 18.191 7.4766 27.578 7.4766 19.145 0 37.812-10.078 48.047-28 7.3711-12.941 9.332-28.055 5.5156-42.531-3.8203-14.426-12.996-26.516-25.777-33.996zm16.812 74.566c-14.16 24.871-45.66 33.41-70.215 19.039-11.879-6.9492-20.418-18.191-23.973-31.605-3.5547-13.418-1.75-27.473 5.1445-39.508 6.8398-12.039 17.977-20.684 31.234-24.234 4.4023-1.2188 8.9102-1.8047 13.363-1.8047 8.9102 0 17.711 2.3867 25.613 7 11.879 6.9492 20.418 18.191 23.973 31.605 3.5547 13.414 1.7539 27.469-5.1406 39.508z"></path>
  <path d="m399.79 309.89c23.918 0 54.145-47.781 54.145-77.004 0-30.23-24.289-54.836-54.145-54.836-29.855 0-54.145 24.605-54.145 54.836 0 30.391 29.008 77.004 54.145 77.004zm0-127.86c27.684 0 50.223 22.805 50.223 50.859 0 29.328-30.016 73.027-50.223 73.027-22.805 0-50.223-44.867-50.223-73.027 0.003906-28.055 22.539-50.859 50.223-50.859z"></path>
  <path d="m351.74 329.52-57.434-100.66c-0.90234-1.5391-1.1133-3.3398-0.63672-5.0391 0.47656-1.6953 1.5391-3.1836 3.0742-4.0312 1.0078-0.58203 2.1758-0.90234 3.2891-0.90234 2.2812 0 4.5078 1.2188 5.7266 3.3398l57.539 100.82c1.5898-0.74219 3.1836-1.4844 4.8242-2.1211l-57.805-101.29c-3.2891-5.7266-10.5-7.6914-16.176-4.4023-2.7578 1.5898-4.7188 4.1914-5.5156 7.2656-0.79688 3.0742-0.37109 6.3125 1.168 9.0703l57.754 101.24c1.3828-1.1641 2.7617-2.2773 4.1914-3.2852z"></path>
  <path d="m315.62 406.68-114.77 0.054687c-3.6602 0-6.5742-2.9688-6.5742-6.6836 0-3.6602 2.9688-6.6836 6.5742-6.6836l114.71-0.054688c0.10547-1.8047 0.31641-3.5547 0.53125-5.3047l-115.24 0.11328c-6.5234 0-11.828 5.3555-11.828 11.984 0 6.6289 5.3047 11.984 11.828 11.984l115.45-0.054688c-0.26562-1.8008-0.53125-3.5508-0.6875-5.3555z"></path>
  <path d="m604.49 390.29c-2.2266-2.2812-5.1953-3.5-8.3789-3.5l-115.35 0.054687c0.26562 1.75 0.47656 3.5 0.63672 5.3047l114.71-0.054688c1.75 0 3.3945 0.6875 4.668 1.9609 1.2188 1.2734 1.9102 2.918 1.9102 4.7188 0 3.6602-2.9688 6.6836-6.5742 6.6836l-114.66 0.054687c-0.10547 1.8047-0.31641 3.5547-0.58203 5.3047l115.24-0.054687c6.5234 0 11.828-5.3555 11.828-11.984 0.046876-3.2383-1.1719-6.2617-3.4531-8.4883z"></path>
  <path d="m446.72 467.83 57.273 100.39c0.90234 1.5391 1.1133 3.3398 0.63672 5.0391-0.47656 1.6953-1.5391 3.1289-3.0742 4.0312-3.1289 1.8555-7.1602 0.74219-9.0156-2.4414l-57.223-100.23c-1.5898 0.79687-3.1289 1.5898-4.7734 2.2812l57.434 100.6c1.5898 2.7578 4.1367 4.7734 7.2109 5.5703 1.0078 0.26563 2.0664 0.42578 3.0742 0.42578 2.0664 0 4.082-0.53125 5.8867-1.5898 2.7578-1.5898 4.7188-4.1914 5.5156-7.2656 0.79688-3.0742 0.37109-6.3125-1.168-9.0703l-57.535-100.93c-1.3789 1.1133-2.8086 2.1758-4.2422 3.1836z"></path>
  <path d="m434.95 323.53 58.551-100.13c1.2188-2.1211 3.4453-3.2891 5.6758-3.2891 1.1133 0 2.2812 0.31641 3.3398 0.95312 1.5391 0.90234 2.5977 2.332 3.0234 4.082 0.42578 1.75 0.16016 3.5-0.74219 5.0391l-58.445 100.08c1.4336 1.0078 2.8633 2.0664 4.2422 3.1836l58.812-100.6c1.5898-2.7578 2.0664-5.9922 1.2734-9.0703-0.79688-3.0742-2.7031-5.6758-5.4609-7.3203-5.6211-3.3398-12.887-1.4844-16.227 4.1914l-58.812 100.6c1.6406 0.6875 3.2344 1.4844 4.7695 2.2812z"></path>
  <path d="m362.45 475.09-58.336 99.754c-0.90234 1.5391-2.332 2.6523-4.0312 3.0742-1.6953 0.42578-3.4453 0.16016-4.9844-0.74219-1.5391-0.90234-2.5977-2.3867-3.0234-4.082-0.42578-1.6953-0.16016-3.5 0.74219-5.0391l58.23-99.648c-1.4336-1.0078-2.8633-2.0664-4.2422-3.1836l-58.496 100.13c-1.5898 2.7578-2.0664 5.9922-1.2734 9.0703 0.79688 3.1289 2.7031 5.7266 5.4609 7.3203 1.8555 1.1133 3.9258 1.6953 5.9922 1.6953 1.0078 0 1.9609-0.10547 2.9688-0.37109 3.0742-0.79687 5.6211-2.7578 7.2656-5.5156l58.602-100.23c-1.6953-0.69531-3.2852-1.4375-4.875-2.2305z"></path>
  <path d="m481.51 405.46c0.16016-2.0664 0.31641-4.1367 0.31641-6.2578 0-2.3867-0.16016-4.7188-0.37109-7.0547-0.16016-1.8047-0.37109-3.5547-0.63672-5.3047-3.1289-21.477-14.266-40.359-30.23-53.352-1.3789-1.1133-2.8125-2.1758-4.2422-3.1836-3.6055-2.5469-7.3711-4.7734-11.348-6.7344-1.5898-0.79688-3.1289-1.5898-4.7734-2.2266-9.7578-4.082-20.418-6.3633-31.66-6.3633-10.766 0-21 2.1211-30.441 5.9414-1.6445 0.63672-3.2344 1.3789-4.8242 2.1211-3.9766 1.9102-7.8477 4.0312-11.453 6.5234-1.4336 1.0078-2.8633 2.1211-4.2422 3.1836-16.863 13.258-28.477 32.934-31.449 55.312-0.21094 1.75-0.42578 3.5-0.53125 5.3047-0.16016 1.9609-0.31641 3.8711-0.31641 5.832 0 2.5469 0.16016 5.0391 0.37109 7.4766 0.16016 1.8047 0.42578 3.5547 0.6875 5.3047 3.2344 21.426 14.426 40.25 30.492 53.191 1.3789 1.1133 2.7578 2.1758 4.2422 3.1836 3.6055 2.5469 7.4258 4.7734 11.402 6.6836 1.5898 0.79688 3.1836 1.5391 4.8242 2.2266 9.6523 3.9766 20.207 6.2031 31.289 6.2031 11.402 0 22.219-2.332 32.137-6.5234 1.6445-0.6875 3.1836-1.4844 4.7734-2.2812 3.9766-2.0156 7.7422-4.2422 11.297-6.8398 1.4336-1.0625 2.8633-2.0664 4.2422-3.1836 16.016-13.152 26.992-32.191 29.965-53.883 0.16406-1.7461 0.32422-3.4961 0.48047-5.3008zm-82.996 67.457c-40.145 0-72.762-33.039-72.762-73.664 0-40.621 32.668-73.715 72.762-73.715 40.145 0 72.762 33.039 72.762 73.715 0.054687 40.57-32.613 73.664-72.762 73.664z"></path>
  <path d="m348.03 392.2c2.918 1.6953 6.1523 2.5469 9.332 2.5469 6.4688 0 12.781-3.3945 16.227-9.4414 2.4922-4.4023 3.1836-9.4922 1.8555-14.371-1.2734-4.8789-4.4023-8.9609-8.6992-11.508-4.3477-2.5469-9.332-3.1836-14.16-1.9102-4.8242 1.3242-8.8555 4.4531-11.348 8.8047-5.1914 9.0664-2.1172 20.68 6.793 25.879z"></path>
  <path d="m357.41 442.11c3.2344 0 6.418-0.84766 9.332-2.5469 4.3477-2.5469 7.4258-6.6289 8.6992-11.508 1.2734-4.8789 0.63672-9.9688-1.8555-14.371-2.4922-4.3477-6.5234-7.5312-11.348-8.8047-4.8242-1.3242-9.8633-0.63672-14.16 1.9102-8.9102 5.1953-11.984 16.812-6.8398 25.828 2.4922 4.3477 6.5234 7.5312 11.348 8.8047 1.5898 0.47656 3.2344 0.6875 4.8242 0.6875z"></path>
  <path d="m417.23 450.59c0-10.449-8.3789-18.934-18.668-18.934-10.289 0-18.668 8.4844-18.668 18.934 0 10.449 8.3789 18.934 18.668 18.934 10.289 0 18.668-8.4844 18.668-18.934z"></path>
  <path d="m379.85 349.88c0 10.449 8.3789 18.934 18.668 18.934s18.668-8.4844 18.668-18.934c0-10.449-8.3789-18.934-18.668-18.934s-18.668 8.4844-18.668 18.934z"></path>
  <path d="m458.34 432.61c2.4922-4.4023 3.1836-9.4922 1.8555-14.371-1.2734-4.8789-4.4023-8.9609-8.6992-11.508-4.3477-2.5469-9.3867-3.1836-14.16-1.9102-4.8242 1.3242-8.8555 4.4531-11.348 8.8047-2.4922 4.4023-3.1836 9.4922-1.8555 14.371 1.2734 4.8789 4.4023 8.9609 8.6992 11.508 2.8633 1.6953 6.0977 2.5469 9.2812 2.5469 1.6445 0 3.2344-0.21094 4.8789-0.63672 4.8242-1.2734 8.8555-4.4023 11.348-8.8047z"></path>
  <path d="m432.82 359.43c-4.3477 2.5469-7.4258 6.6289-8.6992 11.508s-0.63672 9.9688 1.8555 14.371c2.4922 4.4023 6.5234 7.5312 11.348 8.8047 1.5898 0.42578 3.2344 0.63672 4.8789 0.63672 3.2344 0 6.418-0.84766 9.332-2.5469 4.2969-2.5469 7.4258-6.6289 8.6992-11.508 1.2734-4.8789 0.63672-9.9688-1.8555-14.371-2.4922-4.4023-6.5234-7.5312-11.348-8.8047-4.8242-1.2734-9.8594-0.58203-14.211 1.9102z"></path>
  <path d="m392.79 420.95c1.9102 0.53125 3.8711 0.79688 5.7812 0.79688 3.8711 0 7.6367-1.0078 11.082-3.0234 10.605-6.2031 14.266-19.992 8.1133-30.758-2.9688-5.1953-7.7422-8.9102-13.523-10.5-5.7266-1.5391-11.719-0.74219-16.863 2.2266-5.1445 3.0234-8.8047 7.8477-10.34 13.684-1.5391 5.832-0.74219 11.879 2.2266 17.078 2.9727 5.2461 7.7969 8.9609 13.523 10.496zm-10.66-26.195c1.168-4.4531 3.9766-8.168 7.9023-10.449 2.6523-1.5391 5.5703-2.2812 8.4844-2.2812 5.8867 0 11.613 3.0742 14.742 8.5898 4.668 8.2188 1.9102 18.773-6.2031 23.492-3.9258 2.2812-8.4844 2.918-12.887 1.6953-4.4023-1.2188-8.0625-4.0312-10.34-8.0078-2.2812-3.9727-2.8633-8.5859-1.6992-13.039z"></path>
 </g>

      </g>
      </svg>