<?xml version="1.0" encoding="UTF-8"?>
<svg id="Layer_1" data-name="Layer 1" xmlns="http://www.w3.org/2000/svg" viewBox="0 0 146.09 146.09">
  <defs>
    <style>
      .cls-1 {
        fill: #fff;
      }
    </style>
  </defs>
  <path class="cls-1" d="M144.82,51.38c-.29-1.96-.62-3.93-1-5.88-.24-1.31-.51-2.61-.8-3.91-.19-.86-.44-1.72-.73-2.54-.15-.44-.33-.88-.51-1.29-1.29-2.98-3.24-5.5-5.67-7.54-3.42-2.86-7.77-4.78-12.59-5.43-33.22-4.34-66.02-3.3-100.95,0-1.05.1-2.06.28-3.04.53-1.07.26-2.09.62-3.07,1.03-.09.03-.17.07-.25.1-2.36.96-4.48,2.21-6.33,3.75-2.32,1.94-4.19,4.32-5.46,7.14-.12.25-.24.51-.33.77-.09.22-.17.42-.25.64l-.16.48-.61,2.22c-.29,1.3-.56,2.59-.8,3.91-.38,1.95-.71,3.91-1,5.88-.9,5.95-1.42,11.93-1.56,17.93-.02.56-.03,1.13-.03,1.7-.02.71-.02,1.4-.02,2.1v.15c.01.71.11,2.63,1.61,21.59.28,1.96.62,3.93,1,5.88.25,1.31.51,2.61.8,3.91.19.86.43,1.72.72,2.54.16.44.33.88.51,1.29,1.29,2.98,3.24,5.5,5.66,7.54,3.42,2.86,7.78,4.8,12.6,5.43,33.23,4.35,66.02,3.31,100.95,0,1.11-.1,2.19-.31,3.22-.58.13-.02.25-.06.38-.09,1.08-.3,2.12-.68,3.13-1.13.07-.03.13-.07.2-.09,2.12-.92,4.06-2.09,5.75-3.51,2.33-1.94,4.2-4.32,5.46-7.14.13-.25.24-.51.34-.77.08-.22.16-.42.24-.64.05-.16.11-.32.17-.48l.61-2.22c.29-1.3.56-2.59.8-3.91.38-1.95.71-3.91,1-5.88.89-5.95,1.42-11.93,1.56-17.93.02-.56.03-1.13.03-1.7.01-.75.02-1.5.02-2.26-.01-.7-.11-2.63-1.61-21.59ZM95.17,73.19l-36.84,21.27c-.11.06-.25-.02-.25-.15v-42.53c0-.13.14-.21.25-.15l18.42,10.63,18.42,10.63c.11.07.11.22,0,.29Z"/>
</svg>