<?xml version="1.0" encoding="UTF-8"?>
<svg id="Layer_1" data-name="Layer 1" xmlns="http://www.w3.org/2000/svg" viewBox="0 0 146.09 146.09">
  <defs>
    <style>
      .cls-1 {
        fill: #b89249;
      }

      .cls-2 {
        fill: #fff;
      }

      .cls-3 {
        fill: #818185;
      }
    </style>
  </defs>
  <path class="cls-3" d="M134.15,40.19c-1.39-2.95-3.83-5.48-7.23-7.51-3.47-2.08-10.89-3.12-16.5-3.12h-3.98c1.99.49,3.77,1.24,5.33,2.25,3.04,1.95,5.26,4.52,6.61,7.62,1.26,2.95,1.9,6.23,1.9,9.71,0,3.27-.56,6.59-1.67,9.84-1.18,3.47-3.32,6.42-6.31,8.77-1.71,1.33-3.7,2.29-5.95,2.89,4.6-.09,11.15-.53,13.91-1.33,3.04-.88,5.82-2.23,8.28-4.02,2.05-1.43,3.89-3.49,5.5-6.1,1.52-2.5,2.29-5.69,2.29-9.48,0-3.25-.73-6.46-2.18-9.52ZM79.07,29.55c1.95,2.2,2.89,5.46,2.89,9.93v27.69l16.05,30.39V29.81l1.41-.26h-20.35Z"/>
  <g>
    <g>
      <path class="cls-1" d="M87.06,103.87c.06.06.21.19.45.39-.98.88-2.2,1.31-3.68,1.31-1.75,0-3.21-.66-4.34-1.97-.83-.94-1.24-1.95-1.24-3,0-.86.24-1.58.73-2.16.47-.58.94-.88,1.41-.88.32,0,.68.28,1.13.79.53.66,1.28,1.48,2.23,2.44.96.98,1.71,1.71,2.29,2.2l1.03.88Z"/>
      <path class="cls-1" d="M87.19,88.45c-2.05-3.49-4.09-7.36-6.1-11.53l-.26-.51h-.83c-.66,24.14-11.75,29.14-17.29,31.86h34.94l-10.46-19.82ZM94.12,106.63c-.47.17-.96.26-1.45.26-.71,0-1.35-.15-1.95-.41-.58-.28-1.43-.83-2.55-1.71-1.58,1.41-3.25,2.12-4.99,2.12s-3.25-.51-4.43-1.54c-1.16-1.03-1.75-2.31-1.75-3.87,0-1.28.45-2.38,1.37-3.27.49-.49,1.18-.86,2.08-1.07-.64-.81-.96-1.63-.96-2.42,0-.86.32-1.54.96-2.05.64-.53,1.48-.79,2.52-.79.53,0,1.09.11,1.67.34l.49.19.11.02c.06-.02.13-.04.24-.13.06-.04.13-.09.17-.09.19,0,.3.26.3.77l.02.6.06.83v.34c0,.15-.06.24-.24.24-.09,0-.17-.09-.21-.26-.21-.6-.62-1.11-1.24-1.56-.6-.47-1.22-.68-1.8-.68-.51,0-.94.15-1.28.45-.36.32-.53.68-.53,1.11s.17.88.49,1.39c.34.53.9,1.2,1.71,2.03l2.7,2.78c.71.73,1.69,1.63,2.97,2.74.36-.62.56-1.33.56-2.1,0-.56-.13-1.03-.34-1.41-.21-.39-.51-.6-.9-.68l-.51-.09c-.21-.04-.3-.13-.3-.28,0-.11.09-.15.24-.15.06,0,.15,0,.28.02.21.04.83.04,1.86.04.34,0,.64,0,.9-.04.26-.02.43-.02.53-.02.13,0,.19.04.21.17,0,.11-.09.19-.3.26-.24.09-.39.24-.47.43-.09.21-.15.58-.19,1.11-.11,1.2-.43,2.27-.94,3.19,2.12,1.78,3.66,2.67,4.62,2.67.13,0,.28-.02.41-.06.17-.06.3-.11.39-.11.13,0,.19.04.19.17,0,.17-.24.34-.71.51Z"/>
    </g>
    <path class="cls-2" d="M50.28,97.02l18-44.76-12.21-22.33h-.88c-8.44,25.08-22.54,57.53-28.18,70.08-2.03,4.51-8.4,7.91-8.64,8.1h32.78c-2.89-2.32-2.89-5.08-.87-11.1Z"/>
  </g>
</svg>