<?xml version="1.0" encoding="UTF-8"?>
<svg id="Layer_1" data-name="Layer 1" xmlns="http://www.w3.org/2000/svg" xmlns:xlink="http://www.w3.org/1999/xlink" viewBox="0 0 146.09 146.09">
  <defs>
    <style>
      .cls-1, .cls-2 {
        fill: #fff;
      }

      .cls-2 {
        fill-rule: evenodd;
      }

      .cls-3 {
        filter: url(#drop-shadow-1);
      }
    </style>
    <filter id="drop-shadow-1" x="16.31" y="13.18" width="113.46" height="119.72" filterUnits="userSpaceOnUse">
      <feOffset dx="0" dy="0"/>
      <feGaussianBlur result="blur" stdDeviation="3.3"/>
      <feFlood flood-color="#231f20" flood-opacity=".23"/>
      <feComposite in2="blur" operator="in"/>
      <feComposite in="SourceGraphic"/>
    </filter>
  </defs>
  <g class="cls-3">
    <g>
      <g>
        <path class="cls-2" d="M95.13,87.01s-.05.06-.08.09c-4.58,4.81-10.67,8.17-17.49,9.33-.04,0-.09.02-.13.02v-27.48h4.25v21.79c4.72-1.81,8.84-4.91,11.87-8.95,3.8-5.03,5.58-10.72,5.52-17.16h-21.61v-30.34s.09.01.13.02c2.78.47,5.43,1.31,7.91,2.47.15.07.31.15.46.22,7.58,3.75,12.88,9.75,15.9,18.01.08.22.13.44.22.73h-4.77c-2.97-7.3-8.1-12.54-15.55-15.64v20.26h21.4c1.71,10.12-1.7,19.78-8.02,26.63Z"/>
        <path class="cls-2" d="M73.17,13.18v83.5c-17.33-.04-31.42-14.16-31.42-31.5,0-.07,0-.14,0-.2,0-.6.02-1.2.06-1.8h11.13v4.21h-6.56c.42,5.63,2.64,10.99,6.33,15.26,4.26,4.99,9.64,8.03,16.2,9.2V13.18h4.26Z"/>
      </g>
      <path class="cls-1" d="M75.3,26.88v4.37c17.6,1.16,31.56,15.85,31.56,33.74s-15.17,33.81-33.81,33.81-33.81-15.17-33.81-33.81c0-16.5,11.88-30.28,27.54-33.23v-4.43c-18.07,3-31.9,18.74-31.9,37.65,0,21.05,17.12,38.17,38.17,38.17s38.17-17.12,38.17-38.17-15.92-36.93-35.92-38.1Z"/>
    </g>
    <g>
      <g>
        <path class="cls-2" d="M20.21,110.27v7.82c0,.17,0,.35,0,.55,0,.19-.03.38-.09.57-.05.17-.14.32-.26.45-.14.13-.33.19-.53.18-.25-.02-.48-.13-.65-.32-.22-.21-.42-.44-.6-.68l-1.78,1.87c.33.52.77.96,1.3,1.28.53.31,1.14.48,1.75.46.59.01,1.17-.09,1.72-.3.47-.19.89-.48,1.23-.85.34-.38.59-.83.74-1.31.17-.55.25-1.13.24-1.71v-8h-3.08Z"/>
        <path class="cls-2" d="M32.94,110.93c-.28-.15-.56-.29-.86-.4-.31-.12-.62-.22-.94-.31-.32-.08-.65-.15-.98-.2-.31-.05-.62-.07-.94-.07-.56,0-1.12.09-1.64.28-.48.18-.92.45-1.29.8-.37.36-.66.78-.85,1.26-.21.52-.31,1.08-.31,1.64-.02.48.06.96.23,1.42.14.35.37.66.65.91.3.25.65.45,1.01.59.39.15.83.3,1.31.43.17.05.36.11.57.17.21.06.42.15.61.25.18.1.35.22.49.38.13.15.2.35.2.55,0,.19-.04.38-.13.54-.08.15-.2.27-.34.37-.15.1-.31.17-.48.21-.17.05-.35.07-.53.07-.52,0-1.02-.12-1.48-.36-.45-.24-.87-.53-1.26-.86l-1.32,2.48c.6.43,1.27.76,1.97,1,.71.24,1.45.36,2.19.35.6,0,1.2-.09,1.78-.26.58-.17,1.12-.46,1.59-.86.46-.38.79-.89.97-1.45.17-.56.26-1.15.26-1.74,0-.43-.07-.85-.23-1.25-.14-.34-.36-.65-.62-.9-.27-.26-.59-.47-.93-.64-.37-.18-.75-.33-1.15-.45l-.79-.24c-.14-.04-.28-.09-.44-.15-.15-.06-.3-.13-.44-.22-.13-.08-.25-.19-.35-.31-.1-.13-.15-.29-.14-.45,0-.15.04-.31.13-.43.09-.12.2-.23.32-.31.13-.08.27-.15.42-.19.15-.04.3-.06.45-.06.37,0,.75.07,1.09.21.35.14.67.33.95.57l1.23-2.39Z"/>
        <path class="cls-2" d="M48.76,110.55c-.45-.18-.91-.33-1.38-.44-.47-.11-.96-.16-1.44-.16-.84,0-1.67.17-2.45.51-.77.33-1.48.81-2.07,1.41-.56.57-1,1.25-1.3,2-.3.75-.45,1.54-.45,2.34,0,.84.15,1.68.46,2.46.32.77.82,1.47,1.45,2.02.6.56,1.3,1,2.07,1.3.76.3,1.57.45,2.38.45.45,0,.9-.05,1.34-.16.41-.1.87-.24,1.38-.39v-3.7c-.33.39-.73.7-1.19.92-.46.22-.96.34-1.46.34-.45,0-.9-.08-1.31-.24-.38-.15-.72-.38-1.01-.67-.29-.29-.51-.63-.65-1.01-.3-.84-.3-1.75,0-2.59.15-.39.36-.74.64-1.05.28-.3.62-.54,1-.7.41-.17.85-.26,1.29-.25.52,0,1.04.11,1.52.33.47.22.88.55,1.19.97v-3.7h0Z"/>
        <path class="cls-2" d="M62.71,113.51c-.35-.73-.85-1.39-1.45-1.93-.62-.54-1.33-.97-2.1-1.26-1.59-.6-3.34-.6-4.92,0h0c-.77.29-1.48.71-2.1,1.26-.61.54-1.1,1.2-1.45,1.93-.36.77-.55,1.61-.54,2.46-.01.9.16,1.8.49,2.64.31.77.77,1.48,1.36,2.07.59.59,1.3,1.05,2.08,1.35,1.7.64,3.57.64,5.27,0,.78-.3,1.49-.76,2.08-1.35.59-.59,1.05-1.29,1.36-2.07.33-.84.5-1.74.49-2.64,0-.85-.18-1.69-.54-2.46ZM59.78,117.41c-.17.41-.41.79-.72,1.12-.3.31-.66.56-1.06.74-.83.36-1.76.36-2.59,0-.4-.17-.76-.43-1.06-.74-.31-.32-.55-.7-.72-1.12-.18-.45-.27-.93-.27-1.42,0-.41.09-.81.27-1.18.18-.37.42-.71.72-1,.31-.29.67-.53,1.06-.69.83-.35,1.76-.35,2.59,0,.39.16.75.4,1.06.69.3.29.55.62.72,1,.18.37.27.77.27,1.18,0,.48-.08.97-.27,1.42Z"/>
        <polygon class="cls-2" points="63.91 122.12 66.97 122.12 67.96 115.3 67.99 115.3 70.71 122.12 71.94 122.12 74.79 115.3 74.82 115.3 75.68 122.12 78.77 122.12 76.97 110.27 73.91 110.27 71.36 116.6 68.95 110.27 65.92 110.27 63.91 122.12"/>
        <path class="cls-2" d="M88.81,112.4c-.19-.47-.49-.88-.88-1.21-.4-.33-.86-.56-1.36-.7-.57-.16-1.16-.23-1.75-.23h-4.72v11.86h3.08v-3.93h1.75c1.35,0,2.39-.32,3.11-.96.72-.64,1.08-1.66,1.08-3.07.02-.6-.09-1.2-.31-1.76ZM85.73,115.1c-.12.19-.3.34-.5.42-.22.09-.46.15-.71.16-.26.02-.53.02-.82.02h-.52v-2.96h.52c.29,0,.58,0,.85.02.25,0,.48.07.71.16.2.1.37.25.48.45.14.27.2.57.18.87.02.29-.05.58-.19.84Z"/>
        <path class="cls-2" d="M97.76,110.27v6.24c0,.39-.02.77-.05,1.16-.02.36-.11.71-.25,1.04-.13.3-.35.56-.63.75-.28.19-.67.28-1.16.28s-.88-.09-1.16-.28c-.28-.18-.5-.44-.63-.75-.14-.33-.23-.68-.25-1.04-.03-.38-.05-.77-.05-1.16v-6.24h-3.08v6.67c0,.38.01.75.03,1.13.02.37.07.74.15,1.1.08.36.2.7.37,1.03.18.34.41.65.69.92.25.24.53.45.84.61.31.17.64.31.98.41.34.11.7.18,1.05.23.7.09,1.42.09,2.12,0,.36-.05.71-.12,1.05-.23.34-.1.66-.24.97-.41.31-.17.59-.37.84-.61.28-.27.51-.58.69-.92.17-.33.29-.67.37-1.03.08-.36.13-.73.15-1.1.02-.38.03-.75.03-1.13v-6.67h-3.08Z"/>
        <polygon class="cls-2" points="107.54 112.88 110.09 112.88 110.09 110.27 101.91 110.27 101.91 112.88 104.46 112.88 104.46 122.12 107.54 122.12 107.54 112.88 107.54 112.88"/>
        <polygon class="cls-2" points="118.01 112.88 118.01 110.27 111.27 110.27 111.27 122.12 118.01 122.12 118.01 119.51 114.35 119.51 114.35 117.47 117.82 117.47 117.82 114.86 114.35 114.86 114.35 112.88 118.01 112.88 118.01 112.88"/>
        <path class="cls-2" d="M126.05,117.26c.4-.06.78-.21,1.12-.42.32-.2.6-.45.82-.76.22-.3.39-.64.49-1.01.11-.38.17-.77.17-1.17.01-.56-.09-1.12-.31-1.64-.2-.44-.49-.83-.87-1.14-.38-.31-.83-.53-1.31-.66-.53-.14-1.08-.22-1.63-.21h-4.61v11.86h3.08v-4.56h.03l2.91,4.56h3.84l-3.73-4.86ZM125.24,114.88c-.13.19-.3.34-.5.45-.21.11-.44.18-.68.21-.25.03-.5.05-.76.05h-.3v-2.96h.3c.25,0,.51.02.76.05.24.03.47.1.68.2.2.11.38.26.5.45.26.49.26,1.07,0,1.56Z"/>
      </g>
      <g>
        <path class="cls-2" d="M39.02,126.51c0-.76.69-1.36,1.77-1.36.86,0,1.63.27,2.41.9l.55-.73c-.82-.69-1.86-1.05-2.93-1.02-1.58,0-2.74.95-2.74,2.29s.88,2,2.8,2.42c1.75.37,2.17.81,2.17,1.6,0,.85-.74,1.43-1.86,1.43s-1.99-.39-2.86-1.18l-.58.69c1,.89,2.08,1.33,3.41,1.33,1.65,0,2.85-.93,2.85-2.37,0-1.29-.86-1.96-2.72-2.37-1.83-.39-2.26-.83-2.26-1.63h0Z"/>
        <path class="cls-2" d="M49.83,124.29c-2.54,0-4.26,2.01-4.26,4.32s1.7,4.3,4.24,4.3,4.26-2.01,4.26-4.32-1.7-4.3-4.24-4.3ZM49.83,132.04c-1.9,0-3.29-1.55-3.29-3.45s1.36-3.43,3.26-3.43,3.29,1.55,3.29,3.45h0c0,1.91-1.36,3.43-3.26,3.43Z"/>
        <polygon class="cls-2" points="55.99 132.76 61.62 132.76 61.62 131.89 56.93 131.89 56.93 124.43 55.99 124.43 55.99 132.76 55.99 132.76"/>
        <path class="cls-2" d="M69.83,124.43h-.94v4.85c0,1.82-.98,2.75-2.51,2.75s-2.55-1.01-2.55-2.81v-4.79h-.94v4.85c0,2.36,1.4,3.62,3.46,3.62s3.48-1.26,3.48-3.69v-4.77h0Z"/>
        <polygon class="cls-2" points="75.23 125.3 78.03 125.3 78.03 124.43 71.48 124.43 71.48 125.3 74.28 125.3 74.28 132.76 75.23 132.76 75.23 125.3 75.23 125.3"/>
        <polygon class="cls-2" points="79.8 124.43 79.8 132.76 80.74 132.76 80.74 124.43 79.8 124.43 79.8 124.43"/>
        <path class="cls-2" d="M87.03,124.29c-2.54,0-4.26,2.01-4.26,4.32s1.7,4.3,4.24,4.3,4.26-2.01,4.26-4.32-1.7-4.3-4.24-4.3ZM87.03,132.04c-1.9,0-3.29-1.55-3.29-3.45s1.36-3.43,3.26-3.43,3.29,1.55,3.29,3.45h0c0,1.91-1.36,3.43-3.26,3.43Z"/>
        <polygon class="cls-2" points="99.32 131.11 94.07 124.43 93.19 124.43 93.19 132.76 94.11 132.76 94.11 125.93 99.49 132.76 100.24 132.76 100.24 124.43 99.32 124.43 99.32 131.11 99.32 131.11"/>
        <path class="cls-2" d="M103.37,126.51c0-.76.69-1.36,1.77-1.36.86,0,1.63.27,2.41.9l.55-.73c-.82-.69-1.86-1.05-2.93-1.02-1.58,0-2.74.95-2.74,2.29s.88,2,2.8,2.42c1.75.37,2.17.81,2.17,1.6,0,.85-.74,1.43-1.86,1.43s-1.99-.39-2.86-1.18l-.58.69c1,.89,2.08,1.33,3.41,1.33,1.66,0,2.85-.93,2.85-2.37,0-1.29-.86-1.96-2.71-2.37-1.83-.39-2.26-.83-2.26-1.63h0Z"/>
      </g>
    </g>
  </g>
</svg>