<?xml version="1.0" standalone="no"?>
<!DOCTYPE svg PUBLIC "-//W3C//DTD SVG 20010904//EN"
 "http://www.w3.org/TR/2001/REC-SVG-20010904/DTD/svg10.dtd">
<svg version="1.0" xmlns="http://www.w3.org/2000/svg"
 width="1024.000000pt" height="1024.000000pt" viewBox="0 0 1024.000000 1024.000000"
 preserveAspectRatio="xMidYMid meet">
<metadata>
Created by potrace 1.14, written by Peter Selinger 2001-2017
</metadata>
<g transform="translate(0.000000,1024.000000) scale(0.100000,-0.100000)"
fill="#000000" stroke="none">
<path d="M0 6270 l0 -3451 1488 4 c818 1 1496 6 1507 9 11 3 56 9 100 14 44 4
82 8 85 9 3 0 28 5 55 9 74 12 210 44 295 71 261 81 464 199 630 365 114 114
127 129 197 237 54 83 153 281 168 338 10 35 10 35 18 55 14 36 52 180 61 237
2 12 7 34 10 50 13 60 19 96 31 193 21 163 28 573 12 725 -54 509 -288 879
-678 1076 -149 75 -346 137 -515 163 -22 4 -52 9 -69 11 -95 16 -269 29 -461
34 -17 1 -20 6 -17 37 1 20 4 38 5 39 2 1 62 5 133 9 72 4 146 9 165 12 118
17 291 53 340 72 8 3 17 6 20 7 68 17 235 91 320 141 155 92 321 248 419 394
115 172 203 391 236 585 3 17 7 41 10 55 27 149 27 597 0 700 -2 8 -7 35 -10
60 -19 141 -93 362 -161 482 -202 358 -567 579 -1091 663 -71 11 -90 14 -153
20 -36 4 -78 10 -95 13 -16 3 -711 7 -1542 9 l-1513 4 0 -3451z m2332 1834
c89 -21 148 -53 209 -114 139 -138 202 -406 175 -750 -21 -275 -107 -444 -267
-530 -93 -49 -160 -60 -391 -60 l-208 0 0 735 0 734 212 -1 c140 0 232 -5 270
-14z m36 -2429 c242 -46 373 -207 412 -504 18 -135 15 -381 -6 -516 -39 -251
-149 -396 -349 -461 -39 -13 -108 -17 -312 -21 l-263 -5 0 761 0 762 223 -1
c144 -1 248 -6 295 -15z"/>
<path d="M5340 6270 l0 -3450 883 0 883 0 -1 2130 0 2130 38 0 c20 0 37 -3 38
-7 0 -5 2 -17 4 -28 2 -11 5 -42 8 -70 3 -27 11 -84 16 -125 6 -41 14 -93 17
-115 7 -52 9 -67 34 -215 12 -69 23 -138 26 -155 12 -73 15 -89 18 -94 2 -3 7
-31 11 -61 4 -30 9 -58 11 -61 2 -3 6 -21 9 -40 3 -19 15 -77 26 -130 11 -52
21 -104 23 -115 12 -58 37 -178 50 -234 8 -36 17 -76 19 -90 3 -14 10 -43 15
-65 6 -22 13 -51 16 -65 2 -14 10 -47 16 -75 6 -27 13 -57 15 -65 8 -38 128
-572 160 -710 20 -85 37 -165 40 -178 2 -12 6 -30 9 -40 5 -18 7 -23 30 -132
7 -36 39 -177 71 -315 31 -137 59 -259 61 -270 2 -11 7 -31 10 -45 3 -14 9
-41 14 -60 4 -19 34 -150 65 -290 32 -140 66 -289 74 -330 l16 -75 1088 -3
1087 -2 0 3450 0 3450 -883 0 -883 0 0 -2127 0 -2128 -37 -3 c-20 -2 -37 0
-38 5 0 4 -2 16 -4 26 -2 10 -6 46 -10 80 -6 67 -11 100 -25 197 -12 73 -68
421 -75 460 -3 14 -7 39 -10 55 -27 152 -141 690 -205 965 -16 69 -48 208 -70
310 -23 102 -52 232 -66 290 -40 176 -134 593 -138 614 -3 12 -18 81 -35 155
-17 73 -33 144 -35 157 -3 13 -7 32 -10 42 -3 9 -7 28 -10 42 -2 14 -11 55
-20 93 -9 37 -23 97 -32 135 -9 37 -18 78 -20 91 -5 22 -18 80 -49 216 -7 33
-23 103 -35 155 -11 52 -25 112 -31 133 l-10 37 -1084 0 -1085 0 0 -3450z"/>
<path d="M0 1400 l0 -880 5120 0 5120 0 0 880 0 880 -5120 0 -5120 0 0 -880z"/>
</g>
</svg>
