<?xml version="1.0" encoding="UTF-8"?>
<svg id="Layer_1" data-name="Layer 1" xmlns="http://www.w3.org/2000/svg" viewBox="0 0 146.09 146.09">
  <defs>
    <style>
      .cls-1 {
        fill: #fff;
      }
    </style>
  </defs>
  <path class="cls-1" d="M73.1,58.68c-.58,1.75-1.32,4.21-2,7.19-1.73,7.58-1.91,13.39-1.94,15.29-.13,7.89-.13,13.28,3.58,16.25.29.23,1.75,1.37,3.87,1.74,8.99,1.57,18.56-12.68,21.87-17.61,3.11-4.64,7.47-12.34,10.16-23.22,3.06-.05,5.61.21,7.45.48,8.36,1.25,14.05,4.51,15.61,5.45,1.75,1.05,3.11,2.06,4.03,2.77-.24.79-.45,1.43-.58,1.84-1.2,3.65-6.29,18.43-17.51,31.06h0c-2.99,3.16-24.42,25.84-48.86,20.42-2.97-.66-9.37-2.16-14.9-7.35-12.44-11.68-10.72-32.87-10.16-39.77.13-1.59.29-2.91.42-3.84,3.32-2.29,7.94-4.99,13.8-7.16,5.87-2.17,11.15-3.12,15.16-3.55Z"/>
  <path class="cls-1" d="M54.78,117.63c-1.47,1.09-3.63,2.52-6.45,3.74-2.11.92-8.01,3.48-14.96,2.64-11.14-1.33-18.84-10.61-21.29-15.67-1.11-2.3-4.32-9.25-3.24-6.93h0c1.86-3.22,4.19-6.74,7.11-10.35,5.56-6.88,11.42-11.8,16.25-15.22-.82,4.56-1.97,14.69,2.97,25.16,1.7,3.62,4.56,9.47,11.09,13.42,3.29,1.99,6.42,2.83,8.51,3.23Z"/>
  <path class="cls-1" d="M88.32,21.91c-.59,1.04-1.17,2.09-1.74,3.16-4.53,8.45-7.97,16.81-10.58,24.83-2.79.26-5.83.71-9.06,1.45-8.58,1.97-15.45,5.3-20.45,8.32.99-4.72,2.72-10.77,5.9-17.38,2.97-6.17,6.34-11.04,9.22-14.64,3.65-1.69,8.52-3.51,14.45-4.64,4.66-.89,8.83-1.13,12.26-1.1Z"/>
  <path class="cls-1" d="M7.68,93.29c.25-6.3,1.65-19.52,10.17-33.21,10.4-16.71,25.13-24,30.82-26.47-2.98,3.43-6.78,8.57-9.87,15.48-2.79,6.23-4.09,11.89-4.74,16.13-4.41,3.66-9.19,8.04-14.06,13.22-4.87,5.18-8.94,10.22-12.32,14.85Z"/>
  <path class="cls-1" d="M138.18,59.48c-1.53-1.19-3.71-2.7-6.48-4.16-1.95-1.02-6.45-3.2-12.67-4.35-2.18-.41-5.11-.79-8.61-.77.48-2.81,1.4-10.57-2.84-18.63-2.38-4.52-5.5-7.46-7.61-9.14,15.64-.1,29.41,7.2,35.31,19.16,3.43,6.96,3.36,13.79,2.9,17.9Z"/>
</svg>