<?xml version="1.0" encoding="UTF-8"?>
<svg id="Layer_1" data-name="Layer 1" xmlns="http://www.w3.org/2000/svg" viewBox="0 0 146.09 146.09">
  <defs>
    <style>
      .cls-1 {
        fill: #fff;
      }
    </style>
  </defs>
  <g>
    <path class="cls-1" d="M17.27,126.26v6.75h1.24v-6.75h-1.24Z"/>
    <path class="cls-1" d="M25.46,126.26v2.97l-1.91-2.97h-.94v6.75h1.18v-4.49l1.67,2.59v1.9h1.2v-6.75h-1.2Z"/>
    <path class="cls-1" d="M33.31,126.26l-1.05,4.67-1.05-4.67h-1.23l1.76,6.75h1.02l1.76-6.75h-1.21Z"/>
    <path class="cls-1" d="M37.85,126.26v1.03h3.28v-1.03h-3.28Z"/>
    <path class="cls-1" d="M37.85,129.12v1.03h3.28v-1.03h-3.28Z"/>
    <path class="cls-1" d="M37.85,131.98v1.03h3.28v-1.03h-3.28Z"/>
    <path class="cls-1" d="M68.07,126.26v1.03h3.28v-1.03h-3.28Z"/>
    <path class="cls-1" d="M68.07,129.12v1.03h3.28v-1.03h-3.28Z"/>
    <path class="cls-1" d="M68.07,131.98v1.03h3.28v-1.03h-3.28Z"/>
    <path class="cls-1" d="M48.47,128.21v-.85c0-.33-.12-.62-.36-.86s-.53-.36-.86-.36h-1.31c-.35,0-.64.12-.88.36-.24.24-.36.53-.36.86v1.4c0,.24.06.46.2.65.14.18.32.3.53.36l1.65.44c.15.06.21.17.21.35v1.05c0,.12-.03.21-.11.29-.08.08-.17.12-.27.12h-.67c-.11,0-.21-.05-.29-.12s-.11-.17-.11-.29v-.56h-1.15v.85c0,.33.12.62.36.86s.53.36.88.36h1.31c.33,0,.62-.12.86-.36.24-.24.36-.53.36-.86v-1.53c0-.23-.08-.44-.2-.62-.14-.2-.32-.32-.53-.38l-1.65-.44c-.06-.02-.11-.06-.15-.12-.05-.08-.06-.15-.06-.21v-.94c0-.11.03-.21.11-.29s.17-.12.27-.12h.67c.12,0,.21.05.29.12s.11.18.11.29v.56h1.15Z"/>
    <path class="cls-1" d="M51.61,126.26v1.05h1.52v5.71h1.18v-5.71h1.53v-1.05h-4.23Z"/>
    <path class="cls-1" d="M63.16,126.26l-1.56,4.42-1.58-4.42h-.85v6.75h1.15v-2.85l1,2.85h.55l.99-2.85v2.85h1.15v-6.75h-.85Z"/>
    <path class="cls-1" d="M77.94,126.26v2.97l-1.93-2.97h-.94v6.75h1.18v-4.49l1.68,2.59v1.9h1.18v-6.75h-1.18Z"/>
    <path class="cls-1" d="M82.46,126.26v1.05h1.52v5.71h1.18v-5.71h1.53v-1.05h-4.23Z"/>
    <path class="cls-1" d="M98.24,128.41v-1.03c0-.35-.12-.64-.36-.88s-.53-.36-.88-.36h-1.37c-.33,0-.62.12-.86.36-.23.24-.35.53-.35.88v4.52c0,.33.12.62.35.86.24.24.53.36.86.36h1.37c.35,0,.64-.12.88-.36.24-.24.36-.53.36-.88v-2.23h-1.78v.93h.61v1.03c0,.12-.03.21-.11.29-.08.08-.18.12-.29.12h-.7c-.11,0-.2-.05-.27-.12-.08-.08-.11-.17-.11-.29v-3.96c0-.11.03-.21.11-.29.08-.08.17-.12.27-.12h.7c.11,0,.21.05.29.12.08.08.11.18.11.29v.76h1.17Z"/>
    <path class="cls-1" d="M104.77,130.41c.24-.08.46-.23.61-.44.17-.21.24-.46.24-.71v-1.78c0-.35-.12-.64-.35-.86-.24-.24-.55-.36-.88-.36h-2.23v6.75h1.18v-2.53h.21l1.26,2.53h1.3l-1.35-2.59ZM104.42,129.09c0,.12-.03.21-.11.29-.06.08-.17.12-.27.12h-.7v-2.22h.7c.11,0,.21.05.27.12.08.08.11.18.11.29v1.4Z"/>
    <path class="cls-1" d="M113.25,126.5c-.24-.24-.53-.36-.86-.36h-1.71c-.33,0-.62.12-.86.36-.24.24-.36.53-.36.86v4.54c0,.33.12.62.36.86.24.24.53.36.86.36h1.71c.33,0,.62-.12.86-.36.24-.24.36-.53.36-.86v-4.54c0-.33-.12-.62-.36-.86ZM112.41,131.61c0,.12-.03.21-.11.29-.08.08-.17.12-.29.12h-.99c-.12,0-.21-.05-.29-.12s-.11-.17-.11-.29v-3.96c0-.11.03-.21.11-.29s.17-.12.29-.12h.99c.12,0,.21.05.29.12.08.08.11.18.11.29v3.96Z"/>
    <path class="cls-1" d="M120.18,126.26v5.34c0,.12-.05.21-.12.29-.08.09-.15.12-.26.12h-.76c-.11,0-.2-.03-.27-.12-.08-.08-.11-.17-.11-.29v-5.34h-1.2v5.64c0,.33.12.62.36.86.24.24.53.36.86.36h1.46c.33,0,.62-.12.86-.36.23-.24.35-.53.35-.86v-5.64h-1.18Z"/>
    <path class="cls-1" d="M128.45,126.62c-.24-.24-.53-.36-.88-.36h-2.23v6.75h1.2v-2.38h1.03c.35,0,.64-.12.88-.35.24-.24.36-.53.36-.86v-1.93c0-.35-.12-.64-.36-.86ZM127.63,129.26c0,.11-.05.2-.12.27-.08.09-.17.12-.27.12h-.7v-2.37h.7c.11,0,.2.05.27.12s.12.18.12.29v1.56Z"/>
  </g>
  <g>
    <polygon class="cls-1" points="60.8 53.82 76.68 66.67 70.47 41.68 47.32 31.86 73.03 95.25 26.96 15.41 67.61 22.01 48.92 29.54 71.43 39.09 92.99 21.99 25.37 12.96 117.92 13 91.36 44.47 94.56 24.25 73.19 41.2 79.46 66.46 120.71 12.99 74.79 92.55 60.8 53.82"/>
    <g>
      <path class="cls-1" d="M24.91,104.36l-2.41,10.74-2.41-10.74h-2.82l4.05,15.53h2.35l4.04-15.53h-2.82Z"/>
      <path class="cls-1" d="M38.12,104.36v2.38h2.76s4.76,0,4.76,0v-2.38h-7.52Z"/>
      <path class="cls-1" d="M38.12,117.51v2.38h2.76s4.76,0,4.76,0v-2.38h-7.52Z"/>
      <path class="cls-1" d="M38.12,110.93v2.38h2.76s4.76,0,4.76,0v-2.38h-7.52Z"/>
      <path class="cls-1" d="M63.61,104.36v6.84l-4.4-6.84h-2.19v15.53h2.74v-10.33l3.85,5.99v4.35h2.76v-15.53h-2.76Z"/>
      <path class="cls-1" d="M76.76,104.36v2.41h3.5v13.12h2.74v-13.12h3.53v-2.41h-9.76Z"/>
      <path class="cls-1" d="M103.02,104.36v12.31c0,.49-.38.93-.88.93h-1.75c-.49,0-.88-.44-.88-.93v-12.31h-2.74v12.99c0,1.53,1.26,2.82,2.82,2.82h3.34c1.56,0,2.82-1.28,2.82-2.82v-12.99h-2.73Z"/>
      <path class="cls-1" d="M126.83,104.36l-3.61,10.15-3.61-10.15h-1.97v15.53h2.65v-6.56l2.3,6.56h1.26l2.3-6.56v6.56h2.65v-15.53h-1.97Z"/>
    </g>
  </g>
</svg>