<?xml version="1.0" encoding="UTF-8"?>
<svg xmlns="http://www.w3.org/2000/svg" xmlns:xlink="http://www.w3.org/1999/xlink" viewBox="0 0 146.09 146.09">
  <defs>
    <style>
      .cls-1 {
        fill: url(#radial-gradient-4);
      }

      .cls-1, .cls-2 {
        mix-blend-mode: multiply;
        opacity: .37;
      }

      .cls-3 {
        fill: #e51e25;
      }

      .cls-4 {
        fill: url(#radial-gradient);
      }

      .cls-5 {
        fill: url(#radial-gradient-3);
      }

      .cls-6 {
        isolation: isolate;
      }

      .cls-7 {
        fill: url(#radial-gradient-7);
        opacity: .34;
      }

      .cls-7, .cls-8 {
        mix-blend-mode: overlay;
      }

      .cls-9 {
        fill: url(#radial-gradient-8);
      }

      .cls-10 {
        fill: url(#radial-gradient-2);
      }

      .cls-2 {
        fill: url(#radial-gradient-5);
      }

      .cls-11 {
        fill: #b52025;
      }

      .cls-8 {
        fill: url(#radial-gradient-6);
        opacity: .95;
      }
    </style>
    <radialGradient id="radial-gradient" cx="6.05" cy=".83" fx="6.05" fy=".83" r="68.81" gradientTransform="translate(2.06 -3.87) rotate(38.63) scale(1 1.42)" gradientUnits="userSpaceOnUse">
      <stop offset="0" stop-color="#fff"/>
      <stop offset=".3" stop-color="#fff" stop-opacity=".67"/>
      <stop offset=".74" stop-color="#fff" stop-opacity=".19"/>
      <stop offset=".94" stop-color="#fff" stop-opacity="0"/>
    </radialGradient>
    <radialGradient id="radial-gradient-2" cx="31.77" cy="22.95" fx="31.77" fy="22.95" r="21.65" gradientUnits="userSpaceOnUse">
      <stop offset="0" stop-color="#fff"/>
      <stop offset=".84" stop-color="#fff" stop-opacity="0"/>
    </radialGradient>
    <radialGradient id="radial-gradient-3" cx="31.77" cy="22.95" fx="31.77" fy="22.95" r="21.65" xlink:href="#radial-gradient-2"/>
    <radialGradient id="radial-gradient-4" cx="72.55" cy="93.33" fx="72.55" fy="93.33" r="45.72" gradientTransform="translate(97.84 -54.51) rotate(38.63) scale(1 1.41)" gradientUnits="userSpaceOnUse">
      <stop offset="0" stop-color="#000"/>
      <stop offset=".94" stop-color="#000" stop-opacity="0"/>
    </radialGradient>
    <radialGradient id="radial-gradient-5" cx="1693.96" cy="-.77" fx="1693.96" fy="-.77" gradientTransform="translate(1391.44 1105.85) rotate(-141.37) scale(1 1.41)" xlink:href="#radial-gradient-4"/>
    <radialGradient id="radial-gradient-6" cx="70.04" cy="71.25" fx="70.04" fy="71.25" r="33.27" gradientUnits="userSpaceOnUse">
      <stop offset="0" stop-color="#fff" stop-opacity="0"/>
      <stop offset="1" stop-color="#000"/>
    </radialGradient>
    <radialGradient id="radial-gradient-7" cx="64.89" cy="68.82" fx="64.89" fy="68.82" r="25.41" gradientTransform="translate(27.26 6.5) rotate(31.91) scale(1 .48)" gradientUnits="userSpaceOnUse">
      <stop offset="0" stop-color="#fff" stop-opacity="0"/>
      <stop offset="1" stop-color="#000"/>
    </radialGradient>
    <radialGradient id="radial-gradient-8" cx="1777.27" cy="16.41" fx="1777.27" fy="16.41" gradientTransform="translate(1507.83 1269.11) rotate(-141.37) scale(1 1.42)" xlink:href="#radial-gradient"/>
  </defs>
  <g class="cls-6">
    <g id="Layer_1" data-name="Layer 1">
      <path class="cls-3" d="M19.52,47c.6,8.94,5.25,17.12,12.61,22.22,2.03,1.52,4.16,2.91,6.37,4.16,9.2,4.88,18.98,8.54,29.12,10.91,5.63,1.47,11.95,3.63,16.61,7.38,0,0-.25-.42-.82-1.12-1.21-1.19-2.56-2.24-4.01-3.12-3.51-1.9-7.1-3.73-10.78-5.28-5.93-2.27-11.51-5.36-16.59-9.17-4.31-3.22-7.56-7.66-9.32-12.75-3.02-9.44,1.25-24.73,15.04-29.76,10.48-3.81,20.3-1.35,26.92,7.23,1.54,2.02,2.83,4.21,3.86,6.53.54,1.62,2.14,2.63,3.83,2.42,7.08-.08,14.17,0,21.25,0,.52,0,1.04-.1,1.67-.15.67-3.38.6-6.86-.2-10.21-1.88-9.48-7.98-17.59-16.57-22.02-18.38-10.17-37.48-10.88-56.92-3.17-5.64,2.17-10.68,5.66-14.69,10.19-6.43,7.35-8.12,16.11-7.37,25.7Z"/>
      <path class="cls-3" d="M79.4,87.42c.13.08.27.17.4.27-2.97-1.59-6-3.07-9.07-4.38-3.36-1.29-6.62-2.84-9.72-4.64,2.46,1.32,5.01,2.47,7.62,3.48,3.68,1.55,7.27,3.37,10.78,5.28Z"/>
      <path class="cls-3" d="M83.8,91.05c.25.33.38.53.42.6-.87-.69-1.8-1.34-2.77-1.94.8.4,1.6.85,2.36,1.34Z"/>
      <path class="cls-4" d="M115.27,46.51c-.63.05-1.15.15-1.67.15-7.08,0-14.17-.08-21.25,0-.35.05-.68.03-1.02-.02-1.29-.2-2.39-1.12-2.81-2.41-1.04-2.32-2.32-4.51-3.86-6.53-1.82-2.36-3.88-4.26-6.13-5.68-5.93-3.78-13.18-4.31-20.78-1.55-13.78,5.03-18.06,20.32-15.04,29.76,1.75,5.1,5.01,9.54,9.32,12.75,2.84,2.14,5.85,4.04,8.97,5.7,3.11,1.8,6.37,3.36,9.72,4.64,3.07,1.3,6.1,2.79,9.07,4.38,1.3.82,2.51,1.79,3.61,2.86.15.18.28.37.38.5-.75-.48-1.55-.94-2.36-1.34-.05-.03-.08-.05-.12-.07-4.19-2.56-9.17-4.18-13.7-5.36-9.81-2.27-19.28-5.78-28.19-10.44-1.79-1.05-3.53-2.21-5.2-3.46-7.37-5.1-12.01-13.28-12.61-22.22-.75-9.59.94-18.34,7.37-25.7,4.01-4.53,9.04-8.02,14.69-10.19,19.35-7.67,38.36-7,56.66,3.02,7.62,4.61,12.98,12.21,14.74,21,.8,3.36.87,6.83.2,10.21Z"/>
      <path class="cls-10" d="M67.62,84.28c4.53,1.19,9.51,2.81,13.7,5.36-3.71-1.9-7.8-3.21-11.6-4.19-10.14-2.37-19.93-6.03-29.12-10.91-.4-.22-.79-.45-1.17-.7,8.91,4.66,18.38,8.17,28.19,10.44Z"/>
      <path class="cls-5" d="M86.32,92.82c-.8-.63-1.64-1.22-2.52-1.77-.1-.13-.23-.32-.38-.5-1.1-1.07-2.31-2.04-3.61-2.86.57.28,1.14.6,1.7.9,1.45.89,2.79,1.94,4.01,3.12.5.62.75,1,.8,1.1Z"/>
      <path class="cls-3" d="M120.57,95.13c-.6-8.94-5.25-17.12-12.61-22.22-2.03-1.52-4.16-2.91-6.37-4.16-9.2-4.88-18.98-8.54-29.12-10.91-5.63-1.47-11.95-3.63-16.61-7.38,0,0,.25.42.82,1.12,1.21,1.19,2.56,2.24,4.01,3.12,3.51,1.9,7.1,3.73,10.78,5.28,5.93,2.27,11.51,5.36,16.59,9.17,4.31,3.22,7.56,7.66,9.32,12.75,3.02,9.44-1.25,24.73-15.04,29.76-10.48,3.81-20.3,1.35-26.92-7.23-1.54-2.02-2.83-4.21-3.86-6.53-.54-1.62-2.14-2.63-3.83-2.42-7.08.08-14.17,0-21.25,0-.52,0-1.04.1-1.67.15-.67,3.38-.6,6.86.2,10.21,1.88,9.48,7.98,17.59,16.57,22.02,18.38,10.17,37.48,10.88,56.92,3.17,5.64-2.17,10.68-5.66,14.69-10.19,6.43-7.35,8.12-16.11,7.37-25.7Z"/>
      <path class="cls-1" d="M120.57,95.13c-.6-8.94-5.25-17.12-12.61-22.22-2.03-1.52-4.16-2.91-6.37-4.16-9.2-4.88-18.98-8.54-29.12-10.91-5.63-1.47-11.95-3.63-16.61-7.38,0,0,.25.42.82,1.12,1.21,1.19,2.56,2.24,4.01,3.12,3.51,1.9,7.1,3.73,10.78,5.28,5.93,2.27,11.51,5.36,16.59,9.17,4.31,3.22,7.56,7.66,9.32,12.75,3.02,9.44-1.25,24.73-15.04,29.76-10.48,3.81-20.3,1.35-26.92-7.23-1.54-2.02-2.83-4.21-3.86-6.53-.54-1.62-2.14-2.63-3.83-2.42-7.08.08-14.17,0-21.25,0-.52,0-1.04.1-1.67.15-.67,3.38-.6,6.86.2,10.21,1.88,9.48,7.98,17.59,16.57,22.02,18.38,10.17,37.48,10.88,56.92,3.17,5.64-2.17,10.68-5.66,14.69-10.19,6.43-7.35,8.12-16.11,7.37-25.7Z"/>
      <path class="cls-2" d="M19.52,47.27c.6,8.94,5.25,17.12,12.61,22.22,2.03,1.52,4.16,2.91,6.37,4.16,9.2,4.88,18.98,8.54,29.12,10.91,5.63,1.47,11.95,3.63,16.61,7.38,0,0-.25-.42-.82-1.12-1.21-1.19-2.56-2.24-4.01-3.12-3.51-1.9-7.1-3.73-10.78-5.28-5.93-2.27-11.51-5.36-16.59-9.17-4.31-3.22-7.56-7.66-9.32-12.75-3.02-9.44,1.25-24.73,15.04-29.76,10.48-3.81,20.3-1.35,26.92,7.23,1.54,2.02,2.83,4.21,3.86,6.53.54,1.62,2.14,2.63,3.83,2.42,7.08-.08,14.17,0,21.25,0,.52,0,1.04-.1,1.67-.15.67-3.38.6-6.86-.2-10.21-1.88-9.48-7.98-17.59-16.57-22.02-18.38-10.17-37.48-10.88-56.92-3.17-5.64,2.17-10.68,5.66-14.69,10.19-6.43,7.35-8.12,16.11-7.37,25.7Z"/>
      <path class="cls-11" d="M80.02,109.78c-1.76.62-3.59,1.02-5.45,1.17-7.45.61-15.12-2.79-19.68-8.72,6.45,6.59,17,9.51,25.32,5.53,3.33-1.59,6.29-4.4,7.13-8,1.11-4.76-1.75-9.69-5.63-12.67-3.88-2.98-8.64-4.48-13.17-6.32-6.17-2.51-12.16-5.82-16.7-10.71-3.38-3.64-5.9-8.23-6.7-13.16-.73-4.48.2-9.15,2.3-13.16,2.02-3.87,5.14-7.18,8.91-9.38,1.45-.85,3-1.53,4.61-2.01,8.56-2.56,18.53.6,24.07,7.61-3.85-3.96-8.95-6.85-14.44-7.44-5.49-.59-11.34,1.29-15,5.42-2.73,3.08-4.12,7.68-2.44,11.44,1.19,2.67,3.68,4.52,6.19,6.04,5.77,3.49,12.15,5.85,18.12,9,5.97,3.15,11.71,7.28,14.97,13.19,3.62,6.55,3.67,14.93.14,21.52-2.65,4.95-7.26,8.77-12.55,10.62Z"/>
      <path class="cls-8" d="M80.02,109.78c-1.76.62-3.59,1.02-5.45,1.17-7.45.61-15.12-2.79-19.68-8.72,6.45,6.59,17,9.51,25.32,5.53,3.33-1.59,6.29-4.4,7.13-8,1.11-4.76-1.75-9.69-5.63-12.67-3.88-2.98-8.64-4.48-13.17-6.32-6.17-2.51-12.16-5.82-16.7-10.71-3.38-3.64-5.9-8.23-6.7-13.16-.73-4.48.2-9.15,2.3-13.16s5.14-7.18,8.91-9.38c1.45-.85,3-1.53,4.61-2.01,8.56-2.56,18.53.6,24.07,7.61-3.85-3.96-8.95-6.85-14.44-7.44s-11.34,1.29-15,5.42c-2.73,3.08-4.12,7.68-2.44,11.44,1.19,2.67,3.68,4.52,6.19,6.04,5.77,3.49,12.15,5.85,18.12,9,5.97,3.15,11.71,7.28,14.97,13.19,3.62,6.55,3.67,14.93.14,21.52-2.65,4.95-7.26,8.77-12.55,10.62Z"/>
      <path class="cls-7" d="M80.02,109.78c-1.76.62-3.59,1.02-5.45,1.17-7.45.61-15.12-2.79-19.68-8.72,6.45,6.59,17,9.51,25.32,5.53,3.33-1.59,6.29-4.4,7.13-8,1.11-4.76-1.75-9.69-5.63-12.67-3.88-2.98-8.64-4.48-13.17-6.32-6.17-2.51-12.16-5.82-16.7-10.71-3.38-3.64-5.9-8.23-6.7-13.16-.73-4.48.2-9.15,2.3-13.16s5.14-7.18,8.91-9.38c1.45-.85,3-1.53,4.61-2.01,8.56-2.56,18.53.6,24.07,7.61-3.85-3.96-8.95-6.85-14.44-7.44s-11.34,1.29-15,5.42c-2.73,3.08-4.12,7.68-2.44,11.44,1.19,2.67,3.68,4.52,6.19,6.04,5.77,3.49,12.15,5.85,18.12,9,5.97,3.15,11.71,7.28,14.97,13.19,3.62,6.55,3.67,14.93.14,21.52-2.65,4.95-7.26,8.77-12.55,10.62Z"/>
      <path class="cls-9" d="M24.9,95.53c.63-.05,1.15-.15,1.67-.15,7.08,0,14.17.08,21.25,0,.35-.05.68-.03,1.02.02,1.29.2,2.39,1.12,2.81,2.41,1.04,2.32,2.32,4.51,3.86,6.53,1.82,2.36,3.88,4.26,6.13,5.68,5.93,3.78,13.18,4.31,20.78,1.55,13.78-5.03,18.06-20.32,15.04-29.76-1.75-5.1-5.01-9.54-9.32-12.75-2.84-2.14-5.85-4.04-8.97-5.7-3.11-1.8-6.37-3.36-9.72-4.64-3.07-1.3-6.1-2.79-9.07-4.38-1.3-.82-2.51-1.79-3.61-2.86-.15-.18-.28-.37-.38-.5.75.48,1.55.94,2.36,1.34.05.03.08.05.12.07,4.19,2.56,9.17,4.18,13.7,5.36,9.81,2.27,19.28,5.78,28.19,10.44,1.79,1.05,3.53,2.21,5.2,3.46,7.37,5.1,12.01,13.28,12.61,22.22.75,9.59-.94,18.34-7.37,25.7-4.01,4.53-9.04,8.02-14.69,10.19-19.35,7.67-38.36,7-56.66-3.02-7.62-4.61-12.98-12.21-14.74-21-.8-3.36-.87-6.83-.2-10.21Z"/>
    </g>
  </g>
</svg>