<?xml version="1.0" encoding="UTF-8"?>
<svg id="Layer_1" data-name="Layer 1" xmlns="http://www.w3.org/2000/svg" viewBox="0 0 146.09 146.09">
  <defs>
    <style>
      .cls-1 {
        fill: #fff;
      }

      .cls-2 {
        fill: #ed1c24;
      }
    </style>
  </defs>
  <path class="cls-2" d="M117.51,134.2c-.56.56-13.84-.56-15.79-.78-33.24-3.83-70.58-20.25-83.71-53.15-11.2-28.07,4.07-47.99,27.88-61.16,9.88-5.46,20.62-9.32,31.45-12.41.23.15.92.66,1.16,1.56.28,1.08-.19,2.3-1.21,3.06-4.95,1.62-11.95,4.29-20.15,8.1-6.67,3.1-13.07,6.69-18.58,11.07-33.71,26.76,2.84,56.26,32.08,61.1,10.09,1.67,23.55,1.03,33.81.11,9.73-.87,19.2-3.55,28.64-5.83,1.24,3.97,3.14,12-1.03,16.69,0,0-1.07,1.2-2.64,2.03-5.18,2.74-45.4,13.5-82.3-9.75-10.74-6.77-25.53-21.63-25.53-35.3.05-3.34.11-6.68.16-10.02-.31,2.3-.63,4.6-.94,6.91-4.21,36.34,30.76,51.5,60.36,57.39,11.96,2.38,24.13,3.81,36.34,4.02.28.38.77,1.08,1.24,2.03.22.44,2.94,6.18.26,11.91-.29.62-.76,1.48-1.5,2.43Z"/>
  <g>
    <path class="cls-1" d="M46.16,34.77v5.07h7.02v5.07c4.09.57,13.21.8,8.18,6.82l-4.67,3.71h7.6c1.2,0,4.48,2.38,4.48,3.7v18.13h-7.21c-1.26,0-.2-4.43-.18-5.25.08-2.56.36-7.79-.1-10.07-1.06-5.23-8.39-4.61-10.27.09l-.56,15.23h-7.02v-13.66c0-2.35,2.79-5.21,3.35-5.8,1.41-1.48,3.77-2.69,5.22-4.13,1.02-1.01,5.03-5.4,2.46-6.36-2.75-1.03-6.75.68-8.34-3.36-.41-1.04-.24-3.22-.36-3.35-.37-.38-4.38,1.07-6.24-1.75-.84-1.27-.85-2.63-.78-4.1h7.41Z"/>
    <path class="cls-1" d="M95.68,34.77v10.14c-2.76.23-1.83-2.05-2.57-3.87-1.89-4.65-8.9-6.22-12.84-3.15-3.42,2.67-3.76,10.58-1.54,14.02,2.42,3.76,14.99,1.93,14.99,3.03v22.72h-7.41v-17.55c0-.34-5.61-.73-6.63-.97-6.13-1.42-8.95-5.02-9.37-11.29-.29-4.36,1.69-8.93,5.4-11.72.45-.34.6-.73,2.61-1.36h17.35Z"/>
    <path class="cls-1" d="M105.42,35.16c.1-.09,2.59-.05,2.69.04.08.07.26,1.47.53,2.01,2.62,5.24,9.27,3.83,11.85,8.42.23.4.91,1.91.91,2.21v29.83h-7.8l.39-22.32c-5.41.16-7.54.76-9.68,4.26-.59.96-.94,3.26-1.22,3.46-.59.43-1.58.37-1.58,0v-8.78h12.48c-.4-4.01-.18-8.57-5.05-9.58-.84-.17-3.53,0-3.53-.17v-9.36Z"/>
    <path class="cls-1" d="M133.5,54.65v8.97h-1.55c-.24-6.2-5.33-7.43-10.58-8.2-.69-.1-.65.2-.59-.77h12.72Z"/>
  </g>
</svg>