<?xml version="1.0" encoding="UTF-8"?>
<svg id="Layer_1" data-name="Layer 1" xmlns="http://www.w3.org/2000/svg" viewBox="0 0 146.09 146.09">
  <defs>
    <style>
      .cls-1 {
        fill: #f9f1e8;
      }

      .cls-2 {
        fill: #c39c70;
      }
    </style>
  </defs>
  <g>
    <path class="cls-2" d="M27.81,115.66v2.41h-10.95v-14.45c0-.78-.06-1.51-.43-2.67h11.38l-.48,2.4h-7.09v3.86h6.62v2.37h-6.62v6.08h7.57Z"/>
    <path class="cls-2" d="M40.32,111.8v-10.85h3.33v17.13h-3.21l-7.18-11.4v11.4h-3.32v-14.45c0-.78-.07-1.51-.44-2.67h3.94l6.88,10.85Z"/>
    <path class="cls-2" d="M46.85,118.08v-14.45c0-.78-.07-1.51-.44-2.67h6.42c4.97,0,7.81,3.31,7.81,8.55s-2.83,8.58-7.81,8.58h-5.98ZM50.23,115.66h2.21c3.69,0,4.69-3.01,4.69-6.16s-1.03-6.13-4.69-6.14h-2.21s0,12.3,0,12.3Z"/>
    <path class="cls-2" d="M74.08,115.66v2.41h-10.95v-14.45c0-.78-.06-1.51-.43-2.67h11.38l-.48,2.4h-7.09v3.86h6.62v2.37h-6.62v6.08h7.57Z"/>
    <path class="cls-2" d="M83.72,110.15l5.63,7.93h-4.09l-4.7-6.98-1.04.32v6.66h-3.39v-14.45c0-.78-.06-1.51-.43-2.67h7.59c2.36,0,4.35,1.9,4.35,4.04,0,3.17-.87,4.25-3.92,5.15ZM82.23,108.04c1.46-.44,2.02-1.22,2.02-2.48,0-1.35-.32-2.21-1.81-2.21h-2.92v5.53l2.72-.84Z"/>
    <path class="cls-2" d="M94.17,115.67l-.71,2.4h-3.29l4.28-14.55c.09-.29.14-.59.14-.9,0-.43-.08-.84-.35-1.71l4.43.02,5.17,17.13h-3.51l-1.51-4.93c-1.86.22-3.68,1.14-4.64,2.53ZM98.06,110.69l-1.25-5.22-1.37,5.92c.07-.05,1.53-.54,2.62-.7Z"/>
    <path class="cls-2" d="M116.32,103.38l-2.51,1.44c-.66-1.27-1.59-1.57-2.55-1.57-1.64,0-2.58.48-2.58,2.07.05.93.42,1.79,1.23,2.03l2.87.87c2.25.67,3.81,2.02,3.81,4.41v1.39c0,2.14-1.98,4.06-4.35,4.06h-7.2v-2.41h6.37c1.59,0,1.68-1.05,1.68-2.68,0-1.04-.37-1.93-1.31-2.21l-2.79-.84c-2.76-.83-3.79-2.23-3.79-4.84,0-3.09,3.42-4.38,6.11-4.38,2.33,0,4.35,1.03,5.04,2.67Z"/>
    <path class="cls-2" d="M129.83,115.66v2.41h-10.95v-14.45c0-.78-.06-1.51-.43-2.67h11.38l-.48,2.4h-7.09v3.86h6.62v2.37h-6.62v6.08h7.57Z"/>
  </g>
  <g>
    <g>
      <polygon class="cls-1" points="72.17 48.17 72.17 88.63 66.92 85.28 66.92 51.46 72.07 48.23 72.17 48.17"/>
      <path class="cls-1" d="M40.95,15.3v62.1s31.98,20.34,31.98,20.34l32.37-20.32V15.3H40.95ZM98.14,32.51l-1.2.02h-5.2v6.11h-12.41v5.32l17.81,11.16-.04,12.54v9.56s-5.29,3.32-5.29,3.32l.06-22.52-14.4-9.02-3.18-1.92v1.23l2.73,1.71,2.3,1.44v33.69l-4.97,3.11v3.23s-.29.19-.29.19l-.85.53-.26.16-18.52-11.79-.06-22.54,14.38-9.01,1.57-.95,1.86-1.12v-13.56h-12.41v-6.11h-6.41v-4.82h-5.25v10.07h6.4v6.11h12.42v5.32l-13.12,8.22-4.7,2.94v3.64s.07,18.44.07,18.44l-3.63-2.1V19.86s28.42,0,28.42,0v2h.42c0,1.28.36,2.47.95,3.42.81,1.29,2.06,2.12,3.48,2.12v.5c-1.41,0-2.67.83-3.47,2.11-.59.94-.95,2.1-.96,3.39h12.11v-6.11h6.41v-4.82h5.25v10.05ZM98.88,76.13h-.03.03s0,0,0,0Z"/>
    </g>
    <path class="cls-1" d="M73.99,24.75v8.73h-.02c0-.56-.07-1.09-.19-1.61-.55-2.28-2.25-3.94-4.24-3.94v-.5c1.93,0,3.57-1.56,4.18-3.7.13-.48.22-.98.24-1.51v2.45s0,.04,0,.04c0,.01.01.03.02.04Z"/>
  </g>
  <g>
    <path class="cls-1" d="M31.9,128.2v-7.06h3.1c1.46,0,2.88.53,2.88,2.17,0,1.56-1.51,2.17-2.88,2.17h-1.64v2.71h-1.46ZM33.36,124.84h1.61c.74,0,1.47-.34,1.47-1.67s-.78-1.4-1.47-1.4h-1.61v3.07Z"/>
    <path class="cls-1" d="M45.24,128.2l-1.79-2.69h-1.21v2.69h-1.45v-7.05h2.53c.67,0,3.5-.08,3.35,2.1-.08,1.35-1.2,1.82-2.16,2.06l2.37,2.89h-1.64ZM43.12,124.97c.47,0,1.97-.02,2.11-1.65.13-1.54-1.91-1.52-1.93-1.52h-1.06v3.18h.88Z"/>
    <path class="cls-1" d="M53.16,121.04c2.1,0,3.85,1.43,3.85,3.62s-1.75,3.64-3.85,3.64-3.87-1.46-3.87-3.64,1.79-3.62,3.87-3.62ZM55.55,124.67c0-1.77-1.03-3.09-2.39-3.09s-2.42,1.31-2.42,3.09,1.04,3.08,2.42,3.08,2.39-1.32,2.39-3.08Z"/>
    <path class="cls-1" d="M60.23,128.2v-7.06h3.1c1.46,0,2.88.53,2.88,2.17,0,1.56-1.51,2.17-2.88,2.17h-1.64v2.71h-1.46ZM61.69,124.84h1.61c.74,0,1.47-.34,1.47-1.67s-.78-1.4-1.47-1.4h-1.61v3.07Z"/>
    <path class="cls-1" d="M69.26,128.2v-7.06h5.3v.64h-3.84v2.23h3.03v.53h-3.03v3.02h3.98v.64h-5.44Z"/>
    <path class="cls-1" d="M82.15,128.2l-1.79-2.69h-1.21v2.69h-1.45v-7.05h2.53c.67,0,3.5-.08,3.35,2.1-.08,1.35-1.2,1.82-2.16,2.06l2.37,2.89h-1.64ZM80.03,124.97c.47,0,1.97-.02,2.11-1.65.13-1.54-1.91-1.52-1.93-1.52h-1.06v3.18h.88Z"/>
    <path class="cls-1" d="M88.47,128.2v-6.42h-2.34v-.64h6.12v.64h-2.34v6.42h-1.45Z"/>
    <path class="cls-1" d="M95.18,128.2v-7.05h1.46v7.05h-1.46Z"/>
    <path class="cls-1" d="M100.55,128.2v-7.06h5.3v.64h-3.84v2.23h3.03v.53h-3.03v3.02h3.98v.64h-5.44Z"/>
    <path class="cls-1" d="M109.26,127.23c.51.32,1.17.51,1.81.54.85.04,2.01-.37,1.84-1.33-.22-1.56-3.96-.74-3.96-3.2,0-1.58,1.46-2.18,2.85-2.18.75,0,1.57.21,2.2.55l-.24.46c-.57-.26-1.28-.49-1.99-.49-.64,0-1.38.36-1.38,1.16,0,1.68,3.96.95,3.96,3.37,0,1.7-1.58,2.2-2.88,2.2-.83,0-1.82-.24-2.43-.63l.22-.44Z"/>
  </g>
</svg>