<?xml version="1.0" encoding="UTF-8"?>
<svg id="Layer_1" data-name="Layer 1" xmlns="http://www.w3.org/2000/svg" viewBox="0 0 146.09 146.09">
  <defs>
    <style>
      .cls-1 {
        fill: #f387b1;
      }
    </style>
  </defs>
  <path class="cls-1" d="M128.6,8.35H17.49c-2.31,0-4.18,1.88-4.18,4.18v85.89c0,2.31,1.88,4.18,4.18,4.18h76.06l-9.62,29.64c-.58,1.77.1,3.74,1.66,4.79.69.46,1.49.7,2.32.7.99,0,1.96-.36,2.73-1.02l40.7-35.14c.92-.8,1.44-1.95,1.44-3.16V12.53c0-2.31-1.88-4.18-4.18-4.18ZM87.88,135.05c-.29,0-.58-.08-.83-.25-.56-.37-.8-1.07-.6-1.71l10.76-33.16H17.46c-.83,0-1.5-.67-1.5-1.5V12.53c0-.83.67-1.5,1.5-1.5h111.11s.01,0,.02,0c.82,0,1.48.68,1.48,1.5v85.9c0,.44-.19.85-.52,1.14l-40.69,35.12c-.28.24-.62.36-.97.36,0,0,0,0,0,0Z"/>
  <path class="cls-1" d="M88.93,83.23c0,.55.39.87.87.87,1.05,0,2.29-1.1,2.29-2.29h-1.47c-.82,0-1.68.5-1.68,1.42Z"/>
  <path class="cls-1" d="M32.56,76.68h-3.84v1.13c.45-.42,1.05-.76,1.55-.76.53,0,.92.34.92,1.29v1.26h1.37c1.31,0,1.97-.74,1.97-1.47s-.66-1.45-1.97-1.45Z"/>
  <path class="cls-1" d="M47.57,79.78c-1.74,0-3,.45-3,2.08s1.29,2.18,3,2.18c2.26,0,3.05-.63,3.05-2.23s-.74-2.02-3.05-2.02Z"/>
  <path class="cls-1" d="M63.69,79.63c-2.39,0-3.05.71-3.05,2.16s.68,2.1,3.05,2.1,3.05-.63,3.05-2.1-.66-2.16-3.05-2.16Z"/>
  <path class="cls-1" d="M127.07,14.03H18.96v82.9h80.32c.33,0,.64.12.9.31.12.09.22.19.31.31.1.13.16.28.21.43.09.29.1.61,0,.92l-9.74,30.02,36.1-31.17V14.03ZM46.62,29.15c1.13-1.13,2.63-1.75,4.23-1.75h2.53c1.51-2.96,4.49-4.79,7.82-4.79,2.35,0,4.55.91,6.21,2.57,1.66,1.66,2.57,3.86,2.57,6.21v8.3h1.02c1.62,0,3.15.63,4.3,1.78,1.15,1.15,1.78,2.68,1.78,4.3s-.63,3.15-1.78,4.3c-.8.8-1.8,1.36-2.9,1.62-.53,1.91-1.56,3.67-2.98,5.1-1.31,1.31-2.93,2.3-4.68,2.86-.16.05-.32.1-.48.14v6.28c0,1.77-1.44,3.21-3.21,3.21s-3.21-1.44-3.21-3.21v-6.37c-1.82-.55-3.5-1.55-4.86-2.92-2.2-2.2-3.41-5.12-3.41-8.22v-3.57c0-.52.43-.95.95-.95s.95.43.95.95v3.57c0,4.5,3.06,8.39,7.43,9.46.64.16,1.31.25,1.97.27.91.03,1.82-.07,2.69-.28,3.14-.78,5.71-3.12,6.8-6.15h-1.19c-1.43,3.11-4.54,5.11-7.97,5.11-2.07,0-4.08-.73-5.66-2.06l-.28-.23,7.92-6.37-1.5,2.7h9.32c.18,0,.36,0,.53-.03.18-.02.35-.04.51-.08,2.44-.5,4.19-2.66,4.19-5.12,0-1.4-.54-2.71-1.53-3.69-.99-.99-2.3-1.53-3.69-1.53h-4.77l-1.07-3.79.1-.12c.76-.91,1.18-2.07,1.18-3.26,0-2.82-2.3-5.12-5.12-5.12h-10.47c-1.37,0-2.65.53-3.62,1.5s-1.5,2.25-1.5,3.62c0,2.82,2.3,5.12,5.12,5.12h9.13l-1.74-3.13,6.45,5.19h-4.36c-2.88,0-5.23,2.34-5.23,5.23,0,1.21.43,2.4,1.2,3.33.05.06.11.13.16.19l.19.2-1.45,5.13-.36-.38c-1.57-1.64-2.43-3.79-2.43-6.06v-8.83h-1.57c-1.6,0-3.1-.62-4.23-1.75-1.13-1.13-1.75-2.63-1.75-4.23s.62-3.1,1.75-4.23ZM25.98,27.21c0-1.61,1.3-2.91,2.91-2.91h0c1.61,0,2.91,1.3,2.91,2.91v3.68c0,.77.31,1.51.85,2.06l1.83,1.83c.55.55,1.29.85,2.06.85h4.58c.77,0,1.51.31,2.06.85l3.62,3.62c.55.55.85,1.29.85,2.06v23.91c0,1.61-1.3,2.91-2.91,2.91s-2.91-1.3-2.91-2.91v-21.5c0-.77-.31-1.51-.85-2.06l-.21-.21c-.55-.55-1.29-.85-2.06-.85h-4.58c-.77,0-1.51-.31-2.06-.85l-5.24-5.24c-.55-.55-.85-1.29-.85-2.06v-6.09ZM32.98,84.2h-1.79c.05,2.79.74,4.18.74,4.21h-6.31s.74-1.52.74-4.52v-7.28c0-3-.74-4.5-.74-4.52h8.31c3.63,0,5.6,2.97,5.6,5.97s-2.05,6.15-6.55,6.15ZM47.54,88.67c-6.31,0-7.57-3.37-7.57-6.73-.03-3.44,1.26-6.91,7.57-6.91s7.62,3.47,7.6,6.91c0,3.37-1.26,6.73-7.6,6.73ZM65.18,88.41c.58-1.66,1.1-3.08,2.52-4.26h-1.13l-.37.82c-.89,1.97-2.23,3.71-4.78,3.71-4.97,0-5.81-3.37-5.81-6.73-.03-3.44.84-6.91,5.81-6.91,2.92,0,4.05,1.81,4.78,3.97h1.13c-1.08-.87-1.81-2.08-1.92-3.68-.11-2.42-.71-3.63-.71-3.65h5.49v12.23c0,3,.74,4.5.74,4.52h-5.76ZM83.61,81.07s-1.55-1.58-4.55-1.58c-2.18,0-2.79,1.18-2.79,2.34s.63,2.29,2.79,2.29c3,0,4.52-1.5,4.55-1.5v5.78c-1.29,0-3.47.26-5.26.26-3.6,0-6.84-2.02-6.84-6.73-.03-4.81,3.23-6.91,6.91-6.91,1.74,0,3.05.24,5.18.24v5.81ZM79.61,41.45c-.77,0-1.51-.31-2.06-.85l-5.24-5.24c-.55-.55-.85-1.29-.85-2.06v-6.09c0-1.61,1.3-2.91,2.91-2.91h0c1.61,0,2.91,1.3,2.91,2.91v3.68c0,.77.31,1.51.85,2.06l1.83,1.83c.55.55,1.29.85,2.06.85h4.58c.77,0,1.51.31,2.06.85l3.62,3.62c.55.55.85,1.29.85,2.06v23.91c0,1.61-1.3,2.91-2.91,2.91s-2.91-1.3-2.91-2.91v-21.5c0-.77-.31-1.51-.85-2.06l-.21-.21c-.55-.55-1.29-.85-2.06-.85h-4.58ZM97.65,88.41h-5.15l.39-4.05c.11-1.13.24-2.05.97-2.55h-1.13c-.11,3.47-.97,6.97-4.57,6.97-2.29,0-3.76-1.39-3.76-3.89,0-3.05,3.05-4.18,5.94-4.18h2.1c-.11-.79-.97-1.08-2.08-1.08-1.71,0-4,.66-4.86,1.37v-5.73c1.63,0,4.23-.24,5.44-.24,2.81,0,6.7.55,6.7,5.52v7.86ZM104.83,88.67c-1.74,0-3.89-.26-6.02-.26v-5.78s1.68,1.5,5.05,1.5c.39,0,2.02.03,2.02-.53,0-1.31-7.28.13-7.28-4.26,0-3.15,2.73-4.31,6.31-4.31,1.74,0,4.02.24,5.52.24v5.78s-1.52-1.58-4.81-1.58c-.32,0-2.6,0-2.6.55,0,1.08,8.02-.32,8.02,4.15,0,3.42-3,4.5-6.2,4.5ZM119.53,88.67c-.66.08-1.26.11-1.81.11-3.86,0-5.65-1.74-5.65-5.15v-7.26h-.87v-1.1c1.58,0,1.79-1.52,1.79-3.44h4.1v3.44h2.08v1.1h-4.71v1.1c.47-.53,1.05-.76,1.55-.76.6,0,1.08.32,1.08.84v5.18c0,.89.21,1.37.76,1.39.37,0,1.16-.5,1.68-1.5v6.05ZM116.76,54.57h-4.24v11.5c0,1.61-1.3,2.91-2.91,2.91s-2.91-1.3-2.91-2.91v-11.5h-4.84c-1.71,0-3.09-1.39-3.09-3.09s1.39-3.09,3.09-3.09h4.84v-3.81c0-.77-.31-1.51-.85-2.06l-.21-.21c-.55-.55-1.29-.85-2.06-.85h-4.58c-.77,0-1.51-.31-2.06-.85l-5.24-5.24c-.55-.55-.85-1.29-.85-2.06v-6.09c0-1.61,1.3-2.91,2.91-2.91s2.91,1.3,2.91,2.91v3.68c0,.77.31,1.51.85,2.06l1.83,1.83c.55.55,1.29.85,2.06.85h4.58c.77,0,1.51.31,2.06.85l3.62,3.62c.55.55.85,1.29.85,2.06v6.22h4.24c1.71,0,3.09,1.39,3.09,3.09s-1.39,3.09-3.09,3.09Z"/>
</svg>