<?xml version="1.0" encoding="UTF-8"?>
<svg id="Layer_2" data-name="Layer 2" xmlns="http://www.w3.org/2000/svg" viewBox="0 0 171.89 171.89">
  <defs>
    <style>
      .cls-1 {
        fill: #dc6e3c;
      }
    </style>
  </defs>
  <g id="Layer_1-2" data-name="Layer 1">
    <path class="cls-1" d="M148.49,0H23.41C10.5,0,0,10.5,0,23.41v125.08c0,12.91,10.5,23.41,23.41,23.41h125.08c12.91,0,23.41-10.5,23.41-23.41V23.41c0-12.91-10.5-23.41-23.41-23.41ZM103.02,27.22s.01.02.02.03c.02.03.02.05.03.07.03.07.06.14.08.22.01.03.02.07.03.11,0,.01,0,.02,0,.03.01.03.02.06.03.1.02.06.04.13.05.2.02.07.04.14.05.21.02.08.03.16.04.24.01.08.02.17.03.26.01.07.03.14.03.22.01.08.02.17.02.26v.42l.08,4.83.07,4.53,1.27,82.35v.44c0,.1-.01.2-.02.29,0,.11,0,.23-.02.34,0,.02,0,.04,0,.06,0,.01,0,.03,0,.04-.02.11-.04.21-.05.3-.01.06-.02.11-.03.17,0,.03-.01.06-.02.1,0,0,0,.02,0,.03-.02.06-.04.13-.06.19-.02.07-.04.13-.06.19,0,.02-.01.03-.02.04-.04.12-.09.23-.14.35-.02.05-.04.11-.07.16-.02.05-.05.09-.08.13-.01.02-.02.04-.03.06,0,.01-.01.02-.02.03,0,.02-.02.03-.03.05-.02.03-.04.06-.06.1,0,.01,0,.02-.02.03-.09.14-.19.27-.31.39-.02.03-.06.05-.09.08-.05.05-.1.1-.15.14-.05.05-.1.1-.15.14-.1.09-.21.16-.31.22-.02.02-.04.02-.06.03,0,0-.01,0-.02,0-.1.06-.2.12-.31.17-.08.04-.17.07-.25.1-.18.07-.36.15-.55.2-.29.07-.58.12-.89.14-.05,0-.11,0-.16,0-.25,0-.51-.02-.77-.05-.12-.02-.24-.03-.38-.06-.2-.04-.4-.09-.6-.15-.02,0-.04-.01-.06-.02-.14-.04-.28-.09-.43-.14,0,0,0,0,0,0-.02,0-.04-.01-.06-.02-.07-.03-.15-.05-.22-.08l-9.87-4.08c0-.06.01-.11.02-.16.01-.08.02-.15.03-.23,0-.06,0-.12,0-.17,0-.05,0-.1.01-.15.01-.07.02-.14.02-.21.01-.04.01-.07.01-.11.01-.22.02-.43.02-.66l-.02-.91v-.3s-.01-.09-.01-.09v-.14s-.01-.38-.01-.38l-.05-3.15-.18-11.87h-.01s-.88-57.44-.88-57.44v-.44s0,0,0,0h0s-.13-8.37-.13-8.37l-.05-3.15-.03-1.82c0-.05,0-.1-.01-.15,0-.16,0-.33-.02-.49-.02-.22-.04-.44-.07-.67,0,0,0,0,0,0-.02-.13-.04-.26-.06-.38l9.42-4.24.32-.14s.05-.02.08-.03c.16-.07.32-.13.48-.19.11-.04.22-.08.34-.11.1-.03.2-.06.3-.09.22-.06.44-.1.65-.13.05,0,.11-.02.16-.03.05,0,.1,0,.15-.01.18-.02.35-.03.52-.03.17,0,.33.01.49.03,0,0,.01,0,.02,0,.16.02.31.05.46.08.03,0,.07.02.1.03.27.07.53.17.78.29.04.02.07.03.11.05.24.13.47.29.67.47.04.03.07.06.1.1.17.17.33.36.47.56.03.04.06.09.09.13.03.04.06.09.09.13.06.1.11.2.16.31,0,.01.01.03.02.04,0,0,0,0,0,0,0,0,0,0,0,0h0s0,0,0,0h0s0,.02,0,.02ZM58.46,115.91l-1.35-.58-16.96-7.25c-.08-.04-.16-.08-.24-.14-.06-.03-.13-.08-.2-.13-.2-.14-.39-.32-.57-.52-.04-.04-.08-.09-.12-.13-.06-.07-.12-.15-.17-.24-.04-.06-.08-.11-.12-.18-.05-.07-.1-.15-.15-.22-.03-.05-.05-.1-.08-.16-.11-.2-.21-.43-.3-.65-.03-.07-.07-.13-.09-.2-.11-.29-.2-.58-.27-.89-.05-.21-.09-.42-.13-.64v-.02c-.03-.26-.06-.51-.06-.78l-.83-53.47c0-.08,0-.17.01-.25-.01-.08,0-.16.01-.24,0-.08.01-.15.02-.23,0-.05,0-.11.02-.16h0s0-.01,0-.02c0,0,0-.02,0-.02.03-.31.09-.61.17-.91,0,0,0,0,0,0,.02-.07.03-.14.05-.2,0-.03.02-.05.03-.08.06-.19.12-.37.19-.55.01-.03.02-.06.03-.09.01-.03.03-.06.04-.1.05-.11.09-.21.14-.32,0,0,0,0,0,0,.07-.14.14-.27.21-.39,0-.01.02-.02.02-.04.05-.08.11-.16.16-.24.02-.03.04-.06.05-.08.08-.12.16-.23.25-.33.08-.07.15-.16.23-.22.02-.02.04-.03.06-.05.07-.06.14-.13.21-.18.06-.05.12-.09.18-.13.06-.04.13-.07.2-.1.02,0,.04-.02.05-.03h0s.08-.05.08-.05l9.24-4.31,12.98-6.03h0s13.35-6.19,13.35-6.19c.25-.12.5-.21.75-.29.06-.02.12-.04.18-.05.2-.06.4-.1.59-.14.06-.01.11-.02.17-.03.49-.07.97-.07,1.4.01.19.04.37.09.55.15.03.01.07.02.1.04.55.22,1.03.57,1.41,1.04.02.03.05.05.07.08.17.22.31.46.43.73.13.28.22.59.29.92,0,.02,0,.03,0,.05.06.29.09.61.1.94,0,.04,0,.08,0,.11l.02.97v1.08l.05,2.42.05,3.13.13,8.14h0s0,.14,0,.14v.3s0,.01,0,.01l.89,57.44h0s0,.01,0,.01l.11,6.82.05,3.15.05,3.15v.24s0,.08,0,.08v.24s.02.74.02.74c0,.31-.03.59-.07.87-.03.15-.06.29-.1.42,0,.08-.02.15-.04.22-.03.12-.06.25-.11.37-.02.05-.03.1-.05.14-.02.05-.05.1-.07.15-.09.19-.19.38-.3.54-.04.06-.07.11-.11.16-.32.42-.72.76-1.19.99,0,0-.01,0-.02.01-.23.11-.47.19-.73.25-.03,0-.05.01-.08.02-.87.19-1.9.08-3.01-.37-.03-.01-.06-.02-.09-.03l-5.32-2.28-8.37-3.58-.23-.1-.88-.38h0s-3.04-1.3-3.04-1.3ZM4,148.49V23.41C4,12.71,12.71,4,23.41,4h38.08v23.96l-25.16,11.71c-1.93.9-3.35,2.39-4.28,4.11-1.06,1.89-1.55,4.08-1.51,6.04l.8,53.47c.06,2.15.71,4.58,2.1,6.59.98,1.44,2.32,2.65,4.02,3.38l24.04,10.29v16.93l-17.66-8.22c-2.6-1.21-5.57.68-5.57,3.55l.03,32.08h-14.89c-10.7,0-19.41-8.71-19.41-19.41ZM167.89,148.49c0,10.7-8.71,19.41-19.41,19.41h-27.98l-15.59-7.19-1.89-.88v-28.31c.38-.07.75-.16,1.11-.28.8-.23,1.56-.57,2.29-.99.65-.4,1.25-.86,1.77-1.35l9.73,3.87c3.96,1.58,8.05,1.39,11.24-.54.1-.05.18-.12.28-.19,2.93-1.87,4.59-5,4.53-8.65l-1.5-96.81c-.03-1.13-.19-2.2-.52-3.19-.77-2.34-2.32-4.25-4.54-5.5-3.26-1.82-7.36-1.89-11.26-.19l-9.62,4.18c-.54-.5-1.13-.93-1.81-1.3-.19-.1-.39-.21-.59-.31-.37-.17-.74-.33-1.12-.45,0,0,0,0,0,0V4h45.48c10.7,0,19.41,8.71,19.41,19.41v125.08ZM111.14,120.08l-1.4-90.91c-.01-.12-.01-.24-.02-.35,0-.05,0-.09-.01-.14,0-.05-.01-.09-.01-.14,0-.04-.01-.08-.01-.12-.01-.16-.03-.32-.06-.48,0-.11-.03-.22-.04-.33,0-.05,0-.09-.02-.14,0-.02,0-.04,0-.05,0-.05-.02-.11-.03-.16-.02-.11-.05-.23-.07-.34l9.08-3.94.32-.14s.01,0,.02,0c.12-.05.24-.1.36-.15.1-.04.2-.07.29-.1.03,0,.06-.02.08-.03,0,0,0,0,0,0,.13-.05.25-.09.37-.12.13-.04.25-.07.37-.09.88-.21,1.7-.22,2.44-.06.05,0,.09.02.14.03.06.01.12.02.18.04.13.03.26.07.39.12.13.05.26.11.38.17.02,0,.03.02.05.03.02,0,.04.02.05.03.14.07.28.15.41.25.03.02.07.05.1.07.03.03.07.05.1.07.07.05.12.1.18.16.02.02.03.03.05.04h0s.03.03.05.05c0,0,.02,0,.02.02.03.03.06.07.1.11.06.05.11.11.18.19.01.02.03.04.04.06.07.08.12.18.18.27,0,0,.01.02.02.03.04.05.08.11.11.16,0,0,0,.01.01.02,0,.02.02.03.03.05,0,.01.01.03.02.04.05.09.1.19.14.29.01.02.02.04.03.06,0,0,0,0,0,.01,0,0,0,.02,0,.03.05.11.08.21.12.32.01.03.03.07.04.1,0,.03.01.05.02.08.03.09.05.18.07.27,0,0,0,.02,0,.03,0,0,0,0,0,0,.01.04.02.08.03.12,0,.02,0,.05,0,.07,0,.03,0,.06.01.08.02.12.04.25.05.38,0,0,0,.02,0,.03.02.17.04.34.04.52l1.49,96.81v.1c0,.18-.01.36-.03.53-.02.28-.07.54-.13.79,0,0,0,.01,0,.02,0,.01,0,.02,0,.03-.02.1-.05.19-.08.28,0,.01-.01.03-.01.04,0,.02-.02.05-.02.07-.04.12-.09.23-.14.34-.03.07-.05.14-.09.2,0,.01-.01.02-.02.03-.03.07-.07.13-.11.19-.04.06-.07.13-.11.19-.02.02-.03.04-.05.06-.05.07-.1.14-.16.21,0,0,0,.01-.01.02-.02.03-.05.05-.07.08-.07.08-.13.16-.2.23,0,0,0,.01-.01.02-.12.12-.24.22-.37.32-.03.02-.05.04-.08.06-.07.05-.14.1-.21.14-.03.02-.07.04-.1.06-.05.03-.1.06-.15.09-.03.02-.06.04-.09.05h-.01c-.07.03-.13.06-.2.09-.06.03-.11.05-.17.08-.13.05-.27.1-.41.14h-.02s-.04,0-.06.01c-.06.02-.13.03-.19.04-.06.01-.12.03-.18.04-.03,0-.06,0-.09.01-.09.01-.18.03-.28.04-.03,0-.06,0-.08.01-.08,0-.17,0-.26.01-.08,0-.15,0-.23,0-.21,0-.42,0-.64-.03-.17-.02-.34-.05-.52-.08,0,0-.01,0-.02,0,0,0,0,0-.01,0-.07,0-.14-.03-.21-.05-.09-.02-.19-.04-.29-.07-.35-.09-.7-.21-1.06-.35l-9.5-3.79c.02-.1.03-.19.05-.3.01-.07.02-.16.03-.24.02-.09.02-.19.03-.28,0-.09.02-.18.03-.27,0-.08.01-.16.02-.24,0-.11.02-.22.02-.32.01-.19.01-.38.01-.58l-.02-1.41Z"/>
  </g>
</svg>