<?xml version="1.0" encoding="UTF-8"?>
<svg id="Layer_1" data-name="Layer 1" xmlns="http://www.w3.org/2000/svg" viewBox="0 0 146.09 146.09">
  <defs>
    <style>
      .cls-1 {
        fill: #1d1d1b;
      }
    </style>
  </defs>
  <rect class="cls-1" x="10.13" y="33.72" width="9.44" height="9.44"/>
  <rect class="cls-1" x="33.33" y="33.72" width="9.44" height="9.44"/>
  <rect class="cls-1" x="56.53" y="33.72" width="9.44" height="9.44"/>
  <rect class="cls-1" x="80.12" y="33.72" width="9.44" height="9.44"/>
  <rect class="cls-1" x="103.32" y="33.72" width="9.44" height="9.44"/>
  <rect class="cls-1" x="126.52" y="33.72" width="9.44" height="9.44"/>
  <rect class="cls-1" x="10.13" y="103.32" width="9.44" height="9.44"/>
  <rect class="cls-1" x="56.53" y="103.32" width="9.44" height="9.44"/>
  <rect class="cls-1" x="80.12" y="103.32" width="9.44" height="9.44"/>
  <rect class="cls-1" x="103.32" y="126.52" width="9.44" height="9.44"/>
  <rect class="cls-1" x="126.52" y="103.32" width="9.44" height="9.44"/>
  <rect class="cls-1" x="33.33" y="10.13" width="9.44" height="9.44"/>
  <rect class="cls-1" x="103.32" y="10.13" width="9.44" height="9.44"/>
  <rect class="cls-1" x="33.33" y="56.53" width="9.44" height="9.44"/>
  <rect class="cls-1" x="33.33" y="80.12" width="9.44" height="9.44"/>
  <rect class="cls-1" x="33.33" y="103.32" width="9.44" height="9.44"/>
  <rect class="cls-1" x="33.33" y="126.52" width="9.44" height="9.44"/>
  <rect class="cls-1" x="103.32" y="56.53" width="9.44" height="9.44"/>
  <rect class="cls-1" x="103.32" y="80.12" width="9.44" height="9.44"/>
  <rect class="cls-1" x="103.32" y="103.32" width="9.44" height="9.44"/>
</svg>