<?xml version="1.0" encoding="UTF-8"?>
<svg id="Layer_1" data-name="Layer 1" xmlns="http://www.w3.org/2000/svg" viewBox="0 0 800 800">
  <defs>
    <style>
      .cls-1 {
        fill: #c1c1c6;
      }
    </style>
  </defs>
  <path class="cls-1" d="M194.74,247.11H40.53c-15.62,0-28.33,12.71-28.33,28.33v495.39c0,15.62,12.71,28.32,28.33,28.32h154.2c15.62,0,28.33-12.71,28.33-28.33v-495.39c0-15.62-12.71-28.33-28.33-28.33ZM191.19,767.28H44.08v-488.29h147.11v488.29Z"/>
  <path class="cls-1" d="M200.82,35.31C178.58,13.09,149.06.84,117.69.84,52.8.84,0,53.59,0,118.42s52.8,117.62,117.69,117.62,117.61-52.77,117.61-117.62c0-31.36-12.24-60.88-34.48-83.11ZM117.69,204.17c-47.32,0-85.82-38.47-85.82-85.75S70.37,32.72,117.69,32.72c22.86,0,44.38,8.93,60.59,25.14,16.21,16.21,25.14,37.72,25.14,60.57,0,47.28-38.46,85.75-85.74,85.75Z"/>
  <path class="cls-1" d="M764.37,320.77c-33.64-57.04-93.33-85.97-177.41-85.97-54.17,0-93.53,18.48-119.72,37.55-1.54-14.17-13.58-25.24-28.16-25.24h-147.68c-15.62,0-28.33,12.71-28.33,28.33v495.39c0,15.62,12.71,28.32,28.33,28.32h153.87c15.62,0,28.32-12.71,28.32-28.32v-245.1c0-83.09,22.52-98.83,64.07-98.83s51.75,22.16,51.75,103.08v240.86c0,15.62,12.71,28.32,28.32,28.32h153.92c15.62,0,28.32-12.71,28.32-28.32v-271.73c0-54.9-4.05-124.79-35.63-178.33ZM768.13,767.28h-146.83v-237.31c0-32.28-.9-65.91-11.6-91.04-12.41-29.14-36.64-43.91-72.02-43.91-84.55,0-95.95,66.07-95.95,130.71v241.55h-146.77v-488.29h140.58v28.63c0,6.57,4.03,12.47,10.15,14.85,6.12,2.39,13.08.77,17.52-4.07,17.73-19.31,57.38-51.72,123.75-51.72,159.22,0,181.17,111.71,181.17,232.43v268.18h0Z"/>
  <path class="cls-1" d="M76.49,568.92c-8.8,0-15.94,7.13-15.94,15.94v148.21c0,8.8,7.13,15.94,15.94,15.94s15.94-7.13,15.94-15.94v-148.21c0-8.8-7.13-15.94-15.94-15.94Z"/>
  <path class="cls-1" d="M76.49,501.99c-8.8,0-15.94,7.13-15.94,15.94v14.34c0,8.8,7.13,15.94,15.94,15.94s15.94-7.13,15.94-15.94v-14.34c0-8.8-7.13-15.94-15.94-15.94Z"/>
</svg>