<?xml version="1.0" encoding="UTF-8"?>
<svg id="Layer_1" data-name="Layer 1" xmlns="http://www.w3.org/2000/svg" viewBox="0 0 800 800">
  <defs>
    <style>
      .cls-1 {
        fill: #fff;
      }
    </style>
  </defs>
  <path class="cls-1" d="M579.22,0H220.77C99.04,0,0,99.04,0,220.77v358.46c0,121.73,99.04,220.77,220.77,220.77h358.46c121.74,0,220.77-99.04,220.77-220.77V220.77C800,99.04,700.96,0,579.22,0ZM729.02,579.23c0,82.6-67.2,149.79-149.8,149.79H220.77c-82.59,0-149.79-67.19-149.79-149.79V220.77c0-82.59,67.19-149.79,149.79-149.79h358.46c82.6,0,149.8,67.2,149.8,149.79v358.46h0Z"/>
  <path class="cls-1" d="M400,193.87c-113.67,0-206.14,92.47-206.14,206.14s92.47,206.13,206.14,206.13,206.14-92.47,206.14-206.13-92.47-206.14-206.14-206.14ZM400,535.15c-74.52,0-135.16-60.63-135.16-135.15s60.63-135.16,135.16-135.16,135.16,60.63,135.16,135.16c0,74.52-60.64,135.15-135.16,135.15Z"/>
  <path class="cls-1" d="M614.78,133.68c-13.68,0-27.11,5.54-36.77,15.24-9.71,9.65-15.28,23.09-15.28,36.81s5.58,27.11,15.28,36.81c9.65,9.65,23.09,15.24,36.77,15.24s27.11-5.58,36.81-15.24c9.7-9.7,15.24-23.14,15.24-36.81s-5.54-27.16-15.24-36.81c-9.65-9.7-23.09-15.24-36.81-15.24Z"/>
</svg>