<?xml version="1.0" encoding="UTF-8"?>
<svg id="OBJECT" xmlns="http://www.w3.org/2000/svg" viewBox="0 0 32 32">
  <defs>
    <style>
      .cls-1 {
        fill: #231f20;
      }
    </style>
  </defs>
  <g>
    <g id="Layer_2" data-name="Layer 2">
      <g id="Layer_1-2" data-name="Layer 1-2">
        <polygon class="cls-1" points="17.23 14.57 20.29 18.91 18.13 18.91 16 15.79 17.23 14.57"/>
        <polygon class="cls-1" points="25.51 18.91 23.35 18.91 19.09 12.72 20.31 11.48 25.51 18.91"/>
        <path class="cls-1" d="M20.06,11.14c-1.69,1.72-3.39,3.44-5.09,5.16v-2.1c1.28-1.37,2.1-2.21,2.9-3.06h2.19Z"/>
        <path class="cls-1" d="M12.8,11.14v3.68h0v4.08h1.83v-7.77h-1.83ZM11.54,17.17l.84-1.63v-3.45c-.56,1.15-1.11,2.31-1.67,3.46l.83,1.62ZM8.04,11.14h-1.74v.06l3.41,6.65h1.49c.05-.08.09-.18.14-.26l-3.3-6.45ZM8.11,15.57l-1.83-3.58v6.92h1.83v-3.34Z"/>
      </g>
    </g>
    <path class="cls-1" d="M27.17,2.85v.7h1.84v1.56h.7v-2.26h-2.54ZM2.29,2.85v2.26h.7v-1.56h1.95v-.7h-2.65Z"/>
  </g>
  <g>
    <polygon class="cls-1" points="24.23 11.98 23.46 11.98 22.76 12.31 23.53 12.31 24.23 11.98"/>
    <polygon class="cls-1" points="23.53 13.05 24.22 12.73 23.46 12.73 22.77 13.05 23.53 13.05"/>
    <path class="cls-1" d="M21.2,11.14h-.59s4.78,6.8,4.78,6.8v-6.8h-4.19ZM24.95,13.04l-.39.43h0s0,0,0,0h0s-.26,0-.26,0h0s-1.56,0-1.56,0h0s0,0,0,0h-.02v-.4s0,0,0,0c0,0,0-.01,0-.02l.68-.33h-.68v-.42h0,0l.68-.33h-.68v-.42h1.59v.02s0,0,0,0v.4h0,0l-.68.33h.66s.01,0,.02,0h.01v.42h0l-.68.33h.94v-1.5h.42l-.02,1.48Z"/>
    <rect class="cls-1" x="24.29" y="13.09" width=".26" height=".34"/>
  </g>
  <polygon class="cls-1" points="29.01 28.45 27.17 28.45 27.17 29.15 29.71 29.15 29.71 26.68 29.01 26.68 29.01 28.45"/>
  <polygon class="cls-1" points="2.99 28.45 2.99 26.68 2.29 26.68 2.29 29.15 4.94 29.15 4.94 28.45 2.99 28.45"/>
</svg>