<?xml version="1.0" encoding="UTF-8"?>
<svg id="Layer_1" data-name="Layer 1" xmlns="http://www.w3.org/2000/svg" viewBox="0 0 338.09 164.35">
  <defs>
    <style>
      .cls-1 {
        fill: #f15b2b;
        stroke-width: 0px;
      }
    </style>
  </defs>
  <path class="cls-1" d="m117.12,19.84v55.83h.02v61.93h27.78V19.84h-27.8Zm-19.08,91.36l12.73-24.67v-52.26c-8.43,17.51-16.79,35.01-25.27,52.4l12.54,24.53ZM44.98,19.84h-26.43v.85l51.7,100.83h22.58c.78-1.18,1.35-2.7,2.12-3.89L44.98,19.84Zm1.06,67.1l-27.69-54.24v104.9h27.79v-40.61l-.1-10.05Z"/>
  <path class="cls-1" d="m184.19,71.78l-18.53,18.44,32.22,47.38h32.8l-46.49-65.82Zm9.84-51.94c-12.16,12.86-24.51,25.55-43.99,46.36v31.81c25.85-26.06,51.51-52.12,77.17-78.17h-33.18Z"/>
  <path class="cls-1" d="m231,24.91l-18.53,18.77,64.56,93.92h32.8L231,24.91Z"/>
</svg>