<?xml version="1.0" encoding="UTF-8"?>
<svg id="OBJECT" xmlns="http://www.w3.org/2000/svg" viewBox="0 0 32 32">
  <defs>
    <style>
      .cls-1 {
        fill: #efaf21;
      }
    </style>
  </defs>
  <path class="cls-1" d="M29.87,11.09c3.88,11.95-8.2,23.12-19.88,17.49-1.86-.9-6.6-4.38-5.65-6.66.72-1.73,3.34-6.03,4.47-7.69.4-.59,1.12-1.87,1.79-2.05l1.34.28c3.02,2.28,5.65,6.7,8.51,8.85.58.44,1.09.95,1.91.87,2.01-.21,5.77-9.54,7.5-11.08Z"/>
  <path class="cls-1" d="M9.4,10.16l-6.03,10.28c-.9.1-.55,0-.7-.5C-1.25,6.91,14.13-3.67,25.16,4.87c.85.66,3.28,3,3.33,4,.02.51-4.12,8.21-4.74,9.11-.82,1.2-1.44,2.39-2.95,1.26-2.21-1.66-8.05-9.36-9.94-9.53-.49-.04-1.07.13-1.45.44Z"/>
</svg>