<svg xmlns="http://www.w3.org/2000/svg" width="32.713" height="28.748" viewBox="0 0 32.713 28.748"><defs><style>.a{fill:#ccb87d;}</style></defs><path class="a" d="M247.969,205.347a.876.876,0,0,0-.637.276.955.955,0,0,0-.264.662V216a.923.923,0,0,0,.9.938.874.874,0,0,0,.634-.276.955.955,0,0,0,.264-.662v-9.718A.922.922,0,0,0,247.969,205.347Zm22.11,0a.874.874,0,0,0-.634.276.953.953,0,0,0-.264.662V216a.922.922,0,0,0,.9.938.876.876,0,0,0,.637-.276.955.955,0,0,0,.264-.662v-9.718A.923.923,0,0,0,270.079,205.347Zm4.008,5.8a.555.555,0,0,1-.54.563H272.6V215.4a.525.525,0,1,1-1.05,0v-8.079a.525.525,0,1,1,1.05,0v3.265h.944A.555.555,0,0,1,274.087,211.144Zm-5.4-5.9v11a1.522,1.522,0,0,1-.422,1.058,1.4,1.4,0,0,1-1.013.44,1.472,1.472,0,0,1-1.434-1.5V211.53H252.232v4.714a1.523,1.523,0,0,1-.422,1.058,1.4,1.4,0,0,1-1.013.44,1.472,1.472,0,0,1-1.434-1.5v-11a1.523,1.523,0,0,1,.422-1.058,1.4,1.4,0,0,1,1.013-.44,1.472,1.472,0,0,1,1.435,1.5V210.4h13.583v-5.155a1.522,1.522,0,0,1,.422-1.058,1.4,1.4,0,0,1,1.013-.44A1.472,1.472,0,0,1,268.684,205.248Zm-22.19,2.068V215.4a.525.525,0,1,1-1.05,0v-3.687h-.955a.564.564,0,0,1,0-1.127h.955v-3.265a.525.525,0,1,1,1.05,0Z" transform="matrix(0.819, -0.574, 0.574, 0.819, -316.698, -9.692)"/></svg>