<?xml version="1.0" encoding="UTF-8"?>
<svg id="OBJECT" xmlns="http://www.w3.org/2000/svg" xmlns:xlink="http://www.w3.org/1999/xlink" viewBox="0 0 32 32">
  <defs>
    <style>
      .cls-1 {
        fill: #fff;
      }

      .cls-2 {
        fill: none;
      }

      .cls-3 {
        fill: #13131f;
      }

      .cls-4 {
        clip-path: url(#clippath);
      }
    </style>
    <clipPath id="clippath">
      <path class="cls-2" d="M.48,13.96c.11.35.21.69.3,1.02.09.34.17.67.24,1,.02.1.04.19.06.29.12.39.19.8.26,1.21.01.08.03.17.04.25,0,.15.03.3.07.45,0,.24,0,.49.05.72,0,.07,0,.15,0,.22,0,.11.02.22.03.32.02.11.04.21.07.32l.04.14s.03.09.05.13c.24.72.63,1.42,1.16,2.05.06.08.12.17.18.25.07.08.13.17.2.25.03.04.06.08.1.12l.11.12c.07.08.14.16.22.24.08.08.16.15.23.23.04.04.08.08.12.12l.13.11c.07.06.14.12.21.18.04.14.08.29.12.43.02.07.05.14.07.22-.17-.05-.35-.11-.53-.17.04.07.09.15.13.21.05.07.1.13.14.18.04.05.08.09.11.12.03.03.04.04.04.04.11.06.22.12.33.18,0,.01.01.02.02.04.03.06.06.12.09.19l.05.09v.02s.04.04.04.04l.03.05c.08.13.16.27.26.4l.2.25s.07.08.11.12l.12.12c.55.55,1.26,1,2.03,1.33.77.33,1.61.54,2.45.67.12.02.24.04.36.06.06.01.12.02.18.03l.18.02c.12.01.24.03.37.04.12.01.25.02.37.03.25.02.5.02.76.02.12.02.25.04.37.06l.37.06c1.37.2,2.8.31,4.15.15.11-.01.22-.03.33-.04.11-.02.22-.04.33-.06.66-.08,1.31-.17,1.93-.31h.09c.13-.02.25-.02.4-.05.29-.03.57-.08.84-.13.54-.11,1.07-.25,1.56-.44.87-.32,1.64-.74,2.31-1.2.12-.01.24-.03.36-.04.69-.26,1.28-.6,1.85-.93.57-.33,1.11-.63,1.76-.86.09-.04.19-.08.28-.11.06-.08.13-.14.19-.21.07-.06.14-.12.22-.17.16-.07.32-.14.48-.22.08-.04.15-.08.23-.12l.12-.06.11-.07.17-.1s.07-.04.11-.06c.04-.02.07-.05.1-.07.07-.05.13-.1.2-.16.12-.11.22-.23.32-.36.09-.13.18-.25.25-.39l.11-.2.05-.1.05-.1c.04-.08.07-.15.11-.23.23-.31.44-.64.63-.97.1-.17.18-.34.27-.51l.12-.26c.04-.09.08-.17.12-.26l.11-.23c.04-.62.15-1.21.31-1.79.02-.08.05-.17.07-.25.03-.17.07-.35.12-.53.04-.18.11-.35.16-.53.02-.07.05-.14.07-.22.23-.48.19-.95.09-1.41-.1-.47-.26-.93-.28-1.43,0-.08-.02-.15-.03-.22-.11-.52-.49-.97-1.07-1.4.03.09.33.23.06.39-.13-.36-.29-.72-.48-1.06-.05-.09-.1-.17-.15-.26.14.06.27.13.41.2.14.07.28.15.41.23.55.31,1.07.71,1.47,1.26-.02-.06-.07-.13-.12-.21-.02-.04-.06-.08-.09-.12-.03-.04-.06-.08-.08-.12-.11-.16-.18-.33-.07-.52-.03-.04-.05-.08-.08-.11-.02-.03-.05-.06-.06-.08-.03-.04-.05-.06-.05-.06-.28-.23-.62-.45-.99-.63-.37-.18-.76-.34-1.15-.47,0,0-.02,0-.02,0-.31-.42-.67-.82-1.07-1.2-.28-.26-.57-.51-.88-.75-.02-.03-.05-.06-.07-.09-.07-.09-.14-.17-.21-.26,1.13.67,2.1,1.49,3.55,1.72-.25-.73-.92-1.3-1.72-1.78-.4-.24-.83-.45-1.27-.64-.43-.19-.86-.37-1.26-.55l-.26-.1c-.09-.03-.17-.07-.26-.1-.17-.07-.34-.14-.51-.22-.17-.07-.35-.14-.52-.22-.1-.04-.2-.08-.3-.12-.05-.02-.1-.04-.16-.06l-.15-.06c-.38-.23-.81-.41-1.27-.54-.65-.3-1.37-.51-2.13-.61-.1-.03-.21-.05-.32-.07-.11-.02-.22-.03-.33-.05-.06,0-.11-.01-.17-.02-.06,0-.12,0-.18,0-.1-.04-.2-.09-.3-.13-.14-.07-.28-.12-.42-.18-.14-.06-.29-.12-.43-.16-.3-.09-.6-.17-.92-.18-.1,0-.21,0-.32,0-.39-.01-.78-.04-1.17.02-.1.02-.19.04-.28.06-.09.03-.18.06-.27.11-.08.04-.15.08-.23.13-.04,0-.08-.01-.13-.02-.08,0-.16-.02-.24-.02-.43-.13-.87-.23-1.34-.29-.26-.04-.52-.06-.79-.07-.12,0-.26,0-.4,0-.14,0-.27,0-.41,0-.12,0-.24,0-.36.02-.87.22-1.67.45-2.49.62-.12.02-.23.05-.35.07-.47.13-.97.22-1.49.3-.1.02-.21.03-.31.05-.71.06-1.32.31-1.89.62-.57.31-1.1.67-1.7,1.01-.09.05-.18.11-.26.17-.22.16-.4.36-.53.57-.31.18-.64.36-.99.51-.1.05-.21.1-.31.15-.06.09-.13.17-.2.25-.07.08-.15.14-.23.21-.35.19-.69.39-1,.61-.06.04-.12.09-.19.13-.32.22-.57.5-.76.79-.19.3-.33.62-.44.93-.03.09-.06.18-.09.27-.05.1-.09.19-.14.29-.04.1-.08.19-.12.3-.03.1-.07.2-.1.3-.03.1-.05.21-.08.31-.1.42-.14.84-.16,1.27v.14s0,.14,0,.14ZM26.02,8.6s-.06-.02-.08-.03c-.08-.03-.17-.06-.25-.1l-.26-.1c-.16-.07-.33-.14-.49-.21-.64-.3-1.26-.63-1.9-.94-.01,0-.03-.01-.04-.02.19.04.37.08.56.13.02,0,.04,0,.05.01.01,0,.03.02.04.03.13.08.25.15.39.22.13.07.26.14.39.2.13.06.27.12.42.16.07.02.15.05.22.07.07.02.15.04.22.06.17.1.33.22.48.33.06.04.11.09.17.13l.07.06ZM25.12,9.07c.07.03.12.07.15.12-.04,0-.09,0-.13,0-.02-.05-.03-.1-.06-.14.01,0,.03.02.05.02ZM28.09,10.27s-.08-.03-.12-.04c-.12-.03-.19-.09-.21-.18,0,0,0,0,0,0,.11.08.22.15.34.23ZM29.72,20.78s.1-.08.15-.13c-.07.1-.15.19-.22.29-.09.11-.17.22-.26.33-.09.11-.18.22-.27.33-.16.19-.32.37-.48.56-.19.2-.38.41-.57.6-.13.14-.27.27-.4.41-.06.02-.11.05-.17.07.26-.2.48-.41.69-.64.2-.24.4-.49.59-.75.2-.26.4-.52.6-.78.02-.02.03-.04.05-.06.1-.08.2-.15.29-.23ZM29.85,16.38c-.06.38-.05.79-.02,1.21-.07.11-.13.22-.2.33,0-.16,0-.31,0-.47-.03.04-.06.07-.09.11.04-.4.19-.79.33-1.18ZM30.18,14.66c-.04.39-.11.78-.21,1.17,0-.04-.02-.08-.03-.12-.02-.04-.03-.08-.01-.11.18-.3.13-.64.26-.94ZM30.72,21.53c-.03.09-.05.19-.06.29-.01.1-.03.21-.03.32-.01,0-.03.02-.04.02-.04.02-.09.04-.13.05-.15-.01-.28-.01-.39,0,.15-.15.29-.29.44-.45.08-.09.15-.17.23-.25,0,0,0,.02,0,.02ZM31.35,12.01c-.05-.04-.1-.07-.15-.11-.13-.11-.25-.23-.35-.36-.06-.08-.11-.16-.16-.24-.03-.32-.17-.6-.36-.85-.03-.05-.07-.09-.11-.13l.13.12c.06.05.11.11.17.17.26.33.48.68.66,1.05.06.12.12.24.17.36ZM30.79,12.82l.05.08c.26.39.44.8.55,1.22l-.03-.07-.02-.06-.02-.05-.09-.2c-.12-.25-.27-.49-.44-.72-.01-.07-.02-.13-.03-.2,0-.03-.01-.05-.02-.08l.06.07ZM31.94,14.16s-.03-.09-.05-.13c-.09-.19-.18-.38-.3-.56-.12-.2-.27-.39-.42-.57,0,0,0,0,0,0,.21.18.41.36.65.51.01.05.02.09.03.14.04.2.07.4.09.6ZM33.48,15.09c-.08-.13-.16-.27-.18-.42,0-.03,0-.06,0-.09.01-.08.05-.16.13-.24-.05-.18-.08-.27-.08-.27-.04-.07-.07-.13-.11-.2,0,0,0,0,0,0,0-.04-.02-.09-.02-.13.03-.19-.01-.36-.1-.51-.03-.15-.07-.31-.11-.46.02.03.04.06.07.09.1.14.19.28.28.42.03.06.06.11.09.17.1.55.09,1.11.04,1.66ZM28.77,24.5c.18-.1.31-.25.33-.45.07-.05.15-.08.23-.11.24-.1.51-.18.77-.29.04-.02.08-.04.11-.07.12-.08.23-.18.31-.28.04-.05.08-.11.11-.17.03-.06.06-.12.08-.18.02-.03.05-.06.06-.09.04-.07.06-.14.07-.23.05-.02.1-.03.15-.05.28-.09.58-.2.66-.39.01-.03.02-.07.02-.11.09-.22.23-.42-.35-.88,0-.03.01-.07.02-.1.29-.54.6-1.07.87-1.61.27-.54.48-1.09.56-1.65.02-.07.04-.13.06-.2.03-.1.05-.19.07-.29.02-.1.04-.19.05-.29.01-.09.01-.17.02-.26.01-.14.02-.29.02-.43.01-.03.02-.05.03-.08.04-.09.08-.19.12-.28.02-.1.04-.21.06-.31.02-.1.04-.21.05-.31.01-.17.03-.33.04-.5.06.08.12.17.18.25-.05.54-.12,1.07-.13,1.59-.01.06-.03.13-.04.19-.04.19-.08.37-.1.55,0,.08-.02.16-.03.24-.09.65-.2,1.3-.35,1.95l-.09.25c-.13.33-.27.66-.43.98-.15.33-.32.65-.49.97-.02.08-.05.16-.07.23-.05.14-.11.27-.17.4-.07.13-.15.25-.25.37-.05.06-.11.11-.17.17-.06.05-.12.11-.19.15-.14.09-.29.18-.49.24l-.14.11-.04.03-.04.03-.09.06c-.06.04-.12.08-.17.13-.12.08-.24.16-.35.24-.06.06-.13.11-.2.17-.07.05-.14.11-.21.16-.09.03-.19.06-.29.08-.06.01-.11.03-.17.04ZM28.62,23.44c.17-.14.35-.28.52-.43.02-.02.04-.04.07-.06-.01.02-.03.04-.04.05,0,.05,0,.08,0,.12-.04.14-.18.21-.35.25-.06.02-.13.03-.19.05ZM27.42,24.9s.03-.03.05-.05c.03-.03.05-.05.08-.07.05,0,.1,0,.16,0,.05,0,.1,0,.15,0-.15.04-.29.08-.44.13ZM26.92,24.86c.2-.18.4-.35.61-.53.33-.27.66-.54.99-.81-.12.19-.2.42-.31.62-.13.21-.31.4-.62.45-.04.01-.09.02-.14.03,0,.05-.03.09-.05.12-.02.03-.05.06-.08.08-.14.02-.27.03-.4.05ZM26.8,22.97c-.08.06-.17.11-.26.16-.04.03-.09.05-.14.07h0s0,0,0,0c-.02,0,.03-.01.02,0h0s0,0,0,0h0s-.02.01-.02.01l-.05.02-.05.02s-.03.02-.04.02c-.08.03-.18.08-.29.11-.03.01-.07.02-.1.03.06-.05.13-.11.19-.16.35-.18.7-.38,1.04-.59.09-.05.18-.11.27-.17-.02.02-.04.04-.06.06-.15.15-.32.28-.49.4ZM26.62,25.14s.03-.02.04-.04c.03,0,.06,0,.09,0-.04.01-.08.03-.12.04ZM23.81,25.91c.15-.09.3-.19.42-.31.07-.06.13-.13.18-.2.05-.07.1-.15.14-.23.02-.04.03-.08.05-.12.01-.04.02-.09.03-.13,0-.07.01-.14,0-.22,0,0,.02,0,.03,0,.09-.01.17-.03.26-.04.3-.02.58-.07.83-.17.13-.04.25-.09.37-.15.12-.06.24-.12.35-.18.12-.06.23-.13.35-.19-.61.56-1.27,1.09-1.99,1.58-.15.11-.29.21-.45.32-.2.02-.39.04-.59.05ZM21.35,4.9c-.26,0-.53,0-.79,0-.16-.05-.33-.09-.49-.14.02,0,.04,0,.06,0,.12,0,.24-.01.35,0,.1,0,.19,0,.28.01.09.01.18.02.27.05.09.02.18.05.26.08.02,0,.03.01.04.02ZM22.16,6.35c-.34-.02-.67-.04-1.01-.05-.08-.03-.15-.05-.23-.08l-.08-.03s-.06-.02-.09-.03l-.17-.05c-.2-.06-.41-.11-.61-.16.02,0,.03-.02.05-.02.41.02.81.04,1.22.05.03.01.07.02.1.04.22.06.44.13.66.19.05.05.1.09.16.14ZM21.69,25.36c-.06.01-.12.03-.19.04-.02,0-.05,0-.07,0,0,0,0,0,.01,0,.07,0,.15-.02.22-.03,0,0,.02,0,.02,0ZM20.9,8.61c0-.1.07-.17.19-.18.15-.01.21.08.23.17.01.09-.06.17-.19.18-.15.01-.21-.07-.23-.16ZM20.57,26.13c.42-.19.8-.42,1.12-.71-.04,0-.09,0-.13-.01.07-.02.13-.04.2-.06-.01,0-.03,0-.04,0,.26-.04.53-.09.79-.15l.21-.05c.07-.02.15-.04.22-.06l.05-.02.05-.02.1-.03.05-.02h.02s.02-.01.02-.01h.01s.1-.04.1-.04c.04-.01.07-.03.11-.05.04,0,.07-.02.11-.03-.02,0-.03.02-.05.03-.1.06-.19.12-.28.19-.36.28-.72.62-1.15.8-.08.04-.17.09-.27.12-.19.07-.39.11-.6.14-.12.02-.24.02-.36.03-.1-.02-.2-.04-.29-.06ZM18.08,27.31s.03,0,.05,0c.38-.05.76-.11,1.12-.2.23.11.48.18.72.22-.02,0-.03,0-.05,0h-.2s-.05.02-.05.02h-.03s-.02,0,.01,0h0s0,0,0,0h-.01s-.09,0-.09,0h-.19c-.12,0-.25,0-.37,0-.3,0-.6-.02-.9-.04ZM15.83,4.28h-.03s-.03,0-.03,0h-.01c-.13.02-.25.04-.37.06-.13.02-.27.05-.41.08-.07.01-.13.03-.2.05l-.19.05c-.36.1-.7.22-1.02.36-.12,0-.25,0-.37.01-.83.05-1.65.23-2.39.34-.11.05-.22.09-.33.13-.11.04-.22.06-.34.09-.11.03-.23.05-.34.07-.02,0-.04,0-.06,0,.23-.07.46-.14.69-.22.09-.02.18-.04.26-.06.26-.06.52-.12.77-.2l.33-.1c.88-.26,1.76-.51,2.68-.66.12-.01.24-.02.36-.03.12,0,.24-.01.36-.01.12,0,.24,0,.36,0,.12,0,.25,0,.37.02h-.04s-.05,0-.05,0ZM12.63,26.12c.1.05.2.09.29.13l.2.09s-.03,0-.05,0c-.17-.05-.34-.1-.51-.16.03-.02.05-.04.08-.06ZM12.63,6.19c.1,0,.2-.01.3-.02.37-.02.74-.03,1.11-.05-.06.01-.11.03-.17.04-.09.02-.18.05-.27.07-.09.02-.17.05-.26.07-.07.02-.13.04-.2.05-.28.02-.57.03-.85.05.11-.08.22-.15.34-.22ZM15.87,6.04c-.17.02-.34.04-.51.05-.26.03-.52.06-.79.09-.01-.02-.02-.05-.03-.07.19,0,.39,0,.58,0,.25-.03.51-.05.76-.07,0,0,0,0,.01,0-.01,0-.02,0-.03,0ZM16.27,26.21c-.12,0-.23.01-.35.02-.19,0-.38.01-.58,0-.38-.02-.77-.08-1.14-.18-.1-.03-.21-.06-.31-.09-.1-.04-.2-.07-.3-.11h-.02c.07-.02.14-.02.21-.02.32.07.65.13.99.17.09.01.17.03.26.03.09,0,.17.02.26.03.09,0,.17.02.26.03.09,0,.17.01.26.02.18,0,.35.03.53.03.08,0,.17,0,.26.01.05,0,.11,0,.17,0-.04,0-.08.01-.13.02-.06,0-.12.01-.18.02-.06,0-.12,0-.18.01ZM6.7,25.58s.08.02.11.03c.44.09.88.16,1.31.21.08.03.16.05.25.08.11.02.22.04.33.07.06.01.12.03.19.04.02.01.05.03.07.04.14.07.27.15.43.21.07.03.15.06.23.09l.12.04s.07.02.1.03c.56.2,1.15.38,1.76.5.34.07.69.11,1.03.13.03,0,.07,0,.1,0,.06.02.12.04.18.06.14.05.29.09.43.14.46.15.94.3,1.43.43l.18.05.19.05c.12.03.25.06.37.09.25.06.5.12.76.17.05,0,.09.02.14.03-.07,0-.13.01-.19.02-.2.02-.41.05-.61.06-.21,0-.41.02-.62.01-.21,0-.42-.01-.63-.03-.24-.02-.48-.04-.72-.08-.71-.21-1.42-.38-2.12-.55-.7-.17-1.39-.33-2.04-.53-.66-.2-1.28-.43-1.84-.74-.34-.19-.66-.4-.93-.64ZM8.71,8.29c.08-.03.16-.07.24-.1-.02.02-.03.03-.05.05l-.1.1-.1.1-.12.13-.14.03-.15.03h-.08s-.03.02-.03.02h-.02s-.04.01-.04.01c-.11.02-.22.04-.34.06.01-.01.03-.02.04-.04l.06-.03.14-.06c.22-.11.45-.21.67-.3ZM8.39,7.4c-.08.04-.16.09-.24.13l-.22.14-.03.02.16-.18.08-.07c.15-.05.29-.1.44-.14-.06.03-.13.07-.19.1ZM7.15,23.02c.29.22.59.43.89.63-.13,0-.25,0-.35-.04-.06,0-.11-.02-.16-.04-.1-.04-.18-.1-.25-.17-.04-.04-.07-.09-.1-.13,0-.09,0-.18-.02-.25ZM5.91,11.08c.31-.57.71-1.13,1.18-1.65.23-.05.47-.1.71-.14.05,0,.1-.02.15-.02-.27.24-.54.46-.8.7-.13.12-.27.23-.4.36-.13.12-.27.24-.4.36-.13.12-.26.25-.4.37-.01.01-.03.02-.04.03ZM2.13,14.2s-.04.06-.05.09v-.02c0-.24.02-.48.05-.71.04-.09.08-.18.13-.27.12-.26.24-.52.41-.76.16-.27.36-.52.58-.76l.13-.13.06-.07h0s0-.01,0-.01h0s0,0,0,0c0,0-.01,0,0,0h0s.02-.02.02-.02l.04-.03s.04-.04.06-.06c-.41.62-.75,1.27-1.02,1.94l-.13.25c-.1.19-.19.38-.27.57ZM2.54,15.68s0,.07,0,.1c0,.06,0,.13,0,.19h0s0-.02,0-.02v-.03s-.03-.05-.04-.08c.02-.05.04-.11.06-.16ZM3.09,19.18c0,.09.02.19.03.28,0-.01-.02-.02-.02-.03-.02-.02-.03-.05-.05-.07,0-.03-.01-.06-.02-.09-.02-.06-.03-.11-.04-.17.03.03.06.06.1.09ZM3.29,10.9c.04-.08.09-.16.14-.24.04-.06.07-.12.11-.17.04-.06.08-.11.12-.17.08-.11.17-.22.25-.33.09-.11.17-.21.26-.32.05-.05.1-.11.14-.16l.07-.08.07-.07c.06-.06.11-.13.17-.19.06-.06.12-.12.19-.18.06-.06.13-.12.2-.18.07-.06.14-.12.21-.17.09-.05.17-.1.26-.14.09-.04.18-.09.27-.13.18-.08.37-.16.56-.23.27-.12.54-.24.83-.35-.51.45-1.04.87-1.54,1.31-.23.2-.45.4-.65.61-.1.06-.19.11-.28.17-.33.21-.65.42-.95.66-.15.12-.29.23-.43.36ZM5.68,24.48s.08.04.12.06c.1.04.2.09.29.14.02.01.04.02.06.04-.1-.02-.21-.04-.32-.06-.01,0-.03,0-.04,0-.03-.03-.05-.07-.07-.1-.01-.02-.03-.05-.04-.07ZM5.12,12.59c.03-.07.05-.13.08-.2.15-.21.3-.41.47-.6.04-.05.08-.1.13-.15l.12-.12c-.27.36-.54.72-.79,1.08ZM4.72,11.68c-.04.05-.1.11-.14.16-.05.05-.09.1-.14.16,0,0,0,0-.01.01.03-.12.06-.24.09-.38-.04.02-.05.1-.09.14-.04.04-.12.05-.29-.04h0s.04-.03.05-.05c.46-.32.7-.76,1.01-1.18.04-.06.09-.12.13-.18,0,0,0,0,0,0,.05-.04.1-.08.15-.12.03-.02.05-.05.08-.07.09-.08.19-.16.28-.24.12-.06.24-.11.37-.17,0,0,0,0,0,0-.05.06-.1.11-.15.18-.06.08-.13.16-.19.23-.01.02-.02.03-.04.05-.06.06-.12.13-.18.19-.06.1-.12.19-.18.29-.08.12-.16.24-.24.35-.08.12-.17.23-.25.34-.04.06-.09.11-.13.16-.04.05-.09.11-.13.16ZM3.75,14.77l-.02.23v.05c-.04.1-.08.19-.12.29-.03.08-.07.16-.11.25,0-.03,0-.06,0-.09-.04-.11-.09-.22-.14-.33-.03-.24-.04-.48-.03-.72,0-.23.03-.46.06-.69.04-.09.07-.18.11-.27.09-.26.19-.54.48-.74.04-.03.08-.06.11-.1.1-.1.17-.21.23-.35.05-.05.1-.1.15-.16.08-.06.15-.13.23-.19-.08.16-.16.31-.23.47-.18.38-.32.77-.44,1.16-.12.39-.22.79-.29,1.18ZM4.02,17.35s0-.04,0-.06c.02.05.03.1.05.15-.02-.03-.03-.06-.05-.09ZM2.12,19.4v-.07c.04.06.09.11.14.16.04.1.09.2.13.3.19.26.39.52.62.76.04.13.09.25.14.37.19.43.46.83.88,1.14.03.16.05.32.08.48.03.17.06.35.1.52,0,0,0,0-.01-.01-.3-.31-.55-.65-.78-1l-.14-.23c-.54-.51-.88-1.12-1.03-1.74-.02-.09-.04-.18-.06-.27-.02-.09-.04-.18-.05-.28l-.02-.14ZM1.74,15.05c0-.1.02-.21.04-.31,0,.03,0,.06,0,.09,0,.06-.02.13-.03.19,0,.01,0,.02,0,.03ZM.99,13.85c0-.1,0-.19,0-.29,0-.39.03-.78.1-1.17.02-.1.03-.19.06-.29.02-.1.05-.2.07-.29.05-.19.11-.39.18-.58.02-.09.03-.18.05-.27.07-.31.2-.63.4-.9.21-.28.5-.53.89-.71.05-.05.09-.09.14-.13.24-.22.51-.42.75-.62.07-.07.14-.14.21-.21.07-.07.15-.13.23-.2.1-.05.21-.09.32-.13.11-.04.22-.08.33-.11.12-.06.25-.11.38-.16-.06.2-.08.41-.05.63.04-.05.02-.15.06-.23.02-.04.05-.08.1-.1.06-.02.14-.02.25,0,.07-.06.1-.1.1-.1.05-.14.13-.28.2-.43,0,0,.01-.02.02-.03.26-.1.53-.19.79-.28.62-.23,1.21-.46,1.72-.78.11-.03.22-.06.33-.08.06-.01.12-.02.18-.03h.09s.04-.02.04-.02h0s0,0,0,0c0,0,0,0,0,0h0s0,0,0,0h0s0,0,0,0h.01s.02,0,.02,0c.32-.04.64-.07.96-.1-.06.01-.11.03-.17.05-.48.14-.94.34-1.35.6l-.06.05s-.02.01-.02.02c0,0-.02,0-.02.01.09-.17.17-.34.25-.53-.11.08-.13.4-.55.24-.09.05-.14.08-.14.08-.1.13-.2.28-.3.42-.03.05-.07.1-.1.15-.57.26-1.14.52-1.71.8-.09.05-.18.1-.27.14l-.27.15c-.07.07-.14.14-.21.21-.07.07-.14.14-.21.2-.07.07-.13.13-.2.2-.06.07-.13.13-.2.19-.07.05-.13.11-.2.16-.06.06-.13.11-.19.17-.06.05-.12.11-.18.17-.06.06-.12.11-.17.17-.11.12-.22.24-.32.36l-.15.18-.14.19c-.08.1-.15.2-.22.31-.25.35-.44.73-.59,1.12,0,.01-.02.02-.03.04-.05.07-.09.14-.14.21-.04.07-.09.14-.13.21-.08.15-.16.29-.22.44-.22.55-.36,1.11-.41,1.68-.02.19-.03.38-.03.57-.13-.44-.24-.89-.31-1.34Z"/>
    </clipPath>
  </defs>
  <g class="cls-4">
    <g>
      <path class="cls-3" d="M28.26,17.14c.21-.34.43-.71.67-1.09,2.35,3.46,2.52,10.42-.42,14.63-5.6.54-12-3.04-14.42-8.71.47.03.87.05,1.31.07,2.75,4.75,6.84,7.26,12.41,7.5,2.09-4.07,2.17-8.17.46-12.4Z"/>
      <path class="cls-3" d="M13.95,22.56c.19.35.37.7.56,1.06-3.8.79-10.49-3.34-12.41-7.6,2.76-5.85,9.5-8.86,14.72-8.14-.21.37-.4.7-.61,1.07-5.5.03-9.78,2.29-12.75,7.04,2.46,3.84,5.98,5.97,10.49,6.57Z"/>
      <path class="cls-3" d="M27.41,1.75c-3.81-.18-7.35,1.67-11.04,5.72-.18,0-.41.02-.64,0-.19,0-.38-.04-.6-.06C17.37,3.15,23.24.12,27.96.48c3.16,4.2,3.55,11.73-.27,16.85-.23-.41-.43-.77-.63-1.13,2.76-4.77,2.87-9.56.35-14.44Z"/>
      <path class="cls-3" d="M15.36,20.49c.17.37.33.73.5,1.1-3.57.52-8.86-1.67-11.22-5.55,1.11-2.67,5.8-5.86,8.6-5.79-.12.39-.24.76-.37,1.17-2.75.75-5.04,2.17-6.79,4.54,2.39,2.95,5.5,4.39,9.29,4.53Z"/>
      <path class="cls-3" d="M17.95,23.94c.2-.04.39-.09.57-.13.2-.04.39-.09.65-.14,1.98,2,4.36,3.27,7.31,3.62,1.41-3.54,1.05-6.95-.69-10.28.13-.22.24-.42.38-.61.09-.13.21-.24.33-.37,2.42,2.92,2.79,8.97.78,12.45-3.42.4-8.18-2.45-9.32-4.54Z"/>
      <path class="cls-3" d="M17.49,9.76c-.41-.07-.77-.12-1.14-.18,1.61-4.1,7.04-7.1,10.54-6.86,1.63,3.3,1.93,6.71.66,10.38-.36-.38-.63-.67-.95-.99.76-2.76.66-5.47-.54-8.17-3.75.62-6.54,2.56-8.58,5.83Z"/>
      <path class="cls-3" d="M24.63,15.37c-2.61-2.91-5.79-4.32-9.72-4.22.16-.45.28-.79.44-1.23,3.98-.05,7.22,1.45,9.94,4.33-.11.23-.19.41-.29.58-.08.14-.19.28-.37.54Z"/>
      <path class="cls-3" d="M25.83,14.03c.18.19.28.28.36.38.15.18.28.37.47.63-1.94,3.41-4.86,5.48-8.73,6.43-.2-.37-.38-.7-.63-1.14,3.81-.83,6.62-2.86,8.52-6.3Z"/>
      <path class="cls-3" d="M17.86,21.98c-.29.08-.47.14-.67.18-.16.04-.33.05-.6.1-1.99-3.42-2.39-6.99-1.17-10.85.41.03.77.06,1.26.1-1.22,3.69-.85,7.16,1.18,10.47Z"/>
      <path class="cls-3" d="M18.19,9.24c.3-.41.52-.7.8-1.07,3.68.86,6.58,2.83,8.85,5.86-.2.4-.39.78-.62,1.26-2.26-3.2-5.17-5.2-9.03-6.04Z"/>
      <path class="cls-3" d="M15.28,9.38c-1.62,3.49-1.81,6.99-.71,10.7-.48-.03-.88-.06-1.31-.09-1.05-3.65-.83-7.14.65-10.59l1.37-.02Z"/>
      <path class="cls-3" d="M25.83,17.82c.22.47.37.8.56,1.22-2.61,2.71-5.73,4.3-9.47,4.71-.17-.2-.3-.35-.41-.51-.11-.16-.18-.34-.35-.64,3.84-.35,7.02-1.89,9.67-4.78Z"/>
    </g>
  </g>
  <g id="Layer_2" data-name="Layer 2">
    <g id="Layer_1-2" data-name="Layer 1-2">
      <polygon class="cls-1" points="19.01 14.93 23.03 20.63 20.19 20.63 17.4 16.53 19.01 14.93"/>
      <polygon class="cls-1" points="29.89 20.63 27.05 20.63 21.46 12.5 23.06 10.87 29.89 20.63"/>
      <path class="cls-1" d="M22.73,10.43c-2.22,2.26-4.45,4.51-6.69,6.77v-2.76c1.69-1.8,2.76-2.9,3.81-4.02h2.87Z"/>
      <path class="cls-1" d="M13.2,10.43v4.84h0v5.37h2.41v-10.2h-2.41ZM11.54,18.35l1.1-2.14v-4.53c-.73,1.52-1.45,3.03-2.19,4.54l1.09,2.13ZM6.95,10.43h-2.29v.07l4.48,8.74h1.96c.07-.1.12-.23.18-.34l-4.33-8.47ZM7.04,16.24l-2.4-4.7v9.09h2.41v-4.39Z"/>
    </g>
  </g>
</svg>