<?xml version="1.0" encoding="UTF-8"?>
<svg id="OBJECT" xmlns="http://www.w3.org/2000/svg" viewBox="0 0 32 32">
  <defs>
    <style>
      .cls-1 {
        fill: #072077;
      }
    </style>
  </defs>
  <polygon class="cls-1" points="30.05 -.02 33.52 -.02 33.52 33.17 -.06 33.17 -.04 20.47 2.37 18.77 24.95 18.77 18.75 7.75 30.05 -.02"/>
  <path class="cls-1" d="M3.43,18.02l5.51-9.3,1.76-.79,2.68-5.97v10.58c-1.29-.57-2.25-.74-3.52.02-2.07,1.24-1.9,4.16.04,5.45H3.43Z"/>
  <path class="cls-1" d="M23.46,18.02h-4.11c2.15-1.37,2.06-4.66-.34-5.69-1.08-.47-2-.29-3.02.22V4.33l7.47,13.69Z"/>
  <path class="cls-1" d="M14.38,18.02h-.62s0-1,0-1c-1.93,2-5.25.7-4.96-2.16.24-2.41,3.51-3.17,4.96-1.32V.23h.12c-.07.27.5.88.5.93v16.86ZM11.11,13.07c-2.25.36-2.34,3.95-.02,4.32,3.51.56,3.45-4.87.02-4.32Z"/>
  <path class="cls-1" d="M15.49,13.41c.51-.18.89-.73,1.46-.84,5.06-1.03,4.35,7.14-.55,5.1l-.91-.64v1s-.5,0-.5,0V2.46h.12c-.05.23.37.72.37.81v10.14ZM17.33,13.07c-2.76.47-2.21,4.88.94,4.3,2.59-.48,2-4.79-.94-4.3Z"/>
</svg>