<svg xmlns="http://www.w3.org/2000/svg" xmlns:xlink="http://www.w3.org/1999/xlink" viewBox="0 0 257.52 231.06"><defs><style>.cls-1,.cls-8{fill:none;}.cls-2{fill:#969a9e;}.cls-3{fill:url(#New_Pattern_Swatch_3);}.cls-4{fill:#fff;}.cls-5{fill:#dae0e5;}.cls-6,.cls-9{fill:#373a3a;}.cls-7{fill:#f6d84c;}.cls-8,.cls-9{stroke:#373a3a;stroke-linecap:round;stroke-linejoin:round;stroke-width:3px;}</style><pattern id="New_Pattern_Swatch_3" data-name="New Pattern Swatch 3" width="16" height="19" patternTransform="translate(-2123.38 -47.85) scale(0.4)" patternUnits="userSpaceOnUse" viewBox="0 0 16 19"><rect class="cls-1" width="16" height="19"/><polygon class="cls-2" points="16 22.18 10.5 19 16 15.82 21.5 19 16 22.18"/><polygon class="cls-2" points="8 12.68 2.5 9.5 8 6.33 13.5 9.5 8 12.68"/><polygon class="cls-2" points="0 22.18 -5.5 19 0 15.82 5.5 19 0 22.18"/><polygon class="cls-2" points="16 3.18 10.5 0 16 -3.17 21.5 0 16 3.18"/><polygon class="cls-2" points="0 3.18 -5.5 0 0 -3.17 5.5 0 0 3.18"/></pattern></defs><g id="Layer_2" data-name="Layer 2"><g id="icons_design" data-name="icons design"><path class="cls-3" d="M237.35,177.05c-23.15-9.76-74.22-30.89-74.22-30.89v40.29L119.86,157,35.63,202.83C28,207.19,30,214.45,42,221c15.07,8.22,40.15,12.2,56,8.89a26.09,26.09,0,0,0,8.31-3l56.84-23.6v3.84c51.07,13,72.25,11.33,85.92-.35S260.51,186.81,237.35,177.05Z"/><path class="cls-4" d="M27,132.06c14.1,8.14,25.52,27.93,25.52,44.21,0,8.16-2.86,13.89-7.5,16.54s-11,2.27-18-1.8C12.92,182.87,1.5,163.08,1.5,146.79c0-8.3,3-14.09,7.76-16.68C13.84,127.61,20.12,128.07,27,132.06Zm0,48c4.41,2.55,8.41,2.79,11.3,1.12S43,175.9,43,170.77c0-10.2-7.17-22.62-16-27.73-4.34-2.49-8.27-2.77-11.14-1.21S11,147.08,11,152.29C11,162.5,18.19,174.91,27,180Z"/><path class="cls-2" d="M15.89,141.83c-3,1.63-4.87,5.25-4.87,10.46,0,10.21,7.17,22.62,16,27.73,4.41,2.55,8.41,2.79,11.3,1.12S43,175.9,43,170.77c0-10.2-7.17-22.62-16-27.73C22.69,140.55,18.76,140.27,15.89,141.83Z"/><path class="cls-5" d="M16.94,125.68,26.87,120c4.61-2.64,11-2.25,18,1.81C59,130,70.42,149.74,70.42,166c0,8.15-2.88,13.88-7.52,16.54l-11,6.35c8.78,4.67,16.7,5,22.52,1.65,6.13-3.51,9.93-11.09,9.93-21.89,0-21.53-15.11-47.72-33.77-58.49-9.14-5.28-17.38-5.76-23.51-2.56l-.33.19a15.2,15.2,0,0,0-2.88,2.09C20.07,113.31,17.62,118.68,16.94,125.68Z"/><path class="cls-4" d="M28.79,51.36l126,72.76c7.4,4.27,20.32,3.73,28.86-1.19l.31-.19c4.68-2.7,7.07-6.15,7.07-9.42v80.37c0,3.27-2.39,6.73-7.07,9.42l-.31.19c-8.54,4.93-21.46,5.47-28.86,1.2L102.6,174.35l4.6-2.65c6.13-3.52,9.93-11.09,9.93-21.89,0-21.53-15.12-47.71-33.78-58.49-9.3-5.37-17.73-5.89-23.84-2.39l-.59.34a16.22,16.22,0,0,0-6.21-7.35c-4.18-2.41-7.56-.45-7.56,4.36a16.22,16.22,0,0,0,3.24,9L26.68,107.8v0a15.2,15.2,0,0,0-2.88,2.09V44.12C23.81,46.84,25.44,49.42,28.79,51.36Zm94.26,93.29a7.81,7.81,0,0,0,3.44,5.58l.39.19c1.91.87,3.29-.33,3.08-2.66a88.9,88.9,0,0,0-7.09-26.66c-1.06-2.47-3.22-4.23-4.83-3.92s-2,2.54-1,5A74.69,74.69,0,0,1,123.05,144.65Z"/><path class="cls-5" d="M28.79,22.42l126,72.77c7.4,4.27,20.32,3.72,28.86-1.2l.31-.19c4.67-2.69,7.07-6.15,7.07-9.42v28.94c0,3.27-2.39,6.72-7.07,9.42l-.31.19c-8.54,4.92-21.46,5.46-28.86,1.19l-126-72.76c-3.35-1.94-5-4.52-5-7.24V15.18C23.81,17.9,25.44,20.48,28.79,22.42Zm114,86a3.8,3.8,0,0,0,1.91.58c1.7,0,2.9-1.57,2.9-4.22,0-3.54-2.16-7.67-4.81-9.21l-13.2-7.61a3.87,3.87,0,0,0-1.91-.58c-1.71,0-2.9,1.58-2.9,4.23,0,3.54,2.15,7.66,4.81,9.2Z"/><path class="cls-4" d="M27,107.63c6.13-3.2,14.37-2.72,23.51,2.56,18.66,10.77,33.77,37,33.77,58.49,0,10.8-3.8,18.38-9.93,21.89L107.2,171.7c6.13-3.52,9.93-11.09,9.93-21.89,0-21.53-15.12-47.71-33.78-58.49-9.3-5.37-17.73-5.89-23.84-2.39L26.68,107.8v0Z"/><path class="cls-5" d="M39.94,9.56v8.66c0,1.88,1.25,3.78,3.74,5.22,5,2.9,13.12,2.9,18.13,0,2.51-1.44,3.76-3.34,3.76-5.22V9.38c0,1.89-1.26,3.78-3.76,5.22-5,2.9-13.12,2.9-18.13,0C41.26,13.21,40,11.39,39.94,9.56Z"/><path class="cls-6" d="M45.15,86.28a16.22,16.22,0,0,0,3.24,9l10.53-6a16.22,16.22,0,0,0-6.21-7.35C48.53,79.51,45.15,81.47,45.15,86.28Z"/><path class="cls-4" d="M61.81,4.14A7.93,7.93,0,0,1,65,7.27a4.64,4.64,0,0,1,.53,2.11c0,1.89-1.26,3.78-3.76,5.22-5,2.9-13.12,2.9-18.13,0-2.42-1.39-3.67-3.21-3.74-5s1.16-3.93,3.74-5.42A18.61,18.61,0,0,1,53.07,2,18.27,18.27,0,0,1,61.81,4.14ZM56,11.23c1.77-1,1.77-2.69,0-3.71a7.06,7.06,0,0,0-6.42,0c-1.77,1-1.77,2.68,0,3.71A7.12,7.12,0,0,0,56,11.23Z"/><path class="cls-4" d="M49.54,7.52c-1.77,1-1.77,2.68,0,3.71a7.12,7.12,0,0,0,6.42,0c1.77-1,1.77-2.69,0-3.71A7.06,7.06,0,0,0,49.54,7.52Z"/><path class="cls-6" d="M51.85,188.92l11-6.35c4.64-2.66,7.52-8.39,7.52-16.54,0-16.29-11.44-36.08-25.54-44.22-7-4.06-13.4-4.45-18-1.81L9.25,130.1c4.58-2.5,10.87-2,17.78,2,14.1,8.14,25.52,27.93,25.52,44.21,0,8.16-2.86,13.89-7.5,16.54Z"/><path class="cls-4" d="M65.57,9.38v8.84c0,1.88-1.25,3.78-3.76,5.22-5,2.9-13.12,2.9-18.13,0-2.49-1.44-3.74-3.34-3.74-5.22V9.56c-.09-2,1.16-3.93,3.74-5.42A18.61,18.61,0,0,1,53.07,2V2A34.29,34.29,0,0,0,31.18,5.58l-.31.18c-4.67,2.7-7.06,6.15-7.06,9.42,0,2.72,1.63,5.3,5,7.24l126,72.77c7.4,4.27,20.32,3.72,28.86-1.2l.31-.19c4.67-2.69,7.07-6.15,7.07-9.42,0-2.71-1.64-5.29-5-7.23L65,7.27A4.64,4.64,0,0,1,65.57,9.38Z"/><path class="cls-7" d="M124.76,91.58c0,3.54,2.15,7.66,4.81,9.2l13.2,7.61a3.8,3.8,0,0,0,1.91.58c1.7,0,2.9-1.57,2.9-4.22,0-3.54-2.16-7.67-4.81-9.21l-13.2-7.61a3.87,3.87,0,0,0-1.91-.58C126,87.35,124.76,88.93,124.76,91.58Z"/><path class="cls-6" d="M126.49,150.23l.39.19c1.91.87,3.29-.33,3.08-2.66a88.9,88.9,0,0,0-7.09-26.66c-1.06-2.47-3.22-4.23-4.83-3.92s-2,2.54-1,5a74.69,74.69,0,0,1,6,22.46A7.81,7.81,0,0,0,126.49,150.23Z"/><path class="cls-8" d="M51.85,188.92c8.78,4.67,16.69,5,22.52,1.65,6.13-3.52,9.93-11.09,9.93-21.89,0-21.53-15.11-47.72-33.77-58.49-9.14-5.28-17.38-5.76-23.51-2.56l-.33.19a15.52,15.52,0,0,0-2.88,2.09c-3.73,3.42-6.19,8.77-6.87,15.77"/><path class="cls-8" d="M74.37,190.57,107.2,171.7c6.13-3.52,9.93-11.09,9.93-21.89,0-21.53-15.12-47.71-33.78-58.49-9.3-5.37-17.73-5.89-23.84-2.39L26.68,107.8"/><path class="cls-8" d="M9.26,130.11c-4.79,2.6-7.76,8.38-7.76,16.68C1.5,163.08,12.92,182.87,27,191c7,4.07,13.4,4.45,18,1.8s7.5-8.38,7.5-16.54C52.55,160,41.13,140.2,27,132.06,20.12,128.07,13.85,127.61,9.26,130.11Z"/><path class="cls-8" d="M15.89,141.83c-3,1.63-4.87,5.25-4.87,10.46,0,10.21,7.17,22.62,16,27.73,4.41,2.55,8.41,2.79,11.3,1.12S43,175.9,43,170.77c0-10.2-7.17-22.62-16-27.73C22.69,140.55,18.76,140.27,15.89,141.83Z"/><path class="cls-8" d="M45.05,192.81,62.9,182.57c4.64-2.66,7.52-8.39,7.52-16.54,0-16.29-11.44-36.08-25.54-44.22-7-4.06-13.4-4.45-18-1.81L9,130.24"/><path class="cls-8" d="M191.06,113.32c0,3.27-2.39,6.72-7.07,9.42l-.31.19c-8.54,4.92-21.46,5.46-28.86,1.19l-126-72.76c-3.35-1.94-5-4.52-5-7.24"/><path class="cls-8" d="M65,7.27l121,69.88c3.35,1.94,5,4.52,5,7.23,0,3.27-2.4,6.73-7.07,9.42l-.31.19c-8.54,4.92-21.46,5.47-28.86,1.2l-126-72.77c-3.35-1.94-5-4.52-5-7.24,0-3.27,2.39-6.72,7.06-9.42l.31-.18A34.29,34.29,0,0,1,53.07,2"/><path class="cls-8" d="M39.94,9.56c.07,1.83,1.32,3.65,3.74,5,5,2.9,13.12,2.9,18.13,0,2.5-1.44,3.76-3.33,3.76-5.22A4.64,4.64,0,0,0,65,7.27a7.93,7.93,0,0,0-3.23-3.13A18.38,18.38,0,0,0,53.07,2a18.71,18.71,0,0,0-9.39,2.15C41.1,5.63,39.86,7.6,39.94,9.56Z"/><path class="cls-9" d="M56,11.23c1.77-1,1.77-2.69,0-3.71a7.06,7.06,0,0,0-6.42,0c-1.77,1-1.77,2.68,0,3.71A7.12,7.12,0,0,0,56,11.23Z"/><path class="cls-8" d="M191.06,84.38V193.69c0,3.27-2.39,6.73-7.07,9.42l-.31.19c-8.54,4.93-21.46,5.47-28.86,1.2L102.6,174.35"/><line class="cls-8" x1="23.81" y1="109.91" x2="23.81" y2="15.18"/><path class="cls-8" d="M39.94,9.38v8.84c0,1.88,1.25,3.78,3.74,5.22,5,2.9,13.12,2.9,18.13,0,2.51-1.44,3.76-3.34,3.76-5.22V9.38"/><path class="cls-8" d="M142.77,108.39l-13.2-7.61c-2.66-1.54-4.81-5.66-4.81-9.2,0-2.65,1.19-4.23,2.9-4.23a3.87,3.87,0,0,1,1.91.58l13.2,7.61c2.65,1.54,4.81,5.67,4.81,9.21,0,2.65-1.2,4.22-2.9,4.22A3.8,3.8,0,0,1,142.77,108.39Z"/><path class="cls-8" d="M126.49,150.23a7.81,7.81,0,0,1-3.44-5.58,74.69,74.69,0,0,0-6-22.46c-1-2.47-.62-4.71,1-5s3.77,1.45,4.83,3.92A88.9,88.9,0,0,1,130,147.76c.21,2.33-1.17,3.53-3.08,2.66Z"/><path class="cls-8" d="M48.39,95.32a16.22,16.22,0,0,1-3.24-9c0-4.81,3.38-6.77,7.56-4.36a16.22,16.22,0,0,1,6.21,7.35"/></g></g></svg>