<svg xmlns="http://www.w3.org/2000/svg" xmlns:xlink="http://www.w3.org/1999/xlink" viewBox="0 0 168.18 254.93"><defs><style>.cls-1,.cls-8{fill:none;}.cls-2{fill:#969a9e;}.cls-3{fill:url(#New_Pattern_Swatch_3);}.cls-4{fill:#fff;}.cls-5{fill:#c2c7cc;}.cls-6{fill:#5f646b;}.cls-7{fill:#373a3a;}.cls-8{stroke:#373a3a;stroke-linecap:round;stroke-linejoin:round;stroke-width:3px;}</style><pattern id="New_Pattern_Swatch_3" data-name="New Pattern Swatch 3" width="16" height="19" patternTransform="translate(-2123.38 -47.85) scale(0.4)" patternUnits="userSpaceOnUse" viewBox="0 0 16 19"><rect class="cls-1" width="16" height="19"/><polygon class="cls-2" points="16 22.18 10.5 19 16 15.82 21.5 19 16 22.18"/><polygon class="cls-2" points="8 12.68 2.5 9.5 8 6.33 13.5 9.5 8 12.68"/><polygon class="cls-2" points="0 22.18 -5.5 19 0 15.82 5.5 19 0 22.18"/><polygon class="cls-2" points="16 3.18 10.5 0 16 -3.17 21.5 0 16 3.18"/><polygon class="cls-2" points="0 3.18 -5.5 0 0 -3.17 5.5 0 0 3.18"/></pattern></defs><g id="Layer_2" data-name="Layer 2"><g id="icons_design" data-name="icons design"><ellipse class="cls-3" cx="104.57" cy="218.2" rx="63.62" ry="36.73"/><path class="cls-4" d="M67.23,131.35a142.33,142.33,0,0,0,31,.28c16.16-1.62,31.64-6,44.11-13.24,12-6.9,19.49-15.42,22.56-24.32a28.45,28.45,0,0,0,1.6-9.35v18.69c0,9.52-4.92,19-14.75,27.18a67.79,67.79,0,0,1-9.41,6.49c-32.21,18.59-84.43,18.59-116.63,0a64.56,64.56,0,0,1-9.42-6.49l-.17-.13C6.41,122.28,1.5,112.88,1.5,103.41V84.72a28.6,28.6,0,0,0,1.59,9.34c3.08,8.92,10.6,17.42,22.57,24.33C37.47,125.22,52,129.54,67.23,131.35Z"/><path class="cls-4" d="M166.45,84.72a28.45,28.45,0,0,1-1.6,9.35c-3.07-8.91-10.59-17.42-22.56-24.33a89.15,89.15,0,0,0-13.81-6.43c-1-9.42-4-13.4-10.36-17.83A10.51,10.51,0,0,0,120.26,42a96.63,96.63,0,0,1,22,9.1C158.39,60.35,166.45,72.54,166.45,84.72Z"/><path class="cls-5" d="M142.29,69.74c12,6.91,19.49,15.42,22.56,24.33-3.07,8.9-10.59,17.42-22.56,24.32-12.47,7.21-27.95,11.62-44.11,13.24a3.74,3.74,0,0,0,.07-.75v-.11c0-16.05-2.76-20.94-10.76-26.54a10.62,10.62,0,1,0-17.69-3.06c-5.78,3-10.12,8.55-10.13,22.86-.17,1.73.78,3.41,2.91,4.63l4.65,2.69c-15.24-1.81-29.76-6.13-41.57-13C13.69,111.48,6.17,103,3.09,94.06c3.09-8.92,10.6-17.41,22.57-24.32C43.57,59.39,67.68,54.8,91.1,56a48.54,48.54,0,0,0-.8,9.31c-.17,1.73.78,3.4,2.91,4.63l14.55,8.41c7.22,4.18,21.1.12,21.12-6.19V72a84.17,84.17,0,0,0-.4-8.71A89.15,89.15,0,0,1,142.29,69.74Z"/><path class="cls-6" d="M151.7,130.59l-47.9,40a19.9,19.9,0,0,1-2.8,1.93c-9.4,5.43-24.65,5.43-34,0a19.9,19.9,0,0,1-2.8-1.93l-47.91-40a67.32,67.32,0,0,0,9.42,6.49c32.2,18.59,84.42,18.59,116.63,0A67.79,67.79,0,0,0,151.7,130.59Z"/><path class="cls-7" d="M128.88,72v.11c0,6.31-13.9,10.37-21.12,6.19L93.21,69.91c-2.13-1.23-3.08-2.9-2.91-4.63A48.54,48.54,0,0,1,91.1,56c1.5-7.65,5-11.29,9.33-13.55a10.65,10.65,0,0,0,17.69,3.06c6.32,4.43,9.35,8.41,10.36,17.83A84.17,84.17,0,0,1,128.88,72Z"/><path class="cls-4" d="M118.12,45.48a10.62,10.62,0,0,1-18.5-7.16V38a10.64,10.64,0,0,1,21.28.35,10.61,10.61,0,0,1-2.78,7.16Z"/><path class="cls-6" d="M104.57,170V196.2c0,22.19-41.23,38.9-41.23,19.43V169.92l.81.67a19.9,19.9,0,0,0,2.8,1.93c9.4,5.43,24.65,5.43,34.05,0a19.9,19.9,0,0,0,2.8-1.93Z"/><path class="cls-4" d="M99.62,38.32a10.56,10.56,0,0,0,.81,4.1C96.11,44.68,92.6,48.32,91.1,56,67.68,54.8,43.57,59.39,25.66,69.74c-12,6.91-19.48,15.4-22.57,24.32A28.6,28.6,0,0,1,1.5,84.72c0-12.18,7.94-24.57,24.16-33.67l.48-.27c4.51,3.16,12.93,4.32,18,1.36l14.56-8.4c2.12-1.23,3.07-2.9,2.9-4.63v-.23a141.58,141.58,0,0,1,38-.91C99.61,38.08,99.62,38.2,99.62,38.32Z"/><path class="cls-7" d="M98.25,130.77v.11a3.74,3.74,0,0,1-.07.75,142.33,142.33,0,0,1-30.95-.28l-4.65-2.69c-2.13-1.22-3.08-2.9-2.91-4.63,0-14.31,4.35-19.83,10.13-22.86a10.64,10.64,0,0,0,17.69,3.06C95.49,109.83,98.23,114.72,98.25,130.77Z"/><path class="cls-4" d="M87.49,104.23a10.62,10.62,0,1,1,2.79-7.17A10.64,10.64,0,0,1,87.49,104.23Z"/><path class="cls-7" d="M61.64,39.11c.17,1.73-.78,3.4-2.9,4.63l-14.56,8.4c-5.11,3-13.53,1.8-18-1.36-1.87-1.32-3.07-3-3.08-4.82v-.12c0-16.05,2.77-20.93,10.76-26.53a10.65,10.65,0,0,0,17.69-3.06c5.76,3,10.11,8.48,10.13,22.63Z"/><path class="cls-4" d="M33.82,19.31a10.65,10.65,0,1,1,7.87,3.47A10.63,10.63,0,0,1,33.82,19.31Z"/><path class="cls-8" d="M61.64,38.88a141.58,141.58,0,0,1,38-.91"/><path class="cls-8" d="M3.09,94.06A28.6,28.6,0,0,1,1.5,84.72c0-12.18,7.94-24.57,24.16-33.67l.48-.27"/><path class="cls-8" d="M120.26,42a96.63,96.63,0,0,1,22,9.1c16.1,9.3,24.16,21.49,24.16,33.67a28.45,28.45,0,0,1-1.6,9.35c-3.08,8.9-10.59,17.42-22.56,24.32-12.47,7.21-27.95,11.62-44.11,13.24a143,143,0,0,1-30.95-.28c-15.23-1.83-29.76-6.13-41.57-13C13.69,111.48,6.17,103,3.09,94.06"/><line class="cls-8" x1="104.57" y1="169.95" x2="151.88" y2="130.46"/><path class="cls-8" d="M63.34,169.92l.81.67a19.9,19.9,0,0,0,2.8,1.93c9.4,5.43,24.65,5.43,34.05,0a19.9,19.9,0,0,0,2.8-1.93l.77-.64"/><line class="cls-8" x1="16.24" y1="130.59" x2="63.34" y2="169.92"/><path class="cls-8" d="M3.09,94.06c3.09-8.92,10.6-17.41,22.57-24.32C43.57,59.39,67.68,54.8,91.1,56"/><path class="cls-8" d="M128.48,63.31a89.15,89.15,0,0,1,13.81,6.43c12,6.91,19.49,15.42,22.56,24.33"/><path class="cls-8" d="M1.5,84.72v18.69c0,9.47,4.91,18.87,14.57,27.05l.17.13a64.56,64.56,0,0,0,9.42,6.49c32.2,18.59,84.42,18.59,116.63,0a67.79,67.79,0,0,0,9.41-6.49c9.83-8.14,14.75-17.66,14.75-27.18V84.72"/><path class="cls-8" d="M104.57,170V196.2c0,22.19-41.23,38.9-41.23,19.43V169.92"/><path class="cls-8" d="M98.18,131.63a3.74,3.74,0,0,0,.07-.75v-.11c0-16.05-2.76-20.94-10.76-26.54"/><path class="cls-8" d="M69.8,101.17c-5.78,3-10.12,8.55-10.13,22.86-.17,1.73.78,3.41,2.91,4.63l4.65,2.69"/><path class="cls-8" d="M69.8,101.17a10.64,10.64,0,1,1,9.83,6.54A10.57,10.57,0,0,1,69.8,101.17Z"/><path class="cls-8" d="M23.06,45.84c.05-16.05,2.77-20.93,10.76-26.53h0"/><path class="cls-8" d="M51.51,16.25c5.76,3,10.11,8.48,10.13,22.63v.23c.17,1.73-.78,3.4-2.9,4.63l-14.56,8.4c-5.11,3-13.53,1.8-18-1.36-1.87-1.32-3.07-3-3.08-4.82v-.12"/><path class="cls-8" d="M51.51,16.25a10.65,10.65,0,1,0-9.82,6.53A10.65,10.65,0,0,0,51.51,16.25Z"/><path class="cls-8" d="M128.88,72a87.07,87.07,0,0,0-.4-8.71c-1-9.42-4-13.4-10.36-17.83"/><path class="cls-8" d="M100.43,42.42c-4.32,2.26-7.82,5.9-9.33,13.55a48.54,48.54,0,0,0-.8,9.31c-.17,1.73.78,3.4,2.91,4.63l14.55,8.41c7.22,4.18,21.1.12,21.12-6.19V72"/><path class="cls-8" d="M100.43,42.42a10.56,10.56,0,0,1-.81-4.1V38a10.64,10.64,0,0,1,21.28.35,10.61,10.61,0,0,1-2.78,7.16,10.65,10.65,0,0,1-17.69-3.06Z"/></g></g></svg>