<svg xmlns="http://www.w3.org/2000/svg" xmlns:xlink="http://www.w3.org/1999/xlink" viewBox="0 0 253.8 211.43"><defs><style>.cls-1,.cls-7{fill:none;}.cls-2{fill:#969a9e;}.cls-3{fill:url(#New_Pattern_Swatch_3);}.cls-4{fill:#5f646b;}.cls-5{fill:#fff;}.cls-6{fill:#373a3a;}.cls-7{stroke:#373a3a;stroke-linecap:round;stroke-linejoin:round;stroke-width:3px;}.cls-8{fill:#dae0e5;}</style><pattern id="New_Pattern_Swatch_3" data-name="New Pattern Swatch 3" width="16" height="19" patternTransform="translate(-2123.38 -47.85) scale(0.4)" patternUnits="userSpaceOnUse" viewBox="0 0 16 19"><rect class="cls-1" width="16" height="19"/><polygon class="cls-2" points="16 22.18 10.5 19 16 15.82 21.5 19 16 22.18"/><polygon class="cls-2" points="8 12.68 2.5 9.5 8 6.33 13.5 9.5 8 12.68"/><polygon class="cls-2" points="0 22.18 -5.5 19 0 15.82 5.5 19 0 22.18"/><polygon class="cls-2" points="16 3.18 10.5 0 16 -3.17 21.5 0 16 3.18"/><polygon class="cls-2" points="0 3.18 -5.5 0 0 -3.17 5.5 0 0 3.18"/></pattern></defs><g id="Layer_2" data-name="Layer 2"><g id="icons_design" data-name="icons design"><path class="cls-3" d="M157.17,114.3a53.77,53.77,0,0,0-10.76-3.52l10.76-15.71-21.34-9.89L71.22,76.07,76,86.16H56.71L26.3,80.86l-1.57,18.8L73,117.93l29.57,18S93,183.77,113.82,194.26,187.91,219,203,206.64s7.83-20.77,7.83-20.77,38.22-.49,33.58-23.32C239,135.79,188,127.94,157.17,114.3Z"/><path class="cls-3" d="M253.77,92.56q-.35-3.87-5.75-7a25.9,25.9,0,0,0-12.33-3.37H235a22,22,0,0,0-11.2,2.74A10.88,10.88,0,0,0,220,88.28a5.57,5.57,0,0,0-.93,3.3,1.62,1.62,0,0,0,0,.22c.21,2.62,2.17,5,5.83,7.12A25.6,25.6,0,0,0,237,102.25h.41a21.86,21.86,0,0,0,11.53-2.82q4.86-2.81,4.86-6.37C253.8,92.9,253.78,92.73,253.77,92.56Z"/><path class="cls-3" d="M161.71,59.55l1.14-.66c-3.76-2.26-5.82-4.57-6.15-6.9s1-4.36,4.08-6.15q9.72-5.6,21.89,1.42a14.69,14.69,0,0,1,5.8,5.51q1.78,3.18,1.94,9.78a17.63,17.63,0,0,0,4,11.26q3.44,4.18,11.88,9.29c.65.4,1.34.79,2,1.2L210.53,83l.08,0,13.68-7.91-4.15-2.68c-4.24-3-6.54-6.38-6.88-10.23l-.49-6.11A24.8,24.8,0,0,0,209,44.34a27.45,27.45,0,0,0-9.19-8,56.12,56.12,0,0,0-27.34-7.81h-.77a54.63,54.63,0,0,0-27.86,7.56Q131,43.48,131,52.16v.29a11.94,11.94,0,0,0,.24,2.06l-6.6,3.12-.28,10.17,20.45,1.51Z"/><polygon class="cls-4" points="80.81 14.44 116.45 127.95 95.09 140.27 59.45 26.77 80.81 14.44"/><path class="cls-5" d="M59.45,26.77l35.64,113.5L71.4,126.61,65.08,104.9l-34-19.65L24.73,99.66,1.5,86.24,37,13.83Zm-1,54.89L48.07,46,37.72,69.72Z"/><polygon class="cls-5" points="80.81 14.44 59.45 26.77 37.03 13.83 58.39 1.5 80.81 14.44"/><polygon class="cls-4" points="52.48 61.19 58.41 81.66 37.72 69.72 52.48 61.19"/><polygon class="cls-6" points="48.07 45.95 52.48 61.19 37.72 69.72 48.07 45.95"/><polygon class="cls-6" points="40.37 90.63 24.73 99.66 31.05 85.25 40.37 90.63"/><polygon class="cls-7" points="95.09 140.27 71.41 126.61 65.08 104.9 31.05 85.25 24.73 99.66 1.5 86.24 37.03 13.83 59.45 26.77 95.09 140.27"/><polygon class="cls-7" points="37.72 69.72 58.41 81.66 48.07 45.95 37.72 69.72"/><polyline class="cls-7" points="37.03 13.83 58.39 1.5 80.81 14.44 116.45 127.95 95.09 140.27"/><line class="cls-7" x1="59.45" y1="26.77" x2="80.81" y2="14.44"/><line class="cls-7" x1="24.73" y1="99.66" x2="40.37" y2="90.63"/><line class="cls-7" x1="37.72" y1="69.72" x2="52.48" y2="61.19"/><path class="cls-4" d="M207.14,140.28v21.49q0,6.22-8,10.86a36.74,36.74,0,0,1-13.6,4.48,47.94,47.94,0,0,1-5.78.42h-.48a49.58,49.58,0,0,1-5.8-.35V163.82q0-4.29-3.67-8.69a51.5,51.5,0,0,0,9.47.9h.48a47.94,47.94,0,0,0,5.78-.41,36.93,36.93,0,0,0,13.6-4.48Q207.15,146.51,207.14,140.28Z"/><path class="cls-5" d="M206.66,137.14a10.61,10.61,0,0,1,.48,3.14q0,6.21-8,10.86a36.93,36.93,0,0,1-13.6,4.48,47.94,47.94,0,0,1-5.78.41h-.48a51.5,51.5,0,0,1-9.47-.9q3.67,4.4,3.67,8.69a9.87,9.87,0,0,1-.26,2.29c-.85,3.6-3.76,6.84-8.77,9.73a38.81,38.81,0,0,1-19.78,5,55.37,55.37,0,0,1-5.95-.34q-14.77-1.67-31.47-11.28l-45-26L145.6,95.06l42.66,24.64Q204.22,128.91,206.66,137.14ZM172,139.24q8-4.61-3.92-11.49l-16.21-9.36-16.08,9.29L152,137Q163.94,143.91,172,139.24Zm-28.83,21.33q8.46-4.9-3.94-12L119.5,137.1l-16.92,9.77,19.78,11.43Q134.74,165.46,143.21,160.57Z"/><path class="cls-4" d="M173.45,177.18v8.13a10,10,0,0,1-.26,2.29c-.82,3.61-3.76,6.84-8.77,9.73a38.71,38.71,0,0,1-19.78,5,55.31,55.31,0,0,1-5.95-.33q-14.77-1.67-31.47-11.29l-45-26V143.23l45.05,26q16.69,9.63,31.47,11.28a55.37,55.37,0,0,0,5.95.34,38.81,38.81,0,0,0,19.78-5c5-2.89,7.92-6.13,8.77-9.73a9.87,9.87,0,0,0,.26-2.29Z"/><path class="cls-4" d="M168.12,127.75Q180,134.62,172,139.24T152,137l-.12-.08V118.39Z"/><polygon class="cls-6" points="151.91 118.39 151.91 136.96 135.83 127.68 151.91 118.39"/><path class="cls-4" d="M139.27,148.52q12.4,7.15,3.94,12t-20.85-2.27l-2.86-1.65V137.1Z"/><polygon class="cls-6" points="119.5 137.1 119.5 156.65 102.58 146.87 119.5 137.1"/><path class="cls-7" d="M179.25,156a51.5,51.5,0,0,1-9.47-.9q3.67,4.4,3.67,8.69a9.87,9.87,0,0,1-.26,2.29c-.85,3.6-3.76,6.84-8.77,9.73a38.81,38.81,0,0,1-19.78,5,55.37,55.37,0,0,1-5.95-.34q-14.77-1.67-31.47-11.28l-45-26L145.6,95.06l42.66,24.64q16,9.21,18.4,17.44a10.61,10.61,0,0,1,.48,3.14q0,6.21-8,10.86a36.93,36.93,0,0,1-13.6,4.48,47.94,47.94,0,0,1-5.78.41"/><path class="cls-7" d="M151.91,137l.12.08q11.91,6.87,20,2.2t-3.92-11.49l-16.21-9.36-16.08,9.29Z"/><path class="cls-7" d="M119.5,137.1l-16.92,9.77,19.78,11.43q12.38,7.15,20.85,2.27t-3.94-12Z"/><path class="cls-7" d="M207.14,140.28v21.49q0,6.22-8,10.86a36.74,36.74,0,0,1-13.6,4.48,47.94,47.94,0,0,1-5.78.42"/><path class="cls-7" d="M173.45,177.18a49.58,49.58,0,0,0,5.8.35"/><line class="cls-7" x1="119.5" y1="137.1" x2="119.5" y2="156.65"/><line class="cls-7" x1="151.91" y1="118.39" x2="151.91" y2="136.96"/><path class="cls-7" d="M173.45,163.82v21.49a10,10,0,0,1-.26,2.29c-.82,3.61-3.76,6.84-8.77,9.73a38.71,38.71,0,0,1-19.78,5,55.31,55.31,0,0,1-5.95-.33q-14.77-1.67-31.47-11.29l-45-26V143.23"/><g id="question_mark" data-name="question mark"><path class="cls-2" d="M233.34,72.85v18.6c0,2.07-1.41,3.94-4.24,5.57A19.28,19.28,0,0,1,219,99.48h-.35a22.34,22.34,0,0,1-10.57-2.91c-3.19-1.85-4.92-3.92-5.09-6.21,0-.14,0-.28,0-.4V71.54a1.27,1.27,0,0,0,0,.2c.18,2.28,1.9,4.36,5.09,6.21a22.34,22.34,0,0,0,10.57,2.91H219a19.19,19.19,0,0,0,10.06-2.46Q233.35,75.95,233.34,72.85Z"/><path class="cls-5" d="M203,71.54a4.9,4.9,0,0,1,.81-2.87,9.61,9.61,0,0,1,3.34-2.92,19.1,19.1,0,0,1,9.77-2.39h.6a21.84,21.84,0,0,1,10.76,2.93c3.15,1.83,4.84,3.86,5,6.12,0,.14,0,.29,0,.44q0,3.11-4.24,5.56A19.19,19.19,0,0,1,219,80.87h-.35A22.34,22.34,0,0,1,208.12,78c-3.19-1.85-4.91-3.93-5.09-6.21A1.27,1.27,0,0,1,203,71.54Z"/><path class="cls-2" d="M203.83,55V68.67a4.76,4.76,0,0,0-.81,2.87v2.52L190.15,81.5h-.58l.5,0-2.16,1.27V64.19l2.16-1.27.08,0Z"/><path class="cls-5" d="M203.83,55,190.15,62.9l-.08,0-2.16,1.27c-.71-.41-1.39-.81-2-1.21-5.61-3.42-9.59-6.5-11.88-9.28a17.67,17.67,0,0,1-4-11.26c-.09-4.4-.75-7.66-1.93-9.79a14.87,14.87,0,0,0-5.8-5.5c-8.1-4.68-15.42-5.15-21.89-1.42-3.06,1.78-4.43,3.83-4.09,6.15s2.39,4.63,6.15,6.89L124.33,49.19q-13.6-8-13.81-16.85V32q0-8.67,12.86-16.11a54.77,54.77,0,0,1,27.85-7.56H152a57.07,57.07,0,0,1,27.35,7.82,27.39,27.39,0,0,1,9.18,8A24.84,24.84,0,0,1,192.31,36l.49,6.11c.35,3.85,2.65,7.25,6.89,10.24Z"/><path class="cls-5" d="M190.15,81.5l-.08,0-.5,0Z"/><path class="cls-2" d="M187.91,64.19V82.8c-.71-.42-1.39-.81-2-1.21-5.61-3.42-9.59-6.5-11.88-9.28A17.68,17.68,0,0,1,170,61c-.09-4.39-.75-7.65-1.93-9.78a14.73,14.73,0,0,0-5.8-5.5q-10.89-6.3-19.83-2.46V38.77q-5.64-3.39-6.15-6.89c-.34-2.32,1-4.37,4.09-6.15,6.47-3.73,13.79-3.26,21.89,1.42a14.87,14.87,0,0,1,5.8,5.5c1.18,2.13,1.84,5.39,1.93,9.79a17.67,17.67,0,0,0,4,11.26c2.29,2.78,6.27,5.86,11.88,9.28C186.52,63.38,187.2,63.78,187.91,64.19Z"/><polygon class="cls-2" points="142.4 43.3 142.4 57.38 124.33 67.8 124.33 49.19 142.4 38.77 142.4 43.3"/><path class="cls-8" d="M124.33,49.19V67.8c-9.07-5.33-13.75-10.95-13.81-16.85,0-.1,0-18.61,0-18.61Q110.72,41.18,124.33,49.19Z"/><path class="cls-7" d="M110.52,32q0-8.67,12.86-16.11a54.77,54.77,0,0,1,27.85-7.56H152a57.07,57.07,0,0,1,27.35,7.82,27.39,27.39,0,0,1,9.18,8A24.84,24.84,0,0,1,192.31,36l.49,6.11c.35,3.85,2.65,7.25,6.89,10.24L203.83,55,190.15,62.9l-.08,0-2.16,1.27c-.71-.41-1.39-.81-2-1.21-5.61-3.42-9.59-6.5-11.88-9.28a17.67,17.67,0,0,1-4-11.26c-.09-4.4-.75-7.66-1.93-9.79a14.87,14.87,0,0,0-5.8-5.5c-8.1-4.68-15.42-5.15-21.89-1.42-3.06,1.78-4.43,3.83-4.09,6.15s2.39,4.63,6.15,6.89L124.33,49.19q-13.6-8-13.81-16.85"/><path class="cls-7" d="M217.28,63.36h.26a21.84,21.84,0,0,1,10.76,2.93c3.15,1.83,4.84,3.86,5,6.12,0,.14,0,.29,0,.44q0,3.11-4.24,5.56A19.19,19.19,0,0,1,219,80.87"/><path class="cls-7" d="M218.69,80.86A22.34,22.34,0,0,1,208.12,78c-3.19-1.85-4.91-3.93-5.09-6.21a1.27,1.27,0,0,1,0-.2,4.9,4.9,0,0,1,.81-2.87,9.61,9.61,0,0,1,3.34-2.92,19.1,19.1,0,0,1,9.77-2.39"/><path class="cls-7" d="M233.34,72.85v18.6c0,2.07-1.41,3.94-4.24,5.57A19.28,19.28,0,0,1,219,99.48"/><path class="cls-7" d="M203,71.34s0,18.87,0,19c.17,2.29,1.9,4.36,5.09,6.21a22.34,22.34,0,0,0,10.57,2.91"/><path class="cls-7" d="M142.39,43.3q8.94-3.82,19.83,2.46a14.73,14.73,0,0,1,5.8,5.5c1.18,2.13,1.84,5.39,1.93,9.78a17.68,17.68,0,0,0,4,11.27c2.29,2.78,6.27,5.86,11.88,9.28.66.4,1.34.79,2,1.21l2.16-1.27.08,0L203,74.06"/><line class="cls-7" x1="124.33" y1="49.19" x2="124.33" y2="67.8"/><path class="cls-7" d="M142.39,38.77V57.38L124.33,67.8c-9.07-5.33-13.75-10.95-13.81-16.85,0-.1,0-18.91,0-18.91"/><line class="cls-7" x1="203.83" y1="54.98" x2="203.83" y2="68.67"/><line class="cls-7" x1="187.91" y1="64.19" x2="187.91" y2="82.8"/></g></g></g></svg>