<svg xmlns="http://www.w3.org/2000/svg" xmlns:xlink="http://www.w3.org/1999/xlink" viewBox="0 0 208.66 256.48"><defs><style>.cls-1,.cls-7{fill:none;}.cls-2{fill:#969a9e;}.cls-3{fill:url(#New_Pattern_Swatch_3);}.cls-4{fill:#373a3a;}.cls-5{fill:#fff;}.cls-6{fill:#dae0e5;}.cls-7{stroke:#373a3a;stroke-linecap:round;stroke-linejoin:round;stroke-width:3px;}</style><pattern id="New_Pattern_Swatch_3" data-name="New Pattern Swatch 3" width="16" height="19" patternTransform="translate(-2123.38 -47.85) scale(0.4)" patternUnits="userSpaceOnUse" viewBox="0 0 16 19"><rect class="cls-1" width="16" height="19"/><polygon class="cls-2" points="16 22.18 10.5 19 16 15.82 21.5 19 16 22.18"/><polygon class="cls-2" points="8 12.68 2.5 9.5 8 6.33 13.5 9.5 8 12.68"/><polygon class="cls-2" points="0 22.18 -5.5 19 0 15.82 5.5 19 0 22.18"/><polygon class="cls-2" points="16 3.18 10.5 0 16 -3.17 21.5 0 16 3.18"/><polygon class="cls-2" points="0 3.18 -5.5 0 0 -3.17 5.5 0 0 3.18"/></pattern></defs><g id="Layer_2" data-name="Layer 2"><g id="icons_design" data-name="icons design"><path class="cls-3" d="M71.3,244.74a120.26,120.26,0,0,0,30,4.95c51.52,6.79,107.41,6.79,107.41,6.79s-4.16-51.38-39-75.06l-.1-.06a57.66,57.66,0,0,0-5.34-4s-32.38-21.53-33.69-22.29c-29.64-17.11-77.7-17.11-107.34,0C-5.14,171.41-6.4,197.49,19.43,214.7c0,0,32.38,21.53,33.69,22.29a83.09,83.09,0,0,0,8.34,4.16,29.76,29.76,0,0,0,9.82,3.59Z"/><g id="pencil"><path class="cls-4" d="M135.56,99.48v85.8c0,14.87-15,28.64-38.57,35V110.45a.82.82,0,0,1,.55.51c3.3,8.86,9.92,14.92,17.51,14.92,11.6,0,21.2-14.52,20.1-30.68A23.06,23.06,0,0,1,135.56,99.48Z"/><path class="cls-5" d="M135.15,95.2c1.1,16.16-8.5,30.68-20.1,30.68-7.59,0-14.21-6.06-17.51-14.92a.82.82,0,0,0-.55-.51.72.72,0,0,0-.33,0,.82.82,0,0,0-.73.73,27.59,27.59,0,0,1-54.8,0,.82.82,0,0,0-.73-.73.72.72,0,0,0-.33,0,.82.82,0,0,0-.55.51c-3.3,8.86-9.91,14.92-17.51,14.92C10.42,125.88.8,111.36,1.92,95.2v0A24.47,24.47,0,0,1,3.8,89.45a29.93,29.93,0,0,1,3-5.07L47.75,28.29l.15.11C44.85,35,51.61,41.74,63,43.5a35.49,35.49,0,0,0,5.52.43,35.71,35.71,0,0,0,5.53-.43C85.45,41.74,92.21,35,89.16,28.4l.15-.11,40.95,56.09a30.55,30.55,0,0,1,3,5.07,25,25,0,0,1,1.89,5.73Z"/><path class="cls-2" d="M97,110.45V220.29a105.11,105.11,0,0,1-11.11,2.34,113.83,113.83,0,0,1-34.7,0,105.64,105.64,0,0,1-11.11-2.34V110.45a.72.72,0,0,1,.33,0,.82.82,0,0,1,.73.73,27.59,27.59,0,0,0,54.8,0,.82.82,0,0,1,.73-.73A.72.72,0,0,1,97,110.45Z"/><path class="cls-4" d="M89.16,28.4c3,6.58-3.71,13.34-15.1,15.1a35.71,35.71,0,0,1-5.53.43A35.49,35.49,0,0,1,63,43.5C51.61,41.74,44.85,35,47.9,28.4l-.15-.11L66.61,2.48a2.37,2.37,0,0,1,3.84,0L89.31,28.29Z"/><path class="cls-6" d="M40.07,110.45V220.29c-23.61-6.37-38.57-20.14-38.57-35V99.48a22.25,22.25,0,0,1,.42-4.28C.8,111.36,10.42,125.88,22,125.88c7.6,0,14.21-6.06,17.51-14.92A.82.82,0,0,1,40.07,110.45Z"/><path class="cls-7" d="M47.9,28.4C44.85,35,51.61,41.74,63,43.5a35.49,35.49,0,0,0,5.52.43,35.71,35.71,0,0,0,5.53-.43C85.45,41.74,92.21,35,89.16,28.4"/><path class="cls-7" d="M135.15,95.2a23.06,23.06,0,0,1,.41,4.28v85.8c0,14.87-15,28.63-38.57,35a105.11,105.11,0,0,1-11.11,2.34,113.83,113.83,0,0,1-34.7,0,105.64,105.64,0,0,1-11.11-2.34c-23.61-6.38-38.57-20.14-38.57-35V99.48a22.25,22.25,0,0,1,.42-4.28"/><path class="cls-7" d="M1.92,95.18A24.47,24.47,0,0,1,3.8,89.45a29.93,29.93,0,0,1,3-5.07l59.8-81.9a2.37,2.37,0,0,1,3.84,0l59.81,81.9a30.55,30.55,0,0,1,3,5.07,25,25,0,0,1,1.89,5.73"/><path class="cls-7" d="M135.15,95.18v0c1.1,16.16-8.5,30.68-20.1,30.68-7.59,0-14.21-6.06-17.51-14.92a.82.82,0,0,0-.55-.51.72.72,0,0,0-.33,0,.82.82,0,0,0-.73.73,27.59,27.59,0,0,1-54.8,0,.82.82,0,0,0-.73-.73.72.72,0,0,0-.33,0,.82.82,0,0,0-.55.51c-3.3,8.86-9.91,14.92-17.51,14.92C10.42,125.88.8,111.36,1.92,95.2v0"/><line class="cls-7" x1="40.07" y1="110.45" x2="40.07" y2="220.29"/><line class="cls-7" x1="96.99" y1="110.45" x2="96.99" y2="220.29"/></g></g></g></svg>