<svg xmlns="http://www.w3.org/2000/svg" xmlns:xlink="http://www.w3.org/1999/xlink" viewBox="0 0 255.06 208.24"><defs><style>.cls-1,.cls-10,.cls-8{fill:none;}.cls-2{fill:#969a9e;}.cls-3{fill:url(#New_Pattern_Swatch_3);}.cls-4{fill:#dae0e5;}.cls-5{fill:#fff;}.cls-6{fill:#373a3a;}.cls-7{fill:#f6d84c;}.cls-10,.cls-8{stroke:#373a3a;stroke-linecap:round;stroke-linejoin:round;}.cls-8{stroke-width:3px;}.cls-9{fill:#eceff2;}.cls-10{stroke-width:4px;stroke-dasharray:1.02 10.2;}</style><pattern id="New_Pattern_Swatch_3" data-name="New Pattern Swatch 3" width="16" height="19" patternTransform="translate(-2123.38 -47.85) scale(0.4)" patternUnits="userSpaceOnUse" viewBox="0 0 16 19"><rect class="cls-1" width="16" height="19"/><polygon class="cls-2" points="16 22.18 10.5 19 16 15.82 21.5 19 16 22.18"/><polygon class="cls-2" points="8 12.68 2.5 9.5 8 6.33 13.5 9.5 8 12.68"/><polygon class="cls-2" points="0 22.18 -5.5 19 0 15.82 5.5 19 0 22.18"/><polygon class="cls-2" points="16 3.18 10.5 0 16 -3.17 21.5 0 16 3.18"/><polygon class="cls-2" points="0 3.18 -5.5 0 0 -3.17 5.5 0 0 3.18"/></pattern></defs><g id="Layer_2" data-name="Layer 2"><g id="icons_design" data-name="icons design"><polygon class="cls-3" points="117.27 206.17 187.67 208.24 101.4 161.31 117.27 206.17"/><polygon class="cls-3" points="184.22 165.45 236.68 167.52 248.41 163.38 255.06 127.91 130.81 108.24 184.22 165.45"/><polygon class="cls-4" points="191.04 83.55 191.04 161.84 184.92 165.37 184.92 87.09 166.38 58.71 166.38 45.82 191.04 83.55"/><polygon class="cls-5" points="184.92 87.09 184.92 165.37 143.51 102.03 166.38 93.46 184.92 87.09"/><polygon class="cls-6" points="166.38 58.71 184.92 87.09 166.38 93.46 166.38 58.71"/><polygon class="cls-5" points="143.51 102.03 184.92 165.37 77.63 103.42 131.28 83.31 143.51 102.03"/><polygon class="cls-7" points="112.37 10.88 166.38 42.06 166.38 93.46 143.51 102.03 131.28 83.31 119.04 87.9 96.19 52.94 96.19 1.53 112.37 10.88"/><polygon class="cls-6" points="131.28 5.03 148.89 31.96 113.67 11.63 131.28 5.03"/><polygon class="cls-4" points="112.37 10.88 137.4 1.5 162.42 39.78 148.89 31.96 131.28 5.03 113.67 11.63 112.37 10.88"/><polygon class="cls-5" points="96.19 52.94 119.04 87.9 77.63 103.42 77.63 25.14 96.19 52.94"/><polygon class="cls-6" points="96.19 18.19 96.19 52.94 77.63 25.14 96.19 18.19"/><polygon class="cls-5" points="96.19 16.94 96.19 18.19 77.63 25.14 83.75 21.61 96.19 16.94"/><polyline class="cls-8" points="166.38 45.82 191.04 83.55 191.04 161.84 184.92 165.37 131.28 83.31 77.63 103.42"/><polyline class="cls-8" points="148.89 31.96 131.28 5.03 113.67 11.63"/><polyline class="cls-8" points="166.38 58.71 184.92 87.09 166.38 93.46"/><polyline class="cls-8" points="96.19 52.94 77.63 25.14 77.63 103.42 184.92 165.37 184.92 87.09"/><polyline class="cls-8" points="162.42 39.78 96.19 1.53 96.19 52.94"/><polyline class="cls-8" points="143.51 102.03 166.38 93.46 166.38 42.06 162.42 39.78"/><line class="cls-8" x1="119.04" y1="87.9" x2="96.19" y2="52.94"/><line class="cls-8" x1="151.98" y1="51.7" x2="110.58" y2="27.8"/><line class="cls-8" x1="151.98" y1="61.72" x2="110.58" y2="37.81"/><line class="cls-8" x1="151.98" y1="71.73" x2="110.58" y2="47.83"/><line class="cls-8" x1="151.98" y1="81.74" x2="110.58" y2="57.84"/><polyline class="cls-8" points="162.42 39.78 137.4 1.5 112.37 10.88"/><polyline class="cls-8" points="96.19 16.94 83.75 21.61 77.63 25.14 96.19 18.19"/><path class="cls-5" d="M116.15,78.71V202.83c0,2.28-1.38,3.34-3.1,2.34L4.6,142.56a7.44,7.44,0,0,1-3.1-5.94V12.51c0-2.28,1.39-3.34,3.1-2.34L113.05,72.78A7.41,7.41,0,0,1,116.15,78.71ZM92.89,129.48c0-21.73-15.25-48.15-34.07-59s-34.06-2-34.06,19.67,15.25,48.15,34.06,59S92.89,151.21,92.89,129.48ZM39.28,48.37A4.27,4.27,0,0,0,37.34,45c-1.07-.62-1.93-.12-1.93,1.11a4.25,4.25,0,0,0,1.93,3.35C38.41,50.1,39.28,49.61,39.28,48.37ZM29.19,42.54a4.29,4.29,0,0,0-1.94-3.36c-1.08-.62-1.94-.11-1.94,1.12a4.26,4.26,0,0,0,1.94,3.36C28.32,44.28,29.19,43.78,29.19,42.54ZM19.08,36.71a4.28,4.28,0,0,0-1.93-3.36c-1.07-.62-1.94-.12-1.94,1.12a4.29,4.29,0,0,0,1.94,3.36C18.22,38.45,19.08,37.94,19.08,36.71Z"/><path class="cls-9" d="M58.82,70.47c18.82,10.86,34.07,37.28,34.07,59S77.64,160,58.82,149.16s-34.06-37.29-34.06-59S40,59.61,58.82,70.47Zm19,46.7a17.9,17.9,0,0,0-2.59-8.7c-3.45-6-9-9.2-12.49-7.22l-4,2.29L54.88,96.7c-2.76-4.79-6.89-7.8-10.19-7.8a4.5,4.5,0,0,0-2.3.58c-3.45,2-3.45,8.45,0,14.43l16.43,28.47,16.44-9.5C77,121.89,77.85,119.77,77.85,117.17Z"/><path class="cls-6" d="M75.26,108.47a17.9,17.9,0,0,1,2.59,8.7c0,2.6-.86,4.72-2.59,5.71l-16.44,9.5L42.39,103.91c-3.45-6-3.45-12.43,0-14.43a4.5,4.5,0,0,1,2.3-.58c3.3,0,7.43,3,10.19,7.8l3.94,6.84,4-2.29C66.22,99.27,71.81,102.49,75.26,108.47Z"/><path class="cls-5" d="M39.28,48.37c0,1.24-.87,1.73-1.94,1.11a4.25,4.25,0,0,1-1.93-3.35c0-1.23.86-1.73,1.93-1.11A4.27,4.27,0,0,1,39.28,48.37Z"/><path class="cls-5" d="M27.25,39.18a4.29,4.29,0,0,1,1.94,3.36c0,1.24-.87,1.74-1.94,1.12a4.26,4.26,0,0,1-1.94-3.36C25.31,39.07,26.17,38.56,27.25,39.18Z"/><path class="cls-5" d="M19.08,36.71c0,1.23-.86,1.74-1.93,1.12a4.29,4.29,0,0,1-1.94-3.36c0-1.24.87-1.74,1.94-1.12A4.28,4.28,0,0,1,19.08,36.71Z"/><path class="cls-8" d="M113.05,205.17,4.6,142.56a7.44,7.44,0,0,1-3.1-5.94V12.51c0-2.28,1.39-3.34,3.1-2.34L113.05,72.78a7.41,7.41,0,0,1,3.1,5.93V202.83C116.15,205.11,114.77,206.17,113.05,205.17Z"/><path class="cls-8" d="M58.82,132.38,42.39,103.91c-3.45-6-3.45-12.43,0-14.43a4.5,4.5,0,0,1,2.3-.58c3.3,0,7.43,3,10.19,7.8l3.94,6.84,4-2.29c3.45-2,9,1.24,12.49,7.22a17.9,17.9,0,0,1,2.59,8.7c0,2.6-.86,4.72-2.59,5.71Z"/><path class="cls-8" d="M19.08,36.71c0,1.23-.86,1.74-1.93,1.12a4.29,4.29,0,0,1-1.94-3.36c0-1.24.87-1.74,1.94-1.12A4.28,4.28,0,0,1,19.08,36.71Z"/><path class="cls-8" d="M29.19,42.54c0,1.24-.87,1.74-1.94,1.12a4.26,4.26,0,0,1-1.94-3.36c0-1.23.86-1.74,1.94-1.12A4.29,4.29,0,0,1,29.19,42.54Z"/><path class="cls-8" d="M39.28,48.37c0,1.24-.87,1.73-1.94,1.11a4.25,4.25,0,0,1-1.93-3.35c0-1.23.86-1.73,1.93-1.11A4.27,4.27,0,0,1,39.28,48.37Z"/><path class="cls-10" d="M92.89,129.48c0-21.73-15.25-48.15-34.07-59s-34.06-2-34.06,19.67,15.25,48.15,34.06,59S92.89,151.21,92.89,129.48Z"/></g></g></svg>