<svg xmlns="http://www.w3.org/2000/svg" xmlns:xlink="http://www.w3.org/1999/xlink" viewBox="0 0 251.74 238.88"><defs><style>.cls-1,.cls-7{fill:none;}.cls-2{fill:#969a9e;}.cls-3{fill:url(#New_Pattern_Swatch_3);}.cls-4{fill:#fff;}.cls-5{fill:#373a3a;}.cls-6{fill:#dae0e5;}.cls-7{stroke:#373a3a;stroke-linecap:round;stroke-linejoin:round;stroke-width:3px;}</style><pattern id="New_Pattern_Swatch_3" data-name="New Pattern Swatch 3" width="16" height="19" patternTransform="translate(-2123.38 -47.85) scale(0.4)" patternUnits="userSpaceOnUse" viewBox="0 0 16 19"><rect class="cls-1" width="16" height="19"/><polygon class="cls-2" points="16 22.18 10.5 19 16 15.82 21.5 19 16 22.18"/><polygon class="cls-2" points="8 12.68 2.5 9.5 8 6.33 13.5 9.5 8 12.68"/><polygon class="cls-2" points="0 22.18 -5.5 19 0 15.82 5.5 19 0 22.18"/><polygon class="cls-2" points="16 3.18 10.5 0 16 -3.17 21.5 0 16 3.18"/><polygon class="cls-2" points="0 3.18 -5.5 0 0 -3.17 5.5 0 0 3.18"/></pattern></defs><g id="Layer_2" data-name="Layer 2"><g id="icons_design" data-name="icons design"><path class="cls-3" d="M225.26,139.24c-34.07-7.11-87.91,1.44-120.27,19.1-8,4.39-14,8.93-17.89,13.39-32.11,3.71-3.24,48.15-53.92,48.15-9.24,0-12.71-2-18.44-2-2.46,0-4.62.47-5.52,2,2.32,4.64,15.62,15.62,20.65,19,12.29-1.6,37.72,1.28,47-5.86,15.16-11.66-4.56-20.85,31.49-29.74,34.08,7,87.72-1.54,120-19.16S259.32,146.35,225.26,139.24Z"/><path class="cls-4" d="M173.19,18.35c20.47-.83,34.67,14.92,34.67,42.69,0,38.16-26.79,84.57-59.84,103.65-22.26,12.86-41.69,10-52-4.87-5-7.2-7.84-17.24-7.84-29.68C88.18,92,115,45.58,148,26.49q3.12-1.8,6.16-3.18l.2-.1A51,51,0,0,1,173.19,18.35Zm6.89,59c5.3-5,8.19-13.29,6.47-18.41s-7.4-5.18-12.7-.14S165.66,72,167.38,77.16,174.79,82.34,180.08,77.3Zm-8.24,42.39c4.5-6.38,5.5-14.24,2.23-17.55s-9.58-.83-14.08,5.56-5.51,14.24-2.23,17.55S167.33,126.07,171.84,119.69ZM148,72.1c5.57-3.22,10.09-11,10.09-17.47s-4.52-9-10.09-5.82-10.08,11-10.08,17.46S142.46,75.31,148,72.1Zm0,27.47a7.59,7.59,0,0,0,3.45-6c0-2.2-1.54-3.09-3.45-2a7.63,7.63,0,0,0-3.45,6C144.57,99.79,146.12,100.67,148,99.57Zm-9.72,36.91c3.27-7.09,2.27-13.79-2.24-15s-10.81,3.62-14.08,10.7-2.27,13.8,2.23,15S135,143.58,138.3,136.48Zm-9.63-37c1.72-7.1-1.18-12-6.48-10.92s-11,7.7-12.7,14.8,1.18,12,6.48,10.93S127,106.61,128.67,99.5Z"/><path class="cls-5" d="M186.55,58.89c1.72,5.12-1.17,13.36-6.47,18.41s-11,5-12.7-.14,1.17-13.37,6.47-18.41S184.83,53.77,186.55,58.89Z"/><path class="cls-5" d="M174.07,102.14c3.27,3.31,2.27,11.17-2.23,17.55s-10.81,8.87-14.08,5.56-2.28-11.17,2.23-17.55S170.79,98.83,174.07,102.14Z"/><path class="cls-5" d="M158.11,54.63c0,6.43-4.52,14.25-10.09,17.47s-10.08.6-10.08-5.83S142.46,52,148,48.81,158.11,48.2,158.11,54.63Z"/><path class="cls-6" d="M173.19,18.35a51,51,0,0,0-18.81,4.86l-2.56-1.47c-8.42-4.87-20.07-4.18-32.94,3.25-15.27,8.81-27.49,25.9-36,43.9C72.68,90.53,71.47,110.9,70,138.54c-.14,2.67-.39,5.19-.72,7.57-6.49-7.3-10.27-18.45-10.27-32.79,0-38.16,26.78-84.57,59.83-103.65C143-4.21,163.68.2,173.19,18.35Z"/><path class="cls-4" d="M151.82,21.74l2.56,1.47-.2.1A19.34,19.34,0,0,0,151.82,21.74Z"/><path class="cls-2" d="M151.81,21.73a20.77,20.77,0,0,1,2.37,1.58q-3,1.38-6.16,3.18C115,45.58,88.18,92,88.18,130.14c0,12.44,2.85,22.48,7.84,29.68-2.83,23.3-14.74,33.07-32.76,32.54-19.5-.57-35.27,45-35.27,45L1.5,222.08s15.77-45.59,35.27-45c17.61.52,29.37-8.79,32.55-31,.33-2.38.58-4.9.72-7.57,1.43-27.64,2.64-48,12.85-69.65,8.5-18,20.72-35.09,36-43.9C131.75,17.56,143.38,16.89,151.81,21.73Z"/><path class="cls-4" d="M151.47,93.6a7.59,7.59,0,0,1-3.45,6c-1.9,1.1-3.45.22-3.45-2a7.63,7.63,0,0,1,3.45-6C149.93,90.51,151.47,91.4,151.47,93.6Z"/><path class="cls-5" d="M136.06,121.51c4.51,1.18,5.51,7.88,2.24,15s-9.59,11.89-14.09,10.71-5.5-7.88-2.23-15S131.56,120.33,136.06,121.51Z"/><path class="cls-5" d="M122.19,88.58c5.3-1.07,8.2,3.82,6.48,10.92s-7.41,13.74-12.7,14.81-8.2-3.82-6.48-10.93S116.9,89.65,122.19,88.58Z"/><path class="cls-7" d="M173.19,18.35C163.68.2,143-4.21,118.88,9.67c-33,19.08-59.83,65.49-59.83,103.65,0,14.34,3.78,25.49,10.27,32.79"/><path class="cls-7" d="M96,159.82c10.31,14.9,29.74,17.73,52,4.87,33-19.08,59.84-65.49,59.84-103.65,0-27.77-14.2-43.53-34.67-42.69a50.8,50.8,0,0,0-18.81,4.86l-.2.1q-3,1.38-6.16,3.18C115,45.58,88.18,92,88.18,130.14,88.18,142.58,91,152.61,96,159.82Z"/><path class="cls-7" d="M151.47,93.6c0-2.2-1.54-3.09-3.45-2a7.63,7.63,0,0,0-3.45,6c0,2.21,1.55,3.09,3.45,2A7.59,7.59,0,0,0,151.47,93.6Z"/><path class="cls-7" d="M158.11,54.63c0-6.43-4.52-9-10.09-5.82s-10.08,11-10.08,17.46,4.52,9,10.08,5.83S158.11,61.06,158.11,54.63Z"/><path class="cls-7" d="M122.19,88.58c-5.29,1.07-11,7.7-12.7,14.8s1.18,12,6.48,10.93,11-7.7,12.7-14.81S127.49,87.51,122.19,88.58Z"/><path class="cls-7" d="M122,132.21c-3.27,7.1-2.27,13.8,2.23,15s10.81-3.61,14.09-10.71,2.27-13.79-2.24-15S125.25,125.13,122,132.21Z"/><path class="cls-7" d="M157.76,125.25c3.27,3.31,9.57.82,14.08-5.56s5.5-14.24,2.23-17.55-9.58-.83-14.08,5.56S154.48,121.94,157.76,125.25Z"/><path class="cls-7" d="M180.08,77.3c5.3-5,8.19-13.29,6.47-18.41s-7.4-5.18-12.7-.14S165.66,72,167.38,77.16,174.79,82.34,180.08,77.3Z"/><line class="cls-7" x1="151.82" y1="21.74" x2="154.38" y2="23.21"/><path class="cls-7" d="M96,159.82c-2.83,23.3-14.74,33.07-32.76,32.54-19.5-.57-35.27,45-35.27,45L1.5,222.08s15.77-45.59,35.27-45c17.61.52,29.39-8.78,32.55-31q.51-3.57.72-7.57c1.43-27.64,2.64-48,12.85-69.65,8.5-18,20.72-35.09,36-43.9,12.87-7.43,24.5-8.1,32.93-3.26a20.77,20.77,0,0,1,2.37,1.58"/></g></g></svg>