<svg xmlns="http://www.w3.org/2000/svg" xmlns:xlink="http://www.w3.org/1999/xlink" viewBox="0 0 226.95 254.47"><defs><style>.cls-1,.cls-7,.cls-8{fill:none;}.cls-2{fill:#969a9e;}.cls-3{fill:url(#New_Pattern_Swatch_3);}.cls-4{fill:#fff;}.cls-5{fill:#373a3a;}.cls-6{fill:#c2c7cc;}.cls-7{stroke:#373a3a;}.cls-7,.cls-8{stroke-linecap:round;stroke-linejoin:round;stroke-width:3px;}.cls-8{stroke:#969a9e;}</style><pattern id="New_Pattern_Swatch_3" data-name="New Pattern Swatch 3" width="16" height="19" patternTransform="translate(-2123.38 -47.85) scale(0.4)" patternUnits="userSpaceOnUse" viewBox="0 0 16 19"><rect class="cls-1" width="16" height="19"/><polygon class="cls-2" points="16 22.18 10.5 19 16 15.82 21.5 19 16 22.18"/><polygon class="cls-2" points="8 12.68 2.5 9.5 8 6.33 13.5 9.5 8 12.68"/><polygon class="cls-2" points="0 22.18 -5.5 19 0 15.82 5.5 19 0 22.18"/><polygon class="cls-2" points="16 3.18 10.5 0 16 -3.17 21.5 0 16 3.18"/><polygon class="cls-2" points="0 3.18 -5.5 0 0 -3.17 5.5 0 0 3.18"/></pattern></defs><g id="Layer_2" data-name="Layer 2"><g id="icons_design" data-name="icons design"><path class="cls-3" d="M123.35,253H207a24.22,24.22,0,0,0,10.22-2.26l7.28-3.4a4.2,4.2,0,0,0,0-7.62l-92.77-42.86Z"/><path class="cls-3" d="M167.59,195.82c31,.5,47.27-.83,55.8-2.29a4.07,4.07,0,0,0,1.29-7.59c-13-7.16-40-21.84-68.76-35.9C115.91,130.46,105,194.81,167.59,195.82Z"/><path class="cls-4" d="M51.32,2.12,165.07,67.79a10,10,0,0,1,4.53,7.85v117c0,2.89-2,4.06-4.53,2.62L51.32,129.57a10,10,0,0,1-4.53-7.85V4.73C46.79,1.85,48.82.67,51.32,2.12Zm6.55,61.54c1.41.81,2.62.31,2.79-1.24l1.83-15.87a6.13,6.13,0,0,0-2.45-5c-1.54-1.11-2.94-.66-3.14,1L55.08,58.4a6.1,6.1,0,0,0,2.44,5Zm1.62,57.44c1.67.37,2.6-1.15,2.09-3.37s-2.3-4.33-4-4.69-2.6,1.15-2.08,3.37S57.82,120.74,59.49,121.1Zm1.24-27.5c1.49-.19,2-2.17,1-4.43s-2.86-3.9-4.35-3.71-1.95,2.18-1,4.44S59.24,93.8,60.73,93.6ZM64.2,23a7,7,0,0,0-3.05-5.54c-1.75-1.09-3.22-.36-3.28,1.62a7,7,0,0,0,3.05,5.55C62.66,25.71,64.13,25,64.2,23ZM77.39,78.84l14,2.77c1.47.28,2.28-1.09,1.8-3.07a6.32,6.32,0,0,0-2.67-3.77,2.54,2.54,0,0,0-.89-.35l-14-2.77c-1.47-.29-2.27,1.08-1.79,3.07S75.92,78.55,77.39,78.84Zm2.82,56c1.67.35,2.59-1.18,2.05-3.42s-2.3-4.31-4-4.66-2.59,1.18-2.06,3.4S78.55,134.47,80.21,134.82Zm13.25-18c1.54,1.17,3,.8,3.23-.83a3.91,3.91,0,0,0,0-.49,6.31,6.31,0,0,0-2.37-4.58L79.76,99.8c-1.54-1.18-3-.8-3.22.83a6,6,0,0,0,2.34,5.07ZM83.08,47,94.56,42.9c1.21-.44,1.39-2.37.42-4.33a5.89,5.89,0,0,0-2.19-2.47A2.17,2.17,0,0,0,91,35.8L79.54,39.91c-1.2.44-1.39,2.37-.42,4.33S81.87,47.44,83.08,47Zm19.58,100.57c1.73.71,2.93-.45,2.68-2.59a6.88,6.88,0,0,0-3.58-5.17c-1.73-.71-2.94.45-2.69,2.59A6.85,6.85,0,0,0,102.66,147.58Zm-.79-79.41,12.92,15.74c1.36,1.65,3.07,2.07,3.82.94s.27-3.4-1.09-5L104.6,64.07c-1.36-1.66-3.06-2.07-3.83-.95a2.47,2.47,0,0,0-.35,1.37A6.14,6.14,0,0,0,101.87,68.17Zm9,35.77c1.3-.61,1.4-2.86.23-5s-3.17-3.45-4.47-2.85-1.4,2.86-.23,5S109.58,104.53,110.88,103.94ZM123,142.37c1.12,1.89,2.9,2.87,4,2.19a2,2,0,0,0,.77-1.8,5.74,5.74,0,0,0-.87-2.85L116.2,122c-1.12-1.88-2.91-2.87-4-2.19s-1,2.76.08,4.65Zm-1-83.06c1.69.44,2.68-1,2.21-3.22s-2.2-4.35-3.89-4.79-2.67,1-2.21,3.21S120.37,58.88,122.05,59.31Zm7.74,104.48a7,7,0,0,0-3-5.58c-1.74-1.12-3.24-.45-3.35,1.5a7,7,0,0,0,3,5.58C128.19,166.42,129.69,165.75,129.79,163.79Zm4.79-36.2c.5,2,2.1,3.82,3.57,4.09,1.17.21,1.91-.62,1.91-2a4.77,4.77,0,0,0-.15-1.14l-4.76-18.9c-.49-2-2.09-3.82-3.57-4.09s-2.26,1.12-1.75,3.11ZM139,87.44c.74-1.4,0-4-1.54-5.74s-3.47-2-4.21-.64,0,4,1.55,5.74S138.28,88.85,139,87.44Zm16.46,91.83c1.27,1.77,3,2.42,3.92,1.48a2.26,2.26,0,0,0,.51-1.58,6,6,0,0,0-1.19-3.34L146.64,159c-1.27-1.77-3-2.43-3.92-1.48s-.59,3.15.68,4.92Zm1.75-90.17c1,1.93,2.82,3.07,4,2.53a1.93,1.93,0,0,0,.92-1.88,5.53,5.53,0,0,0-.72-2.58l-9.87-18.39c-1.05-1.93-2.82-3.07-4-2.54s-1.25,2.53-.21,4.47Zm-3.35,36.18a6.23,6.23,0,0,0,2.88,4.84c1.55.85,2.78.07,2.74-1.74l-.34-17.25a6.22,6.22,0,0,0-2.88-4.84c-1.54-.84-2.75-.09-2.75,1.67Zm8.32,29.4A6.83,6.83,0,0,0,159.5,149c-1.73-1.28-3.33-.81-3.58,1a6.89,6.89,0,0,0,2.7,5.69C160.35,157,162,156.54,162.19,154.68Z"/><path class="cls-5" d="M55.08,58.4a6.1,6.1,0,0,0,2.44,5l.35.23c1.41.81,2.62.31,2.79-1.24l1.83-15.87a6.13,6.13,0,0,0-2.45-5c-1.54-1.11-2.94-.66-3.14,1Z"/><path class="cls-4" d="M57.61,113c-1.67-.37-2.6,1.15-2.08,3.37s2.29,4.33,4,4.69,2.6-1.15,2.09-3.37S59.28,113.4,57.61,113Z"/><path class="cls-5" d="M57.41,85.46c-1.49.2-1.95,2.18-1,4.44s2.86,3.9,4.35,3.7,2-2.17,1-4.43S58.9,85.27,57.41,85.46Z"/><path class="cls-4" d="M57.87,19.09a7,7,0,0,0,3.05,5.55c1.74,1.07,3.21.35,3.28-1.63a7,7,0,0,0-3.05-5.54C59.4,16.38,57.93,17.11,57.87,19.09Z"/><path class="cls-4" d="M75.63,71.65c-1.47-.29-2.27,1.08-1.79,3.07s2.08,3.83,3.55,4.12l14,2.77c1.47.28,2.28-1.09,1.8-3.07a6.32,6.32,0,0,0-2.67-3.77,2.54,2.54,0,0,0-.89-.35Z"/><path class="cls-4" d="M78.29,126.74c-1.67-.35-2.59,1.18-2.06,3.4s2.32,4.33,4,4.68,2.59-1.18,2.05-3.42S80,127.09,78.29,126.74Z"/><path class="cls-6" d="M76.54,100.63a6,6,0,0,0,2.34,5.07l14.58,11.1c1.54,1.17,3,.8,3.23-.83a3.91,3.91,0,0,0,0-.49,6.31,6.31,0,0,0-2.37-4.58L79.76,99.8C78.22,98.62,76.78,99,76.54,100.63Z"/><path class="cls-6" d="M79.54,39.91c-1.2.44-1.39,2.37-.42,4.33s2.75,3.2,4,2.77L94.56,42.9c1.21-.44,1.39-2.37.42-4.33a5.89,5.89,0,0,0-2.19-2.47A2.17,2.17,0,0,0,91,35.8Z"/><path class="cls-5" d="M101.76,139.82c-1.73-.71-2.94.45-2.69,2.59a6.85,6.85,0,0,0,3.59,5.17c1.73.71,2.93-.45,2.68-2.59A6.88,6.88,0,0,0,101.76,139.82Z"/><path class="cls-4" d="M100.77,63.12a2.47,2.47,0,0,0-.35,1.37,6.14,6.14,0,0,0,1.45,3.68l12.92,15.74c1.36,1.65,3.07,2.07,3.82.94s.27-3.4-1.09-5L104.6,64.07C103.24,62.41,101.54,62,100.77,63.12Z"/><path class="cls-4" d="M106.64,96.05c-1.3.6-1.4,2.86-.23,5s3.17,3.45,4.47,2.86,1.4-2.86.23-5S107.94,95.45,106.64,96.05Z"/><path class="cls-4" d="M112.23,119.77c-1.08.68-1,2.76.08,4.65l10.69,18c1.12,1.89,2.9,2.87,4,2.19a2,2,0,0,0,.77-1.8,5.74,5.74,0,0,0-.87-2.85L116.2,122C115.08,120.08,113.29,119.09,112.23,119.77Z"/><path class="cls-4" d="M120.37,51.3c-1.68-.44-2.67,1-2.21,3.21s2.21,4.37,3.89,4.8,2.68-1,2.21-3.22S122.06,51.74,120.37,51.3Z"/><path class="cls-4" d="M123.47,159.71a7,7,0,0,0,3,5.58c1.74,1.13,3.24.46,3.34-1.5a7,7,0,0,0-3-5.58C125.08,157.09,123.58,157.76,123.47,159.71Z"/><path class="cls-4" d="M131.58,105.58c-1.46-.27-2.26,1.12-1.75,3.11l4.75,18.9c.5,2,2.1,3.82,3.57,4.09,1.17.21,1.91-.62,1.91-2a4.77,4.77,0,0,0-.15-1.14l-4.76-18.9C134.66,107.69,133.06,105.85,131.58,105.58Z"/><path class="cls-5" d="M133.26,81.06c-.73,1.41,0,4,1.55,5.74s3.47,2,4.2.64,0-4-1.54-5.74S134,79.65,133.26,81.06Z"/><path class="cls-4" d="M142.72,157.56c-.9.95-.59,3.15.68,4.92l12.07,16.79c1.27,1.77,3,2.42,3.92,1.48a2.26,2.26,0,0,0,.51-1.58,6,6,0,0,0-1.19-3.34L146.64,159C145.37,157.27,143.61,156.61,142.72,157.56Z"/><path class="cls-5" d="M147.55,66.24c-1.15.54-1.25,2.53-.21,4.47l9.88,18.39c1,1.93,2.82,3.07,4,2.53a1.93,1.93,0,0,0,.92-1.88,5.53,5.53,0,0,0-.72-2.58l-9.87-18.39C150.48,66.85,148.71,65.71,147.55,66.24Z"/><path class="cls-4" d="M153.52,108s.35,17.32.35,17.32a6.23,6.23,0,0,0,2.88,4.84c1.55.85,2.78.07,2.74-1.74l-.34-17.25a6.22,6.22,0,0,0-2.88-4.84C154.73,105.45,153.52,106.2,153.52,108Z"/><path class="cls-5" d="M155.92,150a6.89,6.89,0,0,0,2.7,5.69c1.73,1.28,3.33.81,3.57-1A6.83,6.83,0,0,0,159.5,149C157.77,147.72,156.17,148.19,155.92,150Z"/><path class="cls-7" d="M51.32,129.57l113.75,65.68c2.51,1.44,4.53.27,4.53-2.62v-117a10,10,0,0,0-4.53-7.85L51.32,2.12c-2.5-1.45-4.53-.27-4.53,2.61v117A10,10,0,0,0,51.32,129.57Z"/><path class="cls-7" d="M61.58,117.73c.51,2.22-.42,3.74-2.09,3.37s-3.44-2.46-4-4.69.41-3.74,2.08-3.37S61.06,115.5,61.58,117.73Z"/><path class="cls-7" d="M158.62,155.73a6.89,6.89,0,0,1-2.7-5.69c.25-1.85,1.85-2.32,3.58-1a6.83,6.83,0,0,1,2.69,5.68C162,156.54,160.35,157,158.62,155.73Z"/><path class="cls-7" d="M57.41,85.46c1.49-.19,3.44,1.47,4.35,3.71s.46,4.24-1,4.43-3.44-1.46-4.35-3.7S55.92,85.66,57.41,85.46Z"/><path class="cls-7" d="M60.92,24.64a7,7,0,0,1-3.05-5.55c.06-2,1.53-2.71,3.28-1.62A7,7,0,0,1,64.2,23C64.13,25,62.66,25.71,60.92,24.64Z"/><path class="cls-7" d="M139,87.44c-.73,1.41-2.61,1.13-4.2-.64s-2.28-4.33-1.55-5.74,2.62-1.12,4.21.64S139.75,86,139,87.44Z"/><path class="cls-7" d="M126.45,165.29a7,7,0,0,1-3-5.58c.11-2,1.61-2.62,3.35-1.5a7,7,0,0,1,3,5.58C129.69,165.75,128.19,166.42,126.45,165.29Z"/><path class="cls-7" d="M106.64,96.05c1.3-.6,3.3.68,4.47,2.85s1.07,4.43-.23,5-3.3-.68-4.47-2.86S105.34,96.65,106.64,96.05Z"/><path class="cls-7" d="M78.29,126.74c1.67.35,3.44,2.44,4,4.66s-.38,3.77-2.05,3.42-3.45-2.45-4-4.68S76.62,126.39,78.29,126.74Z"/><path class="cls-7" d="M101.76,139.82a6.88,6.88,0,0,1,3.58,5.17c.25,2.14-1,3.3-2.68,2.59a6.85,6.85,0,0,1-3.59-5.17C98.82,140.27,100,139.11,101.76,139.82Z"/><path class="cls-7" d="M120.37,51.3c1.69.44,3.43,2.58,3.89,4.79s-.52,3.66-2.21,3.22-3.42-2.58-3.89-4.8S118.69,50.86,120.37,51.3Z"/><path class="cls-7" d="M79.12,44.24c1,2,2.75,3.2,4,2.77L94.56,42.9c1.21-.44,1.39-2.37.42-4.33a5.89,5.89,0,0,0-2.19-2.47A2.17,2.17,0,0,0,91,35.8L79.54,39.91C78.34,40.35,78.15,42.28,79.12,44.24Z"/><path class="cls-7" d="M147.55,66.24c-1.15.54-1.25,2.53-.21,4.47l9.88,18.39c1,1.93,2.82,3.07,4,2.53a1.93,1.93,0,0,0,.92-1.88,5.53,5.53,0,0,0-.72-2.58l-9.87-18.39C150.48,66.85,148.71,65.71,147.55,66.24Z"/><path class="cls-8" d="M118.61,84.85c.76-1.13.27-3.4-1.09-5L104.6,64.07c-1.36-1.66-3.06-2.07-3.83-.95a2.47,2.47,0,0,0-.35,1.37,6.14,6.14,0,0,0,1.45,3.68l12.92,15.74C116.15,85.56,117.86,86,118.61,84.85Z"/><path class="cls-8" d="M131.58,105.58c-1.46-.27-2.26,1.12-1.75,3.11l4.75,18.9c.5,2,2.1,3.82,3.57,4.09,1.17.21,1.91-.62,1.91-2a4.77,4.77,0,0,0-.15-1.14l-4.76-18.9C134.66,107.69,133.06,105.85,131.58,105.58Z"/><path class="cls-8" d="M142.72,157.56c-.9.95-.59,3.15.68,4.92l12.07,16.79c1.27,1.77,3,2.42,3.92,1.48a2.26,2.26,0,0,0,.51-1.58,6,6,0,0,0-1.19-3.34L146.64,159C145.37,157.27,143.61,156.61,142.72,157.56Z"/><path class="cls-7" d="M112.23,119.77c-1.08.68-1,2.76.08,4.65l10.69,18c1.12,1.89,2.9,2.87,4,2.19a2,2,0,0,0,.77-1.8,5.74,5.74,0,0,0-.87-2.85L116.2,122C115.08,120.08,113.29,119.09,112.23,119.77Z"/><path class="cls-8" d="M156.75,130.12c1.55.85,2.78.07,2.74-1.74l-.34-17.25a6.22,6.22,0,0,0-2.88-4.84c-1.54-.84-2.75-.09-2.75,1.67,0,0,.35,17.32.35,17.32A6.23,6.23,0,0,0,156.75,130.12Z"/><path class="cls-7" d="M60,41.51c-1.54-1.11-2.94-.66-3.14,1L55.08,58.4a6.1,6.1,0,0,0,2.44,5l.35.23c1.41.81,2.62.31,2.79-1.24l1.83-15.87A6.13,6.13,0,0,0,60,41.51Z"/><path class="cls-7" d="M73.84,74.72c.48,2,2.08,3.83,3.55,4.12l14,2.77c1.47.28,2.28-1.09,1.8-3.07a6.32,6.32,0,0,0-2.67-3.77,2.54,2.54,0,0,0-.89-.35l-14-2.77C74.16,71.36,73.36,72.73,73.84,74.72Z"/><path class="cls-7" d="M76.54,100.63a6,6,0,0,0,2.34,5.07l14.58,11.1c1.54,1.17,3,.8,3.23-.83a3.91,3.91,0,0,0,0-.49,6.31,6.31,0,0,0-2.37-4.58L79.76,99.8C78.22,98.62,76.78,99,76.54,100.63Z"/><path class="cls-4" d="M123.35,112.28V253L1.5,182.63V41.93ZM28.78,156.5V98.18l68.9,119.33,7.79-4.5L36.57,93.68l50.51,29.16V110.13l-69.31-40v80Z"/><polygon class="cls-2" points="1.5 41.93 123.35 112.28 136.12 104.91 14.28 34.56 1.5 41.93"/><polygon class="cls-5" points="17.77 70.11 17.77 150.14 28.78 156.5 28.78 98.18 97.68 217.51 105.47 213.01 36.57 93.68 87.08 122.84 87.08 110.13 17.77 70.11"/><polygon class="cls-2" points="123.35 112.28 123.35 252.97 136.12 245.6 136.12 104.91 123.35 112.28"/><polygon class="cls-7" points="1.5 41.93 1.5 182.63 123.35 252.97 123.35 112.28 1.5 41.93"/><polygon class="cls-7" points="87.08 110.13 87.08 122.84 36.57 93.68 105.47 213.01 97.68 217.51 28.78 98.18 28.78 156.5 17.77 150.14 17.77 70.11 87.08 110.13"/><polyline class="cls-7" points="123.35 252.97 136.12 245.6 136.12 104.91 14.28 34.56 1.5 41.93"/><line class="cls-7" x1="136.12" y1="104.91" x2="123.35" y2="112.28"/></g></g></svg>