<svg xmlns="http://www.w3.org/2000/svg" xmlns:xlink="http://www.w3.org/1999/xlink" viewBox="0 0 150.61 242.63"><defs><style>.cls-1,.cls-8{fill:none;}.cls-2{fill:#969a9e;}.cls-3{fill:url(#New_Pattern_Swatch_3);}.cls-4{fill:#373a3a;}.cls-5{fill:#fff;}.cls-6{fill:#5f646b;}.cls-7{fill:#c2c7cc;}.cls-8{stroke:#373a3a;stroke-linecap:round;stroke-linejoin:round;stroke-width:3px;}</style><pattern id="New_Pattern_Swatch_3" data-name="New Pattern Swatch 3" width="16" height="19" patternTransform="translate(-2123.38 -47.85) scale(0.4)" patternUnits="userSpaceOnUse" viewBox="0 0 16 19"><rect class="cls-1" width="16" height="19"/><polygon class="cls-2" points="16 22.18 10.5 19 16 15.82 21.5 19 16 22.18"/><polygon class="cls-2" points="8 12.68 2.5 9.5 8 6.33 13.5 9.5 8 12.68"/><polygon class="cls-2" points="0 22.18 -5.5 19 0 15.82 5.5 19 0 22.18"/><polygon class="cls-2" points="16 3.18 10.5 0 16 -3.17 21.5 0 16 3.18"/><polygon class="cls-2" points="0 3.18 -5.5 0 0 -3.17 5.5 0 0 3.18"/></pattern></defs><g id="Layer_2" data-name="Layer 2"><g id="icons_design" data-name="icons design"><path class="cls-3" d="M145.46,239.66c-7.61,4.4-20.92,3.84-29.72-1.23L23.46,185.14c-8.8-5.07-9.76-12.76-2.14-17.16s20.93-3.84,29.72,1.24l92.29,53.28C152.13,227.58,153.08,235.26,145.46,239.66Z"/><g id="white_board" data-name="white board"><path class="cls-4" d="M142.66,84.86V187.07c0,2.74-.92,4.69-2.36,5.52l-7.11,4.1c1.45-.84,2.35-2.77,2.35-5.51V89c0-5-3-10.85-6.81-13L8.31,6.42A4.42,4.42,0,0,0,3.94,6l7-4a4.35,4.35,0,0,1,4.46.36L135.84,71.84C139.61,74,142.66,79.85,142.66,84.86Z"/><path class="cls-5" d="M61.76,81.09A59.6,59.6,0,0,0,48.12,62a41.53,41.53,0,0,0-7.07-5.24c-7.37-4.25-14-4.45-18.63-1.34-4.18,2.8-6.74,8.32-6.74,16,0,16.18,11.35,35.85,25.37,43.94s25.36,1.54,25.36-14.65A48.51,48.51,0,0,0,61.76,81.09ZM135.54,89V191.18c0,2.74-.9,4.67-2.35,5.51a4.4,4.4,0,0,1-4.46-.36L8.31,126.81c-3.77-2.18-6.81-8-6.81-13V11.58c0-2.74.91-4.68,2.35-5.52l.09,0a4.42,4.42,0,0,1,4.37.41L128.73,75.94C132.5,78.12,135.54,84,135.54,89Z"/><path class="cls-5" d="M68.42,179.06a5.88,5.88,0,1,1-5.88,5.87A5.87,5.87,0,0,1,68.42,179.06Z"/><path class="cls-6" d="M61.76,81.09a48.51,48.51,0,0,1,4.65,19.59c0,16.19-11.35,22.74-25.36,14.65S15.68,87.57,15.68,71.39c0-7.67,2.56-13.19,6.74-16L41.05,86Z"/><path class="cls-5" d="M61.76,81.09,41.05,86,48.12,62A59.34,59.34,0,0,1,61.76,81.09Z"/><path class="cls-7" d="M48.12,62,41.05,86,22.42,55.4c4.63-3.11,11.26-2.91,18.63,1.34A41.53,41.53,0,0,1,48.12,62Z"/><line class="cls-8" x1="72.56" y1="189.1" x2="90.15" y2="200.86"/><line class="cls-8" x1="64.27" y1="189.1" x2="46.68" y2="200.86"/><line class="cls-8" x1="68.42" y1="161.51" x2="68.42" y2="179.06"/><line class="cls-8" x1="68.42" y1="190.81" x2="68.42" y2="214.18"/><path class="cls-8" d="M72.56,189.1a5.88,5.88,0,1,0-4.14,1.71A5.87,5.87,0,0,0,72.56,189.1Z"/><path class="cls-8" d="M3.94,6a4.42,4.42,0,0,1,4.37.41L128.73,75.94c3.77,2.18,6.81,8,6.81,13V191.18c0,2.74-.9,4.68-2.35,5.51a4.37,4.37,0,0,1-4.46-.36L8.31,126.81c-3.77-2.18-6.81-8-6.81-13V11.58c0-2.74.91-4.68,2.35-5.52Z"/><path class="cls-8" d="M133.19,196.69l7.11-4.1c1.44-.83,2.36-2.78,2.36-5.52V84.86c0-5-3-10.84-6.82-13L15.42,2.32A4.35,4.35,0,0,0,11,2L3.85,6.06"/><path class="cls-8" d="M48.12,62a41.53,41.53,0,0,0-7.07-5.24c-7.37-4.25-14-4.45-18.63-1.34-4.18,2.8-6.74,8.32-6.74,16,0,16.18,11.35,35.85,25.37,43.94s25.36,1.54,25.36-14.65a48.51,48.51,0,0,0-4.65-19.59A59.6,59.6,0,0,0,48.12,62Z"/><polyline class="cls-8" points="48.12 61.98 41.05 86.04 22.42 55.4"/><line class="cls-8" x1="41.05" y1="86.04" x2="61.76" y2="81.09"/><line class="cls-8" x1="79.55" y1="87.42" x2="117.09" y2="109.1"/><line class="cls-8" x1="79.55" y1="97.86" x2="99.42" y2="109.33"/><line class="cls-8" x1="109.74" y1="115.29" x2="117.09" y2="119.53"/><line class="cls-8" x1="79.55" y1="108.3" x2="117.09" y2="129.98"/><line class="cls-8" x1="79.55" y1="118.75" x2="90.17" y2="124.88"/><line class="cls-8" x1="99.11" y1="130.04" x2="117.09" y2="140.42"/><line class="cls-8" x1="79.55" y1="129.18" x2="107.74" y2="145.46"/></g></g></g></svg>