<svg xmlns="http://www.w3.org/2000/svg" xmlns:xlink="http://www.w3.org/1999/xlink" viewBox="0 0 225.61 247.79"><defs><style>.cls-1,.cls-9{fill:none;}.cls-2{fill:#969a9e;}.cls-3{fill:url(#New_Pattern_Swatch_3);}.cls-4{fill:#5f646b;}.cls-5{fill:#fff;}.cls-6{fill:#dae0e5;}.cls-7{fill:#f6d84c;}.cls-8{fill:#373a3a;}.cls-9{stroke:#373a3a;stroke-linecap:round;stroke-linejoin:round;stroke-width:3px;}</style><pattern id="New_Pattern_Swatch_3" data-name="New Pattern Swatch 3" width="16" height="19" patternTransform="translate(-2123.38 -47.85) scale(0.4)" patternUnits="userSpaceOnUse" viewBox="0 0 16 19"><rect class="cls-1" width="16" height="19"/><polygon class="cls-2" points="16 22.18 10.5 19 16 15.82 21.5 19 16 22.18"/><polygon class="cls-2" points="8 12.68 2.5 9.5 8 6.33 13.5 9.5 8 12.68"/><polygon class="cls-2" points="0 22.18 -5.5 19 0 15.82 5.5 19 0 22.18"/><polygon class="cls-2" points="16 3.18 10.5 0 16 -3.17 21.5 0 16 3.18"/><polygon class="cls-2" points="0 3.18 -5.5 0 0 -3.17 5.5 0 0 3.18"/></pattern></defs><g id="Layer_2" data-name="Layer 2"><g id="icons_design" data-name="icons design"><path class="cls-3" d="M217.59,225.59,115.81,166.83c-9.71-5.6-24.38-6.21-32.78-1.36h0l-19.24-9-24.3,49L87.24,213l23.45-14,76.47,44.15c9.7,5.6,24.38,6.21,32.78,1.36S227.29,231.19,217.59,225.59Z"/><path class="cls-4" d="M199.89,89.39V192.06c0,3.61-1.27,6.14-3.31,7.32l-15.23,8.8h0c2-1.21,3.16-3.71,3.16-7.23V98.28c0-7.22-5.07-16-11.31-19.6L57.58,11.93c-3.13-1.81-5.95-2-8-.79h0L65,2.25c2-1.18,4.88-1,8,.8L188.59,69.8C194.83,73.4,199.89,82.18,199.89,89.39Z"/><path class="cls-5" d="M184.51,98.28V200.94c0,3.52-1.2,6-3.16,7.23s-5,1.15-8.15-.7l-30-17.34L137.84,218l-18-41.33-62.31-36c-6.25-3.61-11.32-12.38-11.32-19.6V18.45c0-3.61,1.28-6.15,3.33-7.31s4.86-1,8,.79L173.2,78.68C179.44,82.28,184.51,91.06,184.51,98.28Zm-20.87,6.19c0-2.67-1.63-5.78-3.63-6.94L105.68,66.17c-2-1.16-3.63.07-3.63,2.74s1.63,5.79,3.63,7L160,107.22C162,108.38,163.64,107.14,163.64,104.47Zm0,31.35c0-2.68-1.63-5.79-3.63-6.94L105.68,97.51c-2-1.16-3.63.08-3.63,2.75s1.63,5.78,3.63,6.94L160,138.56C162,139.72,163.64,138.49,163.64,135.82Zm0,31.34c0-2.68-1.63-5.78-3.63-6.94l-54.33-31.37c-2-1.16-3.63.07-3.63,2.75s1.63,5.78,3.63,6.94L160,169.91C162,171.05,163.64,169.83,163.64,167.16ZM87.11,129.79V118.35L67.28,106.9v11.45Zm0-28.87L77.2,76.42,67.31,89.51Zm-1.49-41c0-5.35-3.76-11.86-8.38-14.53s-8.4-.52-8.4,4.83,3.76,11.87,8.4,14.54S85.58,65.26,85.58,59.92Z"/><path class="cls-5" d="M160,97.53c2,1.16,3.63,4.27,3.63,6.94s-1.63,3.91-3.63,2.75L105.68,75.86c-2-1.16-3.63-4.28-3.63-7s1.63-3.9,3.63-2.74Z"/><path class="cls-5" d="M160,128.88c2,1.15,3.63,4.26,3.63,6.94s-1.63,3.9-3.63,2.74L105.68,107.2c-2-1.16-3.63-4.27-3.63-6.94s1.63-3.91,3.63-2.75Z"/><path class="cls-5" d="M160,160.22c2,1.16,3.63,4.26,3.63,6.94s-1.63,3.89-3.63,2.75l-54.33-31.37c-2-1.16-3.63-4.27-3.63-6.94s1.63-3.91,3.63-2.75Z"/><polygon class="cls-4" points="155.49 197.24 155.49 197.25 153.22 209.14 137.84 218.03 143.18 190.13 155.49 197.24"/><polygon class="cls-6" points="87.11 118.35 87.11 129.79 67.28 118.35 67.28 106.9 87.11 118.35"/><polygon class="cls-7" points="77.2 76.42 87.07 100.92 67.31 89.51 77.2 76.42"/><path class="cls-8" d="M77.2,45.39c4.62,2.67,8.38,9.18,8.38,14.53s-3.76,7.52-8.38,4.84-8.4-9.18-8.4-14.54S72.56,42.7,77.2,45.39Z"/><path class="cls-9" d="M181.35,208.17c2-1.21,3.16-3.71,3.16-7.23V98.28c0-7.22-5.07-16-11.31-19.6L57.58,11.93c-3.13-1.81-5.94-2-8-.79s-3.33,3.7-3.33,7.31V121.12c0,7.22,5.07,16,11.32,19.6l62.31,36,18,41.33,5.34-27.9,30,17.34C176.39,209.32,179.29,209.44,181.35,208.17Z"/><path class="cls-9" d="M85.58,59.92c0-5.35-3.76-11.86-8.38-14.53s-8.4-.52-8.4,4.83,3.76,11.87,8.4,14.54S85.58,65.26,85.58,59.92Z"/><polygon class="cls-9" points="67.31 89.51 77.2 76.42 87.07 100.92 67.31 89.51"/><polygon class="cls-9" points="87.11 129.79 67.28 118.35 67.28 106.9 87.11 118.35 87.11 129.79"/><path class="cls-9" d="M160,107.22,105.68,75.86c-2-1.16-3.63-4.28-3.63-7s1.63-3.9,3.63-2.74L160,97.53c2,1.16,3.63,4.27,3.63,6.94S162,108.38,160,107.22Z"/><path class="cls-9" d="M160,138.56,105.68,107.2c-2-1.16-3.63-4.27-3.63-6.94s1.63-3.91,3.63-2.75L160,128.88c2,1.15,3.63,4.26,3.63,6.94S162,139.72,160,138.56Z"/><path class="cls-9" d="M160,169.91l-54.33-31.37c-2-1.16-3.63-4.27-3.63-6.94s1.63-3.91,3.63-2.75L160,160.22c2,1.16,3.63,4.26,3.63,6.94S162,171.05,160,169.91Z"/><path class="cls-9" d="M181.2,208.26l15.38-8.88c2-1.18,3.31-3.71,3.31-7.32V89.39c0-7.21-5.06-16-11.3-19.59L73,3.05c-3.12-1.81-6-2-8-.8L49.58,11.13"/><polyline class="cls-9" points="155.49 197.25 153.22 209.14 137.84 218.03"/><g id="cube"><polygon class="cls-8" points="77.19 139.89 77.19 183.59 39.35 205.44 39.35 161.74 77.19 139.89"/><polygon class="cls-5" points="77.19 139.89 39.35 161.74 1.5 139.89 39.35 118.04 77.19 139.89"/><polygon class="cls-6" points="39.35 161.74 39.35 205.44 1.5 183.59 1.5 139.89 39.35 161.74"/><polygon class="cls-9" points="1.5 139.89 39.35 118.04 77.19 139.89 39.35 161.74 1.5 139.89"/><line class="cls-9" x1="39.35" y1="161.74" x2="39.35" y2="205.44"/><polyline class="cls-9" points="1.5 139.89 1.5 183.59 39.35 205.44 77.19 183.59 77.19 139.89"/></g></g></g></svg>