<svg xmlns="http://www.w3.org/2000/svg" xmlns:xlink="http://www.w3.org/1999/xlink" viewBox="0 0 258.85 213.37"><defs><style>.cls-1,.cls-9{fill:none;}.cls-2{fill:#969a9e;}.cls-3{fill:url(#New_Pattern_Swatch_3);}.cls-4{fill:#fff;}.cls-5{fill:#dae0e5;}.cls-6{fill:#5f646b;}.cls-7{fill:#c2c7cc;}.cls-8{fill:#373a3a;}.cls-9{stroke:#373a3a;stroke-linecap:round;stroke-linejoin:round;stroke-width:3px;}</style><pattern id="New_Pattern_Swatch_3" data-name="New Pattern Swatch 3" width="16" height="19" patternTransform="translate(-2123.38 -47.85) scale(0.4)" patternUnits="userSpaceOnUse" viewBox="0 0 16 19"><rect class="cls-1" width="16" height="19"/><polygon class="cls-2" points="16 22.18 10.5 19 16 15.82 21.5 19 16 22.18"/><polygon class="cls-2" points="8 12.68 2.5 9.5 8 6.33 13.5 9.5 8 12.68"/><polygon class="cls-2" points="0 22.18 -5.5 19 0 15.82 5.5 19 0 22.18"/><polygon class="cls-2" points="16 3.18 10.5 0 16 -3.17 21.5 0 16 3.18"/><polygon class="cls-2" points="0 3.18 -5.5 0 0 -3.17 5.5 0 0 3.18"/></pattern></defs><g id="Layer_2" data-name="Layer 2"><g id="icons_design" data-name="icons design"><path class="cls-3" d="M89.68,202.27c.37-.74,72.55,11.1,72.55,11.1l96.62-56.26L157.42,117.87S89.31,203,89.68,202.27Z"/><path class="cls-4" d="M88.24,1.5,175,51.57,88.23,101.64,1.5,51.57Zm14.88,63L98.34,25.91l-17.2-.71,3.55,28.61L55.92,52.63l1.24,9.93Z"/><path class="cls-5" d="M175,51.57V151.71L88.23,201.78V101.64Zm-23.52,61.75c0-10.71-7.53-15.06-16.81-9.7s-16.8,18.39-16.8,29.1,7.53,15.06,16.8,9.7S151.43,124,151.43,113.32Z"/><polygon class="cls-6" points="98.34 25.91 103.12 64.46 57.16 62.56 55.92 52.63 84.69 53.81 81.14 25.2 98.34 25.91"/><path class="cls-7" d="M134.62,103.62c9.28-5.36,16.8-1,16.81,9.7s-7.53,23.75-16.81,29.1-16.79,1-16.8-9.7S125.35,109,134.62,103.62Zm5.94,16c0-3.78-2.66-5.32-5.94-3.43a13.13,13.13,0,0,0-5.92,10.28c0,3.78,2.65,5.31,5.92,3.42A13.13,13.13,0,0,0,140.56,119.6Z"/><path class="cls-8" d="M134.62,116.17c3.28-1.89,5.93-.35,5.94,3.43a13.13,13.13,0,0,1-5.94,10.27c-3.27,1.89-5.93.36-5.92-3.42A13.13,13.13,0,0,1,134.62,116.17Z"/><path class="cls-7" d="M1.5,51.57l86.73,50.07V201.78L76,194.72c-7-27.07-20.3-48.39-27.68-58.72l0,0h0c2.56-1,4.25-4.11,4.25-8.7,0-7.63-4.67-16.52-10.39-19.82s-10.37.21-10.38,7.86A26.21,26.21,0,0,0,36,128.87v0h0c-7.37,1.82-20.74,7.73-27.66,26.78l-6.88-4Z"/><path class="cls-4" d="M31.8,115.29c0-7.65,4.66-11.17,10.38-7.86s10.39,12.19,10.39,19.82c0,4.59-1.69,7.65-4.25,8.7h0c-1.71.68-3.82.47-6.1-.85a19,19,0,0,1-6.13-6.22v0A26.21,26.21,0,0,1,31.8,115.29Z"/><path class="cls-8" d="M48.28,136l0,0C55.71,146.33,69,167.65,76,194.72l-67.63-39c6.92-19.05,20.29-25,27.66-26.78h0a19,19,0,0,0,6.13,6.22C44.46,136.43,46.57,136.64,48.28,136Z"/><polygon class="cls-9" points="1.5 51.57 88.23 1.5 174.95 51.57 88.23 101.64 1.5 51.57"/><line class="cls-9" x1="88.23" y1="101.64" x2="88.23" y2="201.78"/><polyline class="cls-9" points="1.5 51.57 1.5 151.71 88.23 201.78 174.95 151.71 174.95 51.57"/><path class="cls-9" d="M48.28,136h0c2.56-1,4.25-4.11,4.25-8.7,0-7.63-4.67-16.52-10.39-19.82s-10.37.21-10.38,7.86A26.21,26.21,0,0,0,36,128.87v0a19,19,0,0,0,6.13,6.22C44.46,136.43,46.57,136.64,48.28,136Z"/><path class="cls-9" d="M48.33,136C55.71,146.33,69,167.65,76,194.72"/><path class="cls-9" d="M8.38,155.68c6.92-19.05,20.29-25,27.66-26.78"/><polygon class="cls-9" points="98.34 25.91 81.14 25.2 84.69 53.81 55.92 52.63 57.16 62.56 103.12 64.46 98.34 25.91"/><path class="cls-9" d="M151.43,113.32c0-10.71-7.53-15.06-16.81-9.7s-16.8,18.39-16.8,29.1,7.53,15.06,16.8,9.7S151.43,124,151.43,113.32Z"/><path class="cls-9" d="M140.56,119.6c0-3.78-2.66-5.32-5.94-3.43a13.13,13.13,0,0,0-5.92,10.28c0,3.78,2.65,5.31,5.92,3.42A13.13,13.13,0,0,0,140.56,119.6Z"/></g></g></svg>