<svg xmlns="http://www.w3.org/2000/svg" xmlns:xlink="http://www.w3.org/1999/xlink" viewBox="0 0 220.31 271.6"><defs><style>.cls-1,.cls-7{fill:none;}.cls-2{fill:#969a9e;}.cls-3{fill:url(#New_Pattern_Swatch_3);}.cls-4{fill:#fff;}.cls-5{fill:#5f646b;}.cls-6{fill:#373a3a;}.cls-7{stroke:#373a3a;stroke-linecap:round;stroke-linejoin:round;stroke-width:3px;}</style><pattern id="New_Pattern_Swatch_3" data-name="New Pattern Swatch 3" width="16" height="19" patternTransform="translate(-2123.38 -47.85) scale(0.4)" patternUnits="userSpaceOnUse" viewBox="0 0 16 19"><rect class="cls-1" width="16" height="19"/><polygon class="cls-2" points="16 22.18 10.5 19 16 15.82 21.5 19 16 22.18"/><polygon class="cls-2" points="8 12.68 2.5 9.5 8 6.33 13.5 9.5 8 12.68"/><polygon class="cls-2" points="0 22.18 -5.5 19 0 15.82 5.5 19 0 22.18"/><polygon class="cls-2" points="16 3.18 10.5 0 16 -3.17 21.5 0 16 3.18"/><polygon class="cls-2" points="0 3.18 -5.5 0 0 -3.17 5.5 0 0 3.18"/></pattern></defs><g id="Layer_2" data-name="Layer 2"><g id="icons_design" data-name="icons design"><path class="cls-3" d="M216.46,224.41c-.17-3.85-4.1-7-7.81-7.2-8.14-.34-16.27-.86-24.37-1.72-.89-.1-1.78-.18-2.68-.27,1.33-1,2.66-2.1,4-3.15,4.33-3.44,1.63-10.7-3.15-12a60,60,0,0,1-11.69-4.36c-3.88-1.94-7.11-4.39-11.53-4.78a5.54,5.54,0,0,0-5.07,3.22l-16.57,5.89-34.63-4.37L84.48,217.18,103,219.1,84.6,222.62,44,213.86l-32.44,8,30,20.06,34.63,4.38-13,7.49,23.07,5L99.37,249l22.49,3.16L99,265.35l25.39,6.25,27.09-16.37L162.76,257l.36.17c6.94,3.68,12.33,4.4,19.58,1.13,12.6-5.68,24.8-12.3,35.3-21.38,3-2.58,2.95-7.6.63-10.52A8.57,8.57,0,0,0,216.46,224.41Z"/><g id="_" data-name="#"><path class="cls-4" d="M140.33,117.84v24.24l-27.48,15.86-7.54,47.32L84,217.54l7.35-47.2L70.21,182.57l-7.55,47.31L41.11,242.33,48.64,195l-13,7.48V178.27l17.17-9.92,5.72-35.8L35.67,145.77V121.42l27.19-15.69,7.53-47.32L91.76,46.07,84.23,93.38l21.08-12.17L112.66,34,134.8,21.23,127.16,68.6,140.33,61V85.34L122.87,95.42l-5.73,35.81ZM95.58,143.68,101.12,108,80,120.15,74.4,155.91Z"/><polygon class="cls-2" points="140.33 60.99 127.16 68.6 129.41 54.69 140.33 60.99"/><polygon class="cls-2" points="140.33 117.84 117.14 131.23 121.07 106.72 140.33 117.84"/><polygon class="cls-4" points="134.8 21.23 112.66 34 78.5 14.28 100.63 1.5 134.8 21.23"/><polygon class="cls-5" points="112.66 34 105.31 81.21 87.78 71.09 91.76 46.07 75.05 36.42 78.5 14.28 112.66 34"/><polygon class="cls-6" points="105.31 81.21 84.23 93.38 87.78 71.09 105.31 81.21"/><polygon class="cls-5" points="101.12 107.98 95.58 143.68 77.93 133.49 80.03 120.15 101.12 107.98"/><polygon class="cls-6" points="95.58 143.68 74.4 155.91 77.93 133.49 95.58 143.68"/><polygon class="cls-4" points="91.76 46.07 70.39 58.41 36.22 38.68 57.6 26.35 91.76 46.07"/><polygon class="cls-5" points="91.39 170.34 84.04 217.54 66.27 207.28 70.21 182.57 91.39 170.34"/><polygon class="cls-2" points="70.39 58.41 62.86 105.73 28.69 86 36.22 38.68 70.39 58.41"/><polygon class="cls-2" points="62.86 105.73 35.67 121.42 1.5 101.7 28.69 86 62.86 105.73"/><polygon class="cls-5" points="58.56 132.55 52.84 168.35 18.67 148.63 20.53 137.03 35.67 145.77 58.56 132.55"/><polygon class="cls-2" points="52.84 168.35 35.67 178.27 1.5 158.54 18.67 148.63 52.84 168.35"/><polygon class="cls-5" points="48.64 195.02 41.1 242.33 6.94 222.61 12.29 189.01 35.67 202.5 48.64 195.02"/><polygon class="cls-4" points="35.67 178.27 35.67 202.5 1.5 182.78 1.5 158.54 35.67 178.27"/><polygon class="cls-4" points="35.67 121.42 35.67 145.77 1.5 126.05 1.5 101.7 35.67 121.42"/><polygon class="cls-7" points="41.1 242.33 48.64 195.02 35.67 202.5 35.67 178.27 52.84 168.35 58.56 132.55 35.67 145.77 35.67 121.42 62.86 105.73 70.39 58.41 91.76 46.07 84.23 93.38 105.31 81.21 112.66 34 134.8 21.23 127.16 68.6 140.33 60.99 140.33 85.34 122.87 95.42 117.14 131.23 140.33 117.84 140.33 142.08 112.85 157.94 105.31 205.26 84.04 217.54 91.39 170.34 70.21 182.57 62.66 229.88 41.1 242.33"/><polygon class="cls-7" points="95.58 143.68 101.12 107.98 80.03 120.15 74.4 155.91 95.58 143.68"/><polyline class="cls-7" points="75.05 36.42 78.5 14.28 100.63 1.5 134.8 21.23"/><line class="cls-7" x1="78.5" y1="14.28" x2="112.66" y2="34"/><line class="cls-7" x1="36.22" y1="38.68" x2="70.39" y2="58.41"/><line class="cls-7" x1="105.31" y1="81.21" x2="87.78" y2="71.09"/><line class="cls-7" x1="140.33" y1="60.99" x2="129.4" y2="54.69"/><line class="cls-7" x1="28.69" y1="86" x2="62.86" y2="105.73"/><line class="cls-7" x1="1.5" y1="101.7" x2="35.67" y2="121.42"/><polyline class="cls-7" points="91.76 46.07 57.6 26.35 36.22 38.68 28.69 86 1.5 101.7 1.5 126.05 35.67 145.77"/><line class="cls-7" x1="1.5" y1="158.54" x2="35.67" y2="178.27"/><polyline class="cls-7" points="20.53 137.03 18.67 148.63 1.5 158.54 1.5 182.78 35.67 202.5"/><polyline class="cls-7" points="12.29 189.01 6.94 222.61 41.1 242.33"/><line class="cls-7" x1="52.84" y1="168.35" x2="18.67" y2="148.63"/><line class="cls-7" x1="84.04" y1="217.54" x2="66.27" y2="207.28"/><line class="cls-7" x1="95.58" y1="143.68" x2="77.93" y2="133.49"/><line class="cls-7" x1="140.33" y1="117.84" x2="121.07" y2="106.72"/></g></g></g></svg>