<svg xmlns="http://www.w3.org/2000/svg" xmlns:xlink="http://www.w3.org/1999/xlink" viewBox="0 0 248.67 254.39"><defs><style>.cls-1,.cls-9{fill:none;}.cls-2{fill:#969a9e;}.cls-3{fill:url(#New_Pattern_Swatch_3);}.cls-4{fill:#dae0e5;}.cls-5{fill:#373a3a;}.cls-6{fill:#fff;}.cls-7{fill:#5f646b;}.cls-8{fill:#f6d84c;}.cls-9{stroke:#373a3a;stroke-linecap:round;stroke-linejoin:round;stroke-width:3px;}</style><pattern id="New_Pattern_Swatch_3" data-name="New Pattern Swatch 3" width="16" height="19" patternTransform="translate(-2123.38 -47.85) scale(0.4)" patternUnits="userSpaceOnUse" viewBox="0 0 16 19"><rect class="cls-1" width="16" height="19"/><polygon class="cls-2" points="16 22.18 10.5 19 16 15.82 21.5 19 16 22.18"/><polygon class="cls-2" points="8 12.68 2.5 9.5 8 6.33 13.5 9.5 8 12.68"/><polygon class="cls-2" points="0 22.18 -5.5 19 0 15.82 5.5 19 0 22.18"/><polygon class="cls-2" points="16 3.18 10.5 0 16 -3.17 21.5 0 16 3.18"/><polygon class="cls-2" points="0 3.18 -5.5 0 0 -3.17 5.5 0 0 3.18"/></pattern></defs><g id="Layer_2" data-name="Layer 2"><g id="icons_design" data-name="icons design"><path class="cls-3" d="M248.67,238.68l-24.18-13.07a7.78,7.78,0,0,0-4.33-7.84L136.45,176.4v57.23l54.71,4,20.48,16.73Z"/><path class="cls-4" d="M141.85,122.13a4.65,4.65,0,0,0-.48.42,4.51,4.51,0,0,0-1.05,4.64,4.59,4.59,0,0,0,1.11,1.77,4.53,4.53,0,0,0,6.34-6.48A4.56,4.56,0,0,0,141.85,122.13Zm-9.41-5.42.13-.3a4.73,4.73,0,0,1,2.49-2.54l21-9a4.8,4.8,0,0,1,1.81-.37h0a4.65,4.65,0,0,1,3.26,1.33l39.29,38.58a3.49,3.49,0,0,1,0,5l-31.28,31.87a3.58,3.58,0,0,1-2.4,1h-.07a3.44,3.44,0,0,1-2.48-1l-13.11-12.86h0L137.7,155.16v0L125,142.69a4.67,4.67,0,0,1-1.06-5.11Zm53.38,34.94a4.1,4.1,0,0,0,.36-5.76l-19.6-19.24a4.1,4.1,0,0,0-5.76.46L145.27,143a4.1,4.1,0,0,0-.37,5.76L164.52,168c1.48,1.47,4.06,1.26,5.76-.46Z"/><path class="cls-5" d="M186.18,145.89a4.1,4.1,0,0,1-.36,5.76L170.28,167.5c-1.7,1.72-4.28,1.93-5.76.46L144.9,148.71a4.1,4.1,0,0,1,.37-5.76l15.55-15.84a4.1,4.1,0,0,1,5.76-.46Z"/><path class="cls-2" d="M151.18,168.39v51.7c0,2.28-.6,3.77-1.71,4.41L136,232.28c1.1-.64,1.7-2.13,1.7-4.41V155.16l13.48,13.22Z"/><path class="cls-2" d="M151.18,99.63V107l-13.48,5.78V93.24a15.13,15.13,0,0,0-2.18-7.47,11.62,11.62,0,0,0-3.88-4.14L7.58,10a3.9,3.9,0,0,0-3.89-.36L17.07,1.91a3.9,3.9,0,0,1,4,.33L145.11,73.86A11.34,11.34,0,0,1,149,78a15.09,15.09,0,0,1,2.19,7.47Z"/><path class="cls-2" d="M149.1,125.27a4.53,4.53,0,0,1-7.67,3.69,4.59,4.59,0,0,1-1.11-1.77,4.51,4.51,0,0,1,1.05-4.64,4.65,4.65,0,0,1,.48-.42Q145.32,123.79,149.1,125.27Z"/><path class="cls-6" d="M147.77,122.48a4.55,4.55,0,0,1,1.33,2.79q-3.78-1.47-7.25-3.14A4.53,4.53,0,0,1,147.77,122.48Z"/><path class="cls-6" d="M121.41,103.76c3.49,1.86,6.29.08,6.29-4a13.67,13.67,0,0,0-2.18-6.93,13.18,13.18,0,0,0-4.47-4.58c-3.66-2.12-6.64-.4-6.64,3.84s3,9.44,6.64,11.51Zm11,12.95L124,137.58a4.67,4.67,0,0,0,1.06,5.11l12.69,12.45v72.73c0,2.28-.6,3.77-1.7,4.41s-2.69.41-4.66-.73L7.58,160.11a11.63,11.63,0,0,1-4-4.33,15,15,0,0,1-2.08-7.29V14.6c0-2.43.81-4.16,2.1-4.91l.09,0A3.9,3.9,0,0,1,7.58,10L131.64,81.63a11.62,11.62,0,0,1,3.88,4.14,15.13,15.13,0,0,1,2.18,7.47v19.5l-2.64,1.13a4.73,4.73,0,0,0-2.49,2.54ZM32,154.45l75.12-20.69L71.57,113.2l16.64-15L57.62,78.4,37.11,109.23l21.82,12.59Z"/><path class="cls-7" d="M125.52,92.8a13.67,13.67,0,0,1,2.18,6.93c0,4.11-2.78,5.85-6.29,4C120.46,100,121.6,96.25,125.52,92.8Z"/><path class="cls-7" d="M121.05,88.22a13.18,13.18,0,0,1,4.47,4.58c-3.92,3.45-5.06,7.2-4.11,11l-.36-.19c-3.69-2.07-6.64-7.27-6.64-11.51S117.39,86.1,121.05,88.22Z"/><polygon class="cls-8" points="107.16 133.76 32.03 154.45 58.93 121.82 37.11 109.23 57.62 78.4 88.21 98.15 71.57 113.2 107.16 133.76"/><polygon class="cls-9" points="57.62 78.4 37.11 109.23 58.93 121.82 32.03 154.45 107.16 133.76 71.57 113.2 88.21 98.15 57.62 78.4"/><path class="cls-9" d="M137.7,112.74V93.24a15.13,15.13,0,0,0-2.18-7.47,11.62,11.62,0,0,0-3.88-4.14L7.58,10a3.9,3.9,0,0,0-3.89-.36"/><path class="cls-9" d="M137.7,155.16v72.71c0,2.28-.6,3.78-1.7,4.41s-2.69.41-4.66-.73L7.58,160.11a11.63,11.63,0,0,1-4-4.33,15,15,0,0,1-2.08-7.29V14.6c0-2.43.81-4.16,2.1-4.91L17.07,1.91a3.9,3.9,0,0,1,4,.33L145.11,73.86A11.34,11.34,0,0,1,149,78a15.09,15.09,0,0,1,2.19,7.47V107"/><path class="cls-9" d="M151.18,168.39v51.7c0,2.28-.6,3.77-1.71,4.41L136,232.28"/><path class="cls-9" d="M157.89,104.48a4.8,4.8,0,0,0-1.81.37l-21,9a4.73,4.73,0,0,0-2.49,2.54L124,137.58a4.67,4.67,0,0,0,1.06,5.11l12.69,12.45v0l13.48,13.22h0l13.11,12.86a3.44,3.44,0,0,0,2.48,1"/><path class="cls-9" d="M166.84,182.26a3.58,3.58,0,0,0,2.4-1l31.28-31.87a3.49,3.49,0,0,0,0-5l-39.29-38.58a4.65,4.65,0,0,0-3.26-1.33"/><path class="cls-9" d="M149.1,125.27a4.53,4.53,0,0,1-7.67,3.69,4.59,4.59,0,0,1-1.11-1.77,4.51,4.51,0,0,1,1.05-4.64,4.65,4.65,0,0,1,.48-.42,4.51,4.51,0,0,1,7.25,3.14Z"/><path class="cls-9" d="M164.52,168,144.9,148.71a4.1,4.1,0,0,1,.37-5.76l15.55-15.84a4.1,4.1,0,0,1,5.76-.46l19.6,19.24a4.1,4.1,0,0,1-.36,5.76L170.28,167.5C168.58,169.22,166,169.43,164.52,168Z"/><path class="cls-9" d="M125.52,92.8a13.67,13.67,0,0,1,2.18,6.93c0,4.11-2.8,5.89-6.29,4l-.36-.19c-3.69-2.07-6.64-7.27-6.64-11.51s3-6,6.64-3.84A13.18,13.18,0,0,1,125.52,92.8Z"/><path class="cls-9" d="M149.1,125.27c-2.52-1-4.95-2-7.25-3.14a69.93,69.93,0,0,1-9.41-5.42c-5.86-4-9.91-8.51-11-12.95-1-3.76.19-7.51,4.11-11"/><path class="cls-9" d="M151.18,88.39c3.15-.46,5,7.64,4,16.86"/><path class="cls-5" d="M35.25,41.68A6.77,6.77,0,0,1,38.32,47c0,2-1.37,2.75-3.07,1.77a6.76,6.76,0,0,1-3.06-5.31C32.19,41.49,33.55,40.7,35.25,41.68Z"/><path class="cls-5" d="M24.4,35.41a6.79,6.79,0,0,1,3.08,5.32c0,2-1.38,2.75-3.08,1.78a6.82,6.82,0,0,1-3.06-5.32C21.34,35.24,22.72,34.45,24.4,35.41Z"/><path class="cls-5" d="M13.57,29.16a6.82,6.82,0,0,1,3.06,5.31c0,2-1.38,2.75-3.06,1.77a6.77,6.77,0,0,1-3.07-5.31C10.5,29,11.87,28.18,13.57,29.16Z"/></g></g></svg>