<svg xmlns="http://www.w3.org/2000/svg" xmlns:xlink="http://www.w3.org/1999/xlink" viewBox="0 0 280.98 205.37"><defs><style>.cls-1,.cls-8{fill:none;}.cls-2{fill:#969a9e;}.cls-3{fill:url(#New_Pattern_Swatch_3);}.cls-4{fill:#5f646b;}.cls-5{fill:#373a3a;}.cls-6{fill:#dae0e5;}.cls-7{fill:#fff;}.cls-8{stroke:#373a3a;stroke-linecap:round;stroke-linejoin:round;stroke-width:3px;}</style><pattern id="New_Pattern_Swatch_3" data-name="New Pattern Swatch 3" width="16" height="19" patternTransform="translate(-2123.38 -47.85) scale(0.4)" patternUnits="userSpaceOnUse" viewBox="0 0 16 19"><rect class="cls-1" width="16" height="19"/><polygon class="cls-2" points="16 22.18 10.5 19 16 15.82 21.5 19 16 22.18"/><polygon class="cls-2" points="8 12.68 2.5 9.5 8 6.33 13.5 9.5 8 12.68"/><polygon class="cls-2" points="0 22.18 -5.5 19 0 15.82 5.5 19 0 22.18"/><polygon class="cls-2" points="16 3.18 10.5 0 16 -3.17 21.5 0 16 3.18"/><polygon class="cls-2" points="0 3.18 -5.5 0 0 -3.17 5.5 0 0 3.18"/></pattern></defs><g id="Layer_2" data-name="Layer 2"><g id="icons_design" data-name="icons design"><path class="cls-3" d="M264.81,114.14c-33.3-24-93.8,20.36-118,40.34-25.89-7.91-56.8-10.75-78.44-6.24-29.28,6.12-30.48,23.38-2.66,38.56s74.09,22.53,103.37,16.41c17.94-3.74,25.31-11.67,22-20.74.85-32.75,37-37,37-37l25.06,7.83S307.11,144.69,264.81,114.14Z"/><path class="cls-4" d="M218.32,86.88c-3.67-1.43-7-1.25-9.69.3l17.08-9.86c3.32-1.92,7.61-1.75,12.3,1,10.5,6,19,22.52,19,36.77,0,7.88-2.61,13.43-6.7,15.8l-17.08,9.86h0c4.11-2.36,6.7-7.91,6.7-15.79,0-.53,0-1.07,0-1.61-.58-13.85-8.86-29.33-19-35.17A19.46,19.46,0,0,0,218.32,86.88Z"/><path class="cls-5" d="M239.9,123.31c0,.54,0,1.08,0,1.61,0,7.88-2.59,13.43-6.7,15.79-3.31,1.92-7.6,1.75-12.29-1a25.27,25.27,0,0,1-4.21-3.06Z"/><path class="cls-6" d="M179.33,122.18a46.27,46.27,0,0,1-8.92,6,11.8,11.8,0,0,1-3.87,1.23,12.6,12.6,0,0,1-8.53-2.18,6.54,6.54,0,0,1-.79-10.41l.06,0c3-2.67,6.76-5.91,9.47-8.13a89.24,89.24,0,0,1,13.06-8.68L180,88.23c2.89,1,5.8,2,8.8,3.13a30.54,30.54,0,0,0,25.65-2.27l3.83-2.21a19.46,19.46,0,0,1,2.62,1.26c10.1,5.84,18.36,21.32,19,35.17l-31.71,18.31c-11.08,6.4-17.68-.09-29.31,3.42C179,138,179.17,130.14,179.33,122.18Z"/><path class="cls-5" d="M218.32,86.88l-3.83,2.21a30.58,30.58,0,0,1-10.66,3.74,11.9,11.9,0,0,1,4.8-5.65C211.32,85.63,214.65,85.45,218.32,86.88Z"/><path class="cls-2" d="M217.05,33.38a28.68,28.68,0,0,1-5.73,27.78c-1.43,1.64-6.6,4.87-13.92,9.44,0-.42,0-.84,0-1.28,0-22.48-14.56-49.45-33.38-63,3.78-1.26,6.9-2.35,9.16-3.14a28.56,28.56,0,0,1,30.33,7.3A63.05,63.05,0,0,1,217.05,33.38Z"/><path class="cls-6" d="M196.32,58.2c-19.59,15.4-44.08,24.38-66.34,39-3.65,2.4-7,5-10.27,7.63-3.83-7.23-10.24-13.21-17.13-18a129.58,129.58,0,0,1,9.46,24.6,95.64,95.64,0,0,1,3.43,24.52,68.15,68.15,0,0,1-.69,9.84,89.93,89.93,0,0,1,12.3-19.27c2.27-2.8,4.71-5.54,7.27-8.22,2-2.1,4.1-4.16,6.24-6.18,1.67-1.57,3.36-3.12,5.09-4.63,2.77-2.45,5.61-4.81,8.47-7.1,8.77-7,17.8-13.35,26-18.77l1.22-.8c5.92-3.9,11.4-7.32,16-10.2h0c0-.42,0-.84,0-1.28A60.28,60.28,0,0,0,196.32,58.2Z"/><path class="cls-7" d="M164,6.28C137,15.36,75.61,34.46,46.12,31.65a64.05,64.05,0,0,1,12.37,5.59c17.77,10.25,33.64,28.82,44.09,49.58,6.89,4.81,13.3,10.79,17.13,18,3.26-2.63,6.62-5.23,10.27-7.63,22.26-14.63,46.75-23.61,66.34-39C192.62,38.51,179.83,17.69,164,6.28Z"/><path class="cls-7" d="M180.17,81.61l-.36,18.31a89.24,89.24,0,0,0-13.06,8.68c-2.71,2.22-6.44,5.46-9.47,8.13l-.77-.22a16.13,16.13,0,0,1-9-6.35l-1.87-2.68c2.77-2.45,5.61-4.81,8.47-7.1C162.92,93.36,172,87,180.17,81.61Z"/><path class="cls-7" d="M179.33,122.18c-.16,8-.49,25-.5,26.07a13,13,0,0,1-9.34,12.24c-7.91,2.32-14.75.33-18.45-2.67a10.2,10.2,0,0,0,3.39.59h4.75a5,5,0,0,0,4.89-3.91,7,7,0,0,0,0-3.76A3.9,3.9,0,0,0,167,146a7.2,7.2,0,0,0-2.6-3.9,4.93,4.93,0,0,0,1.76-1.28,5,5,0,0,0,1.2-4,10.24,10.24,0,0,0-2.75-5.95,3.82,3.82,0,0,0,1.17-.64,4.24,4.24,0,0,0,.81-.83,11.8,11.8,0,0,0,3.87-1.23A46.27,46.27,0,0,0,179.33,122.18Z"/><path class="cls-6" d="M167.31,136.79a5,5,0,0,1-1.2,4,4.93,4.93,0,0,1-3.84,1.68c-5-.11-9.15,0-13.79.16a13.37,13.37,0,0,1-9.47-3.38c-3.31-3-6.15-5.74-9.22-8.72l-.35-.34a9.78,9.78,0,0,1-2.36-3.7c2.27-2.8,4.71-5.54,7.27-8.22,2.07,2.13,4.27,4.22,6.77,6.5a16.61,16.61,0,0,0,9.46,4.24,97.66,97.66,0,0,1,11.58,2,4.35,4.35,0,0,0,2.4-.18A10.24,10.24,0,0,1,167.31,136.79Z"/><path class="cls-6" d="M167,146a3.91,3.91,0,0,1-.71,3.35,3.83,3.83,0,0,1-2.2,1.4,3.63,3.63,0,0,1-.87.1h-17a10.34,10.34,0,0,1-3.71-.68,10.18,10.18,0,0,1-2.93-1.71c-3.7-3.06-5.86-5-8.06-7.1a8.89,8.89,0,0,1-1.68-10.8c3,3,5.91,5.76,9.22,8.72a13.37,13.37,0,0,0,9.47,3.38c4.64-.2,8.77-.27,13.79-.16a4.92,4.92,0,0,0,2.08-.4A7.2,7.2,0,0,1,167,146Z"/><path class="cls-6" d="M164.56,130.84a4.35,4.35,0,0,1-2.4.18,97.66,97.66,0,0,0-11.58-2,16.61,16.61,0,0,1-9.46-4.24c-2.5-2.28-4.7-4.37-6.77-6.5,2-2.1,4.1-4.16,6.24-6.18,1.67-1.57,3.36-3.12,5.09-4.63l1.87,2.68a16.13,16.13,0,0,0,9,6.35l.77.22-.06,0a6.54,6.54,0,0,0,.79,10.41,12.6,12.6,0,0,0,8.53,2.18,4.24,4.24,0,0,1-.81.83A4.18,4.18,0,0,1,164.56,130.84Z"/><path class="cls-6" d="M164,150.74a7,7,0,0,1,0,3.76,5,5,0,0,1-4.89,3.91h-4.75a10.2,10.2,0,0,1-3.39-.59,10,10,0,0,1-3.79-2.41c-1.6-1.61-3.19-3.36-4.79-5.25a10.34,10.34,0,0,0,3.71.68h17A3.63,3.63,0,0,0,164,150.74Z"/><path class="cls-7" d="M115.47,135.94a68.15,68.15,0,0,1-.69,9.84c-4.26,29-27.83,39.48-56.29,23.06C27,150.67,1.5,106.48,1.5,70.15c0-31.47,19.09-46.74,44.62-38.5a64.05,64.05,0,0,1,12.37,5.59C90,55.4,115.47,99.6,115.47,135.94Zm-13.24.32a52.92,52.92,0,0,0,.54-7.66,79.44,79.44,0,0,0-4.82-26A107.81,107.81,0,0,0,80.41,71.25,81.32,81.32,0,0,0,58.49,51.89a50,50,0,0,0-9.62-4.34C29,41.16,14.19,53,14.19,77.47c0,28.24,19.83,62.58,44.3,76.71C80.6,166.94,98.93,158.81,102.23,136.26Z"/><path class="cls-5" d="M102.77,128.6a52.92,52.92,0,0,1-.54,7.66c-3.3,22.55-21.63,30.68-43.74,17.92C34,140.05,14.19,105.71,14.19,77.47,14.19,53,29,41.16,48.87,47.55a50,50,0,0,1,9.62,4.34A81.32,81.32,0,0,1,80.41,71.25L50.05,90.72a14.45,14.45,0,0,0,13.11,25.61l34.78-13.76h0A79.44,79.44,0,0,1,102.77,128.6Z"/><path class="cls-6" d="M98,102.57h0L63.16,116.33A14.45,14.45,0,0,1,50.05,90.72L80.41,71.25A107.81,107.81,0,0,1,98,102.57Z"/><path class="cls-8" d="M46.12,31.65a64.05,64.05,0,0,1,12.37,5.59c31.47,18.16,57,62.36,57,98.7a68.15,68.15,0,0,1-.69,9.84c-4.22,29-27.83,39.48-56.29,23.06C27,150.67,1.5,106.48,1.5,70.15,1.5,38.68,20.59,23.41,46.12,31.65Z"/><path class="cls-8" d="M98,102.57a79.18,79.18,0,0,1,4.82,26,52.92,52.92,0,0,1-.54,7.66c-3.3,22.55-21.63,30.68-43.74,17.92C34,140.05,14.19,105.71,14.19,77.47,14.19,53,29,41.16,48.87,47.55a50,50,0,0,1,9.62,4.34A81.32,81.32,0,0,1,80.41,71.25,107.45,107.45,0,0,1,98,102.57Z"/><path class="cls-8" d="M164,6.28c18.82,13.59,33.38,40.56,33.38,63,0,.44,0,.86,0,1.28"/><path class="cls-8" d="M46.12,31.65C75.61,34.46,137,15.35,164,6.28c3.77-1.26,6.9-2.35,9.16-3.14a28.56,28.56,0,0,1,30.33,7.3,63.05,63.05,0,0,1,13.52,22.94,28.68,28.68,0,0,1-5.73,27.78c-1.43,1.64-6.6,4.87-13.92,9.44h0c-4.61,2.88-10.09,6.3-16,10.2l-1.22.8c-8.22,5.43-17.25,11.75-26,18.77-2.86,2.29-5.7,4.66-8.47,7.1q-2.58,2.28-5.09,4.63c-2.14,2-4.23,4.08-6.24,6.18-2.56,2.69-5,5.42-7.27,8.22a90.32,90.32,0,0,0-12.3,19.27"/><path class="cls-8" d="M97.94,102.57,63.16,116.33A14.45,14.45,0,0,1,50.05,90.72L80.41,71.25"/><path class="cls-8" d="M218.32,86.88l-3.83,2.21a30.54,30.54,0,0,1-25.65,2.27c-3-1.08-5.91-2.17-8.8-3.13"/><path class="cls-8" d="M157.28,116.73l-.77-.22a16.13,16.13,0,0,1-9-6.35l-1.87-2.68"/><path class="cls-8" d="M166.54,129.37a4.24,4.24,0,0,1-.81.83,4.18,4.18,0,0,1-1.17.64,4.35,4.35,0,0,1-2.4.18,97.66,97.66,0,0,0-11.58-2,16.61,16.61,0,0,1-9.46-4.24c-2.5-2.28-4.7-4.37-6.77-6.5"/><path class="cls-8" d="M127.08,126.51a9.78,9.78,0,0,0,2.36,3.7l.35.34c3.07,3,5.91,5.76,9.22,8.72a13.37,13.37,0,0,0,9.47,3.38c4.64-.2,8.77-.27,13.79-.16a4.93,4.93,0,0,0,3.84-1.68,5,5,0,0,0,1.2-4,10.24,10.24,0,0,0-2.75-5.95,8,8,0,0,0-3.54-2"/><path class="cls-8" d="M129.79,130.55a8.89,8.89,0,0,0,1.68,10.8c2.2,2.06,4.36,4,8.06,7.1a10.32,10.32,0,0,0,2.93,1.71,10.6,10.6,0,0,0,3.71.68h17a3.63,3.63,0,0,0,.87-.1,3.83,3.83,0,0,0,2.2-1.4A3.91,3.91,0,0,0,167,146a7.2,7.2,0,0,0-2.6-3.9"/><path class="cls-8" d="M142.46,150.16c1.6,1.89,3.19,3.64,4.79,5.25a10,10,0,0,0,3.79,2.41,10.2,10.2,0,0,0,3.39.59h4.75a5,5,0,0,0,4.89-3.91,7,7,0,0,0,0-3.76"/><path class="cls-8" d="M189.21,95.55a75.21,75.21,0,0,0-9.4,4.37,89.24,89.24,0,0,0-13.06,8.68c-2.71,2.22-6.44,5.46-9.47,8.13l-.06,0a6.54,6.54,0,0,0,.79,10.41,12.66,12.66,0,0,0,8.53,2.18,11.8,11.8,0,0,0,3.87-1.23,46.27,46.27,0,0,0,8.92-6c3.57-3,5.85-5.42,9.76-6.25"/><path class="cls-8" d="M178.88,145c11.63-3.51,18.23,3,29.31-3.42l31.71-18.31"/><path class="cls-8" d="M151,157.82c3.7,3,10.54,5,18.45,2.67a13,13,0,0,0,9.34-12.24c0-1.05.34-18.11.5-26.07"/><line class="cls-8" x1="179.81" y1="99.92" x2="180.17" y2="81.61"/><path class="cls-8" d="M203.83,92.83a12,12,0,0,1,4.8-5.65c2.69-1.55,6-1.72,9.69-.3a19.46,19.46,0,0,1,2.62,1.26c10.1,5.84,18.38,21.32,19,35.17,0,.54,0,1.08,0,1.61,0,7.88-2.6,13.42-6.7,15.79-3.31,1.91-7.6,1.75-12.29-1a25.27,25.27,0,0,1-4.21-3.06"/><path class="cls-8" d="M208.63,87.18l17.08-9.86c3.32-1.92,7.61-1.75,12.3,1,10.5,6,19,22.52,19,36.77,0,7.88-2.61,13.43-6.7,15.8l-17.08,9.86"/></g></g></svg>