<svg xmlns="http://www.w3.org/2000/svg" xmlns:xlink="http://www.w3.org/1999/xlink" viewBox="0 0 233.58 235.13"><defs><style>.cls-1,.cls-7{fill:none;}.cls-2{fill:#969a9e;}.cls-3{fill:url(#New_Pattern_Swatch_3);}.cls-4{fill:#fff;}.cls-5{fill:#373a3a;}.cls-6{fill:#5f646b;}.cls-7{stroke:#373a3a;stroke-linecap:round;stroke-linejoin:round;stroke-width:3px;}</style><pattern id="New_Pattern_Swatch_3" data-name="New Pattern Swatch 3" width="16" height="19" patternTransform="translate(-2123.38 -47.85) scale(0.4)" patternUnits="userSpaceOnUse" viewBox="0 0 16 19"><rect class="cls-1" width="16" height="19"/><polygon class="cls-2" points="16 22.18 10.5 19 16 15.82 21.5 19 16 22.18"/><polygon class="cls-2" points="8 12.68 2.5 9.5 8 6.33 13.5 9.5 8 12.68"/><polygon class="cls-2" points="0 22.18 -5.5 19 0 15.82 5.5 19 0 22.18"/><polygon class="cls-2" points="16 3.18 10.5 0 16 -3.17 21.5 0 16 3.18"/><polygon class="cls-2" points="0 3.18 -5.5 0 0 -3.17 5.5 0 0 3.18"/></pattern></defs><g id="Layer_2" data-name="Layer 2"><g id="icons_design" data-name="icons design"><path class="cls-3" d="M151.75,113c3.9-2.23,14.53-10.85,18.26-9.74,36.47,10.76,64.5,33.28,63.54,56.28s-22.32,47.72-60.19,69.57c-3.88,2.25-23,7-26.73,5.87-1.82-.53-2.73-1.46-2.75-2.52v-.06c0-1.1,1-2.34,3-3.46,31.1-18,48.85-37.62,53.09-55.69,5.37-22.78-10.69-43.05-48.47-54.2-1.82-.53-2.73-1.44-2.74-2.5s1-2.37,3-3.53C151.73,113,151.75,113,151.75,113Z"/><path class="cls-3" d="M117.94,132.51c3.93-2.25,12.12-8.22,15.86-7.11,27.57,8.19,53.79,15,53.16,32.41V170c-.77,17.52-17.06,36.34-45.9,53-3.88,2.24-23.46,3.56-27.23,2.47-1.82-.53-2.73-1.45-2.75-2.51v-.07c0-1.1,1-2.34,3-3.46,21.76-12.58,34.67-26.29,38.55-39v0c5.35-17.52-6.23-33.25-35-41.78-1.81-.54-2.71-1.45-2.73-2.51V136c0-1.1,1-2.34,3-3.46Z"/><path class="cls-3" d="M84.16,152c3.91-2.24,10-11.59,13.71-10.48,48.88,14.69,44.69,17.16,44.21,35.55-.3,11.56-11.13,24.56-31.45,36.29-3.88,2.25-25.82,3.67-29.59,2.57-1.84-.53-2.75-1.46-2.75-2.51l0-.07c0-1.1,1-2.34,3-3.46,12.44-7.18,20.37-15,23.7-22.37,5.53-12.26-1.44-23.53-21.17-29.46-1.8-.53-2.7-1.45-2.69-2.5v-.06c.05-1.1,1-2.33,3-3.45Z"/><path class="cls-3" d="M76.45,171.42c11.74,1.19,18.2,5.61,18,11.18v.09c-.12,2.71-1.82,5.7-5.24,8.7-10.47,9.25-33.2,15.28-50.71,13.5-11.74-1.2-18.19-5.61-18-11.17v0c.11-2.74,1.78-5.74,5.24-8.79C36.21,175.65,58.9,169.62,76.45,171.42Z"/><g id="rss"><path class="cls-4" d="M170,111.76a15.53,15.53,0,0,1-7,12.2l0,0c-2,1.15-3.78,1.22-5.07.44s-2-2.29-2-4.46c-.22-45.13-18.22-75.29-46.28-86.11-22.26-8.59-50.87-5-82,13-1.95,1.12-3.71,1.23-5,.49l-.08-.06c-1.22-.76-2-2.32-2-4.49a15.52,15.52,0,0,1,7-12.18C65.57,8.71,101.21,5.11,128.05,20.44S169.79,68.2,170,111.76Z"/><path class="cls-5" d="M157.92,124.43l-16.47-9.51c-1.27-.73-2.06-2.3-2.07-4.51C139.21,74.94,128,48.7,109.67,33.86c28.07,10.81,46.06,41,46.28,86.11C156,122.14,156.7,123.69,157.92,124.43Z"/><path class="cls-4" d="M136.19,131.27a15.52,15.52,0,0,1-7,12.21l-.06,0c-1.94,1.14-3.7,1.23-5,.5l-.09,0c-1.21-.75-2-2.28-2-4.45-.23-34.36-14.5-56.9-36.49-64h0c-16-5.19-36.13-2.17-57.91,10.39-1.95,1.12-3.71,1.23-5,.49l-.08-.06c-1.22-.76-2-2.32-2-4.49a15.54,15.54,0,0,1,7-12.18c28.83-16.65,56-19.4,76.43-7.77l.29.17C124.7,73.71,136,98.3,136.19,131.27Z"/><path class="cls-6" d="M128.05,20.44C101.21,5.11,65.57,8.71,27.71,30.57a15.52,15.52,0,0,0-7,12.18c0,2.17.76,3.73,2,4.49L6.17,37.75C4.9,37,4.11,35.43,4.11,33.19a15.52,15.52,0,0,1,7-12.19C42.55,2.86,80.61-7,111.78,11Z"/><path class="cls-5" d="M124.1,144l-16.47-9.52c-1.27-.73-2.06-2.28-2.07-4.49C105.4,105.23,98,86.64,85.64,75.48c22,7.13,36.26,29.67,36.49,64C122.14,141.68,122.89,143.21,124.1,144Z"/><path class="cls-6" d="M87.86,52.45l16.28,9.4C83.68,50.22,56.54,53,27.71,69.62a15.54,15.54,0,0,0-7,12.18c0,2.17.76,3.73,2,4.49L6.17,76.79C4.9,76,4.11,74.48,4.11,72.23a15.54,15.54,0,0,1,7-12.18C35,46.26,64.07,38.73,87.86,52.45Z"/><path class="cls-4" d="M102.37,150.76A15.57,15.57,0,0,1,95.43,163l-.09,0c-1.94,1.12-3.69,1.22-5,.49l-.08,0c-1.22-.74-2-2.27-2-4.42-.24-23.64-10.89-38.49-26.88-41.7-9.66-2-21.28.35-33.72,7.54-1.95,1.12-3.71,1.22-5,.49l-.08-.06c-1.22-.75-2-2.29-2-4.49a15.52,15.52,0,0,1,7-12.18C48,96.94,66.55,95.77,80.07,103.35l.37.22C93.77,111.26,102.14,127.59,102.37,150.76Z"/><path class="cls-5" d="M90.3,163.49,73.81,154c-1.26-.72-2-2.26-2.07-4.45-.14-14-3.93-24.91-10.31-32.15,16,3.21,26.64,18.06,26.88,41.7C88.33,161.22,89.08,162.75,90.3,163.49Z"/><path class="cls-6" d="M63.87,94l16.2,9.34c-13.52-7.58-32-6.41-52.36,5.32a15.52,15.52,0,0,0-7,12.18c0,2.2.76,3.74,2,4.49l-16.48-9.5c-1.27-.75-2.06-2.31-2.06-4.56a15.56,15.56,0,0,1,7-12.18C31.65,87.25,50.33,86.19,63.87,94Z"/><path class="cls-4" d="M51.69,152.4c4.81,2.78,7,9.82,5.1,19-2.82,13.76-13.6,27.19-24.12,30a11.38,11.38,0,0,1-8.82-.78h0c-4.8-2.79-7-9.82-5.08-19,2.81-13.75,13.61-27.19,24.11-30a11.37,11.37,0,0,1,8.74.73Z"/><path class="cls-6" d="M35.13,142.84l16.47,9.52a11.37,11.37,0,0,0-8.74-.73c-10.5,2.81-21.3,16.25-24.11,30-1.9,9.21.28,16.24,5.08,19L7.29,191.11c-4.82-2.78-7-9.81-5.11-19,2.82-13.75,13.61-27.18,24.13-30A11.44,11.44,0,0,1,35.13,142.84Z"/><path class="cls-7" d="M22.65,86.29c-1.22-.76-2-2.32-2-4.49a15.54,15.54,0,0,1,7-12.18c28.83-16.65,56-19.4,76.43-7.77"/><path class="cls-7" d="M85.62,75.47c-16-5.19-36.13-2.17-57.91,10.39-1.95,1.12-3.71,1.23-5,.49"/><path class="cls-7" d="M124.1,144c-1.21-.75-2-2.28-2-4.45-.23-34.36-14.5-56.9-36.49-64"/><path class="cls-7" d="M104.43,62C124.7,73.71,136,98.3,136.19,131.27a15.52,15.52,0,0,1-7,12.21l-.06,0c-1.94,1.14-3.7,1.23-5,.5"/><path class="cls-7" d="M22.65,125.34c-1.22-.75-2-2.29-2-4.49a15.52,15.52,0,0,1,7-12.18C48,96.94,66.55,95.77,80.07,103.35"/><path class="cls-7" d="M90.3,163.49c-1.22-.74-2-2.27-2-4.42-.24-23.64-10.9-38.48-26.88-41.7-9.67-1.94-21.28.35-33.72,7.54-1.95,1.12-3.71,1.22-5,.49"/><path class="cls-7" d="M80.44,103.57c13.33,7.69,21.7,24,21.93,47.19A15.57,15.57,0,0,1,95.43,163l-.09,0c-1.94,1.12-3.69,1.22-5,.49"/><path class="cls-7" d="M22.65,47.24c-1.22-.76-2-2.32-2-4.49a15.52,15.52,0,0,1,7-12.18C65.57,8.71,101.21,5.11,128.05,20.44s41.74,47.76,42,91.32a15.53,15.53,0,0,1-7,12.2l0,0c-2,1.15-3.78,1.22-5.07.44s-2-2.29-2-4.46c-.22-45.13-18.21-75.3-46.28-86.11"/><path class="cls-7" d="M109.66,33.85c-22.26-8.59-50.86-5-81.95,13-1.95,1.12-3.71,1.23-5,.49"/><path class="cls-7" d="M23.85,200.67a11.38,11.38,0,0,0,8.82.78c10.52-2.82,21.3-16.25,24.12-30,1.89-9.22-.29-16.26-5.1-19"/><path class="cls-7" d="M51.6,152.36a11.37,11.37,0,0,0-8.74-.73c-10.5,2.81-21.3,16.25-24.11,30-1.9,9.21.28,16.24,5.08,19"/><path class="cls-7" d="M61.43,117.37c6.38,7.24,10.17,18.16,10.31,32.15,0,2.19.81,3.73,2.07,4.45l16.57,9.56"/><path class="cls-7" d="M85.62,75.47h0C98,86.64,105.4,105.23,105.56,130c0,2.21.8,3.76,2.07,4.49L124.19,144"/><path class="cls-7" d="M109.66,33.85c18.37,14.84,29.55,41.09,29.72,76.56,0,2.21.8,3.78,2.07,4.51L158,124.48"/><path class="cls-7" d="M22.73,125.4l-.08-.06-16.48-9.5c-1.27-.75-2.06-2.31-2.06-4.56a15.56,15.56,0,0,1,7-12.18C31.65,87.25,50.33,86.19,63.87,94l16.57,9.56"/><path class="cls-7" d="M22.73,86.35l-.08-.06L6.17,76.79C4.9,76,4.11,74.48,4.11,72.23a15.54,15.54,0,0,1,7-12.18C35,46.26,64.07,38.73,87.86,52.45L104.43,62"/><path class="cls-7" d="M22.73,47.3l-.08-.06L6.17,37.75C4.9,37,4.11,35.43,4.11,33.19a15.52,15.52,0,0,1,7-12.19C42.55,2.86,80.61-7,111.78,11l16.56,9.56"/><path class="cls-7" d="M51.69,152.4l-16.56-9.56a11.44,11.44,0,0,0-8.82-.78c-10.52,2.83-21.31,16.26-24.13,30-1.9,9.23.29,16.26,5.11,19l16.56,9.56"/></g></g></g></svg>