<svg xmlns="http://www.w3.org/2000/svg" xmlns:xlink="http://www.w3.org/1999/xlink" viewBox="0 0 260.63 228.97"><defs><style>.cls-1,.cls-6{fill:none;}.cls-2{fill:#969a9e;}.cls-3{fill:url(#New_Pattern_Swatch_3);}.cls-4{fill:#fff;}.cls-5{fill:#5f646b;}.cls-6{stroke:#373a3a;stroke-linecap:round;stroke-linejoin:round;stroke-width:3px;}</style><pattern id="New_Pattern_Swatch_3" data-name="New Pattern Swatch 3" width="16" height="19" patternTransform="translate(-2123.38 -47.85) scale(0.4)" patternUnits="userSpaceOnUse" viewBox="0 0 16 19"><rect class="cls-1" width="16" height="19"/><polygon class="cls-2" points="16 22.18 10.5 19 16 15.82 21.5 19 16 22.18"/><polygon class="cls-2" points="8 12.68 2.5 9.5 8 6.33 13.5 9.5 8 12.68"/><polygon class="cls-2" points="0 22.18 -5.5 19 0 15.82 5.5 19 0 22.18"/><polygon class="cls-2" points="16 3.18 10.5 0 16 -3.17 21.5 0 16 3.18"/><polygon class="cls-2" points="0 3.18 -5.5 0 0 -3.17 5.5 0 0 3.18"/></pattern></defs><g id="Layer_2" data-name="Layer 2"><g id="icons_design" data-name="icons design"><path class="cls-3" d="M161.77,178.44c8.1,3.08,12.68,15.56,11.61,24.2-.62,5-5.7,10.21-15.32,15.69q-31.68,18-60.94,5.49c-15-6.44-13.4-11.82-14-12.85q-.09-4.54,5.78-9.51l-1.14-1.35H35.75l11.12-26.58c30.87-5.41,75.32-10.69,104.49.14Z"/><path class="cls-3" d="M248.87,126.51c8.1,3.09,12.67,15.56,11.6,24.2q-.92,7.46-15.32,15.69-31.67,18-60.93,5.49c-15-6.44-13.41-11.82-14-12.85q-.09-4.54,5.78-9.51l-1.13-1.35H122.85L134,121.6c30.87-5.41,75.31-10.69,104.48.14Z"/><g id="quotation_mark" data-name="quotation mark"><path class="cls-4" d="M132.75,98.19l-.05,0q-6.43-4.25-6.43-19.35,0-33.47,32.65-52.32,16-9.24,24.16-4.73,8.47,4.68,8.49,24.22,0,38.34-46.23,98.48l-21.64,3.18,22.74-47.44-.74-1.69Q137.5,101.27,132.75,98.19Z"/><path class="cls-5" d="M149.05,3l34,18.78q-8.16-4.52-24.16,4.73-32.65,18.87-32.65,52.32,0,15.09,6.43,19.35L101.46,81.61q-2.1-6.51-6.54-9L93.7,72a41.34,41.34,0,0,1-1.46-12q0-33.47,32.64-52.31Q140.89-1.52,149.05,3Z"/><path class="cls-5" d="M145.7,98.51l.74,1.69L123.7,147.64,95.57,132.13q7-17.32,7.73-31.71l6.83-14.22,22.62,12Q137.51,101.28,145.7,98.51Z"/><path class="cls-4" d="M110.13,86.2l-6.82,14.21c.06-1.19.09-2.36.09-3.53a50,50,0,0,0-1.94-15.27Z"/><path class="cls-4" d="M103.4,96.88c0,1.17,0,2.34-.09,3.53q-.75,14.4-7.74,31.72Q84.38,160,57.17,195.37l-21.65,3.18L58.28,151.1l-.74-1.68q-7.73,2.6-12.38,0l-.06,0q-7-3.93-7-19.69,0-33.48,32.66-52.32,14.88-8.59,23-5.32a13.07,13.07,0,0,1,1.19.58c3,1.63,5.14,4.61,6.54,9A50,50,0,0,1,103.4,96.88Z"/><path class="cls-4" d="M93.7,72l1.22.68a10.89,10.89,0,0,0-1.19-.58A.62.62,0,0,1,93.7,72Z"/><path class="cls-5" d="M93.7,72a.62.62,0,0,0,0,.1q-8.1-3.27-23,5.32Q38.1,96.24,38.09,129.72q0,15.75,7,19.69l-34-18.74q-7.08-3.9-7.08-19.74,0-33.45,32.66-52.31,16-9.25,24.16-4.74Z"/><path class="cls-5" d="M57.54,149.42l.74,1.68L35.52,198.55l-34-18.78,20.64-43,23,12.71Q49.81,152,57.54,149.42Z"/><path class="cls-6" d="M132.7,98.16q-6.43-4.25-6.43-19.35,0-33.47,32.65-52.32,16-9.24,24.16-4.73,8.47,4.66,8.49,24.22,0,38.34-46.23,98.48l-21.64,3.18,22.74-47.44-.74-1.69q-8.2,2.76-12.95-.32Z"/><path class="cls-6" d="M45.1,149.41q-7-3.93-7-19.69,0-33.48,32.66-52.32,14.88-8.59,23-5.32"/><path class="cls-6" d="M103.3,100.42q-.76,14.4-7.73,31.71Q84.38,160,57.17,195.37l-21.65,3.18L58.28,151.1l-.74-1.68q-7.73,2.6-12.38,0"/><path class="cls-6" d="M93.73,72.08a13.07,13.07,0,0,1,1.19.58q4.42,2.45,6.54,9a50,50,0,0,1,1.94,15.27c0,1.17,0,2.34-.09,3.53"/><line class="cls-6" x1="123.7" y1="147.64" x2="95.57" y2="132.13"/><line class="cls-6" x1="103.3" y1="100.42" x2="110.13" y2="86.2"/><path class="cls-6" d="M93.73,72.08a.62.62,0,0,1,0-.1,41.34,41.34,0,0,1-1.46-12q0-33.47,32.64-52.31,16-9.24,24.17-4.74l34,18.78"/><polyline class="cls-6" points="22.14 136.73 1.5 179.78 35.52 198.54"/><path class="cls-6" d="M94.92,72.66l-34-18.78q-8.16-4.5-24.16,4.74Q4.06,77.47,4.06,110.93q0,15.85,7.08,19.74l34,18.77"/><line class="cls-6" x1="132.86" y1="98.24" x2="101.46" y2="81.61"/></g></g></g></svg>