<svg xmlns="http://www.w3.org/2000/svg" xmlns:xlink="http://www.w3.org/1999/xlink" viewBox="0 0 243.6 217.07"><defs><style>.cls-1,.cls-9{fill:none;}.cls-2{fill:#969a9e;}.cls-3{fill:url(#New_Pattern_Swatch_3);}.cls-4{fill:#fff;}.cls-5{fill:#373a3a;}.cls-6{fill:#f6d84c;}.cls-7{fill:#5f646b;}.cls-8{fill:#dae0e5;}.cls-9{stroke:#373a3a;stroke-linecap:round;stroke-linejoin:round;stroke-width:3px;}</style><pattern id="New_Pattern_Swatch_3" data-name="New Pattern Swatch 3" width="16" height="19" patternTransform="translate(-2123.38 -47.85) scale(0.4)" patternUnits="userSpaceOnUse" viewBox="0 0 16 19"><rect class="cls-1" width="16" height="19"/><polygon class="cls-2" points="16 22.18 10.5 19 16 15.82 21.5 19 16 22.18"/><polygon class="cls-2" points="8 12.68 2.5 9.5 8 6.33 13.5 9.5 8 12.68"/><polygon class="cls-2" points="0 22.18 -5.5 19 0 15.82 5.5 19 0 22.18"/><polygon class="cls-2" points="16 3.18 10.5 0 16 -3.17 21.5 0 16 3.18"/><polygon class="cls-2" points="0 3.18 -5.5 0 0 -3.17 5.5 0 0 3.18"/></pattern></defs><g id="Layer_2" data-name="Layer 2"><g id="icons_design" data-name="icons design"><polygon class="cls-3" points="116.77 215.57 201 215.57 243.6 191.01 107.6 133.53 116.77 215.57"/><polygon class="cls-4" points="1.5 82.86 1.5 149.01 59.13 182.3 1.85 83.06 1.5 82.86"/><polygon class="cls-4" points="1.5 82.47 1.5 82.86 1.85 83.06 1.5 82.47"/><path class="cls-5" d="M59.14,49.59v66.15l-.35.2L1.85,83.06l-.35-.6V16.31ZM39.82,71.71c0-6.06-4.26-13.43-9.5-16.45s-9.51-.58-9.51,5.48,4.26,13.43,9.51,16.46S39.82,77.78,39.82,71.71Z"/><polygon class="cls-4" points="1.5 16.32 116.77 82.86 142.43 68.05 27.16 1.5 1.5 16.32"/><polygon class="cls-6" points="1.85 83.06 59.13 182.3 59.13 116.14 1.85 83.06"/><path class="cls-4" d="M20.81,60.74c0,6.06,4.26,13.43,9.51,16.46s9.5.58,9.5-5.49-4.26-13.43-9.5-16.45S20.81,54.68,20.81,60.74Z"/><polygon class="cls-4" points="58.79 115.94 59.13 116.14 59.13 115.74 58.79 115.94"/><path class="cls-4" d="M116.77,149.41v66.16L59.14,182.3V116.14Zm-15.29,39.68V157.85L74.42,142.23v31.24Z"/><polygon class="cls-7" points="59.13 115.74 59.13 116.14 87.95 99.5 59.13 49.59 59.13 115.74"/><polygon class="cls-4" points="59.13 49.59 87.95 99.5 116.77 82.86 59.13 49.59"/><polygon class="cls-2" points="59.13 116.14 116.42 149.21 116.6 149.12 87.95 99.5 59.13 116.14"/><polygon class="cls-5" points="74.42 142.23 74.42 173.47 101.48 189.09 101.48 157.85 74.42 142.23"/><polygon class="cls-8" points="87.95 99.5 116.6 149.12 116.77 149.02 116.77 82.86 87.95 99.5"/><polygon class="cls-4" points="116.42 149.21 116.77 149.41 116.6 149.12 116.42 149.21"/><polygon class="cls-4" points="116.6 149.12 116.77 149.41 116.77 149.02 116.6 149.12"/><polygon class="cls-7" points="116.77 149.41 116.77 215.57 142.43 200.76 142.43 68.05 116.77 82.86 116.77 149.41"/><polyline class="cls-9" points="116.77 149.02 116.77 82.86 59.13 49.59 59.13 115.74"/><line class="cls-9" x1="59.14" y1="116.14" x2="116.77" y2="149.41"/><line class="cls-9" x1="116.77" y1="149.41" x2="59.14" y2="49.59"/><line class="cls-9" x1="1.5" y1="82.86" x2="59.14" y2="116.14"/><polyline class="cls-9" points="59.13 49.59 1.5 16.32 1.5 82.47"/><polygon class="cls-9" points="59.13 182.3 1.5 82.47 1.5 149.01 59.13 182.3"/><polyline class="cls-9" points="116.42 149.21 116.77 149.02 116.77 215.57 59.13 182.3 59.13 115.74 58.79 115.94"/><path class="cls-9" d="M20.81,60.74c0-6.06,4.26-8.52,9.51-5.48s9.5,10.39,9.5,16.45-4.26,8.52-9.5,5.49S20.81,66.8,20.81,60.74Z"/><polygon class="cls-9" points="74.42 142.23 101.48 157.85 101.48 189.09 74.42 173.47 74.42 142.23"/><polyline class="cls-9" points="116.77 215.57 142.43 200.76 142.43 68.05 27.16 1.5 1.5 16.32"/><line class="cls-9" x1="142.43" y1="68.05" x2="59.14" y2="116.14"/></g></g></svg>