<svg xmlns="http://www.w3.org/2000/svg" xmlns:xlink="http://www.w3.org/1999/xlink" viewBox="0 0 222.69 258.8"><defs><style>.cls-1,.cls-8{fill:none;}.cls-2{fill:#969a9e;}.cls-3{fill:url(#New_Pattern_Swatch_3);}.cls-4,.cls-9{fill:#fff;}.cls-5{fill:#f6d84c;}.cls-6{fill:#373a3a;}.cls-7{fill:#5f646b;}.cls-8,.cls-9{stroke:#373a3a;stroke-linecap:round;stroke-linejoin:round;stroke-width:3px;}</style><pattern id="New_Pattern_Swatch_3" data-name="New Pattern Swatch 3" width="16" height="19" patternTransform="translate(-2123.38 -47.85) scale(0.4)" patternUnits="userSpaceOnUse" viewBox="0 0 16 19"><rect class="cls-1" width="16" height="19"/><polygon class="cls-2" points="16 22.18 10.5 19 16 15.82 21.5 19 16 22.18"/><polygon class="cls-2" points="8 12.68 2.5 9.5 8 6.33 13.5 9.5 8 12.68"/><polygon class="cls-2" points="0 22.18 -5.5 19 0 15.82 5.5 19 0 22.18"/><polygon class="cls-2" points="16 3.18 10.5 0 16 -3.17 21.5 0 16 3.18"/><polygon class="cls-2" points="0 3.18 -5.5 0 0 -3.17 5.5 0 0 3.18"/></pattern></defs><g id="Layer_2" data-name="Layer 2"><g id="icons_design" data-name="icons design"><polygon class="cls-3" points="28.57 233.09 114.22 258.8 148.86 240.1 148.86 231.18 222.69 189.53 141.27 164.59 28.57 233.09"/><path class="cls-4" d="M107,100.15c1.84,1.5,4.77,1.27,8.44-.83l57.93-33.47L144.09,166.37,28.57,233.08,65.09,107.71,94.4,90.79c6-3.49,10.13-1.82,10.52,4.27C105.06,97.47,105.79,99.18,107,100.15Z"/><path class="cls-5" d="M132.91,1.5V89.22l-17.48,10.1c-3.67,2.1-6.6,2.33-8.44.83,6.59-10.77,10.73-23.17,10.73-34.3,0-21-14.75-29.53-32.95-19s-33,36.05-33,57.08c0,9.75,3.18,16.81,8.4,20.52L49.64,160.75l-13,7.5V57.09Z"/><path class="cls-6" d="M117.72,65.85c0,11.13-4.14,23.53-10.73,34.3-1.2-1-1.93-2.68-2.07-5.09-.39-6.09-4.47-7.76-10.52-4.27l-9,5.21,16.84-21.2L77,72.18v28.64l-11.92,6.89-4.88,16.72c-5.22-3.71-8.4-10.77-8.4-20.52,0-21,14.76-46.58,33-57.08S117.72,44.83,117.72,65.85Z"/><polygon class="cls-4" points="102.22 74.8 85.38 96 77.01 100.82 77.01 72.18 102.22 74.8"/><polygon class="cls-7" points="49.64 160.75 28.57 233.09 1.5 111.42 36.63 91.14 36.63 168.25 49.64 160.75"/><path class="cls-8" d="M36.63,91.14,1.5,111.42,28.57,233.08l115.52-66.71L173.36,65.85,115.43,99.32c-3.67,2.1-6.6,2.32-8.44.83-1.19-1-1.93-2.68-2.07-5.09-.39-6.09-4.47-7.76-10.52-4.27L65.09,107.71,28.57,233.08"/><polyline class="cls-8" points="49.64 160.75 36.63 168.25 36.63 57.09 132.91 1.5 132.91 89.22"/><path class="cls-8" d="M107,100.16c6.59-10.77,10.74-23.18,10.74-34.31,0-21-14.75-29.53-32.95-19s-33,36.05-33,57.08c0,9.75,3.18,16.81,8.4,20.52"/><polyline class="cls-8" points="77.01 100.82 77.01 72.18 102.22 74.8 85.38 96"/><path class="cls-9" d="M100.45,216.35a14.84,14.84,0,1,0-21,0A14.84,14.84,0,0,0,100.45,216.35Z"/></g></g></svg>