<svg xmlns="http://www.w3.org/2000/svg" xmlns:xlink="http://www.w3.org/1999/xlink" viewBox="0 0 243.44 231.04"><defs><style>.cls-1,.cls-9{fill:none;}.cls-2{fill:#969a9e;}.cls-3{fill:url(#New_Pattern_Swatch_3);}.cls-4{fill:#5f646b;}.cls-5{fill:#fff;}.cls-6{fill:#373a3a;}.cls-7{fill:#c2c7cc;}.cls-8{fill:#f6d84c;}.cls-9{stroke:#373a3a;stroke-linecap:round;stroke-linejoin:round;stroke-width:3px;}</style><pattern id="New_Pattern_Swatch_3" data-name="New Pattern Swatch 3" width="16" height="19" patternTransform="translate(-2123.38 -47.85) scale(0.4)" patternUnits="userSpaceOnUse" viewBox="0 0 16 19"><rect class="cls-1" width="16" height="19"/><polygon class="cls-2" points="16 22.18 10.5 19 16 15.82 21.5 19 16 22.18"/><polygon class="cls-2" points="8 12.68 2.5 9.5 8 6.33 13.5 9.5 8 12.68"/><polygon class="cls-2" points="0 22.18 -5.5 19 0 15.82 5.5 19 0 22.18"/><polygon class="cls-2" points="16 3.18 10.5 0 16 -3.17 21.5 0 16 3.18"/><polygon class="cls-2" points="0 3.18 -5.5 0 0 -3.17 5.5 0 0 3.18"/></pattern></defs><g id="Layer_2" data-name="Layer 2"><g id="icons_design" data-name="icons design"><path class="cls-3" d="M144,231c36.93.05,72-1.51,82.32-1.52a16.27,16.27,0,0,0,6.12-1.2l5.64-2.3a8.63,8.63,0,0,0,.74-15.64l-102.7-53.72Z"/><path class="cls-4" d="M165.43,96.85V211.76c0,4.25-1.41,7.24-3.65,8.54L147,228.83c2.24-1.28,3.65-4.28,3.65-8.53V105.39c0-7.77-4.73-16.79-10.55-20.16L12.05,11.3C9.41,9.78,7,9.68,5.15,10.75L19.93,2.21c1.85-1.07,4.26-1,6.91.55l128,73.94C160.71,80.06,165.43,89.08,165.43,96.85Z"/><path class="cls-5" d="M150.65,124.2v96.1c0,4.25-1.42,7.24-3.65,8.52-1.85,1.08-4.26,1-6.9-.55l-128-73.92C6.22,151,1.5,142,1.5,134.19V38.09ZM98.82,169.58c0-3.65-2.22-7.88-4.95-9.47l-50.28-29a4,4,0,0,0-2-.59c-1.76,0-3,1.63-3,4.34,0,3.65,2.22,7.89,5,9.47l50.28,29a4,4,0,0,0,2,.59C97.59,173.92,98.82,172.29,98.82,169.58Z"/><path class="cls-6" d="M47,112.83,35.4,106.17l-2.2,4.88-5.9-3.41L38.39,85.32l5.68,3.28L55.2,123.75l-6.05-3.49Zm-1.81-6.09-4-13.27-3.94,8.72Z"/><path class="cls-6" d="M57.79,96.52l11.3,6.53a28.45,28.45,0,0,1,12,13.73,22.5,22.5,0,0,1,1.72,8.55q0,4.3-1.72,6.55a5.73,5.73,0,0,1-4.83,2.24,14.9,14.9,0,0,1-7.16-2.35l-11.3-6.53Zm11,29.63c2.49,1.43,4.48,1.78,6,1S77,124.7,77,122a14.82,14.82,0,0,0-2.22-7.78,16.44,16.44,0,0,0-6-5.84l-5.25-3v17.81Z"/><path class="cls-6" d="M89.61,143.19a28.75,28.75,0,0,1-4.42-5l2-3.88a28.93,28.93,0,0,0,3.8,4.37,23.53,23.53,0,0,0,4.41,3.37c1.63.94,2.84,1.36,3.62,1.25s1.18-.63,1.18-1.56a3.92,3.92,0,0,0-.7-2.1,12,12,0,0,0-1.77-2.12C97,136.87,96,136,94.74,135c-1.9-1.61-3.44-3-4.65-4.25a17.43,17.43,0,0,1-3.11-4.3,11.22,11.22,0,0,1-1.3-5.34,5.69,5.69,0,0,1,1.18-3.86A4,4,0,0,1,90.39,116a14.32,14.32,0,0,1,5.78,2.15,30.41,30.41,0,0,1,4.65,3.34,28.92,28.92,0,0,1,4,4.19l-1.78,4a25.8,25.8,0,0,0-6.89-6.24c-1.61-.93-2.8-1.32-3.57-1.16s-1.16.73-1.16,1.72a4.48,4.48,0,0,0,1.34,3,38.22,38.22,0,0,0,4.07,3.76c1.89,1.62,3.44,3,4.65,4.25a18.26,18.26,0,0,1,3.11,4.26,11.15,11.15,0,0,1,1.3,5.3,5.59,5.59,0,0,1-1.19,3.81,4.12,4.12,0,0,1-3.58,1.16,14.55,14.55,0,0,1-5.79-2.16A32.8,32.8,0,0,1,89.61,143.19Z"/><path class="cls-7" d="M150.65,105.39V124.2L1.5,38.09V19.28C1.5,15,2.91,12,5.15,10.75c1.85-1.07,4.26-1,6.9.55l128,73.93C145.92,88.6,150.65,97.62,150.65,105.39ZM51.85,50.83a7.87,7.87,0,0,0-3.56-6.16c-2-1.14-3.56-.22-3.56,2a7.86,7.86,0,0,0,3.56,6.17C50.25,54,51.85,53.09,51.85,50.83ZM37.27,42.41a7.87,7.87,0,0,0-3.56-6.17c-2-1.13-3.56-.21-3.56,2.06a7.84,7.84,0,0,0,3.56,6.16C35.68,45.6,37.27,44.68,37.27,42.41ZM22.69,34a7.86,7.86,0,0,0-3.56-6.16c-2-1.14-3.55-.22-3.55,2.05a7.87,7.87,0,0,0,3.55,6.17C21.1,37.19,22.69,36.26,22.69,34Z"/><path class="cls-8" d="M93.87,160.11c2.73,1.59,4.95,5.82,4.95,9.47,0,2.71-1.23,4.34-3,4.34a4,4,0,0,1-2-.59l-50.28-29c-2.74-1.58-5-5.82-5-9.47,0-2.71,1.23-4.34,3-4.34a4,4,0,0,1,2,.59Z"/><path class="cls-5" d="M48.29,44.67a7.87,7.87,0,0,1,3.56,6.16c0,2.26-1.6,3.19-3.56,2.05a7.86,7.86,0,0,1-3.56-6.17C44.73,44.45,46.32,43.53,48.29,44.67Z"/><path class="cls-5" d="M33.71,36.24a7.87,7.87,0,0,1,3.56,6.17c0,2.27-1.59,3.19-3.56,2.05a7.84,7.84,0,0,1-3.56-6.16C30.15,36,31.74,35.11,33.71,36.24Z"/><path class="cls-5" d="M19.13,27.83A7.86,7.86,0,0,1,22.69,34c0,2.27-1.59,3.2-3.56,2.06a7.87,7.87,0,0,1-3.55-6.17C15.58,27.61,17.17,26.69,19.13,27.83Z"/><path class="cls-9" d="M147,228.82c-1.85,1.07-4.26,1-6.9-.55l-128-73.92C6.22,151,1.5,142,1.5,134.19V19.28C1.5,15,2.91,12,5.15,10.75c1.85-1.07,4.26-1,6.9.55l128,73.93c5.82,3.37,10.55,12.39,10.55,20.16V220.3C150.65,224.55,149.23,227.53,147,228.82Z"/><line class="cls-9" x1="1.5" y1="38.09" x2="150.65" y2="124.2"/><path class="cls-9" d="M93.87,173.33l-50.28-29c-2.74-1.58-5-5.82-5-9.47,0-2.71,1.23-4.34,3-4.34a4,4,0,0,1,2,.59l50.28,29c2.73,1.59,4.95,5.82,4.95,9.47,0,2.71-1.23,4.34-3,4.34A4,4,0,0,1,93.87,173.33Z"/><path class="cls-9" d="M22.69,34a7.86,7.86,0,0,0-3.56-6.16c-2-1.14-3.55-.22-3.55,2.05a7.87,7.87,0,0,0,3.55,6.17C21.1,37.19,22.69,36.26,22.69,34Z"/><path class="cls-9" d="M37.27,42.41a7.87,7.87,0,0,0-3.56-6.17c-2-1.13-3.56-.21-3.56,2.06a7.84,7.84,0,0,0,3.56,6.16C35.68,45.6,37.27,44.68,37.27,42.41Z"/><path class="cls-9" d="M51.85,50.83a7.87,7.87,0,0,0-3.56-6.16c-2-1.14-3.56-.22-3.56,2a7.86,7.86,0,0,0,3.56,6.17C50.25,54,51.85,53.09,51.85,50.83Z"/><path class="cls-9" d="M147,228.83l14.78-8.53c2.24-1.3,3.65-4.29,3.65-8.54V96.85c0-7.77-4.72-16.79-10.55-20.15L26.84,2.76c-2.65-1.52-5.06-1.62-6.91-.55L5.15,10.75"/></g></g></svg>