<svg xmlns="http://www.w3.org/2000/svg" xmlns:xlink="http://www.w3.org/1999/xlink" viewBox="0 0 227.14 212.28"><defs><style>.cls-1,.cls-7{fill:none;}.cls-2{fill:#969a9e;}.cls-3{fill:url(#New_Pattern_Swatch_3);}.cls-4{fill:#fff;}.cls-5{fill:#373a3a;}.cls-6{fill:#5f646b;}.cls-7{stroke:#373a3a;stroke-linecap:round;stroke-linejoin:round;stroke-width:3px;}</style><pattern id="New_Pattern_Swatch_3" data-name="New Pattern Swatch 3" width="16" height="19" patternTransform="translate(-2123.38 -47.85) scale(0.4)" patternUnits="userSpaceOnUse" viewBox="0 0 16 19"><rect class="cls-1" width="16" height="19"/><polygon class="cls-2" points="16 22.18 10.5 19 16 15.82 21.5 19 16 22.18"/><polygon class="cls-2" points="8 12.68 2.5 9.5 8 6.33 13.5 9.5 8 12.68"/><polygon class="cls-2" points="0 22.18 -5.5 19 0 15.82 5.5 19 0 22.18"/><polygon class="cls-2" points="16 3.18 10.5 0 16 -3.17 21.5 0 16 3.18"/><polygon class="cls-2" points="0 3.18 -5.5 0 0 -3.17 5.5 0 0 3.18"/></pattern></defs><g id="Layer_2" data-name="Layer 2"><g id="icons_design" data-name="icons design"><path class="cls-3" d="M45.5,139c5.43,1.66,10.26-4.77,7.35-9.56-1.62-2.69,14.81-12.76,17-14a74.25,74.25,0,0,1,22-8l.44-.08c-1.43,5.24,3.49,11,10,7.89A50.62,50.62,0,0,1,120,110.72c6.42-.53,12.73,1.14,19,.68,8.57-.63,14.22-13.51,4.84-17.89-7.11-3.32-15.27-3.6-23.25-2-2.6-3.32-7.2-4.32-11.48-4.69a71.7,71.7,0,0,0-19,1,9.36,9.36,0,0,0-8-4.32c-9.65.58-18.95,6.27-26.81,11.59a105.31,105.31,0,0,0-21.16,19.16,8.76,8.76,0,0,0,2.77,13.8A11.51,11.51,0,0,0,45.5,139Z"/><path class="cls-3" d="M67.78,188.35a116.1,116.1,0,0,0,34.55,6.75c2.45.68,4.85,1.35,7.07,2.11,5.1,1.75,10.12,3.74,15.13,5.73,3.73,1.48,8.26,2.56,10.35,6.22s7.1,4,10.13,1.3c5.56-5,3.44-12.59-.94-17.55a23.27,23.27,0,0,0-2.41-2.35,125.27,125.27,0,0,0,15.06-5.21c3.67-1.55,7.39-3.28,11-5.22.92.13,1.83.25,2.74.39,4,.61,7.93,1.29,11.93,1.66s7.34-.82,11.26-1a5.18,5.18,0,0,0,2.59-9.56c-3.09-2.15-5.33-4.47-8.57-6.17a49.78,49.78,0,0,0,6.11-7.83,32.71,32.71,0,0,0,4.84-13.72c7.58-1.23,15.12-2.69,22.63-4.45,9.11-2.12,7-16.08-2.18-16.11-8.09,0-16.09.38-24.08,1a42.68,42.68,0,0,0-4.73-7.47c5.08-1.93,2.72-9-2.58-8.25l-4.84.65c-5.72-4.89-13.39-9.28-19.85-4.44-3.14,2.36-4.11,5.16-3.79,8l-2.22.43c-9.69,2-18.79,5.93-27.57,10.4-2.53,1.28-1.21,5.07,1.39,5.13,4.15.09,8.29.05,12.42-.19a16.53,16.53,0,0,0-6.8,3.36c-1.68,1.48-1.5,3.75-.72,5.58,2.63,6.22,12.11,9,18.2,9.78,1.58.19,3.17.32,4.75.4a27.76,27.76,0,0,1-3.61,3.91,40.63,40.63,0,0,1-7.42,5.11,144.82,144.82,0,0,0-19.75-.84c-7.6.26-15.64,1.39-20,8.29-1.24,1.95-.56,4.19.76,5.83a13,13,0,0,0,2,2.07,113.61,113.61,0,0,1-28-2.35,164,164,0,0,1-22.85-7.06c-4.5-1.66-17.69-7.67-21-1-3.11,6.41,4.2,13.3,8.87,16.62A83.43,83.43,0,0,0,67.78,188.35Z"/><g id="crown"><path class="cls-4" d="M173.88,35.41a8.81,8.81,0,0,1,0,17.62,8.6,8.6,0,0,1-1-.06,9.15,9.15,0,0,1-1.59-.33,8.81,8.81,0,0,1,2.61-17.23Z"/><path class="cls-5" d="M172.86,53l-9.71,61.21L152.23,84.13a8.83,8.83,0,0,0,4.32-4.68l14.72-26.81A8.31,8.31,0,0,0,172.86,53Z"/><path class="cls-6" d="M164.26,109.53v23.65c0,10.67-7,21.33-21.15,29.47s-32.55,12.21-51,12.21-36.94-4.07-51-12.21-21.16-18.8-21.16-29.47V109.53c0,10.65,7,21.32,21.16,29.46s32.55,12.2,51,12.2,36.93-4.07,51-12.2S164.26,120.18,164.26,109.53Z"/><path class="cls-2" d="M164.19,107.62c.05.64.07,1.27.07,1.91,0,10.65-7,21.32-21.15,29.46s-32.55,12.2-51,12.2-36.94-4.07-51-12.2-21.16-18.81-21.16-29.46c0-.64,0-1.27.08-1.91l1,6.56L32,84.13a8.85,8.85,0,0,0,3.88.9,8.66,8.66,0,0,0,3.8-.87l26.22,58,21.9-44.55a8.88,8.88,0,0,0,4.34,1.13,8.78,8.78,0,0,0,4.33-1.13l21.9,44.55,26.22-58a8.66,8.66,0,0,0,3.8.87,8.85,8.85,0,0,0,3.88-.9l10.92,30.05Z"/><path class="cls-4" d="M156.25,14.42A8.81,8.81,0,0,1,156.53,32h-.28a8.84,8.84,0,0,1-8.82-8.82A8.82,8.82,0,0,1,156.25,14.42Z"/><path class="cls-4" d="M156.53,72.9a8.91,8.91,0,0,1,.64,3.31,8.73,8.73,0,0,1-.62,3.24,8.82,8.82,0,0,1-8.2,5.58,8.66,8.66,0,0,1-3.8-.87,8.82,8.82,0,1,1,12-11.26Z"/><path class="cls-5" d="M156.53,32V72.9a8.82,8.82,0,1,0-12,11.26l-7.44,16.45c-10.77-5-23.42-7.9-36.41-8.8a8.82,8.82,0,1,0-17.42-1.93,8.22,8.22,0,0,0,.22,1.93c-13,.9-25.65,3.83-36.42,8.8L39.64,84.16a8.82,8.82,0,1,0-12-11.26V32h.27a8.75,8.75,0,0,0,6.35-2.7L65.86,63.67,88.2,18.22a8.77,8.77,0,0,0,7.78,0l22.35,45.45,31.58-34.32a8.73,8.73,0,0,0,6.34,2.7Z"/><path class="cls-4" d="M100.91,89.88a8.79,8.79,0,0,1-8.81,8.81,8.77,8.77,0,0,1-8.6-6.88,8.81,8.81,0,1,1,17.41-1.93Z"/><path class="cls-4" d="M92.1,1.5A8.81,8.81,0,0,1,96,18.22a8.77,8.77,0,0,1-7.78,0A8.81,8.81,0,0,1,92.1,1.5Z"/><path class="cls-4" d="M35.84,67.39a8.82,8.82,0,0,1,3.8,16.77,8.66,8.66,0,0,1-3.8.87,8.82,8.82,0,0,1-8.2-5.58,8.89,8.89,0,0,1,0-6.55A8.82,8.82,0,0,1,35.84,67.39Z"/><path class="cls-4" d="M27.94,14.42a8.82,8.82,0,1,1,0,17.63h-.27a8.81,8.81,0,0,1,.27-17.62Z"/><path class="cls-5" d="M32,84.13,21,114.18,11.33,53a8.31,8.31,0,0,0,1.59-.33L27.64,79.45A8.83,8.83,0,0,0,32,84.13Z"/><path class="cls-4" d="M10.31,35.41a8.81,8.81,0,0,1,2.61,17.23,9.15,9.15,0,0,1-1.59.33,8.6,8.6,0,0,1-1,.06,8.81,8.81,0,0,1,0-17.62Z"/><polyline class="cls-7" points="87.76 97.56 65.86 142.11 39.64 84.16"/><polyline class="cls-7" points="96.43 97.56 118.33 142.11 144.55 84.16"/><polyline class="cls-7" points="31.96 84.13 21.04 114.18 11.33 52.97"/><polyline class="cls-7" points="152.23 84.13 163.15 114.18 172.86 52.97"/><line class="cls-7" x1="12.92" y1="52.64" x2="27.64" y2="79.45"/><line class="cls-7" x1="171.27" y1="52.64" x2="156.55" y2="79.45"/><line class="cls-7" x1="27.67" y1="72.9" x2="27.67" y2="32.04"/><line class="cls-7" x1="156.53" y1="72.9" x2="156.53" y2="32.04"/><polyline class="cls-7" points="34.29 29.35 65.86 63.67 88.2 18.23"/><polyline class="cls-7" points="149.91 29.35 118.33 63.67 95.98 18.23"/><path class="cls-7" d="M164.19,107.62c.05.64.07,1.27.07,1.91,0,10.65-7,21.32-21.15,29.46s-32.55,12.2-51,12.2-36.94-4.07-51-12.2-21.16-18.81-21.16-29.46c0-.64,0-1.27.08-1.91"/><path class="cls-7" d="M47.08,100.61c10.77-5,23.43-7.9,36.42-8.8"/><path class="cls-7" d="M137.11,100.61c-10.77-5-23.42-7.9-36.41-8.8"/><path class="cls-7" d="M164.26,109.53v23.65c0,10.67-7,21.33-21.15,29.47s-32.55,12.21-51,12.21-36.94-4.07-51-12.21-21.16-18.8-21.16-29.47V109.53"/><path class="cls-7" d="M96,18.22a8.81,8.81,0,1,0-7.78,0,8.77,8.77,0,0,0,7.78,0Z"/><path class="cls-7" d="M34.29,29.35A8.82,8.82,0,1,0,27.67,32h.27A8.75,8.75,0,0,0,34.29,29.35Z"/><path class="cls-7" d="M149.91,29.35A8.81,8.81,0,1,1,156.53,32h-.28A8.75,8.75,0,0,1,149.91,29.35Z"/><path class="cls-7" d="M39.64,84.16a8.82,8.82,0,1,0-12-11.26,8.89,8.89,0,0,0,0,6.55A8.82,8.82,0,0,0,35.84,85,8.66,8.66,0,0,0,39.64,84.16Z"/><path class="cls-7" d="M144.55,84.16a8.82,8.82,0,1,1,12-11.26,8.91,8.91,0,0,1,.64,3.31,8.73,8.73,0,0,1-.62,3.24,8.82,8.82,0,0,1-8.2,5.58A8.66,8.66,0,0,1,144.55,84.16Z"/><path class="cls-7" d="M12.92,52.64a8.83,8.83,0,1,0-2.61.39,8.6,8.6,0,0,0,1-.06A9.15,9.15,0,0,0,12.92,52.64Z"/><path class="cls-7" d="M171.27,52.64a8.83,8.83,0,1,1,2.61.39,8.6,8.6,0,0,1-1-.06A9.15,9.15,0,0,1,171.27,52.64Z"/><path class="cls-7" d="M100.7,91.81a8.79,8.79,0,1,0-4.27,5.75A8.78,8.78,0,0,0,100.7,91.81Z"/></g></g></g></svg>