<?xml version="1.0" encoding="UTF-8"?>
<svg id="OBJECT" xmlns="http://www.w3.org/2000/svg" viewBox="0 0 32 32">
  <defs>
    <style>
      .cls-1 {
        fill: #f79e51;
      }

      .cls-2 {
        fill: #fefefe;
      }
    </style>
  </defs>
  <path class="cls-2" d="M29.65,15.38c0,.83-.07,1.64-.21,2.43-1.26-1.52-3.05-.58-4.47.26-4.23,2.5-6.39,5.62-11.76,6.52-1.79.3-3.29.29-5.11.16-.55-.04-2.29-.19-3.04-.4-1.19-1.42-2.11-3.08-2.66-4.9.53-.07,2.44-.07,2.75-.05,4.05.18,7.2,1.11,11.53.11,3.98-.92,6.81-3.58,10.15-5.62h0c.43-.31,1.96-1.41,2.51-1.44.2.95.31,1.93.31,2.94Z"/>
  <path class="cls-1" d="M28.24,9.26c-.56.31-2.83,1.23-3.18,1.36-7.14,2.63-15.17,2.42-21.82-1.42,1.23-2.47,3.17-4.53,5.55-5.9.22.38.64,1.2.85,1.46,3.24,4.09,9.92,3.97,14.63,3.53.47-.04,2.42-.42,3.14-.49.3.47.58.95.83,1.46Z"/>
  <path class="cls-1" d="M24.07,13.47c-1.72,1.56-4.09,3.2-6.3,4.03-5.35,2.01-9.89.2-15.22.34-.12,0-.36.07-.51.12-.16-.84-.24-1.71-.24-2.59,0-1.48.23-2.9.66-4.24,6.87,3.14,14.22,5.15,21.62,2.34Z"/>
  <path class="cls-2" d="M29.12,19.19h0c-1.66,5.84-7.03,10.11-13.4,10.11-3.03,0-5.83-.97-8.12-2.61,4.98.54,9.17-.91,13.19-3.69,1.31-.91,5.36-4.49,6.63-4.63.69-.08,1.5.16,1.69.81Z"/>
  <path class="cls-1" d="M25.72,5.68c-.43.17-1.37.3-1.57.34-4.56.93-10.72.97-13.09-3.77,1.46-.52,3.03-.8,4.67-.8,3.92,0,7.46,1.62,9.99,4.23Z"/>
</svg>