<?xml version="1.0" encoding="UTF-8"?>
<svg id="OBJECT" xmlns="http://www.w3.org/2000/svg" viewBox="0 0 32 32">
  <defs>
    <style>
      .cls-1 {
        fill: #ef5323;
      }
    </style>
  </defs>
  <path class="cls-1" d="M18.55,9.93c-.18-.3-.36-.62-.56-.96,3.61-.36,9,2.38,11,6.37-1.9,4.5-7.28,7.91-12.61,7.42.21-.34.4-.65.6-.97,4.76-.14,8.37-2.23,10.85-6.38-2.24-3.28-5.34-5.03-9.28-5.47Z"/>
  <path class="cls-1" d="M16.78,23.1c.35,0,.69,0,1.05,0-.97,3.23-6.88,6.63-10.93,6.34-3.33-4.52-2.84-10.91-.14-14.61.19.31.37.59.57.91-2.25,4.21-2.29,8.42.11,12.65,3.95-.3,7.03-2.1,9.35-5.3Z"/>
  <path class="cls-1" d="M6.44,4.22c-1.71,2.84-1.76,6.3-.19,10.8-.07.14-.16.32-.26.49-.08.14-.19.28-.29.43-2.34-3.46-2.23-9.2,0-12.66,4.51-.68,10.43,2.13,12.76,7.16-.41,0-.77,0-1.12.01-2.5-4.08-6.12-6.14-10.89-6.23Z"/>
  <path class="cls-1" d="M15.78,21.18c.35.03.69.05,1.05.08-1.08,2.94-4.94,6.08-8.87,6.28-1.58-1.95-2.08-6.85-.87-8.96.24.25.48.5.74.77-.56,2.41-.42,4.75.67,7.06,3.24-.61,5.62-2.39,7.3-5.23Z"/>
  <path class="cls-1" d="M19.48,20.62c.05-.17.09-.33.14-.49.05-.17.1-.33.16-.55,2.35-.69,4.3-1.98,5.78-4.09-2.12-2.54-4.87-3.67-8.14-3.72-.11-.19-.22-.36-.31-.54-.06-.13-.1-.26-.15-.4,3.23-.65,8,1.57,9.83,4.54-1.11,2.78-5.25,5.23-7.32,5.25Z"/>
  <path class="cls-1" d="M8.46,15.11c-.22.29-.41.54-.61.8-2.47-2.92-2.51-8.31-.89-10.89,3.2.12,5.92,1.3,8.2,3.78-.44.12-.77.21-1.15.31-1.79-1.72-3.91-2.76-6.46-2.96-1.08,3.12-.74,6.06.91,8.96Z"/>
  <path class="cls-1" d="M15.69,11.97c-3.3.79-5.69,2.64-7.24,5.68-.28-.31-.49-.54-.76-.85,1.6-3.06,4.09-4.92,7.41-5.8.13.18.23.32.32.46.08.12.13.26.26.51Z"/>
  <path class="cls-1" d="M15.17,10.51c.22-.06.33-.1.44-.12.2-.04.4-.06.68-.1,1.8,2.89,2.18,5.97,1.3,9.33-.36,0-.69,0-1.13,0,.94-3.25.55-6.24-1.29-9.11Z"/>
  <path class="cls-1" d="M17.95,19.88c-.06.25-.09.42-.14.59-.04.14-.09.27-.17.5-3.44.1-6.33-1.06-8.77-3.59.2-.3.36-.56.6-.92,2.32,2.45,5.12,3.61,8.49,3.42Z"/>
  <path class="cls-1" d="M8.35,14.36c-.19-.4-.32-.68-.49-1.06,2.17-2.46,4.88-3.85,8.13-4.34.23.32.44.62.7,1-3.38.4-6.11,1.81-8.35,4.4Z"/>
  <path class="cls-1" d="M7.26,16.65c1.99,2.68,4.59,4.27,7.88,4.97-.22.35-.41.65-.61.96-3.22-.71-5.79-2.32-7.82-4.87l.55-1.06Z"/>
  <path class="cls-1" d="M18.06,12.07c.45.03.76.05,1.17.08.99,3.11.92,6.15-.32,9.18-.22.04-.39.09-.56.1-.16.02-.33,0-.63,0,1.32-3.08,1.45-6.14.34-9.36Z"/>
</svg>