<?xml version="1.0" encoding="UTF-8"?>
<svg id="OBJECT" xmlns="http://www.w3.org/2000/svg" viewBox="0 0 32 32">
  <defs>
    <style>
      .cls-1 {
        fill: #4b176c;
      }
    </style>
  </defs>
  <path class="cls-1" d="M26.35,19.85c-.35.63-.13,1.89-.68,2.33l-12.01,6.18-1.1-.09-9.55-6.16.09-.38c.68-.12,1.27-.98,1.96-.81l8.58,5.36,12.69-6.44Z"/>
  <path class="cls-1" d="M4.93,10.61c-.08-.09.17-2.02.53-2.18,3.11-1.48,6.08-3.24,9.15-4.79.89-.45,2.64-1.55,3.56-1.36l9.79,6.35c-.68.39-1.44,1.22-2.28.81-2.32-1.35-4.49-2.98-6.77-4.38-.46-.28-1.19-.81-1.72-.76l-12.26,6.31Z"/>
  <path class="cls-1" d="M27.08,15.45l-.32,1.95-.27.32c-3.44,1.63-6.72,3.6-10.11,5.29-.51.25-1.86,1.03-2.31,1.07-.75.06-5.9-3.74-6.93-4.3l2.09-1.08,4.81,2.98.64.08c3.56-1.71,6.98-3.72,10.5-5.5.29-.15,1.72-.94,1.91-.8Z"/>
  <path class="cls-1" d="M4.05,15.15l.48-2.17,12.1-6.31.91.05,6.31,4.1c-.67.41-1.4,1.11-2.24.93-1-.38-4.31-3.09-5.13-3.02l-12.43,6.43Z"/>
  <path class="cls-1" d="M27.81,10.9l-.44,2.28-12.18,6.31c-1.05.27-2.74-1.37-3.67-1.92-.06-.28,1.57-1.08,1.84-1.1.78-.05,1.35,1.08,2.12.82l12.32-6.39Z"/>
  <path class="cls-1" d="M3.31,19.55l.48-2.16,12.14-6.28c.27-.13.45-.04.69.05s2.83,1.7,2.83,1.87c-.33.4-1.36,1.04-1.86,1.06-.53.02-1.32-1.07-1.96-.93l-12.32,6.39Z"/>
</svg>