<?xml version="1.0" encoding="UTF-8"?>
<svg id="OBJECT" xmlns="http://www.w3.org/2000/svg" viewBox="0 0 32 32">
  <defs>
    <style>
      .cls-1 {
        fill: #fff;
      }

      .cls-2 {
        fill: #ff5001;
      }
    </style>
  </defs>
  <g>
    <path class="cls-1" d="M18.8,6.71c-.14,0-.25.11-.25.25s.11.25.25.25.25-.11.25-.25-.11-.25-.25-.25h0Z"/>
    <path class="cls-1" d="M23.81,9.51c-.14,0-.25.11-.25.25s.11.25.25.25.25-.11.25-.25c-.02-.14-.11-.25-.25-.25h0Z"/>
    <path class="cls-1" d="M28.17,15.15c-.14,0-.25.11-.25.25s.11.25.25.25.25-.11.25-.25-.11-.25-.25-.25h0Z"/>
    <path class="cls-1" d="M23.2,16.55c-.14,0-.25.11-.25.25s.11.25.25.25.25-.11.25-.25-.11-.25-.25-.25h0Z"/>
    <path class="cls-1" d="M27.65,21.16c-.14,0-.25.11-.25.25s.11.25.25.25.25-.11.25-.25c-.02-.14-.11-.25-.25-.25h0Z"/>
    <path class="cls-1" d="M23.52,24.38c-.14,0-.25.11-.25.25s.11.25.25.25.25-.11.25-.25-.11-.25-.25-.25h0Z"/>
    <path class="cls-1" d="M19.37,23.93c-.14,0-.25.11-.25.25s.11.25.25.25.25-.11.25-.25c0-.14-.11-.25-.25-.25h0Z"/>
    <path class="cls-1" d="M14.81,16.97c-1.58,0-2.86-1.28-2.86-2.86s1.28-2.86,2.86-2.86,2.86,1.28,2.86,2.86-1.28,2.86-2.86,2.86ZM14.81,11.51c-1.44,0-2.6,1.17-2.6,2.6s1.17,2.6,2.6,2.6,2.6-1.17,2.6-2.6-1.17-2.6-2.6-2.6Z"/>
    <path class="cls-1" d="M18.13,20.53c-.14,0-.25.11-.25.25s.11.25.25.25.25-.11.25-.25c0-.16-.11-.25-.25-.25h0Z"/>
    <path class="cls-1" d="M12.33,21.81c-.14,0-.25.11-.25.25s.11.25.25.25.25-.11.25-.25-.11-.25-.25-.25h0Z"/>
    <path class="cls-1" d="M5.78,20.19c-.14,0-.25.11-.25.25s.11.25.25.25.25-.11.25-.25-.11-.25-.25-.25h0Z"/>
    <path class="cls-1" d="M8.15,16.67c-.14,0-.25.11-.25.25s.11.25.25.25.25-.11.25-.25-.11-.25-.25-.25h0Z"/>
    <path class="cls-1" d="M3.05,15.52c-.14,0-.25.11-.25.25s.11.25.25.25.25-.11.25-.25-.11-.25-.25-.25h0Z"/>
    <path class="cls-1" d="M6.21,9.2c-.14,0-.25.11-.25.25s.11.25.25.25.25-.11.25-.25-.11-.25-.25-.25h0Z"/>
    <path class="cls-1" d="M12.62,6.89c-.14,0-.25.11-.25.25s.11.25.25.25.25-.11.25-.25-.11-.25-.25-.25h0Z"/>
  </g>
  <g>
    <path class="cls-2" d="M14.81,16.22c-1.16,0-2.11-.95-2.11-2.11s.95-2.11,2.11-2.11,2.11.95,2.11,2.11-.95,2.11-2.11,2.11ZM14.81,12.61c-.83,0-1.5.67-1.5,1.5s.67,1.5,1.5,1.5,1.5-.67,1.5-1.5-.67-1.5-1.5-1.5Z"/>
    <path class="cls-2" d="M8.15,17.98c-.59,0-1.07-.48-1.07-1.07s.48-1.07,1.07-1.07,1.07.48,1.07,1.07-.48,1.07-1.07,1.07ZM8.15,16.45c-.26,0-.47.21-.47.47s.21.47.47.47.47-.21.47-.47-.21-.47-.47-.47Z"/>
    <path class="cls-2" d="M5.78,21.5c-.59,0-1.07-.48-1.07-1.07s.48-1.07,1.07-1.07,1.07.48,1.07,1.07-.48,1.07-1.07,1.07ZM5.78,19.97c-.26,0-.47.21-.47.47s.21.47.47.47.47-.21.47-.47-.21-.47-.47-.47Z"/>
    <path class="cls-2" d="M12.33,23.11c-.59,0-1.07-.48-1.07-1.07s.48-1.07,1.07-1.07,1.07.48,1.07,1.07-.48,1.07-1.07,1.07ZM12.33,21.57c-.26,0-.47.21-.47.47s.21.47.47.47.47-.21.47-.47-.21-.47-.47-.47Z"/>
    <path class="cls-2" d="M18.13,21.82c-.59,0-1.07-.48-1.07-1.07s.48-1.07,1.07-1.07,1.07.48,1.07,1.07-.48,1.07-1.07,1.07ZM18.13,20.29c-.26,0-.47.21-.47.47s.21.47.47.47.47-.21.47-.47-.21-.47-.47-.47Z"/>
    <path class="cls-2" d="M19.37,25.25c-.59,0-1.07-.48-1.07-1.07s.48-1.07,1.07-1.07,1.07.48,1.07,1.07-.48,1.07-1.07,1.07ZM19.37,23.72c-.26,0-.47.21-.47.47s.21.47.47.47.47-.21.47-.47-.21-.47-.47-.47Z"/>
    <path class="cls-2" d="M23.52,25.7c-.59,0-1.07-.48-1.07-1.07s.48-1.07,1.07-1.07,1.07.48,1.07,1.07-.48,1.07-1.07,1.07ZM23.52,24.17c-.26,0-.47.21-.47.47s.21.47.47.47.47-.21.47-.47-.21-.47-.47-.47Z"/>
    <path class="cls-2" d="M27.65,22.47c-.59,0-1.07-.48-1.07-1.07s.48-1.07,1.07-1.07,1.07.48,1.07,1.07-.48,1.07-1.07,1.07ZM27.65,20.94c-.26,0-.47.21-.47.47s.21.47.47.47.47-.21.47-.47-.21-.47-.47-.47Z"/>
    <path class="cls-2" d="M28.17,16.47c-.59,0-1.07-.48-1.07-1.07s.48-1.07,1.07-1.07,1.07.48,1.07,1.07-.48,1.07-1.07,1.07ZM28.17,14.94c-.26,0-.47.21-.47.47s.21.47.47.47.47-.21.47-.47-.21-.47-.47-.47Z"/>
    <path class="cls-2" d="M23.2,17.87c-.59,0-1.07-.48-1.07-1.07s.48-1.07,1.07-1.07,1.07.48,1.07,1.07-.48,1.07-1.07,1.07ZM23.2,16.34c-.26,0-.47.21-.47.47s.21.47.47.47.47-.21.47-.47-.21-.47-.47-.47Z"/>
    <path class="cls-2" d="M23.81,10.83c-.59,0-1.07-.48-1.07-1.07s.48-1.07,1.07-1.07,1.07.48,1.07,1.07-.48,1.07-1.07,1.07ZM23.81,9.3c-.26,0-.47.21-.47.47s.21.47.47.47.47-.21.47-.47-.21-.47-.47-.47Z"/>
    <path class="cls-2" d="M18.8,8.03c-.59,0-1.07-.48-1.07-1.07s.48-1.07,1.07-1.07,1.07.48,1.07,1.07-.48,1.07-1.07,1.07ZM18.8,6.5c-.26,0-.47.21-.47.47s.21.47.47.47.47-.21.47-.47-.21-.47-.47-.47Z"/>
    <path class="cls-2" d="M12.62,8.21c-.59,0-1.07-.48-1.07-1.07s.48-1.07,1.07-1.07,1.07.48,1.07,1.07-.48,1.07-1.07,1.07ZM12.62,6.68c-.26,0-.47.21-.47.47s.21.47.47.47.47-.21.47-.47-.21-.47-.47-.47Z"/>
    <path class="cls-2" d="M6.21,10.51c-.59,0-1.07-.48-1.07-1.07s.48-1.07,1.07-1.07,1.07.48,1.07,1.07-.48,1.07-1.07,1.07ZM6.21,8.98c-.26,0-.47.21-.47.47s.21.47.47.47.47-.21.47-.47-.21-.47-.47-.47Z"/>
    <path class="cls-2" d="M3.05,16.83c-.59,0-1.07-.48-1.07-1.07s.48-1.07,1.07-1.07,1.07.48,1.07,1.07-.48,1.07-1.07,1.07ZM3.05,15.3c-.26,0-.47.21-.47.47s.21.47.47.47.47-.21.47-.47-.21-.47-.47-.47Z"/>
    <path class="cls-2" d="M14.81,18.91c-.39,0-.8-.05-1.18-.14-.23-.05-.41-.27-.41-.54v-.29l-.21.21c-.17.17-.42.21-.64.1h-.02c-.67-.42-1.24-.99-1.65-1.66-.14-.21-.11-.5.08-.7l.21-.21h-.31c-.23,0-.44-.14-.53-.37v-.04c-.11-.39-.16-.77-.16-1.18s.05-.8.14-1.18c.05-.23.28-.41.54-.41h.31l-.21-.21c-.17-.17-.21-.4-.11-.64l.02-.04c.41-.67.98-1.24,1.65-1.65.21-.15.52-.1.68.1l.2.2v-.31c0-.23.14-.44.37-.53h.04c.39-.11.77-.16,1.18-.16s.8.05,1.18.14c.23.05.41.27.41.54v.31l.21-.21c.17-.17.42-.21.64-.1h.02c.67.42,1.24.99,1.65,1.66.14.21.11.5-.08.7l-.21.21h.31c.23,0,.44.14.53.37v.04c.11.39.16.77.16,1.18s-.05.8-.14,1.18c-.05.23-.28.41-.54.41h-.29l.21.21c.17.17.21.4.11.64l-.02.04c-.41.67-.98,1.24-1.65,1.65-.1.07-.23.1-.36.08-.13-.02-.24-.08-.32-.18l-.2-.2v.31c0,.23-.14.44-.37.53l-.06.02c-.46.08-.82.12-1.18.12ZM13.82,18.19c.33.08.66.11.98.11.31,0,.61-.03,1.01-.1v-.8l.17-.08c.06-.03.11-.05.16-.07.04-.01.07-.03.11-.04l.19-.1.58.58c.56-.35,1.04-.83,1.39-1.39l-.59-.59.1-.19c.04-.08.08-.15.09-.21l.06-.23h.84c.08-.33.11-.66.11-.98s-.04-.66-.11-.98h-.81l-.08-.17c-.03-.06-.05-.11-.07-.16-.01-.04-.03-.07-.04-.11l-.1-.19.58-.58c-.35-.56-.83-1.04-1.39-1.39l-.58.58-.19-.1c-.07-.04-.15-.08-.21-.09l-.23-.06v-.86c-.66-.16-1.33-.15-1.97,0v.81l-.17.08c-.05.03-.11.05-.16.07-.04.01-.07.03-.11.04l-.19.1-.58-.58c-.56.35-1.04.83-1.39,1.39l.58.58-.1.19c-.04.08-.08.15-.09.21l-.06.23h-.86c-.08.33-.11.66-.11.98s.04.66.11.98h.81l.08.17c.03.06.05.11.07.16.01.04.03.07.04.11l.1.19-.58.58c.35.56.83,1.04,1.39,1.39l.58-.58.19.1c.08.04.15.08.21.09l.23.06v.83ZM13.76,18.18s0,0,0,0c0,0,0,0,0,0ZM18.89,15.13s0,0,0,0c0,0,0,0,0,0ZM10.73,13.05s0,0,0,0c0,0,0,0,0,0ZM15.85,9.99s0,0,0,0c0,0,0,0,0,0Z"/>
    <rect class="cls-2" x="1.59" y="12.22" width="5.65" height=".6" transform="translate(-8.68 10.33) rotate(-61.08)"/>
    <rect class="cls-2" x="6.72" y="7.88" width="5.33" height=".6" transform="translate(-2.05 3.25) rotate(-17.74)"/>
    <rect class="cls-2" x="13.38" y="6.75" width="4.65" height=".6" transform="translate(-.26 .61) rotate(-2.22)"/>
    <rect class="cls-2" x="21.04" y="6.01" width=".6" height="4.33" transform="translate(2.65 21.31) rotate(-56.06)"/>
    <rect class="cls-2" x="25.69" y="9.76" width=".6" height="5.64" transform="translate(-2.43 17.7) rotate(-36.04)"/>
    <rect class="cls-2" x="25.83" y="18.07" width="4.64" height=".6" transform="translate(5.62 43.31) rotate(-81.05)"/>
    <rect class="cls-2" x="23.76" y="22.76" width="3.72" height=".6" transform="translate(-8.71 19.98) rotate(-36.86)"/>
    <rect class="cls-2" x="21.14" y="23.08" width=".6" height="2.66" transform="translate(-6.25 41.39) rotate(-80.22)"/>
    <rect class="cls-2" x="18.57" y="21.29" width=".6" height="2.24" transform="translate(-7.98 10.69) rotate(-26.31)"/>
    <rect class="cls-2" x="17.85" y="20.18" width="6.81" height=".6" transform="translate(-6.57 30.33) rotate(-63.43)"/>
    <rect class="cls-2" x="22.89" y="17.57" width=".6" height="6.34" transform="translate(-.51 .58) rotate(-1.43)"/>
    <rect class="cls-2" x="25.06" y="16.8" width=".6" height="4.84" transform="translate(-6.32 22.21) rotate(-42.54)"/>
    <rect class="cls-2" x="23.87" y="15.85" width="3.68" height=".6" transform="translate(-2.66 5.35) rotate(-11.29)"/>
    <rect class="cls-2" x="20.37" y="12.87" width="5.73" height=".6" transform="translate(9.8 36.25) rotate(-89.33)"/>
    <path class="cls-2" d="M9.55,12.55c-.07,0-.13-.02-.19-.07l-2.82-2.26c-.13-.1-.15-.29-.05-.42.1-.13.29-.15.42-.05l2.82,2.26c.13.1.15.29.05.42-.06.07-.15.11-.24.11Z"/>
    <rect class="cls-2" x="6.74" y="10.08" width=".6" height="6.23" transform="translate(-3.28 2.37) rotate(-15.55)"/>
    <rect class="cls-2" x="5.32" y="14.43" width=".6" height="3.73" transform="translate(-11.47 18.55) rotate(-78.49)"/>
    <rect class="cls-2" x="3.8" y="16.24" width=".6" height="4.06" transform="translate(-8.85 4.75) rotate(-31.13)"/>
    <rect class="cls-2" x="9.9" y="16.95" width=".6" height="5.12" transform="translate(-10.26 11.38) rotate(-40.71)"/>
    <rect class="cls-2" x="5.62" y="18.4" width="2.74" height=".6" transform="translate(-12.37 13.83) rotate(-55.4)"/>
    <rect class="cls-2" x="8.72" y="18.81" width=".6" height="5.3" transform="translate(-14.05 24.6) rotate(-74.96)"/>
    <path class="cls-2" d="M12.6,21.57s-.08,0-.12-.02c-.15-.07-.22-.24-.16-.4l.8-1.88c.07-.15.24-.22.4-.16.15.07.22.24.16.4l-.8,1.88c-.05.11-.16.18-.28.18Z"/>
    <path class="cls-2" d="M17.72,20.42c-.11,0-.21-.06-.26-.15l-.62-1.09c-.08-.15-.03-.33.11-.41.14-.08.33-.03.41.11l.62,1.09c.08.15.03.33-.11.41-.05.03-.1.04-.15.04Z"/>
    <rect class="cls-2" x="13" y="21.19" width="4.47" height=".6" transform="translate(-4.76 4.34) rotate(-14.04)"/>
    <path class="cls-2" d="M22.62,16.61s-.08,0-.12-.03l-2.54-1.12c-.15-.07-.22-.25-.15-.4.07-.15.25-.22.4-.15l2.54,1.12c.15.07.22.25.15.4-.05.11-.16.18-.28.18Z"/>
    <rect class="cls-2" x="18.07" y="18.32" width="4.97" height=".6" transform="translate(-7.14 17.13) rotate(-39.1)"/>
    <path class="cls-2" d="M19.69,11.69c-.12,0-.23-.07-.28-.18-.07-.15,0-.33.15-.4l3.36-1.51c.15-.07.33,0,.4.15.07.15,0,.33-.15.4l-3.36,1.51s-.08.03-.12.03Z"/>
    <path class="cls-2" d="M18.08,9.81s-.06,0-.09-.01c-.16-.05-.25-.22-.2-.38l.56-1.81c.05-.16.22-.25.38-.2.16.05.25.22.2.38l-.56,1.81c-.04.13-.16.21-.29.21Z"/>
    <path class="cls-2" d="M13.91,8.99c-.09,0-.18-.04-.24-.12l-.78-1c-.1-.13-.08-.32.05-.42.13-.1.32-.08.42.05l.78,1c.1.13.08.32-.05.42-.05.04-.12.06-.18.06Z"/>
    <path class="cls-2" d="M12.1,9.61s-.04,0-.06,0c-.16-.03-.27-.19-.24-.36l.29-1.44c.03-.16.19-.27.36-.24.16.03.27.19.24.36l-.29,1.44c-.03.14-.15.24-.3.24Z"/>
    <path class="cls-2" d="M8.42,16.49c-.07,0-.14-.02-.2-.07-.13-.11-.14-.3-.03-.43l.97-1.12c.11-.13.3-.14.43-.03.13.11.14.3.03.43l-.97,1.12c-.06.07-.14.11-.23.11Z"/>
    <path class="cls-2" d="M10.09,17.53s-.01,0-.02,0l-1.21-.09c-.17-.01-.29-.16-.28-.32.01-.17.16-.29.32-.28l1.21.09c.17.01.29.16.28.32-.01.16-.14.28-.3.28Z"/>
  </g>
</svg>