<?xml version="1.0" encoding="UTF-8"?>
<svg id="OBJECT" xmlns="http://www.w3.org/2000/svg" viewBox="0 0 32 32">
  <defs>
    <style>
      .cls-1 {
        fill: #fe8e0e;
      }

      .cls-2 {
        fill: #fe6600;
      }

      .cls-3 {
        fill: #fe8d0e;
      }

      .cls-4 {
        fill: #fe6601;
      }

      .cls-5 {
        fill: #fefefe;
      }
    </style>
  </defs>
  <path class="cls-5" d="M15.1,16.23l.02.31c0-.2,0-.28-.02-.31Z"/>
  <path class="cls-2" d="M29.01,15.4c-1.81-.43-3.68-.89-5.56-.78-.79,1.81-3.55,6.11-5.56,6.53-2.8.59-2.91-2.67-2.77-4.61l-.02-.31c-.04-.06-.15.15-.29.24-1.35.8-2.82,1.54-4.01,2.56-.34.3-.86.74-.96,1.2,1.4,5.63,6.21,6.88,11.26,4.77,3.9-1.63,6.91-5.42,8.45-9.26.09-.5-.24-.27-.53-.34Z"/>
  <path class="cls-2" d="M29.59,15.64s-.03.07-.04.1c.02-.04.03-.07.04-.1Z"/>
  <path class="cls-3" d="M5.66,15.34c.34-.32,1.21-.81,1.43-1.14.3-.46.76-2.55,1.11-3.38.53-1.23,1.34-2.32,1.79-3.58-.26-.24-2.28,1.18-2.64,1.45-1.93,1.43-3.94,3.61-4.92,5.82-.76,1.72-1.03,3.52-.93,5.4.3.07.31-.1.45-.27,1.32-1.54,2.15-2.84,3.71-4.3Z"/>
  <path class="cls-3" d="M12.91,11.05c1.19-.41,2.43-.65,3.65-1,.89-1.93,1.71-3.91,2.89-5.68-.41-.33-5.13.62-5.69,1.12-.46.41-1.58,2.26-1.92,2.89-.64,1.17-1.14,2.41-1.52,3.69.15.15,2.21-.87,2.6-1.01Z"/>
  <path class="cls-1" d="M22.65,4.37c1.89,1.28,2.28,3.63,1.93,5.76l6.08,1.93c.32-4.81-3.41-7.81-8.01-7.69Z"/>
  <path class="cls-1" d="M7.75,22.47c-.88-1.59-1.28-4.15-.96-5.93-.12-.13-1.05.67-1.21.8-.93.8-2.62,2.61-3.25,3.64-.53.85-.14,1.5.32,2.35.69,1.27,1.56,2.1,2.86,2.67l1.31-2.46.93-1.07Z"/>
  <path class="cls-3" d="M15.08,16l.02.23s.03.12.02.31l.8-4.49c-1.05.42-2.18.61-3.25,1-.46.17-2.62,1.09-2.85,1.32-.18.19-.49,2.76-.49,3.21,0,.91.29,1.8.5,2.64l.06-.78c1.44-1.5,3.39-2.53,5.19-3.45Z"/>
  <path class="cls-3" d="M10.79,19.03c1.19-1.02,2.67-1.76,4.01-2.56.15-.09.25-.29.29-.24l-.02-.23c-1.8.92-3.75,1.96-5.19,3.45l-.06.78c.1-.46.61-.91.96-1.2Z"/>
  <path class="cls-3" d="M30.17,13.84c-.83-.41-5.32-2.15-5.89-1.76-.11.08-.67,2.19-.82,2.54.13-.14.27-.3.47-.34.58-.1,5.45.61,5.62.84.12.13.13.3.05.51.2-.45.77-1.53.58-1.8Z"/>
  <path class="cls-3" d="M29.54,15.13c-.17-.23-5.04-.94-5.62-.84-.19.03-.34.19-.47.34,1.88-.11,3.74.36,5.56.78.29.07.63-.16.53.34.01-.03.03-.06.04-.1.08-.21.06-.38-.05-.51Z"/>
  <path class="cls-4" d="M11.39,25.32c-1.56-.77-2.72-1.18-3.64-2.85.08.42-.14.83-.67,1.25l-1.18,2.23-.39.04c1.6.7,2.74.85,4.45.37.34-.1,2.16-.68,1.43-1.04Z"/>
  <path class="cls-4" d="M7.07,23.73c.53-.42.76-.84.67-1.25l-.93,1.07-1.31,2.46.39-.04,1.18-2.23Z"/>
</svg>