<svg fill="#000000" xmlns="http://www.w3.org/2000/svg"  viewBox="0 0 48 48" width="24px" height="24px"><path d="M 23.810547 7.109375 C 15.813025 7.109375 7.8167322 10.153971 1.7265625 16.244141 A 2.0002 2.0002 0 1 0 4.5546875 19.072266 C 15.206348 8.4206045 32.416699 8.4206045 43.068359 19.072266 A 2.0002 2.0002 0 1 0 45.896484 16.244141 C 39.806315 10.153971 31.808069 7.109375 23.810547 7.109375 z M 23.810547 16.027344 C 18.09553 16.027344 12.381884 18.202101 8.0332031 22.550781 A 2.0002 2.0002 0 1 0 10.861328 25.378906 C 18.029967 18.210267 29.59308 18.210267 36.761719 25.378906 A 2.0002 2.0002 0 1 0 39.589844 22.550781 C 35.241163 18.202101 29.525563 16.027344 23.810547 16.027344 z M 23.810547 24.947266 C 20.378044 24.947266 16.945099 26.250213 14.337891 28.857422 A 2.000477 2.000477 0 1 0 17.167969 31.685547 C 20.853552 27.999964 26.769495 27.999964 30.455078 31.685547 A 2.0002 2.0002 0 1 0 33.283203 28.857422 C 30.675995 26.250213 27.243049 24.947266 23.810547 24.947266 z M 24 34 A 4 4 0 0 0 24 42 A 4 4 0 0 0 24 34 z"/></svg>